<svg width="24" height="25" viewBox="0 0 24 25" fill="none" xmlns="http://www.w3.org/2000/svg">
<path d="M19.1572 8.98316C19.1682 9.15675 19.1682 9.33034 19.1682 9.50553C19.1682 14.8436 15.4534 21 8.6607 21V20.9968C6.65411 21 4.68921 20.3712 3 19.1857C3.29177 19.2241 3.58501 19.2433 3.87898 19.2441C5.54186 19.2457 7.15722 18.6353 8.46545 17.5114C6.88519 17.4786 5.49945 16.3515 5.01536 14.706C5.56892 14.8228 6.13931 14.7988 6.68263 14.6364C4.95978 14.2556 3.72029 12.5997 3.72029 10.6767C3.72029 10.6591 3.72029 10.6423 3.72029 10.6255C4.23364 10.9382 4.80841 11.1118 5.39634 11.131C3.77367 9.9447 3.27349 7.58325 4.25338 5.73696C6.12834 8.2608 8.8947 9.79511 11.8644 9.9575C11.5667 8.55439 11.9733 7.08408 12.9327 6.09774C14.4201 4.56824 16.7594 4.64663 18.1576 6.27293C18.9846 6.09454 19.7773 5.76256 20.5027 5.29219C20.2271 6.22733 19.6501 7.02168 18.8793 7.52645C19.6113 7.43206 20.3265 7.21767 21 6.89049C20.5042 7.70324 19.8797 8.41119 19.1572 8.98316Z" fill="black"/>
</svg>
