<svg viewBox="0 0 520 520" xmlns="http://www.w3.org/2000/svg">
<path d="M519.47 -0.280029H-0.279999V519.47H519.47V-0.280029Z" fill="#1f5088"/>
<path d="M399.34 520.56L115.79 519.97C115.53 519.97 115.28 519.85 115.12 519.65C114.96 519.45 114.89 519.18 114.95 518.93C146.9 373.14 188.1 352.75 189.84 351.95C189.94 351.9 190.06 351.87 190.17 351.87L337.22 347.77C337.3 347.76 337.43 347.78 337.52 347.82C338.16 348.04 353.31 353.7 367.93 394.63C383.16 437.26 397.96 501.19 400.2 519.6C400.23 519.85 400.15 520.09 399.99 520.27C399.82 520.45 399.58 520.56 399.34 520.56ZM116.85 518.26L398.36 518.84C395.76 499.32 381.24 437.01 366.31 395.2C352.74 357.21 338.58 350.15 337.08 349.49L190.41 353.58C187.69 355.04 147.59 378.75 116.85 518.26Z" fill="#002636"/>
<path d="M399.34 519.7C397 500.37 381.76 435.92 367.12 394.91C352.47 353.9 337.24 348.63 337.24 348.63L190.19 352.73C190.19 352.73 148.01 372.06 115.79 519.11L399.34 519.7Z" fill="#DFDFDF"/>
<path d="M397.72 508.23C397.06 504.42 396.32 500.64 395.57 496.85C394.04 489.28 392.42 481.73 390.66 474.21C387.12 459.18 383.29 444.22 379.1 429.35C376.94 421.93 374.75 414.52 372.36 407.17C370.01 399.81 367.49 392.49 364.57 385.29C361.64 378.11 358.29 371.06 354.07 364.47C351.98 361.17 349.63 358.02 347.01 355.08C345.68 353.62 344.3 352.21 342.76 350.94C341.2 349.65 339.69 348.48 337.59 347.58C337.49 347.54 337.38 347.51 337.26 347.52H337.2C312.69 348.2 288.19 349.19 263.69 350.02C251.44 350.47 239.19 350.88 226.93 351.24C214.68 351.61 202.43 352.04 190.17 352.29H190.15C190.1 352.29 190.05 352.3 190 352.33C188.22 353.29 186.66 354.44 185.14 355.68L182.91 357.58C182.2 358.24 181.52 358.94 180.82 359.62C180.14 360.31 179.41 360.97 178.77 361.69L176.85 363.88L174.93 366.07C174.31 366.82 173.74 367.6 173.14 368.36C171.97 369.91 170.75 371.42 169.62 372.99L166.37 377.81L164.74 380.22C164.22 381.04 163.74 381.88 163.24 382.71L160.27 387.71C152.59 401.18 146.31 415.38 140.61 429.77C139.21 433.38 137.97 437.05 136.64 440.68L134.67 446.14L133.69 448.87L132.81 451.64L129.31 462.71C128.14 466.4 126.95 470.08 125.97 473.83L122.88 485.02C121.88 488.76 120.77 492.47 119.93 496.25L114.55 518.84C114.53 518.93 114.52 519.03 114.52 519.12C114.52 519.8 115.07 520.36 115.75 520.37H115.78C132.24 520.07 151.62 520.35 186.94 520.57C210.64 520.72 234.41 520.65 258.04 520.48L399.43 519.78C399.03 515.84 398.39 512.02 397.72 508.23ZM257.08 518.33C233.46 518.06 209.96 518.07 186.41 517.94C163.39 517.82 140.4 517.83 117.37 517.85L122.26 496.83C123.08 493.06 124.16 489.35 125.14 485.62L128.11 474.43C129.04 470.68 130.19 467 131.32 463.31L134.68 452.24L135.52 449.47L136.47 446.74L138.37 441.28C139.65 437.64 140.86 433.98 142.21 430.37C147.71 415.97 154.06 402.17 161.61 388.72L164.52 383.73C165.01 382.9 165.48 382.06 165.99 381.24L171.09 374.37C172.2 372.8 174.06 370.75 175.21 369.21C175.8 368.45 176.36 367.66 176.97 366.92L178.86 364.74L180.75 362.56C181.39 361.84 182.09 361.19 182.76 360.5C183.44 359.83 184.11 359.13 184.8 358.47L186.97 356.59C188.43 355.37 190.55 354.68 192.16 353.79L192.89 353.47C205.14 353.04 214.75 352.48 227 352.16C239.25 351.84 251.51 351.56 263.77 351.33C288.2 350.8 312.7 350.17 337.12 349.49C338.54 350.13 340.03 351.5 341.37 352.65C342.8 353.84 344.12 355.2 345.38 356.6C347.87 359.43 350.14 362.5 352.17 365.72C356.29 372.13 359.66 379.05 362.58 386.13C365.5 393.22 368.05 400.48 370.44 407.81C372.87 415.12 375.1 422.5 377.29 429.88C381.66 444.66 385.71 459.55 389.45 474.51C391.28 482 393.15 489.48 394.83 497.01C396.51 504.49 398.1 512.18 399.28 519.61L257.08 518.33Z" fill="#002636"/>
<path d="M185.38 358.16C185.38 358.16 224.37 378.66 278.59 378.01C278.59 378.01 308.94 379.99 341.45 352.73C341.45 352.73 339.4 350.62 337.08 349.49C334.74 348.36 197.65 351.87 193.25 353.24C188.85 354.62 185.38 358.16 185.38 358.16Z" fill="#BDC5C9"/>
<path d="M200.36 355.58C200.36 355.58 246.35 373.25 281.94 368.65C317.53 364.05 334.95 349.77 334.95 349.77L298.88 360.42L281.69 364.78L257.46 364.02L234.73 361.88L200.36 355.58Z" fill="#A2A8AA"/>
<path d="M81.22 188.89C81.22 188.89 109.73 114.29 222.61 104.14C335.49 93.9899 394.07 183.82 392.51 249.82C390.95 315.82 372.2 343.17 293.7 362.3C293.7 362.3 284.52 363.86 277.49 364.16C270.46 364.45 150.95 367.97 124.58 297.67C124.58 297.67 108.96 252.56 129.66 211.94C129.66 211.94 143.53 185.77 133.96 180.3C120.51 172.62 66.38 230.29 81.22 188.89Z" fill="#DFDFDF"/>
<path d="M81.1 188.84C83.5 183.13 86.65 177.79 90.11 172.67C93.58 167.56 97.42 162.7 101.57 158.13C109.91 149.02 119.34 140.89 129.62 134.02C134.72 130.51 140.12 127.49 145.57 124.56C151.09 121.77 156.7 119.14 162.48 116.91C174 112.39 185.96 108.96 198.11 106.58C210.27 104.25 222.59 102.76 235 102.33C247.4 101.91 259.86 102.85 272.06 105.2C284.25 107.56 296.19 111.33 307.42 116.66C318.65 121.95 329.2 128.67 338.75 136.58C357.79 152.48 372.74 173.1 382.19 195.95C383.42 198.79 384.4 201.72 385.48 204.62C386.39 207.58 387.44 210.49 388.17 213.5C389.85 219.45 391.02 225.54 391.91 231.66C392.76 237.79 393.05 243.99 392.99 250.18C392.85 256.35 392.55 262.53 392.01 268.69C390.91 280.98 388.73 293.33 384.02 304.87C381.66 310.62 378.65 316.13 374.9 321.11C371.17 326.11 366.76 330.58 361.92 334.5C352.2 342.33 340.96 347.99 329.43 352.47C317.89 357.02 290.25 366.55 269.44 364.52C261.26 364.49 253.09 364.08 244.94 363.39C228.65 361.97 212.42 359.33 196.65 354.77C180.94 350.16 165.5 344.64 152.11 334.92C145.45 330.05 139.39 324.3 134.35 317.73C129.31 311.15 125.32 303.81 122.68 295.87C118.34 279.98 116.84 263.37 118.58 247.01C118.86 244.97 118.96 242.92 119.41 240.9L120.56 234.84C121.64 230.87 122.56 226.86 124.09 223.04C125.33 219.12 127.26 215.46 128.94 211.72C130.81 208.14 132.47 204.44 133.88 200.65C135.25 196.86 136.43 192.95 136.74 188.98C136.88 187.01 136.75 184.98 135.98 183.24C135.21 181.51 133.59 180.21 131.68 180.06C129.76 179.88 127.77 180.37 125.88 181C123.98 181.64 122.13 182.47 120.32 183.38C116.7 185.2 113.2 187.28 109.75 189.44C102.83 193.71 96.16 198.44 88.84 202.1C86.99 202.97 85.1 203.81 83.03 204.1C82.02 204.22 80.87 204.22 79.97 203.55C79.05 202.91 78.71 201.79 78.6 200.77C78.39 198.69 78.84 196.66 79.31 194.68C79.77 192.71 80.41 190.77 81.1 188.84ZM81.34 188.93C80.67 190.85 80.04 192.78 79.56 194.75C79.1 196.71 78.68 198.74 78.9 200.73C79.01 201.7 79.35 202.71 80.15 203.26C80.92 203.84 81.99 203.85 82.96 203.73C84.94 203.44 86.82 202.6 88.64 201.73C95.88 198.05 102.53 193.28 109.43 188.96C112.88 186.79 116.34 184.63 119.98 182.74C121.8 181.8 123.66 180.93 125.6 180.24C127.54 179.56 129.59 179 131.75 179.17C133.95 179.29 135.97 180.85 136.86 182.82C137.77 184.8 137.92 186.98 137.81 189.05C137.55 193.22 136.4 197.21 135.07 201.09C133.7 204.96 132.08 208.73 130.24 212.4C128.65 216.11 126.81 219.72 125.66 223.6C124.22 227.38 123.38 231.34 122.39 235.25L121.36 241.21C121.16 242.2 121.04 243.2 120.95 244.21L120.63 247.22C119.08 263.28 120.73 279.67 125.13 295.14C127.66 302.62 131.54 309.8 136.41 316.13C141.29 322.47 147.17 328.05 153.67 332.78C166.72 342.23 181.83 348.59 197.33 353.11C212.86 357.65 228.93 360.35 245.08 361.83C253.16 362.55 261.27 362.99 269.37 363.05C273.43 363.07 277.47 363.07 281.46 362.7C285.47 362.34 289.5 361.8 293.48 361.16L293.4 361.18C305.34 358.25 317.23 355.02 328.69 350.61C340.15 346.27 351.27 340.8 360.86 333.21C365.64 329.42 369.99 325.08 373.69 320.22C377.41 315.38 380.4 309.99 382.76 304.35C387.47 293.03 389.72 280.81 390.89 268.59C391.47 262.47 391.81 256.32 391.99 250.16C392.09 244.02 391.84 237.87 391.04 231.77C390.18 225.69 389.12 219.61 387.39 213.71C386.65 210.72 385.59 207.83 384.68 204.9C383.6 202.02 382.6 199.11 381.37 196.29C371.93 173.57 356.78 153.28 337.75 137.79C318.68 122.32 295.71 111.92 271.64 107.39C259.6 105.1 247.31 104.3 235.06 104.57C222.81 104.91 210.56 106.3 198.49 108.53C174.39 112.99 150.73 121.25 130.1 134.75C119.76 141.42 110.24 149.38 101.92 158.45C97.76 162.99 93.9 167.81 90.41 172.88C86.93 177.95 83.75 183.28 81.34 188.93Z" fill="#002636"/>
<path d="M88.84 176.45C88.84 176.45 85.13 187.91 87.55 190.81C89.97 193.71 127.09 167.41 144.84 175.64C144.84 175.64 145.72 176.93 145.81 180.32C145.89 183.47 145.25 189.03 144.44 193.88C143.63 198.72 137.34 214.68 134.84 224.54C127.26 254.39 124.35 317.33 176.15 345.41L170.34 343.8L151.78 333.79L134.84 316.04L125.8 301.19L122.73 290.38L119.34 274.56L119.02 260.52L119.83 243.9L122.25 231.31L125.96 219.69L130.32 210.17L134.19 202.59L136.21 195.65L137.81 189.06L136.85 183.71L134.51 180.4L127.65 179.75L123.53 181.44L112 187.18L99.65 195.01L94.57 198.08L86.9 202.36L81.82 203.09L79.88 201.07C79.88 201.07 79.07 196.39 79.32 196.23C79.57 196.07 81.66 188.24 81.66 188.24C81.66 188.24 84.65 182.91 84.81 182.67C84.97 182.43 88.84 176.45 88.84 176.45Z" fill="#BDC5C9"/>
<path d="M127.65 179.76L131.93 178.07L137.3 177.24L142.82 177.31C142.82 177.31 144.2 177.48 144.14 178.82C144.08 180.15 136.94 194.98 136.94 194.98L137.42 189.84L136.88 184.15L134.52 180.42L130.92 178.96L127.65 179.76Z" fill="#A2A8AA"/>
<path d="M129.14 178.26C130.64 177.89 132.15 177.6 133.67 177.4C135.19 177.19 136.72 177.07 138.25 177.05C139.78 177 141.3 177.13 142.81 177.3C141.29 177.28 139.78 177.3 138.27 177.48C136.77 177.64 135.28 177.89 133.82 178.24C132.36 178.58 130.91 178.99 129.5 179.49C128.1 179.98 124.43 181.25 124.22 180.83C124.01 180.41 123.29 180.53 129.14 178.26Z" fill="#002636"/>
<path d="M392.23 240.84C392.23 240.84 387.94 279.32 381.48 297.08C375.02 314.84 361.9 334.5 361.9 334.5L368.34 327.5L375.6 319.59L381.41 309.1L385.93 297.8L389 287.15L390.78 275.21L391.75 262.14L392.56 248.58L392.23 240.84Z" fill="#BDC5C9"/>
<path d="M124.08 223.05C124.08 223.05 118.78 251.73 124.59 281.02C130.4 310.31 137.66 320.72 137.66 320.72L131.73 312.37L125.8 301.19L121.32 287.43L119.38 272.54L119.02 255.96L119.83 243.9L124.08 223.05Z" fill="#A2A8AA"/>
<path d="M199.14 517.66L199.13 520.65L116.44 520.37L118.32 514.06L181.39 513.97L199.14 517.66Z" fill="#DFDFDF"/>
<path d="M133.67 455.57C136.39 450.53 125.3 504.75 128.2 520.4L116.44 520.38C116.44 520.37 130.95 460.61 133.67 455.57Z" fill="#BDC5C9"/>
<path d="M399.24 519.61L399.34 520.56L356.71 520.49L356.75 519.3L356.76 518.98L399.24 519.61Z" fill="#DFDFDF"/>
<path d="M339.09 393.12C339.09 393.12 346.08 402.06 352.37 424.33C358.66 446.6 364.63 500.98 365.6 517.93L365.63 520.53L356.66 520.48L355.92 516.88V508.65L355.44 489.69L354.15 471.54L351.97 451.45L348.34 431.12L344.87 414.58L341.8 401.83L339.09 393.12Z" fill="#BDC5C9"/>
<path d="M352.49 465.23C353 471.32 353.55 477.41 353.83 483.52C354.25 489.62 354.46 495.73 354.74 501.83C355.11 507.61 354.14 514.38 354.37 520.18L356.73 520.48C356.77 517.73 357.03 513.62 357.05 510.87C357.07 507.8 357.09 504.73 356.98 501.67L356.66 492.47C356.56 489.4 356.25 486.35 356.05 483.29C355.64 477.17 354.95 471.07 354.31 464.97C352.89 452.78 351.08 440.64 348.66 428.61C346.15 416.61 343.26 404.66 339.08 393.12C339.06 393.07 339 393.04 338.94 393.06C338.89 393.08 338.86 393.14 338.88 393.2C342.79 404.8 344.53 416.8 346.76 428.81C348.99 440.84 351.28 453.07 352.49 465.23Z" fill="#002636"/>
<path d="M201.84 517.99V520.65L354.39 520.49L354.34 518.85L223.06 515.56L201.84 517.99Z" fill="#DFDFDF"/>
<path d="M217.28 404.99C217.28 404.99 220.88 403.54 219.59 411.93C218.3 420.32 213.84 494.52 215.13 520.66H201.84L200.87 496.49L204.42 450.66L207.08 432.83L209.08 422L212.41 412.97L213.73 409.71L215.34 406.39L217.28 404.99Z" fill="#C2CACC"/>
<path d="M201.81 519.11C201.81 518.62 201.8 518.13 201.81 517.64C201.89 504.85 202.12 492.05 202.84 479.26C203.59 466.48 204.06 453.7 205.71 441.01C206.52 434.66 207.49 428.33 209.03 422.12C209.8 419.02 210.66 415.93 211.76 412.93C212.3 411.43 212.93 409.96 213.66 408.54C214.03 407.84 214.43 407.14 214.9 406.51C215.36 405.89 215.91 405.23 216.58 404.96L216.62 404.94C216.67 404.92 216.7 404.86 216.68 404.81C216.66 404.76 216.6 404.73 216.55 404.75C215.7 405.06 215.2 405.72 214.69 406.35C214.19 406.99 213.77 407.68 213.38 408.39C212.61 409.81 211.94 411.28 211.37 412.78C210.21 415.78 209.27 418.86 208.43 421.96C206.75 428.16 205.64 434.52 204.69 440.86C202.83 453.57 201.56 466.35 200.61 479.15C199.67 491.95 198.97 504.79 199.16 517.65C199.17 518.13 199.19 518.62 199.2 519.11H201.81Z" fill="#002636"/>
<path opacity="0.32" d="M391.35 228.25L385.48 204.62L376.1 183.47L362.54 162.41L344.92 143.87L330.59 130.7L307.41 116.66L286.29 109.64L269.59 105.77L258.21 104.32L241.27 103.11L225.05 103.59L198.11 106.59L183.9 111.58C183.9 111.58 234.25 101.9 273.95 113.03C313.65 124.17 356.01 160.32 369.45 213.17C369.45 213.17 377.37 243.39 378.12 264.04C378.87 284.69 370.33 324.76 348.51 342.27L357.47 337.19L368.36 327.51L376.35 318.31L382.16 307.42L386.76 293.62L389.42 285.63L392.01 268.7L392.09 243.75L391.35 228.25Z" fill="#BDC5C9"/>
<path d="M345.88 142.56C323.42 121.53 283.79 97.6199 222.63 103.13C164.14 108.39 128.68 131.24 109.23 149.49C88.13 169.28 80.77 188.11 80.7 188.3V188.31C77.65 196.83 77.3 201.65 79.62 203.49C83.41 206.5 93.08 200.27 104.27 193.05C115.6 185.75 128.46 177.48 133.71 180.49C142.63 185.59 129.3 211.01 129.16 211.27C108.57 251.67 123.89 297.05 124.05 297.52C147.52 360.12 244.02 364.55 270.82 364.55C274.57 364.55 276.96 364.46 277.59 364.44C284.58 364.15 293.79 362.6 293.92 362.57C369.4 345.18 391.58 318.82 393.22 249.47C394.12 211.7 375.98 170.74 345.88 142.56ZM391.94 249.44C391.09 285.36 385.18 306.63 371.54 322.86C357.31 339.79 333.28 351.65 293.67 361.3C293.58 361.32 284.45 362.86 277.54 363.15C272.42 363.37 151.7 367.56 125.27 297.09C125.11 296.64 109.97 251.78 130.31 211.87C130.89 210.78 144.35 185.08 134.36 179.37C133.4 178.82 132.28 178.58 131.01 178.58C124.37 178.58 115 183.85 104.76 190.45C94.88 196.81 84.66 203.39 81.61 200.96C80.39 199.99 79.66 196.82 83.1 187.23C83.52 186.15 111.84 114.4 222.76 104.42C283.47 98.9599 322.74 122.66 345.02 143.51C374.84 171.44 392.82 212.03 391.94 249.44Z" fill="#002636"/>
</svg>
