<svg width="220" height="220" viewBox="0 0 220 220" fill="none" xmlns="http://www.w3.org/2000/svg">
<g clip-path="url(#clip0_100_15293)">
<rect width="220" height="220" rx="110" fill="#FA6B6B"/>
<path d="M179.535 219.829L50.1878 219.56C50.0692 219.56 49.9552 219.505 49.8822 219.414C49.8092 219.323 49.7773 219.199 49.8046 219.085C64.3793 152.58 83.1736 143.279 83.9673 142.914C84.0129 142.891 84.0676 142.877 84.1178 142.877L151.198 141.007C151.234 141.002 151.294 141.012 151.335 141.03C151.627 141.13 158.538 143.712 165.207 162.383C172.154 181.83 178.906 210.993 179.927 219.391C179.941 219.505 179.905 219.614 179.832 219.697C179.754 219.779 179.645 219.829 179.535 219.829ZM50.6714 218.78L179.088 219.044C177.902 210.14 171.278 181.716 164.468 162.643C158.278 145.313 151.818 142.093 151.134 141.792L84.2273 143.657C82.9865 144.323 64.6941 155.139 50.6714 218.78Z" fill="#002636"/>
<path d="M179.536 219.437C178.468 210.619 171.516 181.218 164.838 162.511C158.155 143.803 151.208 141.399 151.208 141.399L84.1276 143.27C84.1276 143.27 64.8863 152.087 50.1885 219.167L179.536 219.437Z" fill="#DFDFDF"/>
<path d="M178.797 214.204C178.496 212.466 178.158 210.742 177.816 209.013C177.118 205.56 176.379 202.116 175.576 198.685C173.962 191.829 172.215 185.005 170.303 178.221C169.318 174.837 168.319 171.456 167.229 168.104C166.157 164.746 165.007 161.407 163.675 158.123C162.338 154.847 160.81 151.631 158.885 148.625C157.932 147.12 156.86 145.683 155.665 144.342C155.058 143.676 154.428 143.032 153.726 142.453C153.014 141.865 152.325 141.331 151.367 140.92C151.322 140.902 151.272 140.888 151.217 140.893H151.19C140.009 141.203 128.833 141.655 117.656 142.033C112.068 142.239 106.48 142.426 100.888 142.59C95.2995 142.759 89.7114 142.955 84.1187 143.069H84.1096C84.0868 143.069 84.064 143.073 84.0412 143.087C83.2292 143.525 82.5176 144.05 81.8242 144.615L80.8069 145.482C80.483 145.783 80.1729 146.102 79.8535 146.413C79.5433 146.727 79.2103 147.028 78.9184 147.357L78.0425 148.356L77.1667 149.355C76.8839 149.697 76.6238 150.053 76.3501 150.4C75.8164 151.107 75.2599 151.795 74.7444 152.512L73.2619 154.71L72.5183 155.81C72.2811 156.184 72.0621 156.567 71.834 156.946L70.4792 159.226C66.9758 165.371 64.1111 171.849 61.5109 178.413C60.8722 180.06 60.3066 181.734 59.6999 183.39L58.8012 185.881L58.3542 187.126L57.9527 188.39L56.3561 193.439C55.8224 195.123 55.2796 196.801 54.8325 198.512L53.423 203.617C52.9668 205.323 52.4604 207.015 52.0773 208.739L49.6231 219.044C49.6139 219.085 49.6094 219.131 49.6094 219.172C49.6094 219.482 49.8603 219.738 50.1705 219.742H50.1842C57.6927 219.605 66.5333 219.733 82.6453 219.833C93.4566 219.902 104.3 219.87 115.079 219.792L179.577 219.473C179.395 217.676 179.103 215.933 178.797 214.204ZM114.641 218.812C103.866 218.688 93.1464 218.693 82.4035 218.634C71.9025 218.579 61.4151 218.583 50.9095 218.593L53.1401 209.004C53.5142 207.284 54.0069 205.592 54.4539 203.89L55.8087 198.786C56.233 197.075 56.7576 195.396 57.2731 193.713L58.8058 188.663L59.189 187.4L59.6223 186.154L60.4891 183.664C61.073 182.003 61.6249 180.334 62.2408 178.687C64.7497 172.118 67.6464 165.823 71.0905 159.687L72.4179 157.411C72.6415 157.032 72.8559 156.649 73.0885 156.275L75.415 153.141C75.9213 152.425 76.7698 151.49 77.2944 150.787C77.5636 150.441 77.819 150.08 78.0973 149.743L78.9594 148.748L79.8216 147.754C80.1135 147.425 80.4329 147.129 80.7385 146.814C81.0487 146.508 81.3543 146.189 81.6691 145.888L82.659 145.03C83.325 144.474 84.2921 144.159 85.0265 143.753L85.3595 143.607C90.9476 143.411 95.3314 143.156 100.92 143.01C106.508 142.864 112.1 142.736 117.693 142.631C128.837 142.389 140.013 142.102 151.153 141.792C151.801 142.084 152.481 142.709 153.092 143.233C153.744 143.776 154.346 144.396 154.921 145.035C156.057 146.326 157.092 147.726 158.018 149.195C159.898 152.119 161.435 155.276 162.767 158.506C164.099 161.74 165.262 165.052 166.353 168.396C167.461 171.73 168.478 175.097 169.477 178.463C171.471 185.205 173.318 191.998 175.025 198.822C175.859 202.239 176.712 205.651 177.479 209.086C178.245 212.498 178.97 216.006 179.509 219.395L114.641 218.812Z" fill="#002636"/>
<path d="M81.9336 145.747C81.9336 145.747 99.7197 155.098 124.453 154.802C124.453 154.802 138.298 155.705 153.128 143.27C153.128 143.27 152.193 142.307 151.135 141.792C150.067 141.276 87.5308 142.877 85.5237 143.502C83.5165 144.132 81.9336 145.747 81.9336 145.747Z" fill="#BDC5C9"/>
<path d="M88.7666 144.57C88.7666 144.57 109.746 152.63 125.981 150.532C142.216 148.433 150.163 141.919 150.163 141.919L133.709 146.777L125.867 148.766L114.814 148.42L104.445 147.443L88.7666 144.57Z" fill="#A2A8AA"/>
<path d="M34.4183 68.5303C34.4183 68.5303 47.424 34.5 98.9165 29.8698C150.409 25.2397 177.132 66.2175 176.42 96.3248C175.708 126.432 167.155 138.908 131.346 147.635C131.346 147.635 127.158 148.347 123.951 148.483C120.744 148.616 66.2273 150.221 54.1981 118.153C54.1981 118.153 47.0727 97.5747 56.5154 79.0451C56.5154 79.0451 62.8425 67.1071 58.477 64.6118C52.3415 61.1084 27.6487 87.4158 34.4183 68.5303Z" fill="#DFDFDF"/>
<path d="M34.3638 68.5077C35.4587 65.9029 36.8956 63.467 38.4739 61.1314C40.0569 58.8003 41.8086 56.5833 43.7017 54.4986C47.5062 50.3429 51.8079 46.6343 56.4973 43.5004C58.8238 41.8992 61.2871 40.5216 63.7733 39.185C66.2913 37.9123 68.8504 36.7125 71.4871 35.6953C76.7422 33.6334 82.198 32.0687 87.7405 30.983C93.2875 29.9201 98.9076 29.2404 104.569 29.0443C110.225 28.8527 115.909 29.2815 121.474 30.3535C127.035 31.4301 132.482 33.1498 137.605 35.5812C142.727 37.9944 147.54 41.0598 151.896 44.6682C160.582 51.9213 167.402 61.3275 171.712 71.751C172.274 73.0466 172.721 74.3831 173.213 75.706C173.628 77.0563 174.107 78.3838 174.44 79.7568C175.207 82.4711 175.74 85.2491 176.146 88.0409C176.534 90.8372 176.667 93.6655 176.639 96.4892C176.575 99.3038 176.438 102.123 176.192 104.933C175.69 110.539 174.696 116.173 172.547 121.437C171.471 124.06 170.098 126.574 168.387 128.845C166.685 131.126 164.674 133.165 162.466 134.954C158.032 138.525 152.905 141.107 147.645 143.151C142.381 145.227 129.772 149.574 120.279 148.648C116.548 148.634 112.821 148.447 109.103 148.132C101.672 147.485 94.2683 146.28 87.0745 144.2C79.908 142.097 72.8647 139.579 66.7566 135.145C63.7185 132.924 60.9541 130.301 58.655 127.304C56.3559 124.302 54.5358 120.954 53.3315 117.332C51.3517 110.083 50.6674 102.506 51.4612 95.0431C51.5889 94.1125 51.6345 93.1774 51.8398 92.2559L52.3644 89.4915C52.8571 87.6805 53.2767 85.8513 53.9747 84.1087C54.5403 82.3205 55.4208 80.6509 56.1871 78.9449C57.0402 77.3118 57.7974 75.6239 58.4406 73.895C59.0656 72.1662 59.6038 70.3825 59.7453 68.5715C59.8091 67.6729 59.7498 66.7468 59.3986 65.9531C59.0473 65.1639 58.3083 64.5709 57.437 64.5025C56.5612 64.4204 55.6534 64.6439 54.7912 64.9313C53.9245 65.2232 53.0806 65.6019 52.2549 66.017C50.6036 66.8472 49.007 67.796 47.4332 68.7814C44.2765 70.7292 41.2338 72.8869 37.8946 74.5565C37.0507 74.9534 36.1885 75.3366 35.2443 75.4688C34.7835 75.5236 34.2589 75.5236 33.8484 75.2179C33.4287 74.926 33.2736 74.4151 33.2234 73.9498C33.1276 73.001 33.3329 72.0749 33.5473 71.1717C33.7571 70.273 34.0491 69.3881 34.3638 68.5077ZM34.4733 68.5487C34.1677 69.4246 33.8803 70.305 33.6613 71.2036C33.4515 72.0977 33.2599 73.0238 33.3603 73.9315C33.4104 74.374 33.5655 74.8348 33.9305 75.0857C34.2817 75.3502 34.7698 75.3548 35.2123 75.3001C36.1155 75.1678 36.9731 74.7846 37.8034 74.3877C41.1061 72.709 44.1396 70.5331 47.2872 68.5624C48.861 67.5725 50.4394 66.5872 52.0998 65.725C52.9301 65.2962 53.7785 64.8994 54.6635 64.5846C55.5485 64.2744 56.4836 64.0189 57.469 64.0965C58.4725 64.1512 59.394 64.8629 59.8 65.7615C60.2151 66.6647 60.2835 67.6592 60.2334 68.6035C60.1148 70.5057 59.5902 72.3258 58.9835 74.0958C58.3585 75.8611 57.6195 77.5809 56.7801 79.2551C56.0548 80.9475 55.2155 82.5942 54.6909 84.3642C54.034 86.0885 53.6508 87.8949 53.1992 89.6786L52.7293 92.3974C52.6381 92.849 52.5834 93.3051 52.5423 93.7659L52.3963 95.1389C51.6893 102.465 52.442 109.942 54.4491 116.999C55.6032 120.411 57.3732 123.686 59.5947 126.574C61.8208 129.466 64.5031 132.011 67.4682 134.169C73.4213 138.48 80.314 141.381 87.3847 143.443C94.469 145.514 101.8 146.746 109.167 147.421C112.853 147.749 116.552 147.95 120.247 147.977C122.099 147.986 123.942 147.986 125.762 147.818C127.592 147.653 129.43 147.407 131.246 147.115L131.209 147.124C136.656 145.788 142.08 144.314 147.307 142.302C152.535 140.323 157.608 137.827 161.982 134.365C164.163 132.636 166.147 130.656 167.835 128.439C169.532 126.232 170.896 123.773 171.973 121.2C174.121 116.036 175.147 110.462 175.681 104.887C175.946 102.096 176.101 99.2901 176.183 96.4801C176.229 93.6792 176.115 90.8737 175.75 88.0911C175.357 85.3176 174.874 82.5441 174.085 79.8526C173.747 78.4887 173.263 77.1704 172.848 75.8338C172.356 74.52 171.9 73.1925 171.338 71.9061C167.032 61.5419 160.121 52.2862 151.44 45.2201C142.741 38.1632 132.263 33.419 121.283 31.3525C115.79 30.3079 110.184 29.9429 104.596 30.0661C99.0079 30.2212 93.4198 30.8553 87.9138 31.8726C76.9201 33.9071 66.1271 37.6751 56.7163 43.8334C51.9995 46.876 47.6567 50.5071 43.8614 54.6446C41.9637 56.7156 40.2028 58.9144 38.6108 61.2272C37.0233 63.54 35.5727 65.9713 34.4733 68.5487Z" fill="#002636"/>
<path d="M37.8939 62.8556C37.8939 62.8556 36.2015 68.0833 37.3054 69.4062C38.4094 70.7291 55.3423 58.7318 63.4393 62.4861C63.4393 62.4861 63.8407 63.0746 63.8818 64.621C63.9183 66.0579 63.6263 68.5942 63.2568 70.8067C62.8873 73.0145 60.018 80.295 58.8776 84.7929C55.4198 98.4096 54.0924 127.121 77.722 139.93L75.0717 139.196L66.6051 134.63L58.8776 126.533L54.7538 119.758L53.3534 114.827L51.8069 107.611L51.661 101.206L52.0305 93.6243L53.1344 87.8812L54.8268 82.5805L56.8157 78.2377L58.5811 74.7799L59.5025 71.6141L60.2324 68.6079L59.7945 66.1674L58.7271 64.6575L55.5977 64.361L53.7183 65.1319L48.4586 67.7503L42.8251 71.3221L40.5078 72.7226L37.0089 74.675L34.6916 75.008L33.8066 74.0865C33.8066 74.0865 33.4371 71.9517 33.5511 71.8787C33.6652 71.8057 34.6186 68.2339 34.6186 68.2339C34.6186 68.2339 35.9825 65.8025 36.0555 65.693C36.1285 65.5835 37.8939 62.8556 37.8939 62.8556Z" fill="#BDC5C9"/>
<path d="M55.5977 64.3656L57.5501 63.5947L59.9997 63.2161L62.5178 63.248C62.5178 63.248 63.1473 63.3255 63.1199 63.9368C63.0926 64.5435 59.8355 71.3085 59.8355 71.3085L60.0545 68.9638L59.8081 66.3682L58.7315 64.6667L57.0893 64.0007L55.5977 64.3656Z" fill="#A2A8AA"/>
<path d="M56.2783 63.6815C56.9625 63.5128 57.6513 63.3805 58.3447 63.2892C59.0381 63.1934 59.736 63.1387 60.434 63.1296C61.1319 63.1068 61.8253 63.1661 62.5141 63.2436C61.8207 63.2345 61.1319 63.2436 60.4431 63.3257C59.7588 63.3987 59.0791 63.5128 58.4131 63.6724C57.7471 63.8275 57.0857 64.0145 56.4425 64.2426C55.8038 64.4662 54.1297 65.0455 54.0339 64.8539C53.9381 64.6623 53.6096 64.717 56.2783 63.6815Z" fill="#002636"/>
<path d="M176.292 92.2288C176.292 92.2288 174.335 109.782 171.388 117.884C168.441 125.985 162.456 134.954 162.456 134.954L165.394 131.761L168.706 128.152L171.356 123.367L173.418 118.212L174.818 113.354L175.63 107.907L176.073 101.945L176.442 95.7595L176.292 92.2288Z" fill="#BDC5C9"/>
<path d="M53.9703 84.1132C53.9703 84.1132 51.5526 97.1961 54.203 110.557C56.8533 123.919 60.1651 128.667 60.1651 128.667L57.46 124.858L54.755 119.758L52.7113 113.481L51.8263 106.689L51.6621 99.1258L52.0316 93.6243L53.9703 84.1132Z" fill="#A2A8AA"/>
<path d="M88.2107 218.506L88.2061 219.87L50.4854 219.742L51.343 216.864L80.1137 216.823L88.2107 218.506Z" fill="#DFDFDF"/>
<path d="M58.3452 190.182C59.586 187.883 54.527 212.617 55.8499 219.756L50.4854 219.747C50.4854 219.742 57.1044 192.481 58.3452 190.182Z" fill="#BDC5C9"/>
<path d="M179.49 219.395L179.535 219.829L160.089 219.797L160.107 219.254L160.112 219.108L179.49 219.395Z" fill="#DFDFDF"/>
<path d="M152.051 161.694C152.051 161.694 155.239 165.773 158.109 175.932C160.978 186.09 163.701 210.897 164.144 218.629L164.158 219.815L160.066 219.792L159.728 218.15V214.396L159.509 205.747L158.921 197.467L157.926 188.303L156.27 179.029L154.687 171.484L153.287 165.668L152.051 161.694Z" fill="#BDC5C9"/>
<path d="M158.164 194.589C158.397 197.367 158.648 200.145 158.776 202.932C158.967 205.715 159.063 208.502 159.191 211.285C159.36 213.921 158.917 217.01 159.022 219.656L160.099 219.792C160.117 218.538 160.235 216.663 160.245 215.409C160.254 214.008 160.263 212.608 160.213 211.212L160.067 207.015C160.021 205.615 159.88 204.223 159.788 202.827C159.601 200.036 159.287 197.253 158.995 194.47C158.347 188.91 157.521 183.372 156.417 177.884C155.272 172.41 153.954 166.959 152.047 161.694C152.038 161.672 152.011 161.658 151.983 161.667C151.961 161.676 151.947 161.704 151.956 161.731C153.74 167.022 154.533 172.497 155.551 177.975C156.568 183.463 157.612 189.042 158.164 194.589Z" fill="#002636"/>
<path d="M89.4414 218.657V219.87L159.03 219.797L159.008 219.049L99.1214 217.548L89.4414 218.657Z" fill="#DFDFDF"/>
<path d="M96.4848 167.109C96.4848 167.109 98.127 166.448 97.5385 170.275C96.9501 174.102 94.9156 207.95 95.504 219.874H89.4415L88.999 208.849L90.6184 187.942L91.8318 179.809L92.7442 174.869L94.2632 170.749L94.8654 169.262L95.5998 167.748L96.4848 167.109Z" fill="#C2CACC"/>
<path d="M89.4282 219.167C89.4282 218.944 89.4236 218.72 89.4282 218.497C89.4647 212.662 89.5696 206.823 89.898 200.989C90.2402 195.159 90.4546 189.329 91.2073 183.54C91.5768 180.644 92.0192 177.756 92.7217 174.923C93.073 173.509 93.4653 172.1 93.9671 170.731C94.2134 170.047 94.5008 169.376 94.8338 168.728C95.0026 168.409 95.1851 168.09 95.3995 167.802C95.6093 167.52 95.8602 167.219 96.1658 167.095L96.1841 167.086C96.2069 167.077 96.2206 167.05 96.2115 167.027C96.2023 167.004 96.175 166.99 96.1522 167C95.7644 167.141 95.5363 167.442 95.3037 167.729C95.0756 168.021 94.884 168.336 94.7061 168.66C94.3548 169.308 94.0492 169.978 93.7892 170.663C93.26 172.031 92.8312 173.436 92.448 174.85C91.6817 177.679 91.1753 180.58 90.742 183.472C89.8935 189.27 89.3141 195.1 88.8808 200.939C88.452 206.778 88.1327 212.635 88.2193 218.501C88.2239 218.72 88.233 218.944 88.2376 219.167H89.4282Z" fill="#002636"/>
<path opacity="0.32" d="M175.891 86.4855L173.213 75.7062L168.934 66.0582L162.748 56.4512L154.71 47.9938L148.174 41.986L137.6 35.5814L127.965 32.3791L120.347 30.6137L115.156 29.9522L107.428 29.4003L100.029 29.6192L87.74 30.9877L81.2578 33.264C81.2578 33.264 104.226 28.8483 122.336 33.9255C140.446 39.0072 159.769 55.4978 165.9 79.6065C165.9 79.6065 169.513 93.392 169.855 102.812C170.198 112.232 166.302 130.511 156.348 138.498L160.435 136.181L165.403 131.765L169.048 127.568L171.698 122.601L173.797 116.305L175.01 112.661L176.192 104.938L176.228 93.5562L175.891 86.4855Z" fill="#BDC5C9"/>
<path d="M155.149 47.397C144.903 37.8037 126.825 26.8966 98.9257 29.4101C72.2443 31.8096 56.0684 42.2331 47.1959 50.5582C37.5706 59.5859 34.2132 68.1756 34.1812 68.2622V68.2668C32.7899 72.1534 32.6303 74.3521 33.6886 75.1915C35.4175 76.5646 39.8286 73.7226 44.9333 70.4291C50.1017 67.099 55.9681 63.3265 58.363 64.6996C62.432 67.026 56.3512 78.6219 56.2874 78.7405C46.8948 97.1698 53.8834 117.871 53.9564 118.085C64.6627 146.642 108.683 148.662 120.909 148.662C122.619 148.662 123.709 148.621 123.997 148.612C127.186 148.48 131.387 147.773 131.446 147.759C165.878 139.826 175.996 127.802 176.744 96.1662C177.154 78.9366 168.88 60.2519 155.149 47.397ZM176.16 96.1525C175.772 112.538 173.076 122.241 166.854 129.645C160.363 137.368 149.401 142.778 131.332 147.18C131.291 147.189 127.126 147.891 123.974 148.024C121.638 148.124 66.5695 150.035 54.5129 117.889C54.4399 117.684 47.5335 97.22 56.812 79.0142C57.0766 78.517 63.2166 66.7934 58.6595 64.1886C58.2215 63.9377 57.7106 63.8283 57.1313 63.8283C54.1023 63.8283 49.828 66.2323 45.1568 69.243C40.6497 72.1443 35.9877 75.1459 34.5964 74.0374C34.0398 73.5949 33.7068 72.1488 35.276 67.7741C35.4676 67.2815 48.3865 34.5512 98.985 29.9986C126.679 27.5079 144.593 38.3192 154.756 47.8303C168.36 60.5712 176.561 79.0872 176.16 96.1525Z" fill="#002636"/>
<path d="M96.4023 83.4746C96.4023 83.4746 102.679 83.5385 106.388 87.3475C110.092 91.1611 110.712 99.8329 110.712 99.8329L106.903 92.2331L102.729 87.4707L96.4023 83.4746Z" fill="#BDC5C9"/>
<path d="M142.709 99.3539C142.709 99.3539 142.476 91.6035 145.268 87.1832C148.06 82.7629 153.119 81.8506 153.119 81.8506L148.53 87.2973L142.709 99.3539Z" fill="#BDC5C9"/>
<path d="M142.321 118.258C142.321 118.258 143.315 121.793 148.392 121.127C148.392 121.127 144.529 124.11 142.759 123.225C140.993 122.345 142.321 118.258 142.321 118.258Z" fill="#CCD3D6"/>
<path d="M109.29 122.153C109.29 122.153 112.962 122.162 113.71 117.094C113.71 117.094 115.521 121.624 114.189 123.084C112.857 124.544 109.29 122.153 109.29 122.153Z" fill="#CCD3D6"/>
<path d="M142.709 99.3539C143.544 96.0101 144.757 92.9812 146.427 89.9659C147.289 88.4742 148.238 87.0236 149.301 85.6596C150.377 84.3094 151.764 82.9089 153.119 81.8506C152.024 83.1826 151.039 84.5602 150.085 85.9561C149.164 87.3794 148.274 88.8209 147.439 90.2943C146.6 91.7678 145.811 93.2685 145.026 94.7785L142.709 99.3539Z" fill="#002636"/>
<path d="M110.712 99.8373C109.823 98.2042 108.851 96.635 107.857 95.0931C106.844 93.5604 105.786 92.0641 104.636 90.6454C103.482 89.2313 102.223 87.9084 100.882 86.6722C99.5043 85.4725 98.0263 84.405 96.4023 83.479C98.1632 84.0766 100.065 84.8019 101.562 85.9469C103.04 87.1101 104.372 88.4513 105.571 89.8928C107.898 92.826 109.563 96.2928 110.712 99.8373Z" fill="#002636"/>
<path d="M144.387 114.91C144.387 114.91 144.41 89.8338 159.158 83.3015C173.906 76.7691 169.846 105.932 167.036 109.869C164.222 113.806 154.966 116.894 150.728 118.249C146.49 119.604 144.082 117.98 144.387 114.91Z" fill="#F4F4F4"/>
<path d="M147.983 119.024C146.879 119.024 145.811 118.901 145.127 118.349C144.219 117.615 143.955 116.319 144.091 114.891C144.096 114.152 144.434 89.4962 159.04 83.0277C162.671 81.4174 165.481 81.7915 167.393 84.1362C172.21 90.0482 169.372 107.104 167.279 110.038C164.295 114.212 154.155 117.46 150.82 118.532C149.789 118.86 148.831 119.024 147.983 119.024ZM163.032 82.6491C161.919 82.6491 160.664 82.9547 159.282 83.5706C144.876 89.9524 144.685 114.659 144.685 114.91V114.937C144.561 116.164 144.894 117.131 145.642 117.733C146.687 118.577 148.466 118.659 150.642 117.961C153.927 116.908 163.926 113.705 166.8 109.691C167.744 108.368 168.994 103.583 169.368 98.1589C169.619 94.4822 169.637 87.8266 166.941 84.5103C165.924 83.2695 164.619 82.6491 163.032 82.6491Z" fill="#002636"/>
<path d="M110.977 114.745C110.977 114.745 108.71 92.3927 87.4522 82.5439C66.1946 72.6952 69.2738 104.604 76.1893 110.941C83.1049 117.277 96.4023 118.901 100.891 119.357C105.38 119.813 111.552 121.264 110.977 114.745Z" fill="#F4F4F4"/>
<path d="M106.02 120.11C104.793 120.11 103.484 119.955 102.243 119.804C101.773 119.75 101.308 119.695 100.861 119.649C86.3545 118.176 79.3295 114.221 75.9903 111.16C71.4697 107.018 68.2719 91.5034 73.194 84.118C75.1692 81.1529 79.2702 78.425 87.5816 82.2751C108.748 92.0827 111.252 114.49 111.275 114.718V114.723C111.444 116.62 111.074 117.984 110.148 118.878C109.163 119.832 107.667 120.11 106.02 120.11ZM80.2783 80.9841C77.4501 80.9841 75.2194 82.1428 73.6821 84.4464C69.052 91.3939 72.0216 106.726 76.3872 110.722C82.6322 116.447 94.4379 118.404 100.92 119.061C101.372 119.106 101.837 119.161 102.311 119.22C105.08 119.549 108.004 119.827 109.519 118.358C110.308 117.592 110.618 116.392 110.468 114.681C110.436 114.376 108.141 92.4614 87.3262 82.8179C84.6895 81.5908 82.3311 80.9841 80.2783 80.9841Z" fill="#002636"/>
<path d="M145.875 102.597C145.875 102.597 145.866 118.992 152.426 117.482C158.985 115.972 169.527 98.9435 161.262 82.4849C161.262 82.4849 149.794 84.9573 145.875 102.597Z" fill="#002636"/>
<path d="M151.595 117.811C150.819 117.811 150.108 117.555 149.469 117.045C145.683 114.029 145.646 103.063 145.646 102.598L145.651 102.547C149.556 84.9666 161.097 82.2843 161.216 82.2615L161.389 82.225L161.467 82.3846C167.16 93.725 163.492 104.057 161.649 107.971C159.245 113.085 155.559 116.994 152.475 117.706C152.174 117.774 151.882 117.811 151.595 117.811ZM146.103 102.625C146.107 103.213 146.221 113.874 149.752 116.689C150.523 117.305 151.381 117.492 152.37 117.263C155.322 116.584 158.885 112.77 161.234 107.78C163.04 103.943 166.621 93.8528 161.138 82.7541C159.71 83.1556 149.688 86.5312 146.103 102.625Z" fill="#002636"/>
<path d="M156.709 93.9393C156.709 93.9393 156.718 98.9664 153.685 102.242C150.651 105.517 149.328 107.611 150.847 109.832C152.366 112.054 157.12 108.769 159.068 103.428C161.015 98.086 160.979 91.7543 158.995 91.3118C157.01 90.8693 156.709 93.9393 156.709 93.9393Z" fill="#EFEFEF"/>
<path d="M153.523 97.4669C154.096 96.1089 153.919 94.7372 153.127 94.4038C152.335 94.0698 151.229 94.9005 150.657 96.2585C150.084 97.6166 150.262 98.9883 151.054 99.3217C151.845 99.6557 152.951 98.825 153.523 97.4669Z" fill="#EFEFEF"/>
<path d="M105.002 98.2958C105.002 98.2958 105.066 120.192 89.3511 117.291C73.636 114.389 75.9305 81.6501 83.1335 81.0753C83.138 81.0753 95.8013 84.7201 105.002 98.2958Z" fill="#002636"/>
<path d="M92.0977 117.783C91.2082 117.783 90.2771 117.692 89.3146 117.514C80.3417 115.858 76.8753 104.513 77.4131 94.0031C77.8009 86.4945 80.1456 81.0798 83.1198 80.8426L83.1613 80.838L83.2024 80.8517C83.3301 80.8882 96.0523 84.679 105.194 98.1634L105.235 98.2227V98.2911C105.235 98.4097 105.198 110.211 99.0219 115.366C97.0969 116.976 94.7754 117.783 92.0977 117.783ZM83.1152 81.3079C80.438 81.5724 78.2388 86.9097 77.8693 94.0305C77.3406 104.34 80.698 115.461 89.3972 117.067C93.1378 117.756 96.2758 117.067 98.73 115.019C104.496 110.202 104.765 99.3358 104.774 98.3641C95.9793 85.4362 83.9003 81.5496 83.1152 81.3079Z" fill="#002636"/>
<path d="M95.6448 97.251C95.6448 97.251 93.665 106.598 89.6552 104.819C85.6455 103.04 83.8026 103.605 84.4047 106.484C85.0069 109.362 88.8889 113.053 92.5474 110.881C96.2013 108.71 98.911 103.697 99.9784 97.2099C99.9784 97.2099 100.466 93.7567 98.3362 93.7476C96.2104 93.7385 95.6448 97.251 95.6448 97.251Z" fill="#EFEFEF"/>
<path d="M89.8064 96.577C91.2516 95.1396 91.7356 93.2834 90.888 92.4313C90.0404 91.5796 88.182 92.0545 86.7373 93.4919C85.2921 94.9293 84.8081 96.7855 85.6557 97.6371C86.5033 98.4893 88.3617 98.0144 89.8064 96.577Z" fill="#EFEFEF"/>
<path d="M110.978 114.745C110.65 112.149 109.888 109.631 108.971 107.2C108.013 104.778 106.886 102.433 105.582 100.202C103.105 95.668 99.7973 91.5761 95.8058 88.3008C93.8078 86.6632 91.6501 85.2262 89.3692 84.0128C87.0838 82.8131 84.7163 81.7274 82.2119 81.3032C80.9666 81.0842 79.6938 81.0614 78.485 81.3077C77.2761 81.554 76.1448 82.106 75.2234 82.9226C74.3019 83.7391 73.5811 84.7837 73.052 85.9242C72.5137 87.0646 72.1579 88.2917 71.9116 89.5462C71.4235 92.0551 71.4006 94.6598 71.6242 97.2235C71.8705 99.7872 72.3769 102.337 73.2025 104.769C73.6176 105.982 74.1149 107.168 74.7398 108.277C75.0546 108.829 75.3967 109.358 75.789 109.837C75.9806 110.078 76.1904 110.307 76.4094 110.516C76.6284 110.726 76.8929 110.927 77.1347 111.132C79.0963 112.761 81.3862 113.992 83.7629 114.982C88.5436 116.944 93.68 118.007 98.8211 118.668L102.694 119.238C103.98 119.439 105.267 119.64 106.553 119.644C107.196 119.64 107.84 119.576 108.455 119.407C109.067 119.229 109.66 118.933 110.089 118.445C110.522 117.966 110.786 117.345 110.901 116.707C111.024 116.054 111.024 115.397 110.978 114.745ZM110.978 114.745C111.033 115.393 111.037 116.054 110.928 116.697C110.823 117.341 110.586 117.979 110.157 118.49C109.742 119.006 109.149 119.371 108.524 119.594C107.894 119.813 107.233 119.927 106.571 119.973C105.249 120.073 103.926 119.986 102.621 119.882L98.7116 119.567C93.5113 118.896 88.3155 117.824 83.4162 115.817C80.9802 114.804 78.6127 113.541 76.5508 111.826C76.2954 111.607 76.0308 111.41 75.7799 111.173C75.529 110.931 75.2964 110.676 75.0819 110.407C74.6531 109.873 74.2836 109.303 73.9461 108.719C73.2892 107.547 72.7692 106.315 72.3404 105.056C71.4828 102.542 70.9673 99.9332 70.7164 97.2965C70.4837 94.6644 70.2557 91.6537 70.762 89.0261C71.0175 87.7169 71.3961 86.4168 71.9709 85.1943C72.5411 83.9672 73.3257 82.8131 74.3658 81.8962C75.4013 80.9747 76.6968 80.3452 78.0471 80.0715C79.3973 79.7978 80.7841 79.8297 82.1115 80.0624C84.7802 80.5185 87.4761 81.9783 89.8026 83.2008C92.1336 84.4371 94.3461 85.9105 96.3897 87.5892C100.482 90.942 103.853 95.1343 106.394 99.7553C106.996 100.928 107.529 102.136 108.027 103.354C108.506 104.582 108.934 105.827 109.308 107.081C109.687 108.336 110.016 109.609 110.294 110.886C110.44 111.524 110.568 112.163 110.686 112.806C110.8 113.454 110.905 114.097 110.978 114.745Z" fill="#002636"/>
<path d="M144.387 114.909C144.419 112.843 144.542 110.777 144.693 108.706C144.852 106.635 145.113 104.568 145.532 102.52C146.518 98.4736 147.927 94.4821 150.153 90.9057C151.262 89.1221 152.594 87.4571 154.168 86.0384C155.737 84.6151 157.557 83.4702 159.523 82.6582C160.513 82.2613 161.567 81.9739 162.671 81.91C163.765 81.8416 165.143 81.9329 166.124 82.5076C167.109 83.0778 167.857 83.9491 168.409 84.8843C168.961 85.824 169.34 86.8367 169.618 87.8585C170.175 89.9113 170.375 92.0142 170.425 94.1081C170.471 96.2019 170.138 98.4189 169.901 100.494C169.659 102.565 169.308 104.627 168.774 106.657C168.496 107.675 168.195 108.678 167.688 109.668C167.095 110.663 166.315 111.415 165.471 112.068C165.065 112.419 164.614 112.692 164.18 113.003C163.733 113.276 163.291 113.568 162.83 113.819C161.913 114.335 160.983 114.809 160.034 115.242C158.136 116.114 156.197 116.876 154.236 117.56C153.241 117.865 152.242 118.153 151.243 118.431C150.24 118.709 149.177 118.928 148.119 118.896C147.854 118.906 147.59 118.855 147.325 118.833C147.065 118.769 146.8 118.737 146.554 118.636C146.048 118.481 145.578 118.198 145.222 117.815C144.857 117.437 144.611 116.958 144.478 116.46C144.355 115.945 144.346 115.425 144.387 114.909ZM144.387 114.909C144.355 115.425 144.369 115.945 144.501 116.447C144.647 116.944 144.916 117.396 145.286 117.747C145.651 118.103 146.125 118.326 146.613 118.445C146.851 118.527 147.111 118.527 147.357 118.563C147.612 118.559 147.859 118.586 148.114 118.554C149.127 118.481 150.085 118.167 151.043 117.802C152.01 117.446 152.977 117.076 153.93 116.693C155.869 116 157.794 115.274 159.651 114.408C161.498 113.541 163.337 112.601 164.906 111.351C165.695 110.749 166.416 110.015 166.886 109.235C167.323 108.382 167.629 107.396 167.894 106.42C168.414 104.449 168.76 102.424 168.998 100.39C169.23 98.355 169.344 96.3022 169.299 94.2586C169.249 92.2195 169.052 90.1759 168.523 88.2326C168.259 87.2655 167.903 86.3258 167.406 85.4773C166.908 84.6379 166.261 83.8944 165.444 83.4245C164.632 82.9501 163.679 82.7585 162.716 82.8178C161.749 82.8726 160.782 83.128 159.856 83.5021C158.004 84.2685 156.27 85.3541 154.779 86.7135C153.278 88.0638 151.996 89.6604 150.924 91.3893C148.776 94.8516 147.375 98.7564 146.422 102.734C145.373 106.689 144.46 110.767 144.387 114.909Z" fill="#002636"/>
<path d="M180.895 219.988C169.08 153.337 156.234 144.351 156.234 144.351C155.591 141.641 153.538 142.029 153.538 142.029C152.252 141.125 151.226 141.125 151.226 141.125C147.115 143.187 138.252 145.769 138.252 145.769C134.014 149.638 128.235 175.566 128.235 175.566C119.759 158.925 107.342 147.703 107.342 147.703C107.342 147.703 90.7282 145.509 84.5653 143.187C84.5653 143.187 83.1512 142.544 81.8693 143.831C81.8693 143.831 78.9133 143.443 78.1424 146.668C78.1424 146.668 62.4729 158.278 48.0898 219.683L180.895 219.988Z" fill="white"/>
<path d="M136.374 148.451C136.374 148.451 144.061 145.924 146.478 144.341C148.896 142.758 147.527 142.644 147.527 142.644L140.229 145.112L137.487 145.97L136.374 148.451Z" fill="#DDDDDD"/>
<path d="M110.124 150.249C110.124 150.249 96.38 149.222 82.1885 144.15L82.9366 143.055L85.2494 143.484L102.119 146.91L107.939 148.023L110.124 150.249Z" fill="#DDDDDD"/>
<path d="M87.5209 147.037C87.5209 147.037 116.164 165.02 126.181 182.874L116.118 169.472L110.681 163.82L102.547 155.559L93.7294 147.681L89.0217 144.086L83.5431 142.718L81.7002 143.365L87.5209 147.037Z" fill="#F7F7F7"/>
<path d="M152.727 141.687C152.727 141.687 147.162 145.112 143.394 151.449C139.626 157.785 135.917 165.553 135.917 165.553L138.859 157.443L143.143 149.309L146.482 144.341L148.735 141.746L151.281 140.738L152.727 141.687Z" fill="#EAEAEA"/>
<path d="M129.005 173.026C129.005 173.026 137.225 191.519 140.135 203.338C140.135 203.338 142.019 210.272 140.222 213.1C138.425 215.924 138.936 212.671 138.936 212.671L139.707 209.077L138.936 204.196L137.394 198.033L132.941 185.789L128.489 176.114L128.681 173.92L129.005 173.026Z" fill="#EAEAEA"/>
<path d="M150.327 204.406C150.327 204.406 150.327 210.4 148.229 212.968C146.13 215.536 145.916 213.223 145.916 213.223L148.014 210.527L149.429 208.128L149.944 205.943L150.327 204.406Z" fill="#EAEAEA"/>
<path d="M154.055 209.715C154.055 209.715 153.539 211.727 152.942 212.626C152.344 213.524 151.099 212.753 151.099 212.753L152.385 211.681L153.37 210.655L154.055 209.715Z" fill="#EAEAEA"/>
<path d="M113.938 210.4C113.938 210.4 115.48 213.652 116.762 214.423C118.049 215.194 118.774 213.953 118.774 213.953L116.42 212.667L115.006 211.595L113.938 210.4Z" fill="#EAEAEA"/>
<path d="M99.208 208.475C99.208 208.475 100.362 211.855 101.306 213.228C102.251 214.601 104.176 213.014 104.176 213.014L101.822 211.431L100.193 209.802L99.208 208.475Z" fill="#EAEAEA"/>
<path d="M181.347 219.569C170.158 156.718 158.156 145.29 156.641 144.072C155.998 141.673 154.269 141.536 153.662 141.559C152.34 140.683 151.318 140.738 151.272 140.738H151.163L151.067 140.788C147.084 142.59 138.216 145.29 138.13 145.318L138.029 145.345L137.952 145.418C134.143 148.881 129.285 168.897 128.071 174.116C119.673 158.259 107.772 147.453 107.653 147.343L107.548 147.247L107.407 147.229C107.242 147.206 90.7747 145.026 84.7578 142.772C84.6893 142.74 83.1475 142.065 81.7014 143.365C80.9533 143.343 78.5173 143.525 77.7464 146.394C76.0905 147.722 61.379 160.905 47.6528 219.249L47.5205 219.811H48.4329L48.6701 218.898C62.7886 159.226 78.2664 147.138 78.4215 147.024L78.5538 146.924L78.5903 146.764C79.2518 144.004 81.7105 144.273 81.8109 144.282L82.0344 144.31L82.1941 144.15C83.2296 143.115 84.3381 143.58 84.4065 143.612C90.3185 145.829 105.395 147.882 107.142 148.114C108.351 149.232 119.897 160.125 127.829 175.63L128.404 176.757L128.678 175.525C128.737 175.27 134.403 150.112 138.486 146.162C139.535 145.856 147.372 143.534 151.318 141.595C151.582 141.623 152.353 141.76 153.275 142.403L153.43 142.508L153.612 142.476C153.781 142.448 155.264 142.261 155.784 144.447L155.825 144.615L155.966 144.716C155.998 144.738 159.209 147.111 163.812 157.53C168.032 167.073 174.313 185.502 180.344 219.195L180.563 220.107H180.887H181.434L181.347 219.569Z" fill="#002636"/>
<path d="M152.052 161.694C152.052 161.694 155.24 165.773 158.11 175.931C160.979 186.09 163.702 210.897 164.145 218.629L164.159 219.815L160.067 219.792L159.729 218.15V214.396L159.51 205.747L158.922 197.467L157.927 188.303L156.271 179.029L154.688 171.484L153.288 165.668L152.052 161.694Z" fill="#F7F7F7"/>
<path d="M158.164 194.589C158.397 197.367 158.648 200.145 158.776 202.932C158.967 205.715 159.063 208.502 159.191 211.285C159.36 213.921 158.917 217.01 159.022 219.655L160.099 219.792C160.117 218.538 160.235 216.663 160.245 215.408C160.254 214.008 160.263 212.608 160.213 211.212L160.067 207.015C160.021 205.614 159.88 204.223 159.788 202.827C159.601 200.035 159.287 197.253 158.995 194.47C158.347 188.909 157.521 183.372 156.417 177.884C155.272 172.41 153.954 166.959 152.047 161.694C152.038 161.671 152.011 161.658 151.983 161.667C151.961 161.676 151.947 161.703 151.956 161.731C153.74 167.022 154.533 172.496 155.551 177.975C156.568 183.463 157.612 189.042 158.164 194.589Z" fill="#002636"/>
<path d="M96.4848 167.109C96.4848 167.109 98.127 166.448 97.5385 170.275C96.9501 174.102 94.9156 207.95 95.504 219.874H89.4415L88.999 208.849L90.6184 187.942L91.8318 179.809L92.7442 174.869L94.2632 170.749L94.8654 169.262L95.5998 167.748L96.4848 167.109Z" fill="#F7F7F7"/>
<path d="M89.4282 219.167C89.4282 218.944 89.4236 218.72 89.4282 218.497C89.4647 212.662 89.5696 206.823 89.898 200.989C90.2402 195.159 90.4546 189.329 91.2073 183.54C91.5768 180.644 92.0192 177.756 92.7217 174.923C93.073 173.509 93.4653 172.099 93.9671 170.731C94.2134 170.047 94.5008 169.376 94.8338 168.728C95.0026 168.409 95.1851 168.09 95.3995 167.802C95.6093 167.519 95.8602 167.218 96.1658 167.095L96.1841 167.086C96.2069 167.077 96.2206 167.05 96.2115 167.027C96.2023 167.004 96.175 166.99 96.1522 166.999C95.7644 167.141 95.5363 167.442 95.3037 167.729C95.0756 168.021 94.884 168.336 94.7061 168.66C94.3548 169.308 94.0492 169.978 93.7892 170.662C93.26 172.031 92.8312 173.436 92.448 174.85C91.6817 177.678 91.1753 180.58 90.742 183.472C89.8935 189.27 89.3141 195.1 88.8808 200.939C88.452 206.778 88.1327 212.635 88.2193 218.501C88.2239 218.72 88.233 218.944 88.2376 219.167H89.4282Z" fill="#002636"/>
<path d="M128.108 175.101C128.108 175.101 143.5 207.061 138.427 213.228" stroke="#002636" stroke-width="0.912342" stroke-miterlimit="10"/>
<path d="M130.507 219.861C130.507 219.861 130.68 215.664 130.68 214.382C130.68 213.095 135.625 213.374 137.359 213.246C139.092 213.118 140.077 212.753 140.912 214.167C141.747 215.582 141.469 219.797 141.469 219.797" fill="#002636"/>
<path d="M130.507 219.861C130.507 219.861 130.68 215.664 130.68 214.382C130.68 213.095 135.625 213.374 137.359 213.246C139.092 213.118 140.077 212.753 140.912 214.167C141.747 215.582 141.469 219.797 141.469 219.797" stroke="#002636" stroke-width="0.912342" stroke-miterlimit="10"/>
<path d="M90.2178 144.597C90.2178 144.597 120.53 168.742 132.176 193.061C142.632 214.893 134.06 213.269 134.06 213.269" stroke="#002636" stroke-width="0.456171" stroke-miterlimit="10"/>
<path d="M149.469 142.029C149.469 142.029 140.31 146.267 130.89 180.99" stroke="#002636" stroke-width="0.456171" stroke-miterlimit="10"/>
<path d="M90.9242 144.469C96.5807 149.15 101.567 153.839 106.726 159.03C111.872 164.231 116.762 169.691 121.241 175.484C125.712 181.273 129.744 187.436 132.81 194.092C133.576 195.752 134.297 197.435 134.958 199.137C135.62 200.843 136.222 202.572 136.683 204.342C137.125 206.112 137.495 207.932 137.381 209.766C137.335 210.222 137.28 210.678 137.134 211.116C137.007 211.554 136.806 211.978 136.514 212.334C135.944 213.068 134.958 213.397 134.06 213.264C134.963 213.388 135.935 213.041 136.487 212.311C136.774 211.955 136.966 211.536 137.084 211.098C137.221 210.664 137.271 210.208 137.308 209.756C137.399 207.932 137.007 206.125 136.546 204.369C136.067 202.613 135.442 200.893 134.762 199.201C134.083 197.508 133.344 195.839 132.559 194.196C129.425 187.605 125.333 181.519 120.808 175.808C116.274 170.097 111.338 164.714 106.142 159.6C100.942 154.496 95.5315 149.578 89.875 145.017L90.9242 144.469Z" fill="#002636"/>
<path d="M149.364 142.444C149.319 142.467 149.223 142.526 149.141 142.576C149.059 142.622 148.972 142.69 148.89 142.754C148.721 142.877 148.552 143.005 148.393 143.151C148.06 143.425 147.754 143.735 147.448 144.049C146.846 144.684 146.267 145.354 145.738 146.07C145.181 146.764 144.524 147.813 144.018 148.547C143.525 149.291 143.083 150.071 142.608 150.833C140.816 153.939 139.31 157.215 137.882 160.522L136.879 163.031C136.546 163.866 136.204 164.7 135.907 165.553L134.986 168.094L134.525 169.367L134.101 170.653C133.549 172.369 132.947 174.075 132.436 175.804L130.885 180.99L132.303 175.762C132.773 174.02 133.33 172.3 133.841 170.567L134.233 169.271L134.662 167.985L135.519 165.412C135.793 164.55 136.117 163.706 136.432 162.857L137.376 160.312C138.726 156.955 140.154 153.62 141.892 150.427C142.353 149.642 142.782 148.839 143.265 148.068C143.762 147.302 144.232 146.522 144.789 145.792C145.313 145.044 145.897 144.328 146.522 143.639C146.837 143.297 147.156 142.959 147.517 142.649C147.686 142.485 147.873 142.334 148.069 142.188C148.165 142.115 148.256 142.038 148.365 141.969C148.475 141.896 148.561 141.832 148.721 141.75L149.364 142.444Z" fill="#002636"/>
<path d="M120.449 215.034C119.71 214.77 119.035 214.455 118.355 214.108C117.684 213.757 117.028 213.374 116.412 212.936C115.8 212.494 115.212 212.01 114.701 211.458C114.195 210.897 113.766 210.272 113.465 209.592C113.834 210.24 114.318 210.806 114.861 211.298C115.413 211.786 116.024 212.192 116.658 212.557C117.292 212.922 117.963 213.223 118.638 213.493C119.313 213.757 120.02 213.994 120.7 214.168L120.449 215.034Z" fill="#002636"/>
<path d="M144.772 213.146C145.808 212.452 146.775 211.485 147.587 210.464C148.413 209.423 149.097 208.306 149.462 207.024C149.863 205.76 150.064 204.424 150.192 203.092C150.315 201.755 150.342 200.405 150.333 199.055C150.42 200.4 150.465 201.751 150.42 203.105C150.37 204.456 150.242 205.82 149.9 207.147C149.736 207.813 149.512 208.47 149.202 209.1C148.892 209.729 148.531 210.304 148.134 210.87C147.332 211.996 146.433 213.027 145.274 213.908L144.772 213.146Z" fill="#002636"/>
<path d="M105.76 214.135C104.861 213.798 104.072 213.374 103.301 212.876C102.539 212.379 101.832 211.8 101.194 211.157C100.865 210.846 100.582 210.491 100.291 210.149C100.031 209.779 99.7431 209.432 99.5287 209.035C99.0452 208.278 98.7213 207.434 98.4385 206.595C98.7943 207.407 99.1775 208.21 99.7158 208.908C99.9575 209.277 100.268 209.592 100.546 209.925C100.861 210.231 101.157 210.55 101.499 210.824C102.165 211.389 102.886 211.877 103.648 212.288C104.405 212.694 105.226 213.041 106.015 213.26L105.76 214.135Z" fill="#002636"/>
<path d="M150.265 212.498C150.639 212.393 151.068 212.206 151.446 211.996C151.834 211.786 152.203 211.535 152.55 211.253C152.897 210.97 153.221 210.655 153.508 210.299C153.805 209.952 154.042 209.56 154.27 209.159C154.115 209.592 153.937 210.025 153.695 210.427C153.462 210.837 153.184 211.221 152.869 211.576C152.555 211.937 152.208 212.265 151.825 212.562C151.437 212.863 151.054 213.123 150.57 213.351L150.265 212.498Z" fill="#002636"/>
<path d="M81.6364 143.365C83.1417 143.981 84.5285 144.725 85.8833 145.555C87.2336 146.385 88.5245 147.297 89.7425 148.301C90.9651 149.3 92.1283 150.372 93.1866 151.535C94.2723 152.676 95.2211 153.935 96.1289 155.212C95.1573 153.98 94.1583 152.771 93.0224 151.695C91.9139 150.591 90.7142 149.587 89.4643 148.661C88.2143 147.731 86.9006 146.891 85.5412 146.143C84.1863 145.4 82.7631 144.725 81.3398 144.223L81.6364 143.365Z" fill="#002636"/>
<path d="M78.353 146.262C79.019 146.39 79.5937 146.586 80.1868 146.809C80.7707 147.033 81.3363 147.293 81.8837 147.576C82.4266 147.868 82.9648 148.173 83.4712 148.52C83.9867 148.858 84.4748 149.227 84.9537 149.606C84.4292 149.291 83.9046 148.985 83.3572 148.716C82.8189 148.442 82.2578 148.21 81.6967 147.991C81.131 147.781 80.5563 147.603 79.9815 147.457C79.4113 147.316 78.8 147.202 78.2617 147.165L78.353 146.262Z" fill="#002636"/>
<path d="M153.793 142.407C153.369 142.704 152.904 143.142 152.507 143.58C152.096 144.022 151.713 144.492 151.348 144.98C150.618 145.956 149.971 147.001 149.387 148.078C148.789 149.15 148.278 150.276 147.785 151.403L147.097 153.123L146.472 154.87L146.987 153.086L147.571 151.321C148 150.158 148.442 148.994 148.981 147.872C149.505 146.741 150.098 145.637 150.787 144.588C151.134 144.063 151.499 143.548 151.905 143.055C152.105 142.809 152.315 142.567 152.539 142.334C152.771 142.102 152.977 141.883 153.282 141.655L153.793 142.407Z" fill="#002636"/>
<path d="M156.458 144.752C155.979 144.998 155.469 145.345 155.012 145.705C154.547 146.075 154.105 146.472 153.694 146.91C153.288 147.348 152.896 147.808 152.554 148.306C152.198 148.794 151.897 149.323 151.609 149.861C151.828 149.295 152.061 148.725 152.358 148.187C152.64 147.64 152.978 147.124 153.338 146.618C153.699 146.116 154.109 145.642 154.547 145.195C154.994 144.747 155.446 144.337 156.007 143.954L156.458 144.752Z" fill="#002636"/>
<path d="M111.11 169.258C112.488 170.676 113.793 172.159 115.079 173.66C116.361 175.16 117.597 176.707 118.815 178.262C120.001 179.841 121.183 181.428 122.291 183.07C123.39 184.717 124.44 186.391 125.366 188.138C124.809 187.322 124.285 186.487 123.71 185.684C123.162 184.863 122.578 184.069 122.004 183.267C120.84 181.675 119.668 180.092 118.455 178.536C117.264 176.962 116.032 175.425 114.81 173.879L111.11 169.258Z" fill="#002636"/>
<path d="M132.24 185.187C132.706 183.12 133.207 181.068 133.764 179.029C134.042 178.007 134.339 176.994 134.658 175.986C134.982 174.982 135.324 173.979 135.771 173.021C135.392 174.006 135.128 175.023 134.877 176.045C134.631 177.067 134.407 178.098 134.206 179.129C133.8 181.191 133.445 183.271 133.134 185.347L132.24 185.187Z" fill="#002636"/>
<path d="M96.0156 145.792C100.03 149.264 103.793 152.99 107.415 156.859C111.037 160.718 114.472 164.755 117.729 168.929C119.39 170.991 120.918 173.153 122.487 175.284L124.727 178.559L125.84 180.201L126.894 181.884C127.592 183.007 128.308 184.12 128.997 185.251L130.963 188.695C131.287 189.27 131.624 189.84 131.939 190.419L132.842 192.185L134.653 195.715L132.819 192.198L131.903 190.442C131.583 189.863 131.241 189.297 130.913 188.722L128.919 185.292C128.221 184.17 127.501 183.061 126.793 181.944L125.726 180.27L124.599 178.636L122.337 175.379C120.754 173.263 119.212 171.114 117.538 169.066C114.253 164.924 110.796 160.919 107.151 157.091C103.51 153.264 99.7197 149.56 95.71 146.143L96.0156 145.792Z" fill="#002636"/>
<path d="M145.204 143.748C144.757 144.154 144.319 144.665 143.936 145.181C143.731 145.436 143.548 145.705 143.361 145.97C143.169 146.235 142.992 146.508 142.814 146.787C142.093 147.881 141.454 149.026 140.834 150.185C139.607 152.507 138.526 154.906 137.504 157.333C137.011 158.551 136.519 159.774 136.049 161.001C135.597 162.237 135.118 163.464 134.694 164.71C134.27 165.955 133.827 167.196 133.421 168.45L132.217 172.214L133.366 168.436C133.754 167.177 134.183 165.932 134.584 164.678C134.99 163.423 135.456 162.191 135.884 160.946C136.336 159.71 136.81 158.478 137.289 157.251C138.275 154.806 139.329 152.384 140.524 150.03C141.13 148.858 141.76 147.694 142.472 146.577C142.645 146.294 142.823 146.016 143.014 145.742C143.201 145.468 143.384 145.19 143.589 144.925C143.785 144.656 143.991 144.392 144.21 144.136C144.429 143.876 144.643 143.634 144.917 143.388L145.204 143.748Z" fill="#002636"/>
<path d="M50.6992 219.701C51.6344 215.29 52.679 210.81 53.7921 206.445C54.9142 202.084 56.114 197.736 57.5965 193.489C56.2554 197.786 55.2062 202.161 54.2345 206.549C53.272 210.942 52.4099 215.281 51.6298 219.701H50.6992Z" fill="#002636"/>
<path d="M179.13 219.988C178.706 217.507 178.268 215.025 177.816 212.548C177.36 210.071 176.913 207.594 176.356 205.135C176.986 207.576 177.506 210.044 178.04 212.507C178.564 214.971 179.157 217.525 179.659 219.993L179.13 219.988Z" fill="#002636"/>
<path d="M155.965 178.322C155.929 176.725 155.865 175.124 155.765 173.523C155.664 171.926 155.537 170.325 155.295 168.742C155.614 170.316 155.815 171.908 155.993 173.504C156.166 175.101 156.308 176.698 156.422 178.303L155.965 178.322Z" fill="#002636"/>
<path d="M90.7021 183.627C91.0078 182.386 91.3727 181.173 91.7833 179.968C92.1984 178.769 92.6637 177.583 93.2339 176.442C93.8087 175.315 94.4701 174.184 95.4509 173.349C95.9207 172.93 96.3541 172.473 96.7282 171.967C97.0931 171.461 97.4261 170.904 97.5402 170.279C97.4535 170.909 97.1387 171.484 96.792 172.013C96.4362 172.537 96.012 173.021 95.5558 173.463C94.6252 174.307 94.0048 175.429 93.4665 176.556C92.9328 177.697 92.504 178.883 92.1254 180.082C91.7513 181.282 91.4183 182.505 91.1538 183.727L90.7021 183.627Z" fill="#002636"/>
<path d="M124.768 214.295C124.768 214.295 123.974 214.254 123.035 213.054C122.095 211.855 118.391 203.165 116.977 200.765L123.226 210.272L125.411 213.182L127.551 214.596L124.768 214.295Z" fill="#EAEAEA"/>
<path d="M129.079 215.094C128.144 215.012 127.328 214.742 126.538 214.346C125.758 213.944 125.056 213.392 124.495 212.722C124.216 212.393 123.97 212.015 123.76 211.659L123.126 210.6L121.831 208.488C120.088 205.678 118.323 202.882 116.553 200.086C118.45 202.795 120.344 205.51 122.218 208.237L123.614 210.29L124.303 211.326C124.527 211.672 124.75 211.978 125.019 212.27C125.548 212.849 126.192 213.306 126.894 213.629C127.588 213.949 128.39 214.154 129.107 214.186L129.079 215.094Z" fill="#002636"/>
<path d="M89.0191 211.558C89.0191 211.558 113.849 216.011 139.54 214.127C139.54 214.127 155.625 212.713 159.607 211.098C159.607 211.098 160.688 210.874 160.944 213.785C161.199 216.695 161.03 219.523 161.03 219.523H88.7637L89.0191 211.558Z" fill="#002636" stroke="#002636" stroke-width="0.912342" stroke-miterlimit="10"/>
<path d="M126.525 206.705L119.934 219.035H135.261L138.171 213.383L126.525 206.705Z" fill="#DBDBDB"/>
<path d="M157.727 151.526C157.727 151.526 157.088 151.307 157.403 150.678C157.717 150.048 159.346 147.334 159.346 147.334C159.346 147.334 160.318 144.989 162.32 146.103C162.32 146.103 168.98 149.734 169.756 150.19C169.756 150.19 171.384 151.088 170.244 153.091L168.127 157.037C168.127 157.037 167.826 157.781 167.069 157.165C166.64 156.823 157.727 151.526 157.727 151.526Z" fill="#686868" stroke="#002636" stroke-width="0.684257" stroke-miterlimit="10"/>
<path d="M157.726 151.526L130.128 201.313L140.88 207.147L167.292 157.169C167.292 157.169 163.903 152.594 157.726 151.526Z" fill="#343434" stroke="#002636" stroke-width="0.684257" stroke-miterlimit="10"/>
<path d="M130.129 201.313C130.129 201.313 129.481 201.162 129.061 201.81L127.154 205.126L139.124 211.873L141.182 207.987C141.182 207.987 141.487 207.453 140.876 207.147L130.129 201.313Z" fill="#686868" stroke="#002636" stroke-width="0.684257" stroke-miterlimit="10"/>
<path d="M160.3 158.729L156.527 158.273L158.699 161.361L162.357 161.818L160.3 158.729Z" fill="white"/>
<path d="M160.285 158.748L156.508 158.387L156.618 158.205L158.849 161.252L158.721 161.174L160.555 161.361C161.166 161.425 161.777 161.503 162.384 161.589L162.165 161.941C161.85 161.425 161.526 160.914 161.216 160.385C160.906 159.856 160.596 159.318 160.285 158.748ZM160.313 158.711C160.691 159.172 161.066 159.66 161.44 160.162C161.814 160.659 162.179 161.179 162.548 161.694L162.84 162.1L162.329 162.046C161.718 161.977 161.107 161.904 160.5 161.818L158.675 161.548L158.589 161.535L158.543 161.471L156.426 158.342L156.28 158.123L156.536 158.159L160.313 158.711Z" fill="#AFAFAF"/>
<path d="M157.974 162.734L154.201 162.274L156.373 165.362L160.031 165.823L157.974 162.734Z" fill="white"/>
<path d="M157.964 162.753L154.187 162.392L154.296 162.21L156.527 165.257L156.399 165.18L158.233 165.367C158.844 165.43 159.456 165.508 160.062 165.595L159.843 165.946C159.529 165.43 159.205 164.919 158.894 164.39C158.58 163.861 158.269 163.323 157.964 162.753ZM157.987 162.712C158.365 163.172 158.739 163.66 159.113 164.162C159.487 164.659 159.852 165.18 160.222 165.695L160.514 166.101L160.003 166.046C159.392 165.978 158.78 165.905 158.174 165.818L156.349 165.549L156.262 165.535L156.217 165.471L154.1 162.342L153.954 162.123L154.21 162.16L157.987 162.712Z" fill="#AFAFAF"/>
<path d="M155.819 167.022L152.047 166.566L154.218 169.65L157.877 170.111L155.819 167.022Z" fill="white"/>
<path d="M155.806 167.041L152.029 166.68L152.138 166.498L154.369 169.545L154.241 169.467L156.075 169.654C156.686 169.718 157.298 169.796 157.904 169.883L157.685 170.234C157.371 169.718 157.047 169.207 156.737 168.678C156.426 168.149 156.116 167.611 155.806 167.041ZM155.833 167.004C156.212 167.465 156.586 167.953 156.96 168.455C157.334 168.952 157.699 169.472 158.069 169.987L158.361 170.393L157.85 170.339C157.238 170.27 156.627 170.197 156.02 170.111L154.196 169.841L154.109 169.828L154.063 169.764L151.947 166.635L151.801 166.416L152.056 166.452L155.833 167.004Z" fill="#AFAFAF"/>
<path d="M153.721 171.251L149.948 170.795L152.12 173.883L155.783 174.339L153.721 171.251Z" fill="white"/>
<path d="M153.713 171.274L149.936 170.914L150.045 170.731L152.276 173.778L152.148 173.701L153.982 173.888C154.593 173.952 155.205 174.029 155.811 174.116L155.592 174.467C155.278 173.952 154.954 173.441 154.643 172.912C154.333 172.378 154.019 171.84 153.713 171.274ZM153.736 171.233C154.114 171.694 154.488 172.182 154.862 172.683C155.236 173.181 155.601 173.701 155.971 174.216L156.263 174.622L155.752 174.567C155.141 174.499 154.529 174.426 153.923 174.339L152.098 174.07L152.011 174.057L151.966 173.993L149.849 170.863L149.703 170.644L149.959 170.681L153.736 171.233Z" fill="#AFAFAF"/>
<path d="M151.13 175.658L147.357 175.197L149.529 178.285L153.187 178.741L151.13 175.658Z" fill="white"/>
<path d="M151.122 175.676L147.345 175.316L147.454 175.133L149.685 178.18L149.557 178.103L151.391 178.29C152.002 178.354 152.614 178.431 153.22 178.518L153.001 178.869C152.687 178.354 152.363 177.843 152.053 177.314C151.738 176.785 151.428 176.246 151.122 175.676ZM151.145 175.635C151.523 176.096 151.898 176.584 152.272 177.086C152.646 177.583 153.011 178.103 153.38 178.618L153.672 179.024L153.161 178.97C152.55 178.901 151.939 178.828 151.332 178.741L149.507 178.472L149.421 178.459L149.375 178.395L147.258 175.265L147.112 175.047L147.368 175.083L151.145 175.635Z" fill="#AFAFAF"/>
<path d="M148.69 179.832L144.918 179.371L147.089 182.459L150.752 182.92L148.69 179.832Z" fill="white"/>
<path d="M148.681 179.85L144.904 179.49L145.013 179.307L147.244 182.354L147.116 182.277L148.95 182.464C149.561 182.528 150.172 182.605 150.779 182.692L150.56 183.043C150.245 182.528 149.921 182.017 149.611 181.488C149.296 180.958 148.986 180.42 148.681 179.85ZM148.703 179.809C149.082 180.27 149.456 180.758 149.83 181.26C150.204 181.757 150.569 182.277 150.939 182.792L151.231 183.198L150.72 183.144C150.108 183.075 149.497 183.002 148.89 182.915L147.066 182.646L146.979 182.633L146.934 182.569L144.817 179.439L144.671 179.22L144.926 179.257L148.703 179.809Z" fill="#AFAFAF"/>
<path d="M146.385 184.348L142.608 183.892L144.784 186.98L148.443 187.436L146.385 184.348Z" fill="white"/>
<path d="M146.372 184.366L142.595 184.006L142.704 183.823L144.935 186.87L144.807 186.793L146.641 186.98C147.252 187.044 147.864 187.121 148.47 187.208L148.251 187.559C147.937 187.044 147.613 186.533 147.303 186.004C146.992 185.474 146.678 184.936 146.372 184.366ZM146.395 184.329C146.773 184.79 147.148 185.278 147.522 185.78C147.896 186.277 148.261 186.797 148.63 187.313L148.922 187.719L148.411 187.664C147.8 187.596 147.189 187.523 146.582 187.436L144.757 187.167L144.671 187.153L144.625 187.089L142.508 183.96L142.362 183.741L142.618 183.777L146.395 184.329Z" fill="#AFAFAF"/>
<path d="M143.982 188.923L140.21 188.462L142.381 191.551L146.044 192.011L143.982 188.923Z" fill="white"/>
<path d="M143.974 188.942L140.197 188.581L140.306 188.399L142.537 191.446L142.409 191.368L144.243 191.555C144.854 191.619 145.465 191.697 146.072 191.783L145.853 192.135C145.538 191.619 145.214 191.108 144.904 190.579C144.589 190.05 144.279 189.512 143.974 188.942ZM143.996 188.9C144.375 189.361 144.749 189.849 145.123 190.351C145.497 190.848 145.862 191.368 146.232 191.884L146.524 192.29L146.013 192.235C145.401 192.167 144.79 192.094 144.183 192.007L142.359 191.738L142.272 191.724L142.226 191.66L140.11 188.531L139.964 188.312L140.219 188.348L143.996 188.9Z" fill="#AFAFAF"/>
<path d="M141.774 193.229L137.997 192.773L140.173 195.861L143.832 196.318L141.774 193.229Z" fill="white"/>
<path d="M141.761 193.248L137.984 192.887L138.093 192.705L140.324 195.752L140.196 195.675L142.03 195.862C142.641 195.925 143.252 196.003 143.859 196.09L143.64 196.441C143.325 195.925 143.002 195.415 142.691 194.885C142.381 194.356 142.066 193.818 141.761 193.248ZM141.784 193.211C142.162 193.672 142.536 194.16 142.91 194.662C143.284 195.159 143.649 195.679 144.019 196.195L144.311 196.601L143.8 196.546C143.189 196.477 142.577 196.404 141.971 196.318L140.146 196.049L140.059 196.035L140.014 195.971L137.897 192.842L137.751 192.623L138.006 192.659L141.784 193.211Z" fill="#AFAFAF"/>
<path d="M139.275 197.536L135.503 197.08L137.674 200.168L141.333 200.624L139.275 197.536Z" fill="white"/>
<path d="M139.266 197.558L135.489 197.198L135.598 197.016L137.829 200.063L137.701 199.985L139.535 200.172C140.146 200.236 140.757 200.314 141.364 200.4L141.145 200.752C140.83 200.236 140.506 199.725 140.196 199.196C139.881 198.662 139.571 198.124 139.266 197.558ZM139.288 197.517C139.667 197.978 140.041 198.466 140.415 198.968C140.789 199.465 141.154 199.985 141.524 200.501L141.816 200.907L141.305 200.852C140.693 200.784 140.082 200.711 139.475 200.624L137.651 200.355L137.564 200.341L137.518 200.277L135.402 197.148L135.256 196.929L135.511 196.965L139.288 197.517Z" fill="#AFAFAF"/>
<path d="M160.3 158.729L156.527 158.273L158.699 161.361L162.357 161.818L160.3 158.729Z" stroke="#AFAFAF" stroke-width="0.228086" stroke-miterlimit="10"/>
<path d="M157.974 162.734L154.201 162.274L156.373 165.362L160.031 165.823L157.974 162.734Z" stroke="#AFAFAF" stroke-width="0.228086" stroke-miterlimit="10"/>
<path d="M155.819 167.022L152.047 166.566L154.218 169.65L157.877 170.111L155.819 167.022Z" stroke="#AFAFAF" stroke-width="0.228086" stroke-miterlimit="10"/>
<path d="M153.721 171.251L149.948 170.795L152.12 173.883L155.783 174.339L153.721 171.251Z" stroke="#AFAFAF" stroke-width="0.228086" stroke-miterlimit="10"/>
<path d="M151.13 175.658L147.357 175.197L149.529 178.285L153.187 178.741L151.13 175.658Z" stroke="#AFAFAF" stroke-width="0.228086" stroke-miterlimit="10"/>
<path d="M148.69 179.832L144.918 179.371L147.089 182.459L150.752 182.92L148.69 179.832Z" stroke="#AFAFAF" stroke-width="0.228086" stroke-miterlimit="10"/>
<path d="M146.385 184.348L142.608 183.892L144.784 186.98L148.443 187.436L146.385 184.348Z" stroke="#AFAFAF" stroke-width="0.228086" stroke-miterlimit="10"/>
<path d="M143.982 188.923L140.21 188.462L142.381 191.551L146.044 192.011L143.982 188.923Z" stroke="#AFAFAF" stroke-width="0.228086" stroke-miterlimit="10"/>
<path d="M141.774 193.229L137.997 192.773L140.173 195.861L143.832 196.318L141.774 193.229Z" stroke="#AFAFAF" stroke-width="0.228086" stroke-miterlimit="10"/>
<path d="M139.275 197.536L135.503 197.08L137.674 200.168L141.333 200.624L139.275 197.536Z" stroke="#AFAFAF" stroke-width="0.228086" stroke-miterlimit="10"/>
<path opacity="0.3" d="M131.962 210.09L127.542 219.035H134.877L137.788 213.383L131.962 210.09Z" fill="#939393"/>
<path d="M126.391 206.235L119.535 219.058H120.338L120.502 218.693L126.661 207.179L137.718 213.52L134.876 219.035L135.652 219.044L138.626 213.251L126.391 206.235Z" fill="#AFAFAF"/>
<path d="M127.154 205.122L124.03 203.329C124.03 203.329 122.885 202.609 122.428 203.407C121.972 204.205 123.19 204.857 123.19 204.857L140.725 214.843C140.725 214.843 141.852 215.514 142.29 214.766C142.824 213.849 141.3 213.128 141.3 213.128L139.129 211.869L127.154 205.122Z" fill="#939393" stroke="#002636" stroke-width="0.684257" stroke-miterlimit="10"/>
<path opacity="0.2" d="M137.82 205.875L135.809 209.606L137.446 210.505L139.453 206.755L137.82 205.875Z" fill="white"/>
<path opacity="0.1" d="M163.023 153.917L135.972 204.1L139.078 205.77L165.6 155.878C165.605 155.874 164.149 154.514 163.023 153.917Z" fill="white"/>
<path opacity="0.1" d="M167.474 149.318L164.737 154.282C164.737 154.282 166.024 155.18 166.503 155.792L169.377 150.363L167.474 149.318Z" fill="white"/>
</g>
<defs>
<clipPath id="clip0_100_15293">
<rect width="220" height="220" rx="110" fill="white"/>
</clipPath>
</defs>
</svg>
