<svg width="476" height="315" viewBox="0 0 476 315" fill="none" xmlns="http://www.w3.org/2000/svg">
<g clip-path="url(#clip0_272_4939)">
<g clip-path="url(#clip1_272_4939)">
<path d="M335.599 133.847C335.599 133.847 319.717 92.2894 256.834 86.6351C193.951 80.9808 161.317 131.023 162.186 167.79C163.055 204.557 173.501 219.794 217.231 230.45C217.231 230.45 222.345 231.32 226.261 231.487C230.178 231.648 296.754 233.609 311.444 194.446C311.444 194.446 320.146 169.317 308.614 146.688C308.614 146.688 300.888 132.109 306.219 129.062C313.712 124.784 343.867 156.911 335.599 133.847Z" fill="url(#paint0_linear_272_4939)"/>
<path d="M335.666 133.819C334.329 130.639 332.574 127.664 330.646 124.812C328.713 121.965 326.574 119.257 324.262 116.712C319.616 111.637 314.363 107.108 308.636 103.28C305.795 101.325 302.787 99.6427 299.751 98.0105C296.676 96.4562 293.55 94.9911 290.331 93.7488C283.913 91.2308 277.25 89.32 270.482 87.9942C263.708 86.6962 256.845 85.8661 249.931 85.6266C243.023 85.3926 236.082 85.9163 229.286 87.2254C222.495 88.5401 215.844 90.6403 209.588 93.6095C203.332 96.5565 197.454 100.3 192.134 104.707C181.528 113.564 173.199 125.051 167.935 137.78C167.25 139.362 166.704 140.995 166.102 142.61C165.595 144.259 165.01 145.88 164.603 147.557C163.668 150.872 163.016 154.264 162.52 157.674C162.046 161.088 161.885 164.542 161.918 167.991C161.996 171.428 162.163 174.871 162.464 178.302C163.077 185.149 164.292 192.029 166.915 198.457C168.23 201.66 169.907 204.73 171.996 207.504C174.074 210.29 176.531 212.78 179.227 214.964C184.642 219.325 190.903 222.479 197.326 224.974C203.755 227.509 219.153 232.818 230.745 231.687C235.302 231.67 239.854 231.442 244.394 231.058C253.469 230.266 262.51 228.796 271.295 226.255C280.047 223.687 288.648 220.612 296.107 215.197C299.818 212.485 303.193 209.281 306.001 205.621C308.809 201.956 311.032 197.867 312.502 193.444C314.92 184.592 315.756 175.339 314.786 166.225C314.63 165.088 314.575 163.946 314.324 162.821L313.683 159.445C313.082 157.233 312.569 155 311.717 152.872C311.026 150.688 309.951 148.649 309.015 146.565C307.973 144.571 307.048 142.51 306.263 140.399C305.5 138.287 304.842 136.109 304.67 133.897C304.592 132.8 304.664 131.669 305.093 130.7C305.522 129.736 306.425 129.012 307.489 128.928C308.558 128.828 309.667 129.101 310.72 129.452C311.778 129.808 312.809 130.271 313.817 130.778C315.834 131.792 317.783 132.95 319.705 134.154C323.56 136.532 327.276 139.167 331.354 141.206C332.384 141.691 333.437 142.159 334.59 142.32C335.153 142.387 335.794 142.387 336.295 142.014C336.808 141.658 336.997 141.034 337.058 140.465C337.175 139.307 336.925 138.176 336.663 137.073C336.407 135.975 336.05 134.895 335.666 133.819ZM335.532 133.87C335.905 134.939 336.256 136.014 336.524 137.112C336.78 138.204 337.014 139.335 336.891 140.443C336.83 140.983 336.641 141.546 336.195 141.853C335.766 142.176 335.17 142.181 334.629 142.114C333.526 141.953 332.479 141.485 331.465 141C327.432 138.95 323.727 136.293 319.884 133.886C317.962 132.677 316.034 131.474 314.006 130.421C312.992 129.898 311.956 129.413 310.876 129.029C309.795 128.65 308.653 128.338 307.45 128.433C306.224 128.499 305.099 129.368 304.603 130.466C304.096 131.569 304.012 132.783 304.074 133.936C304.219 136.259 304.859 138.482 305.6 140.644C306.363 142.8 307.266 144.9 308.291 146.944C309.177 149.011 310.202 151.022 310.842 153.184C311.644 155.289 312.112 157.495 312.664 159.673L313.238 162.994C313.349 163.545 313.416 164.102 313.466 164.665L313.644 166.342C314.508 175.288 313.589 184.419 311.137 193.037C309.728 197.204 307.567 201.204 304.854 204.73C302.135 208.262 298.859 211.37 295.238 214.005C287.969 219.27 279.551 222.813 270.916 225.331C262.265 227.86 253.313 229.364 244.316 230.188C239.815 230.59 235.297 230.835 230.784 230.868C228.523 230.879 226.272 230.879 224.049 230.673C221.815 230.473 219.57 230.172 217.353 229.815L217.398 229.826C210.746 228.194 204.123 226.395 197.739 223.938C191.354 221.52 185.16 218.473 179.817 214.245C177.154 212.134 174.731 209.716 172.67 207.008C170.598 204.312 168.932 201.31 167.617 198.168C164.993 191.861 163.74 185.054 163.088 178.246C162.765 174.837 162.576 171.411 162.475 167.98C162.42 164.559 162.559 161.133 163.005 157.735C163.484 154.348 164.074 150.961 165.038 147.674C165.45 146.008 166.041 144.398 166.548 142.766C167.149 141.162 167.706 139.541 168.392 137.97C173.65 125.313 182.09 114.01 192.691 105.381C203.315 96.7626 216.111 90.969 229.52 88.4454C236.227 87.1697 243.074 86.724 249.898 86.8745C256.722 87.0639 263.546 87.8382 270.27 89.0805C283.696 91.5651 296.876 96.1665 308.369 103.687C314.129 107.403 319.432 111.837 324.067 116.89C326.385 119.419 328.535 122.104 330.479 124.928C332.418 127.753 334.189 130.722 335.532 133.87Z" fill="#002636"/>
<path opacity="0.3" d="M331.354 126.917C331.354 126.917 333.42 133.301 332.072 134.917C330.724 136.533 310.045 121.881 300.157 126.466C300.157 126.466 299.667 127.185 299.617 129.073C299.572 130.828 299.929 133.925 300.38 136.627C300.831 139.324 304.335 148.214 305.728 153.707C309.951 170.336 311.572 205.399 282.715 221.041L285.952 220.144L296.291 214.568L305.728 204.68L310.764 196.407L312.474 190.385L314.363 181.572L314.541 173.751L314.09 164.492L312.742 157.479L310.675 151.005L308.246 145.702L306.09 141.479L304.965 137.613L304.074 133.942L304.608 130.962L305.912 129.118L309.734 128.756L312.029 129.697L318.452 132.895L325.332 137.257L328.161 138.967L332.434 141.351L335.264 141.758L336.345 140.633C336.345 140.633 336.796 138.026 336.657 137.936C336.518 137.847 335.353 133.485 335.353 133.485C335.353 133.485 333.688 130.516 333.599 130.382C333.509 130.249 331.354 126.917 331.354 126.917Z" fill="#214354"/>
<path opacity="0.5" d="M309.734 128.761L307.35 127.82L304.359 127.358L301.283 127.397C301.283 127.397 300.515 127.491 300.548 128.238C300.582 128.979 304.559 137.24 304.559 137.24L304.292 134.377L304.593 131.207L305.907 129.129L307.913 128.316L309.734 128.761Z" fill="#214354"/>
<path d="M308.903 127.926C308.068 127.72 307.226 127.558 306.38 127.447C305.533 127.33 304.681 127.263 303.828 127.252C302.976 127.224 302.129 127.296 301.288 127.391C302.135 127.38 302.976 127.391 303.817 127.491C304.653 127.58 305.483 127.72 306.296 127.915C307.109 128.104 307.917 128.332 308.703 128.611C309.483 128.884 311.527 129.591 311.644 129.357C311.761 129.123 312.162 129.19 308.903 127.926Z" fill="#002636"/>
<path opacity="0.5" d="M311.723 152.877C311.723 152.877 314.676 168.854 311.439 185.171C308.202 201.488 304.158 207.287 304.158 207.287L307.462 202.636L310.765 196.407L313.261 188.742L314.341 180.447L314.542 171.211L314.091 164.492L311.723 152.877Z" fill="#214354"/>
<path opacity="0.3" d="M162.832 155.774L166.103 142.61L171.328 130.828L178.882 119.096L188.698 108.768L196.681 101.431L209.594 93.6097L221.359 89.699L230.662 87.5431L237.002 86.7353L246.439 86.0613L255.475 86.3287L270.482 87.9999L278.398 90.7797C278.398 90.7797 250.35 85.3872 228.234 91.5875C206.117 97.7934 182.52 117.932 175.032 147.373C175.032 147.373 170.62 164.208 170.203 175.712C169.785 187.216 174.542 209.538 186.698 219.292L181.706 216.462L175.64 211.07L171.189 205.945L167.952 199.878L165.389 192.19L163.908 187.739L162.465 178.308L162.42 164.409L162.832 155.774Z" fill="#214354"/>
<path opacity="0.5" d="M162.342 162.788C162.342 162.788 164.732 184.224 168.331 194.118C171.929 204.012 179.238 214.964 179.238 214.964L175.651 211.064L171.606 206.658L168.37 200.814L165.852 194.519L164.141 188.586L163.15 181.935L162.609 174.654L162.158 167.1L162.342 162.788Z" fill="#214354"/>
<path d="M188.161 108.038C200.673 96.3228 222.75 83.0031 256.821 86.0726C289.405 89.0028 309.159 101.732 319.994 111.899C331.748 122.923 335.849 133.413 335.888 133.519V133.525C337.587 138.271 337.782 140.956 336.489 141.981C334.378 143.658 328.991 140.187 322.757 136.165C316.445 132.098 309.281 127.491 306.357 129.168C301.388 132.009 308.813 146.17 308.891 146.315C320.362 168.821 311.827 194.101 311.738 194.363C298.663 229.236 244.905 231.704 229.976 231.704C227.887 231.704 226.555 231.654 226.204 231.643C222.31 231.481 217.18 230.618 217.107 230.601C175.059 220.913 162.703 206.229 161.789 167.595C161.288 146.555 171.393 123.737 188.161 108.038ZM162.502 167.579C162.976 187.589 166.268 199.438 173.867 208.479C181.794 217.911 195.181 224.518 217.246 229.894C217.297 229.905 222.383 230.763 226.232 230.924C229.084 231.047 296.335 233.381 311.058 194.124C311.148 193.873 319.582 168.882 308.251 146.649C307.928 146.042 300.429 131.725 305.995 128.544C306.529 128.238 307.153 128.104 307.861 128.104C311.56 128.104 316.78 131.04 322.484 134.717C327.988 138.26 333.682 141.925 335.381 140.572C336.06 140.031 336.467 138.265 334.551 132.923C334.317 132.321 318.54 92.3509 256.749 86.7912C222.929 83.7496 201.052 96.9523 188.64 108.567C172.028 124.127 162.012 146.738 162.502 167.579Z" fill="#002636"/>
</g>
<path d="M191.5 200.605C107.571 170.142 3.78398 213.296 8.13219 230.162C11.9895 245.123 51.9699 213.296 139.271 221.001C218.477 227.992 214.408 250.571 281.048 266.23C352.011 282.904 413.162 219.097 447.033 213.296C489.372 206.044 468.389 196.073 439.539 200.605C417.433 204.078 257.015 224.385 191.5 200.605Z" fill="#D6DAE5" fill-opacity="0.8"/>
<path d="M191.841 199.665C149.627 184.343 102.48 187.547 66.4666 196.666C48.4552 201.226 33.178 207.279 22.6515 213.275C17.3946 216.27 13.275 219.277 10.5938 222.113C7.96392 224.894 6.48245 227.768 7.16386 230.411C7.72373 232.583 8.99397 233.996 10.9608 234.69C12.8273 235.35 15.2445 235.334 18.1063 234.95C22.0729 234.417 27.2318 233.117 33.56 231.523C36.3595 230.818 39.3879 230.055 42.6431 229.275C63.9705 224.167 95.6762 218.157 139.183 221.997C178.658 225.481 197.323 232.839 214.43 241.262C216.992 242.524 219.522 243.811 222.084 245.114C236.703 252.552 252.354 260.515 280.82 267.203C316.655 275.624 349.953 263.705 378.407 249.081C388.164 244.066 397.392 238.71 405.959 233.738C409.875 231.466 413.652 229.273 417.278 227.231C428.9 220.684 438.929 215.699 447.202 214.282C457.803 212.466 464.565 210.463 468.251 208.499C470.057 207.537 471.34 206.474 471.808 205.258C472.059 204.607 472.065 203.935 471.819 203.297C471.581 202.685 471.138 202.173 470.605 201.749C469.552 200.911 467.945 200.252 466.003 199.749C464.037 199.24 461.634 198.868 458.911 198.659C453.464 198.242 446.666 198.473 439.384 199.617C428.363 201.349 382.767 207.29 331.748 209.826C306.24 211.094 279.393 211.51 254.843 210.127C230.275 208.743 208.081 205.56 191.841 199.665Z" stroke="#A0A2AC" stroke-opacity="0.6" stroke-width="2"/>
<path fill-rule="evenodd" clip-rule="evenodd" d="M9.00779 226.169C8.98134 226.635 9.02212 227.086 9.13219 227.519C10.763 233.94 18.8505 231.871 34.2409 227.936C55.2534 222.562 89.8789 213.707 140.271 218.221C185.788 222.299 203.804 231.602 223.543 241.794C238.152 249.338 253.704 257.369 282.048 264.129C329.694 275.492 372.917 250.03 406.429 230.288C422.829 220.627 436.903 212.335 448.033 210.401C461.025 208.142 468.055 205.623 470.724 203.35C472.446 206.195 466.288 210.113 447.033 213.46C435.903 215.395 421.829 223.686 405.429 233.348C371.917 253.09 328.694 278.552 281.048 267.188C252.704 260.428 237.152 252.398 222.543 244.854C202.804 234.662 184.788 225.359 139.271 221.281C88.8789 216.767 54.2534 225.622 33.2409 230.995C17.8505 234.931 9.763 236.999 8.13219 230.579C7.7955 229.253 8.10717 227.768 9.00779 226.169Z" fill="#9A9DA7" fill-opacity="0.6"/>
<path fill-rule="evenodd" clip-rule="evenodd" d="M8.13219 230.162C3.78398 213.296 107.571 170.142 191.5 200.605C257.015 224.385 417.433 204.078 439.539 200.605C455.923 198.031 469.769 200.135 470.922 203.761C465.266 202.252 455.467 201.888 444.539 203.605C422.433 207.078 262.015 227.385 196.5 203.605C112.571 173.142 8.78398 216.296 13.1322 233.162C13.2265 233.527 13.3424 233.865 13.48 234.176C10.5659 233.95 8.80293 232.763 8.13219 230.162Z" fill="#FDFDFF" fill-opacity="0.6"/>
<path d="M239.882 292.992C170.568 309.5 88.2887 302.006 91.0686 284.5C93.5346 268.97 150.679 279.819 206.491 271.822C257.128 264.566 261.47 239 307.068 239C371.006 239 381.592 273.798 403.246 279.819C430.314 287.347 416.9 297.697 398.455 292.992C384.323 289.387 287.175 281.728 239.882 292.992Z" fill="#D6DAE5" fill-opacity="0.8"/>
<path d="M240.113 293.965C205.352 302.244 167.351 304.504 138.371 302.499C123.889 301.497 111.599 299.427 103.074 296.479C98.8192 295.008 95.4238 293.292 93.1646 291.322C90.8895 289.338 89.6609 286.988 90.0809 284.343C90.445 282.051 91.8266 280.297 93.9129 278.979C95.9722 277.678 98.7639 276.767 102.102 276.111C108.782 274.799 117.989 274.451 128.764 274.336C132.433 274.298 136.29 274.286 140.302 274.273C159.927 274.213 183.249 274.142 206.349 270.832C230.271 267.404 243.751 259.875 256.298 252.868C256.928 252.515 257.556 252.165 258.183 251.816C271.359 244.484 284.021 238 307.068 238C339.253 238 358.084 246.769 371.591 256.335C376.355 259.709 380.472 263.197 384.242 266.39C385.781 267.694 387.263 268.948 388.706 270.126C393.726 274.222 398.313 277.41 403.514 278.856C410.324 280.75 414.734 282.856 417.165 284.958C418.384 286.013 419.184 287.134 419.462 288.305C419.75 289.52 419.443 290.656 418.709 291.605C417.998 292.523 416.905 293.25 415.601 293.798C414.287 294.351 412.697 294.748 410.915 294.97C407.349 295.413 402.926 295.165 398.208 293.961C394.766 293.083 386.125 291.934 374.278 290.884C362.464 289.836 347.537 288.894 331.574 288.416C299.615 287.459 263.621 288.366 240.113 293.965Z" stroke="#A0A2AC" stroke-opacity="0.6" stroke-width="2"/>
<path fill-rule="evenodd" clip-rule="evenodd" d="M91.0137 285.732C106.254 298.538 176.49 302.376 236.882 287.992C284.176 276.728 381.323 284.387 395.456 287.992C405.749 290.618 414.476 288.554 415.474 284.91C424.288 291.114 412.918 296.681 398.456 292.992C384.323 289.387 287.176 281.728 239.882 292.992C172.217 309.108 92.1958 302.349 91.0137 285.732Z" fill="#9A9DA7" fill-opacity="0.6"/>
<path fill-rule="evenodd" clip-rule="evenodd" d="M96.9444 292.722C92.716 290.341 90.5803 287.575 91.0686 284.5C92.5106 275.419 112.649 275.358 140.284 275.274C159.909 275.214 183.315 275.143 206.491 271.822C230.598 268.367 244.212 260.763 256.78 253.744C270.612 246.018 283.177 239 307.068 239C342.851 239 361.923 249.899 375.578 260.553C362.193 250.947 343.49 242 311.069 242C287.178 242 274.613 249.018 260.781 256.744C248.213 263.763 234.599 271.367 210.492 274.822C187.316 278.143 163.91 278.214 144.285 278.274C116.65 278.358 96.5116 278.419 95.0695 287.5C94.7743 289.359 95.4384 291.105 96.9444 292.722ZM393.258 274.855C396.479 277.091 399.715 278.838 403.246 279.819C411.146 282.016 415.597 284.453 417.482 286.687C415.062 285.374 411.703 284.058 407.247 282.819C402.259 281.432 397.858 278.518 393.258 274.855Z" fill="#FDFDFF" fill-opacity="0.6"/>
<path opacity="0.3" d="M237 24L249.069 39L262 24" stroke="#F4F4F4" stroke-width="32" stroke-linecap="round"/>
</g>
<defs>
<linearGradient id="paint0_linear_272_4939" x1="253.839" y1="92.5757" x2="252.093" y2="231.685" gradientUnits="userSpaceOnUse">
<stop stop-color="#DFDFDF"/>
<stop offset="1" stop-color="#DFDFDF" stop-opacity="0"/>
</linearGradient>
<clipPath id="clip0_272_4939">
<rect width="476" height="315" fill="white"/>
</clipPath>
<clipPath id="clip1_272_4939">
<rect width="184.393" height="232.302" fill="white" transform="matrix(-1 0 0 1 337.393 86)"/>
</clipPath>
</defs>
</svg>
