<svg width="480" height="480" viewBox="0 0 480 480" fill="none" xmlns="http://www.w3.org/2000/svg">
<g clip-path="url(#clip0_277_255033)">
<path opacity="0.3" fill-rule="evenodd" clip-rule="evenodd" d="M207.465 89.9023C118.115 97.9346 95.5483 156.971 95.5483 156.971C88.7045 176.059 100.392 168.534 113.447 160.129C122.798 154.108 132.851 147.636 137.294 150.173C144.87 154.502 133.891 175.212 133.891 175.212C117.506 207.357 129.87 243.056 129.87 243.056C138.576 266.26 160.109 279.302 182.657 286.604L181.802 286.628C181.802 286.628 148.415 301.925 122.912 418.296L347.353 418.763C345.501 403.466 333.438 352.462 321.849 320.008C310.253 287.554 298.198 283.384 298.198 283.384L297.333 283.408C331.577 268.453 340.976 246.292 341.947 205.189C343.182 152.958 296.814 81.87 207.465 89.9023Z" fill="url(#paint0_linear_277_255033)"/>
<path opacity="0.3" d="M177.996 290.925C177.996 290.925 208.858 307.148 251.775 306.634C251.775 306.634 275.798 308.201 301.531 286.628C301.531 286.628 299.909 284.958 298.072 284.064C269.451 299.173 209.524 296.795 184.225 287.032C180.742 288.124 177.996 290.925 177.996 290.925Z" fill="#214354"/>
<path opacity="0.5" d="M189.853 288.883C189.853 288.883 226.255 302.867 254.426 299.227C282.597 295.586 296.386 284.286 296.386 284.286L267.835 292.714L254.229 296.164L235.05 295.563L217.058 293.869L189.853 288.883Z" fill="#214354"/>
<path d="M95.4539 156.931C97.3536 152.412 99.847 148.186 102.586 144.135C105.332 140.091 108.372 136.245 111.657 132.628C118.258 125.419 125.723 118.985 133.86 113.548C137.896 110.771 142.171 108.381 146.485 106.062C150.854 103.854 155.295 101.773 159.87 100.008C168.988 96.4309 178.455 93.7165 188.072 91.8331C197.697 89.9892 207.449 88.8101 217.272 88.4698C227.087 88.1374 236.95 88.8813 246.607 90.741C256.256 92.6086 265.707 95.5921 274.596 99.8101C283.485 103.996 291.835 109.314 299.395 115.574C314.465 128.157 326.299 144.475 333.779 162.558C334.753 164.805 335.528 167.124 336.383 169.419C337.104 171.761 337.935 174.064 338.512 176.446C339.842 181.155 340.768 185.974 341.473 190.817C342.146 195.668 342.375 200.575 342.328 205.473C342.217 210.356 341.979 215.247 341.552 220.122C340.681 229.847 338.956 239.621 335.228 248.753C333.36 253.304 330.977 257.664 328.009 261.605C325.056 265.562 321.566 269.099 317.735 272.201C310.041 278.398 301.144 282.877 292.017 286.422C282.883 290.023 261.005 297.565 244.533 295.958C238.058 295.935 231.591 295.61 225.14 295.064C212.246 293.94 199.399 291.851 186.917 288.242C174.481 284.594 162.26 280.226 151.661 272.534C146.39 268.68 141.593 264.13 137.604 258.93C133.614 253.723 130.456 247.914 128.366 241.631C124.931 229.056 123.744 215.912 125.121 202.965C125.343 201.35 125.422 199.728 125.778 198.129L126.688 193.334C127.543 190.192 128.271 187.019 129.482 183.996C130.464 180.894 131.992 177.997 133.321 175.037C134.802 172.204 136.115 169.276 137.232 166.277C138.316 163.278 139.25 160.183 139.495 157.042C139.606 155.483 139.503 153.876 138.894 152.499C138.284 151.13 137.002 150.101 135.49 149.983C133.97 149.84 132.395 150.228 130.899 150.727C129.395 151.233 127.931 151.89 126.498 152.61C123.633 154.05 120.862 155.696 118.132 157.406C112.654 160.785 107.375 164.528 101.58 167.424C100.116 168.113 98.6201 168.778 96.9816 169.007C96.1822 169.102 95.2719 169.102 94.5595 168.572C93.8313 168.065 93.5622 167.179 93.4751 166.372C93.3089 164.726 93.6651 163.119 94.0371 161.553C94.4012 159.994 94.9078 158.458 95.4539 156.931ZM95.6439 157.002C95.1136 158.522 94.6149 160.049 94.235 161.608C93.8709 163.159 93.5384 164.765 93.7126 166.34C93.7996 167.108 94.0688 167.907 94.702 168.342C95.3115 168.801 96.1584 168.809 96.9262 168.714C98.4935 168.485 99.9816 167.82 101.422 167.132C107.153 164.219 112.417 160.445 117.878 157.026C120.609 155.309 123.348 153.599 126.229 152.104C127.67 151.36 129.142 150.671 130.678 150.125C132.213 149.587 133.836 149.144 135.546 149.278C137.287 149.373 138.886 150.608 139.59 152.167C140.311 153.734 140.429 155.459 140.342 157.097C140.136 160.397 139.226 163.555 138.173 166.625C137.089 169.688 135.807 172.671 134.35 175.576C133.092 178.512 131.635 181.368 130.725 184.439C129.585 187.43 128.92 190.564 128.137 193.658L127.321 198.375C127.163 199.158 127.068 199.95 126.997 200.749L126.744 203.131C125.517 215.84 126.823 228.811 130.306 241.053C132.308 246.973 135.379 252.655 139.234 257.664C143.097 262.681 147.751 267.097 152.896 270.84C163.226 278.319 175.186 283.352 187.455 286.929C199.747 290.522 212.467 292.658 225.251 293.829C231.647 294.399 238.066 294.747 244.477 294.795C247.691 294.811 250.889 294.811 254.047 294.518C257.221 294.233 260.411 293.806 263.561 293.299L263.498 293.315C272.949 290.996 282.361 288.44 291.432 284.95C300.503 281.516 309.305 277.187 316.895 271.181C320.679 268.181 324.122 264.747 327.051 260.901C329.995 257.071 332.362 252.805 334.23 248.342C337.958 239.383 339.739 229.713 340.665 220.042C341.125 215.199 341.394 210.332 341.536 205.458C341.615 200.599 341.417 195.732 340.784 190.904C340.103 186.093 339.264 181.281 337.895 176.612C337.309 174.246 336.47 171.959 335.75 169.64C334.895 167.361 334.104 165.058 333.13 162.827C325.658 144.847 313.666 128.79 298.603 116.532C283.508 104.289 265.327 96.059 246.274 92.4741C236.744 90.6619 227.016 90.0288 217.32 90.2424C207.623 90.5115 197.927 91.6115 188.373 93.3763C169.297 96.9058 150.569 103.442 134.24 114.126C126.055 119.404 118.52 125.704 111.934 132.881C108.641 136.474 105.586 140.288 102.823 144.301C100.069 148.313 97.5515 152.531 95.6439 157.002Z" fill="#002636"/>
<path opacity="0.3" d="M101.58 147.126C101.58 147.126 98.6431 156.195 100.559 158.49C102.474 160.785 131.856 139.972 145.906 146.485C145.906 146.485 146.602 147.506 146.673 150.189C146.737 152.681 146.23 157.081 145.589 160.919C144.948 164.75 139.969 177.38 137.99 185.183C131.99 208.805 129.687 258.614 170.689 280.835L166.09 279.561L151.399 271.64L137.99 257.593L130.835 245.841L128.405 237.286L125.721 224.767L125.468 213.656L126.109 200.504L128.025 190.54L130.961 181.345L134.413 173.811L137.476 167.812L139.075 162.32L140.341 157.105L139.581 152.871L137.729 150.252L132.299 149.737L129.038 151.075L119.912 155.617L110.136 161.814L106.115 164.243L100.044 167.63L96.0231 168.208L94.4875 166.609C94.4875 166.609 93.8464 162.906 94.0443 162.779C94.2421 162.653 95.8965 156.456 95.8965 156.456C95.8965 156.456 98.2632 152.238 98.3898 152.048C98.5165 151.858 101.58 147.126 101.58 147.126Z" fill="#214354"/>
<path opacity="0.5" d="M132.3 149.745L135.688 148.408L139.938 147.751L144.307 147.806C144.307 147.806 145.4 147.941 145.352 149.001C145.305 150.054 139.653 161.79 139.653 161.79L140.033 157.722L139.606 153.219L137.738 150.268L134.888 149.112L132.3 149.745Z" fill="#214354"/>
<path d="M133.48 148.558C134.667 148.265 135.862 148.036 137.065 147.878C138.268 147.712 139.479 147.617 140.691 147.601C141.902 147.561 143.105 147.664 144.3 147.799C143.097 147.783 141.902 147.799 140.706 147.941C139.519 148.068 138.34 148.265 137.184 148.542C136.028 148.812 134.881 149.136 133.765 149.532C132.656 149.919 129.751 150.924 129.585 150.592C129.419 150.26 128.849 150.355 133.48 148.558Z" fill="#002636"/>
<path opacity="0.5" d="M129.474 184.004C129.474 184.004 125.279 206.7 129.878 229.879C134.476 253.058 140.223 261.296 140.223 261.296L135.529 254.688L130.835 245.841L127.289 234.952L125.754 223.168L125.469 210.047L126.11 200.504L129.474 184.004Z" fill="#214354"/>
<path opacity="0.3" d="M341.029 188.119L336.383 169.419L328.958 152.681L318.225 136.015L304.278 121.343L292.935 110.921L274.587 99.8101L257.87 94.2547L244.651 91.1921L235.643 90.0446L222.234 89.087L209.396 89.4669L188.072 91.841L176.824 95.7899C176.824 95.7899 216.678 88.1295 248.102 96.9374C279.526 105.753 313.056 134.361 323.694 176.185C323.694 176.185 329.963 200.1 330.557 216.442C331.15 232.783 324.391 264.494 307.119 278.35L314.211 274.33L322.831 266.67L329.156 259.389L333.755 250.771L337.396 239.85L339.501 233.527L341.551 220.129L341.615 200.385L341.029 188.119Z" fill="#214354"/>
<path opacity="0.5" d="M137.065 368.012C139.218 364.024 130.439 406.932 132.735 419.317L123.426 419.301C123.426 419.293 134.912 372.001 137.065 368.012Z" fill="#214354"/>
<path opacity="0.5" d="M341.726 198.082C341.726 198.082 338.33 228.534 333.217 242.588C328.103 256.643 317.718 272.201 317.718 272.201L322.816 266.662L328.562 260.402L333.161 252.101L336.739 243.158L339.169 234.73L340.578 225.281L341.346 214.938L341.987 204.207L341.726 198.082Z" fill="#214354"/>
<path d="M344.369 400.68C344.963 403.679 345.549 406.671 346.071 409.686C346.601 412.685 347.108 415.708 347.425 418.826C346.491 412.946 345.113 406.726 343.783 400.807C342.454 394.848 340.974 388.928 339.525 383.001C336.565 371.162 333.359 359.378 329.9 347.682C328.166 341.842 326.401 336.001 324.478 330.217C322.586 324.416 320.568 318.671 318.256 313.06C315.945 307.457 313.278 301.981 310.016 296.908C308.41 294.36 306.613 291.93 304.642 289.691C303.644 288.583 302.6 287.507 301.468 286.565C300.407 285.655 298.636 284.463 297.512 283.957L298.215 282.505C298.309 282.497 298.397 282.521 298.476 282.553C300.138 283.265 301.333 284.191 302.568 285.212C303.787 286.217 304.879 287.332 305.932 288.488C308.006 290.814 309.866 293.307 311.52 295.919C314.861 301.134 317.512 306.713 319.831 312.395C322.143 318.093 324.137 323.886 325.998 329.71C327.889 335.527 329.623 341.391 331.333 347.263C334.649 359.03 337.681 370.869 340.483 382.763C341.876 388.714 343.158 394.689 344.369 400.68Z" fill="#002636"/>
<path d="M177.805 288.963C179.008 287.981 180.243 287.071 181.652 286.312L183.94 287.214L183.362 287.467C182.088 288.171 180.41 288.717 179.254 289.683L177.536 291.171C176.99 291.693 176.46 292.247 175.921 292.777C175.391 293.323 174.837 293.837 174.33 294.407L172.834 296.132L171.338 297.858C170.856 298.443 170.412 299.068 169.945 299.67C169.035 300.889 167.563 302.511 166.684 303.753L162.647 309.19C162.244 309.839 161.872 310.504 161.484 311.16L159.18 315.109C153.204 325.753 148.178 336.674 143.825 348.07C142.756 350.927 141.798 353.823 140.785 356.704L139.281 361.024L138.529 363.185L137.864 365.377L135.205 374.137C134.31 377.058 133.4 379.97 132.664 382.937L130.313 391.793C129.537 394.745 128.682 397.681 128.033 400.664L123.439 419C122.901 418.992 121.907 418.842 121.907 418.304C121.907 418.232 121.915 418.153 121.93 418.082L126.189 400.205C126.854 397.214 127.732 394.278 128.524 391.318L130.97 382.463C131.746 379.495 132.688 376.583 133.614 373.663L136.384 364.902L137.081 362.71L137.856 360.55L139.416 356.229C140.468 353.356 141.45 350.452 142.558 347.595C147.07 336.207 152.041 324.97 158.12 314.31L160.471 310.353C160.866 309.696 161.246 309.032 161.658 308.383L162.948 306.476L165.521 302.661C166.415 301.419 167.381 300.224 168.307 298.997C168.782 298.396 169.233 297.778 169.724 297.185L171.243 295.452L172.763 293.719C173.27 293.149 173.848 292.627 174.386 292.081C174.94 291.542 175.478 290.989 176.04 290.466L177.805 288.963Z" fill="#002636"/>
<path opacity="0.5" d="M299.663 318.591C299.663 318.591 305.196 325.666 310.175 343.29C315.154 360.914 319.879 403.948 320.647 417.362L320.671 419.419L313.57 419.38L312.985 416.531V410.018L312.605 395.014L311.584 380.65L309.858 364.752L306.985 348.663L304.238 335.574L301.808 325.484L299.663 318.591Z" fill="#214354"/>
<path d="M310.27 375.657C310.674 380.476 311.11 385.296 311.331 390.131C311.664 394.958 311.83 399.794 312.051 404.621C312.344 409.195 311.577 414.553 311.759 419.142L313.627 419.38C313.658 417.204 313.864 413.951 313.88 411.775C313.896 409.345 313.912 406.916 313.825 404.494L313.571 397.214C313.492 394.784 313.247 392.371 313.088 389.949C312.764 385.106 312.218 380.278 311.711 375.451C310.587 365.804 309.154 356.197 307.239 346.677C305.252 337.181 302.965 327.724 299.656 318.591C299.64 318.552 299.593 318.528 299.545 318.544C299.506 318.56 299.482 318.607 299.498 318.655C302.593 327.835 303.97 337.331 305.735 346.835C307.5 356.355 309.313 366.034 310.27 375.657Z" fill="#002636"/>
<path opacity="0.5" d="M203.246 327.985C203.246 327.985 206.096 326.837 205.074 333.477C204.053 340.117 200.523 398.836 201.544 419.522H191.025L190.257 400.395L193.067 364.127L195.172 350.017L196.755 341.446L199.391 334.3L200.436 331.72L201.71 329.093L203.246 327.985Z" fill="#214354"/>
<path d="M191.001 418.296C191.001 417.908 190.993 417.52 191.001 417.132C191.064 407.011 191.246 396.881 191.816 386.76C192.41 376.646 192.782 366.532 194.088 356.49C194.729 351.465 195.497 346.455 196.716 341.541C197.325 339.088 198.006 336.642 198.877 334.268C199.304 333.081 199.803 331.918 200.381 330.794C200.673 330.24 200.99 329.686 201.362 329.188C201.726 328.697 202.161 328.175 202.692 327.961L202.723 327.945C202.763 327.93 202.787 327.882 202.771 327.842C202.755 327.803 202.708 327.779 202.668 327.795C201.995 328.04 201.599 328.563 201.196 329.061C200.8 329.568 200.468 330.114 200.159 330.676C199.549 331.799 199.019 332.963 198.568 334.15C197.65 336.524 196.906 338.961 196.241 341.414C194.911 346.321 194.032 351.354 193.28 356.371C191.808 366.43 190.803 376.543 190.051 386.673C189.307 396.802 188.753 406.963 188.903 417.14C188.911 417.52 188.927 417.908 188.935 418.296H191.001Z" fill="#002636"/>
<path d="M305.038 120.306C287.26 103.664 255.891 84.7424 207.481 89.1028C161.183 93.2654 133.115 111.348 117.72 125.791C101.018 141.452 95.1925 156.353 95.1371 156.504V156.511C92.7229 163.254 92.4458 167.068 94.2822 168.524C97.2821 170.906 104.936 165.976 113.794 160.263C122.762 154.486 132.941 147.941 137.097 150.323C144.157 154.359 133.606 174.475 133.495 174.681C117.197 206.652 129.324 242.565 129.451 242.937C148.028 292.476 224.412 295.982 245.625 295.982C248.593 295.982 250.485 295.911 250.984 295.895C256.517 295.665 263.807 294.439 263.91 294.415C323.655 280.653 341.211 259.793 342.51 204.911C343.222 175.022 328.863 142.607 305.038 120.306ZM341.496 204.888C340.824 233.314 336.146 250.146 325.349 262.99C314.085 276.388 295.065 285.773 263.712 293.41C263.64 293.426 256.414 294.645 250.944 294.874C246.891 295.048 151.337 298.364 130.416 242.596C130.29 242.24 118.306 206.74 134.406 175.156C134.865 174.293 145.519 153.955 137.611 149.437C136.851 149.001 135.965 148.811 134.96 148.811C129.704 148.811 122.287 152.982 114.182 158.205C106.361 163.238 98.2716 168.445 95.8574 166.522C94.8917 165.755 94.3139 163.246 97.0368 155.657C97.3692 154.802 119.786 98.0215 207.584 90.1237C255.638 85.8028 286.722 104.558 304.357 121.058C327.961 143.161 342.193 175.283 341.496 204.888Z" fill="#002636"/>
</g>
<mask id="path-18-outside-1_277_255033" maskUnits="userSpaceOnUse" x="10" y="381" width="456" height="77" fill="black">
<rect fill="white" x="10" y="381" width="456" height="77"/>
<path fill-rule="evenodd" clip-rule="evenodd" d="M17 456C60.1236 424.5 132.753 383 182.307 383C207.261 383 240.079 394.729 274.001 406.853C307.442 418.805 341.956 431.14 371.068 433C496.278 441 490.982 456 371.068 456C342.109 456 309.587 446.347 279.426 437.394C236.702 424.713 198.716 413.437 182.307 433C168.101 449.937 137.28 446.268 111.141 443.156C101.784 442.042 93.0266 441 85.8465 441C70.7096 441 56.5074 445.633 43.8893 449.75C33.8036 453.04 24.7299 456 17 456ZM150.91 427C160.729 427 174.742 411.18 174.742 404C174.742 396.82 161.502 398 150.91 401C140.318 404 125.944 415.82 125.944 423C125.944 428.514 134.878 427.918 143.471 427.344C146.067 427.171 148.632 427 150.91 427Z"/>
</mask>
<path fill-rule="evenodd" clip-rule="evenodd" d="M17 456C60.1236 424.5 132.753 383 182.307 383C207.261 383 240.079 394.729 274.001 406.853C307.442 418.805 341.956 431.14 371.068 433C496.278 441 490.982 456 371.068 456C342.109 456 309.587 446.347 279.426 437.394C236.702 424.713 198.716 413.437 182.307 433C168.101 449.937 137.28 446.268 111.141 443.156C101.784 442.042 93.0266 441 85.8465 441C70.7096 441 56.5074 445.633 43.8893 449.75C33.8036 453.04 24.7299 456 17 456ZM150.91 427C160.729 427 174.742 411.18 174.742 404C174.742 396.82 161.502 398 150.91 401C140.318 404 125.944 415.82 125.944 423C125.944 428.514 134.878 427.918 143.471 427.344C146.067 427.171 148.632 427 150.91 427Z" fill="#D6DAE5" fill-opacity="0.8"/>
<path d="M17 456L15.8203 454.385L10.8713 458H17V456ZM274.001 406.853L273.328 408.736L273.328 408.736L274.001 406.853ZM371.068 433L371.195 431.004L371.195 431.004L371.068 433ZM279.426 437.394L279.995 435.477L279.995 435.477L279.426 437.394ZM182.307 433L180.775 431.715L180.775 431.715L182.307 433ZM111.141 443.156L110.905 445.142L110.905 445.142L111.141 443.156ZM43.8893 449.75L43.269 447.848L43.269 447.848L43.8893 449.75ZM150.91 401L151.455 402.924L151.455 402.924L150.91 401ZM143.471 427.344L143.338 425.349L143.338 425.349L143.471 427.344ZM182.307 381C157.068 381 126.188 391.539 96.3749 405.885C66.5052 420.259 37.4628 438.576 15.8203 454.385L18.1797 457.615C39.6609 441.924 68.4949 423.741 98.1094 409.49C127.78 395.211 157.993 385 182.307 385V381ZM274.674 404.969C257.728 398.913 240.979 392.926 225.341 388.457C209.717 383.992 195.063 381 182.307 381V385C194.506 385 208.738 387.873 224.242 392.303C239.731 396.729 256.352 402.669 273.328 408.736L274.674 404.969ZM371.195 431.004C342.424 429.166 308.203 416.953 274.674 404.969L273.328 408.736C306.68 420.656 341.487 433.114 370.94 434.996L371.195 431.004ZM371.068 458C401.076 458 423.965 457.062 439.462 455.521C447.198 454.752 453.165 453.826 457.277 452.769C459.321 452.243 461.011 451.66 462.256 450.991C463.357 450.398 464.743 449.405 464.97 447.776C465.219 445.992 463.951 444.748 462.95 444.043C461.841 443.26 460.269 442.557 458.359 441.901C454.505 440.577 448.733 439.267 441.081 437.996C425.747 435.448 402.525 433.006 371.195 431.004L370.94 434.996C402.216 436.994 425.285 439.427 440.426 441.942C448.012 443.202 453.523 444.47 457.06 445.684C458.846 446.298 459.997 446.855 460.645 447.312C461.402 447.845 460.925 447.821 461.008 447.224C461.07 446.783 461.333 446.945 460.362 447.467C459.533 447.913 458.201 448.401 456.281 448.895C452.463 449.877 446.733 450.779 439.066 451.541C423.757 453.063 401.017 454 371.068 454V458ZM278.857 439.311C308.941 448.241 341.76 458 371.068 458V454C342.457 454 310.232 444.452 279.995 435.477L278.857 439.311ZM183.84 434.285C191.356 425.324 204.022 423.15 220.768 425.092C237.446 427.027 257.438 432.954 278.857 439.311L279.995 435.477C258.689 429.153 238.327 423.102 221.229 421.119C204.199 419.144 189.667 421.114 180.775 431.715L183.84 434.285ZM110.905 445.142C123.932 446.693 138.361 448.417 151.326 447.592C164.266 446.769 176.208 443.384 183.84 434.285L180.775 431.715C174.2 439.553 163.629 442.801 151.072 443.6C138.54 444.397 124.49 442.731 111.378 441.17L110.905 445.142ZM85.8465 443C92.8823 443 101.508 444.024 110.905 445.142L111.378 441.17C102.06 440.061 93.1708 439 85.8465 439V443ZM44.5096 451.651C57.1699 447.521 71.0766 443 85.8465 443V439C70.3425 439 55.8448 443.746 43.269 447.848L44.5096 451.651ZM17 458C25.118 458 34.5319 454.906 44.5096 451.651L43.269 447.848C33.0752 451.174 24.3419 454 17 454V458ZM172.742 404C172.742 405.252 172.088 407.208 170.675 409.608C169.301 411.943 167.346 414.468 165.076 416.796C162.805 419.126 160.269 421.208 157.757 422.695C155.218 424.198 152.863 425 150.91 425V429C153.867 429 156.946 427.824 159.795 426.137C162.673 424.433 165.481 422.112 167.94 419.588C170.401 417.065 172.562 414.288 174.122 411.637C175.644 409.052 176.742 406.338 176.742 404H172.742ZM151.455 402.924C156.656 401.451 162.376 400.468 166.7 400.68C168.881 400.787 170.479 401.19 171.471 401.791C172.332 402.313 172.742 402.964 172.742 404H176.742C176.742 401.446 175.496 399.553 173.544 398.37C171.723 397.267 169.349 396.805 166.896 396.685C161.952 396.442 155.756 397.549 150.365 399.076L151.455 402.924ZM127.944 423C127.944 421.813 128.569 420.141 129.995 418.101C131.386 416.111 133.387 413.988 135.759 411.949C140.526 407.851 146.516 404.323 151.455 402.924L150.365 399.076C144.713 400.677 138.219 404.559 133.151 408.916C130.606 411.104 128.351 413.47 126.716 415.81C125.116 418.099 123.944 420.597 123.944 423H127.944ZM143.338 425.349C138.966 425.64 134.821 425.907 131.766 425.475C130.237 425.258 129.235 424.896 128.655 424.471C128.19 424.131 127.944 423.731 127.944 423H123.944C123.944 425.026 124.814 426.618 126.294 427.7C127.656 428.696 129.425 429.183 131.205 429.435C134.764 429.939 139.383 429.621 143.604 429.34L143.338 425.349ZM150.91 425C148.552 425 145.917 425.177 143.338 425.349L143.604 429.34C146.218 429.165 148.712 429 150.91 429V425Z" fill="#A0A2AC" fill-opacity="0.6" mask="url(#path-18-outside-1_277_255033)"/>
<path fill-rule="evenodd" clip-rule="evenodd" d="M23.358 451.436C21.1755 452.976 19.0543 454.499 17 456C24.7299 456 33.8036 453.04 43.8893 449.75C56.5074 445.633 70.7096 441 85.8465 441C93.0266 441 101.784 442.042 111.141 443.156C137.28 446.268 168.101 449.937 182.307 433C198.716 413.438 236.702 424.713 279.426 437.394C309.587 446.347 342.109 456 371.068 456C440.07 456 471.119 451.033 461.19 445.292C453.727 449.16 423.25 452 371.068 452C342.109 452 309.587 442.347 279.426 433.394C236.702 420.713 198.716 409.438 182.307 429C168.101 445.937 137.28 442.268 111.141 439.156C101.784 438.042 93.0266 437 85.8465 437C70.7096 437 56.5074 441.633 43.8893 445.75C36.4506 448.176 29.5625 450.423 23.358 451.436ZM126.337 420.779C128.712 413.598 141.352 403.707 150.91 401C160.501 398.283 172.262 397.06 174.4 402.182C174.623 401.394 174.742 400.661 174.742 400C174.742 392.82 161.502 394 150.91 397C140.318 400 125.944 411.82 125.944 419C125.944 419.683 126.081 420.272 126.337 420.779Z" fill="#9A9DA7" fill-opacity="0.6"/>
<path fill-rule="evenodd" clip-rule="evenodd" d="M23.9116 451.046C68.7879 421.595 137.851 389 182.308 389C206.03 389 236.831 400.458 268.943 412.404C303.912 425.413 340.436 439 371.068 439C418.963 439 448.137 441.675 461.031 445.201C453.442 440.989 423.851 436.372 371.068 433C341.956 431.14 307.442 418.805 274.001 406.853L274.001 406.853C240.079 394.729 207.262 383 182.308 383C135.313 383 67.5654 420.323 23.9116 451.046ZM173.982 407.421C170.935 415.264 159.367 427 150.91 427C148.632 427 146.068 427.171 143.472 427.344L143.471 427.344C136.508 427.809 129.32 428.289 126.845 425.519C126.264 426.753 125.944 427.928 125.944 429C125.944 434.514 134.878 433.918 143.471 433.344L143.472 433.344C146.068 433.171 148.632 433 150.91 433C160.73 433 174.742 417.18 174.742 410C174.742 408.977 174.473 408.124 173.982 407.421Z" fill="#FDFDFF" fill-opacity="0.6"/>
<defs>
<linearGradient id="paint0_linear_277_255033" x1="214.28" y1="103.741" x2="220.46" y2="419" gradientUnits="userSpaceOnUse">
<stop stop-color="#DFDFDF"/>
<stop offset="1" stop-color="#DFDFDF" stop-opacity="0"/>
</linearGradient>
<clipPath id="clip0_277_255033">
<rect width="262" height="330" fill="white" transform="translate(93 89)"/>
</clipPath>
</defs>
</svg>
