<svg width="476" height="315" viewBox="0 0 476 315" fill="none" xmlns="http://www.w3.org/2000/svg">
<g clip-path="url(#clip0_319_3552)">
<path d="M333.599 129.848C333.599 129.848 317.717 88.2899 254.834 82.6355C191.951 76.9813 159.317 127.024 160.186 163.791C161.055 200.558 171.501 215.794 215.231 226.451C215.231 226.451 220.345 227.32 224.261 227.487C228.178 227.649 294.754 229.61 309.444 190.447C309.444 190.447 318.146 165.317 306.614 142.689C306.614 142.689 298.888 128.11 304.219 125.063C311.712 120.784 341.867 152.911 333.599 129.848Z" fill="url(#paint0_linear_319_3552)"/>
<path d="M333.666 129.82C332.329 126.639 330.574 123.664 328.646 120.812C326.713 117.965 324.574 115.258 322.262 112.712C317.616 107.637 312.363 103.108 306.636 99.2809C303.795 97.3256 300.787 95.6432 297.751 94.0109C294.676 92.4567 291.55 90.9916 288.331 89.7493C281.913 87.2313 275.25 85.3205 268.482 83.9947C261.708 82.6967 254.845 81.8666 247.931 81.6271C241.023 81.3931 234.082 81.9168 227.286 83.2259C220.495 84.5406 213.844 86.6408 207.588 89.61C201.332 92.557 195.454 96.3005 190.134 100.707C179.528 109.565 171.199 121.052 165.935 133.781C165.25 135.363 164.704 136.995 164.102 138.611C163.595 140.26 163.01 141.881 162.603 143.558C161.668 146.872 161.016 150.265 160.52 153.674C160.046 157.089 159.885 160.543 159.918 163.991C159.996 167.428 160.163 170.871 160.464 174.303C161.077 181.149 162.292 188.029 164.915 194.458C166.23 197.661 167.907 200.73 169.996 203.505C172.074 206.29 174.531 208.78 177.227 210.964C182.642 215.326 188.903 218.479 195.326 220.975C201.755 223.509 217.153 228.818 228.745 227.688C233.302 227.671 237.854 227.442 242.394 227.058C251.469 226.267 260.51 224.796 269.295 222.256C278.047 219.688 286.648 216.613 294.107 211.198C297.818 208.485 301.193 205.282 304.001 201.622C306.809 197.956 309.032 193.867 310.502 189.444C312.92 180.592 313.756 171.339 312.786 162.225C312.63 161.089 312.575 159.947 312.324 158.821L311.683 155.446C311.082 153.234 310.569 151 309.717 148.872C309.026 146.688 307.951 144.649 307.015 142.566C305.973 140.572 305.048 138.51 304.263 136.399C303.5 134.288 302.842 132.11 302.67 129.898C302.592 128.8 302.664 127.67 303.093 126.7C303.522 125.737 304.425 125.012 305.489 124.929C306.558 124.829 307.667 125.101 308.72 125.452C309.778 125.809 310.809 126.271 311.817 126.778C313.834 127.792 315.783 128.951 317.705 130.154C321.56 132.533 325.276 135.168 329.354 137.207C330.384 137.691 331.437 138.159 332.59 138.321C333.153 138.388 333.794 138.388 334.295 138.015C334.808 137.658 334.997 137.034 335.058 136.466C335.175 135.307 334.925 134.176 334.663 133.073C334.407 131.976 334.05 130.895 333.666 129.82ZM333.532 129.87C333.905 130.94 334.256 132.015 334.524 133.112C334.78 134.204 335.014 135.335 334.891 136.444C334.83 136.984 334.641 137.547 334.195 137.853C333.766 138.176 333.17 138.182 332.629 138.115C331.526 137.953 330.479 137.485 329.465 137.001C325.432 134.951 321.727 132.293 317.884 129.887C315.962 128.678 314.034 127.475 312.006 126.422C310.992 125.898 309.956 125.413 308.876 125.029C307.795 124.65 306.653 124.338 305.45 124.433C304.224 124.5 303.099 125.369 302.603 126.466C302.096 127.569 302.012 128.784 302.074 129.937C302.219 132.26 302.859 134.483 303.6 136.644C304.363 138.8 305.266 140.9 306.291 142.945C307.177 145.011 308.202 147.023 308.842 149.184C309.644 151.29 310.112 153.496 310.664 155.674L311.238 158.994C311.349 159.546 311.416 160.103 311.466 160.665L311.644 162.342C312.508 171.289 311.589 180.419 309.137 189.037C307.728 193.204 305.567 197.204 302.854 200.73C300.135 204.262 296.859 207.371 293.238 210.006C285.969 215.27 277.551 218.813 268.916 221.331C260.265 223.86 251.313 225.364 242.316 226.189C237.815 226.59 233.297 226.835 228.784 226.869C226.523 226.88 224.272 226.88 222.049 226.674C219.815 226.473 217.57 226.172 215.353 225.816L215.398 225.827C208.746 224.195 202.123 222.395 195.739 219.939C189.354 217.521 183.16 214.474 177.817 210.245C175.154 208.134 172.731 205.716 170.67 203.009C168.598 200.313 166.932 197.31 165.617 194.168C162.993 187.862 161.74 181.054 161.088 174.247C160.765 170.838 160.576 167.412 160.475 163.98C160.42 160.56 160.559 157.134 161.005 153.735C161.484 150.348 162.074 146.961 163.038 143.675C163.45 142.009 164.041 140.399 164.548 138.767C165.149 137.162 165.706 135.541 166.392 133.97C171.65 121.313 180.09 110.01 190.691 101.381C201.315 92.7631 214.111 86.9695 227.52 84.4459C234.227 83.1702 241.074 82.7245 247.898 82.8749C254.722 83.0643 261.546 83.8387 268.27 85.081C281.696 87.5655 294.876 92.167 306.369 99.6876C312.129 103.403 317.432 107.838 322.067 112.89C324.385 115.419 326.535 118.105 328.479 120.929C330.418 123.753 332.189 126.723 333.532 129.87Z" fill="#002636"/>
<path opacity="0.3" d="M329.354 122.918C329.354 122.918 331.42 129.302 330.072 130.918C328.724 132.533 308.045 117.882 298.157 122.467C298.157 122.467 297.667 123.185 297.617 125.074C297.572 126.829 297.929 129.926 298.38 132.628C298.831 135.324 302.335 144.215 303.728 149.708C307.951 166.337 309.572 201.399 280.715 217.042L283.952 216.145L294.291 210.569L303.728 200.681L308.764 192.408L310.474 186.386L312.363 177.573L312.541 169.752L312.09 160.493L310.742 153.479L308.675 147.006L306.246 141.703L304.09 137.48L302.965 133.614L302.074 129.943L302.608 126.962L303.912 125.118L307.734 124.756L310.029 125.698L316.452 128.895L323.332 133.257L326.161 134.968L330.434 137.352L333.264 137.759L334.345 136.633C334.345 136.633 334.796 134.026 334.657 133.937C334.518 133.848 333.353 129.486 333.353 129.486C333.353 129.486 331.688 126.517 331.599 126.383C331.509 126.249 329.354 122.918 329.354 122.918Z" fill="#214354"/>
<path opacity="0.5" d="M307.734 124.762L305.35 123.82L302.359 123.358L299.283 123.397C299.283 123.397 298.515 123.492 298.548 124.238C298.582 124.979 302.559 133.24 302.559 133.24L302.292 130.377L302.593 127.207L303.907 125.129L305.913 124.316L307.734 124.762Z" fill="#214354"/>
<path d="M306.903 123.926C306.068 123.72 305.226 123.559 304.38 123.447C303.533 123.33 302.681 123.263 301.828 123.252C300.976 123.224 300.129 123.297 299.288 123.391C300.135 123.38 300.976 123.391 301.817 123.492C302.653 123.581 303.483 123.72 304.296 123.915C305.109 124.104 305.917 124.333 306.703 124.611C307.483 124.884 309.527 125.592 309.644 125.358C309.761 125.124 310.162 125.191 306.903 123.926Z" fill="#002636"/>
<path opacity="0.5" d="M309.723 148.878C309.723 148.878 312.676 164.855 309.439 181.172C306.202 197.488 302.158 203.288 302.158 203.288L305.462 198.636L308.765 192.408L311.261 184.742L312.341 176.448L312.542 167.211L312.091 160.493L309.723 148.878Z" fill="#214354"/>
<path opacity="0.3" d="M160.832 151.775L164.103 138.611L169.328 126.829L176.882 115.097L186.698 104.768L194.681 97.4316L207.594 89.6102L219.359 85.6995L228.662 83.5436L235.002 82.7358L244.439 82.0618L253.475 82.3292L268.482 84.0004L276.398 86.7802C276.398 86.7802 248.35 81.3877 226.234 87.588C204.117 93.7938 180.52 113.932 173.032 143.374C173.032 143.374 168.62 160.209 168.203 171.712C167.785 183.216 172.542 205.538 184.698 215.293L179.706 212.463L173.64 207.07L169.189 201.945L165.952 195.879L163.389 188.191L161.908 183.74L160.465 174.308L160.42 160.409L160.832 151.775Z" fill="#214354"/>
<path opacity="0.5" d="M160.342 158.788C160.342 158.788 162.732 180.225 166.331 190.118C169.929 200.012 177.238 210.964 177.238 210.964L173.651 207.065L169.606 202.658L166.37 196.815L163.852 190.52L162.141 184.587L161.15 177.935L160.609 170.654L160.158 163.1L160.342 158.788Z" fill="#214354"/>
<path d="M186.161 104.039C198.673 92.3232 220.75 79.0034 254.821 82.0729C287.405 85.0032 307.159 97.7324 317.994 107.899C329.748 118.924 333.849 129.413 333.888 129.519V129.525C335.587 134.271 335.782 136.956 334.489 137.981C332.378 139.658 326.991 136.188 320.757 132.165C314.445 128.099 307.281 123.492 304.357 125.169C299.388 128.01 306.813 142.171 306.891 142.315C318.362 164.821 309.827 190.102 309.738 190.363C296.663 225.237 242.905 227.704 227.976 227.704C225.887 227.704 224.555 227.654 224.204 227.643C220.31 227.482 215.18 226.618 215.107 226.601C173.059 216.914 160.703 202.229 159.789 163.596C159.288 142.555 169.393 119.737 186.161 104.039ZM160.502 163.579C160.976 183.589 164.268 195.438 171.867 204.48C179.794 213.911 193.181 220.518 215.246 225.894C215.297 225.905 220.383 226.763 224.232 226.925C227.084 227.047 294.335 229.381 309.058 190.124C309.148 189.873 317.582 164.883 306.251 142.65C305.928 142.042 298.429 127.726 303.995 124.545C304.529 124.238 305.153 124.105 305.861 124.105C309.56 124.105 314.78 127.04 320.484 130.717C325.988 134.26 331.682 137.926 333.381 136.572C334.06 136.032 334.467 134.266 332.551 128.923C332.317 128.322 316.54 88.3512 254.749 82.7916C220.929 79.7499 199.052 92.9527 186.64 104.568C170.028 120.127 160.012 142.739 160.502 163.579Z" fill="#002636"/>
</g>
<g filter="url(#filter0_ii_319_3552)">
<path d="M189.5 199.606C105.571 169.143 1.78398 212.296 6.13219 229.162C9.98953 244.124 49.9699 212.297 137.271 220.002C216.477 226.992 212.408 249.572 279.048 265.23C350.011 281.905 411.162 218.098 445.033 212.296C487.372 205.045 466.389 195.073 437.539 199.606C415.433 203.079 255.015 223.385 189.5 199.606Z" fill="#D6DAE5" fill-opacity="0.8"/>
</g>
<path d="M189.841 198.666C147.627 183.344 100.48 186.547 64.4666 195.666C46.4552 200.227 31.178 206.28 20.6515 212.276C15.3946 215.271 11.275 218.278 8.59385 221.113C5.96392 223.895 4.48245 226.769 5.16386 229.412C5.72373 231.583 6.99397 232.996 8.96084 233.691C10.8273 234.35 13.2445 234.335 16.1063 233.95C20.0729 233.418 25.2318 232.118 31.56 230.524C34.3595 229.818 37.3879 229.055 40.6431 228.276C61.9705 223.167 93.6762 217.158 137.183 220.998C176.658 224.482 195.323 231.839 212.43 240.263C214.992 241.524 217.522 242.811 220.084 244.115C234.703 251.553 250.354 259.515 278.82 266.204C314.655 274.624 347.953 262.706 376.407 248.081C386.164 243.067 395.392 237.71 403.959 232.739C407.875 230.466 411.652 228.274 415.278 226.231C426.9 219.684 436.929 214.699 445.202 213.282C455.803 211.466 462.565 209.463 466.251 207.499C468.057 206.537 469.34 205.475 469.808 204.259C470.059 203.607 470.065 202.935 469.819 202.298C469.581 201.685 469.138 201.174 468.605 200.749C467.552 199.911 465.945 199.252 464.003 198.749C462.037 198.24 459.634 197.868 456.911 197.66C451.464 197.242 444.666 197.474 437.384 198.618C426.363 200.349 380.767 206.29 329.748 208.827C304.24 210.095 277.393 210.511 252.843 209.128C228.275 207.743 206.081 204.56 189.841 198.666Z" stroke="#A0A2AC" stroke-opacity="0.6" stroke-width="2"/>
<g filter="url(#filter1_ii_319_3552)">
<path d="M237.882 291.993C168.568 308.501 86.2887 301.007 89.0686 283.501C91.5346 267.971 148.679 278.82 204.491 270.822C255.128 263.566 259.47 238 305.068 238C369.006 238 379.592 272.798 401.246 278.82C428.314 286.347 414.9 296.697 396.455 291.993C382.323 288.388 285.175 280.729 237.882 291.993Z" fill="#D6DAE5" fill-opacity="0.8"/>
</g>
<path d="M238.113 292.965C203.352 301.244 165.351 303.504 136.371 301.5C121.889 300.498 109.599 298.427 101.074 295.479C96.8192 294.008 93.4238 292.293 91.1646 290.322C88.8895 288.338 87.6609 285.989 88.0809 283.344C88.445 281.051 89.8266 279.298 91.9129 277.98C93.9722 276.679 96.7639 275.767 100.102 275.111C106.782 273.799 115.989 273.451 126.764 273.337C130.433 273.298 134.29 273.286 138.302 273.274C157.927 273.214 181.249 273.142 204.349 269.832C228.271 266.404 241.751 258.875 254.298 251.868C254.928 251.516 255.556 251.165 256.183 250.816C269.359 243.484 282.021 237 305.068 237C337.253 237 356.084 245.769 369.591 255.336C374.355 258.71 378.472 262.197 382.242 265.39C383.781 266.694 385.263 267.949 386.706 269.127C391.726 273.222 396.313 276.41 401.514 277.856C408.324 279.75 412.734 281.857 415.165 283.959C416.384 285.013 417.184 286.135 417.462 287.305C417.75 288.521 417.443 289.657 416.709 290.605C415.998 291.524 414.905 292.251 413.601 292.799C412.287 293.351 410.697 293.748 408.915 293.97C405.349 294.413 400.926 294.165 396.208 292.962C392.766 292.084 384.125 290.934 372.278 289.884C360.464 288.837 345.537 287.895 329.574 287.417C297.615 286.459 261.621 287.367 238.113 292.965Z" stroke="#A0A2AC" stroke-opacity="0.6" stroke-width="2"/>
<path opacity="0.3" fill-rule="evenodd" clip-rule="evenodd" d="M224.97 10.5347C231.854 4.99524 241.926 6.08581 247.465 12.9705L247.493 13.0042L247.881 12.5535C253.651 5.86063 263.754 5.11226 270.447 10.882C277.14 16.6517 277.888 26.7547 272.118 33.4476L246.645 62.997L222.534 33.0306C216.994 26.1459 218.085 16.0741 224.97 10.5347Z" fill="#F4F4F4"/>
<defs>
<filter id="filter0_ii_319_3552" x="3.99707" y="187" width="467.003" height="83.0002" filterUnits="userSpaceOnUse" color-interpolation-filters="sRGB">
<feFlood flood-opacity="0" result="BackgroundImageFix"/>
<feBlend mode="normal" in="SourceGraphic" in2="BackgroundImageFix" result="shape"/>
<feColorMatrix in="SourceAlpha" type="matrix" values="0 0 0 0 0 0 0 0 0 0 0 0 0 0 0 0 0 0 127 0" result="hardAlpha"/>
<feOffset dx="2" dy="-6"/>
<feComposite in2="hardAlpha" operator="arithmetic" k2="-1" k3="1"/>
<feColorMatrix type="matrix" values="0 0 0 0 0 0 0 0 0 0 0 0 0 0 0 0 0 0 0.25 0"/>
<feBlend mode="normal" in2="shape" result="effect1_innerShadow_319_3552"/>
<feColorMatrix in="SourceAlpha" type="matrix" values="0 0 0 0 0 0 0 0 0 0 0 0 0 0 0 0 0 0 127 0" result="hardAlpha"/>
<feOffset dy="4"/>
<feComposite in2="hardAlpha" operator="arithmetic" k2="-1" k3="1"/>
<feColorMatrix type="matrix" values="0 0 0 0 1 0 0 0 0 1 0 0 0 0 1 0 0 0 0.25 0"/>
<feBlend mode="normal" in2="effect1_innerShadow_319_3552" result="effect2_innerShadow_319_3552"/>
</filter>
<filter id="filter1_ii_319_3552" x="86.999" y="236" width="331.57" height="67.1846" filterUnits="userSpaceOnUse" color-interpolation-filters="sRGB">
<feFlood flood-opacity="0" result="BackgroundImageFix"/>
<feBlend mode="normal" in="SourceGraphic" in2="BackgroundImageFix" result="shape"/>
<feColorMatrix in="SourceAlpha" type="matrix" values="0 0 0 0 0 0 0 0 0 0 0 0 0 0 0 0 0 0 127 0" result="hardAlpha"/>
<feOffset dx="2" dy="-6"/>
<feComposite in2="hardAlpha" operator="arithmetic" k2="-1" k3="1"/>
<feColorMatrix type="matrix" values="0 0 0 0 0 0 0 0 0 0 0 0 0 0 0 0 0 0 0.25 0"/>
<feBlend mode="normal" in2="shape" result="effect1_innerShadow_319_3552"/>
<feColorMatrix in="SourceAlpha" type="matrix" values="0 0 0 0 0 0 0 0 0 0 0 0 0 0 0 0 0 0 127 0" result="hardAlpha"/>
<feOffset dy="4"/>
<feComposite in2="hardAlpha" operator="arithmetic" k2="-1" k3="1"/>
<feColorMatrix type="matrix" values="0 0 0 0 1 0 0 0 0 1 0 0 0 0 1 0 0 0 0.25 0"/>
<feBlend mode="normal" in2="effect1_innerShadow_319_3552" result="effect2_innerShadow_319_3552"/>
</filter>
<linearGradient id="paint0_linear_319_3552" x1="251.839" y1="88.5762" x2="250.093" y2="227.685" gradientUnits="userSpaceOnUse">
<stop stop-color="#DFDFDF"/>
<stop offset="1" stop-color="#DFDFDF" stop-opacity="0"/>
</linearGradient>
<clipPath id="clip0_319_3552">
<rect width="184.393" height="232.302" fill="white" transform="matrix(-1 0 0 1 335.393 82.0005)"/>
</clipPath>
</defs>
</svg>
