<svg width="1202" height="312" viewBox="0 0 1202 312" fill="none" xmlns="http://www.w3.org/2000/svg">
<g clip-path="url(#clip0_294_761043)">
<path d="M545.065 7.98419C545.065 7.98419 541.664 3.86038 536.336 3.67293C531.007 3.48549 528.624 5.06537 520.215 6.43104C511.834 7.7967 506.184 6.91302 501.819 7.4218C497.454 7.93058 488.43 8.92137 493.518 15.8032C498.606 22.6583 502.863 24.4792 504.309 31.2004C505.729 37.9216 507.121 45.3123 506.88 51.98C506.639 58.6476 507.496 62.6643 505.354 66.6006C503.212 70.5369 493.679 75.8389 494.187 80.2036C494.696 84.5684 508.514 80.3911 514.565 79.2932C520.617 78.1685 528.061 75.4373 533.711 75.9996C539.361 76.5351 550.715 75.946 554.437 75.0892C558.133 74.2323 558.615 70.5637 560.168 64.6191C561.721 58.6744 559.525 54.9255 557.115 56.8267C554.705 58.7279 549.591 62.2358 545.547 63.0659C541.504 63.896 532.506 63.6015 528.811 64.4584C525.116 65.3153 520.108 65.4759 519.894 62.1287C519.68 58.7814 519.144 55.0862 519.626 51.1231C520.108 47.1332 521.474 46.5173 527.472 46.062C533.47 45.6068 535.8 46.3566 539.201 44.4822C542.602 42.6077 541.37 40.2245 539.817 36.8238C538.264 33.423 534.541 34.9761 529.186 35.4314C523.83 35.9134 520.43 37.4397 519.519 35.0832C518.609 32.7268 519.037 29.7276 517.511 26.0055C515.984 22.2834 516.466 17.9723 519.84 16.7405C523.214 15.5355 528.543 15.7229 533.577 14.9196C538.612 14.0895 541.048 14.5179 542.602 17.5974C544.155 20.65 546.083 28.7369 548.787 27.8264C551.492 26.916 550.769 19.5522 549.885 16.1782C549.001 12.8042 545.065 7.98419 545.065 7.98419Z" fill="white"/>
<path d="M648.131 7.18138C648.131 7.18138 646.283 2.92375 642.267 2.0133C638.25 1.10286 636.135 2.22749 629.52 2.30782C622.906 2.38815 618.756 0.808307 615.355 0.674419C611.954 0.54053 604.885 0.219204 607.536 7.20819C610.187 14.1972 613.079 16.4732 612.972 22.8196C612.838 29.1927 612.57 36.1549 611.204 42.2334C609.812 48.3119 609.732 52.1144 607.402 55.4348C605.072 58.7285 596.852 62.2899 596.45 66.3602C596.048 70.4304 607.322 68.5291 612.115 68.3417C616.908 68.1542 623.067 66.6815 627.271 67.9668C631.475 69.2522 640.205 70.2697 643.177 70.0019C646.149 69.7073 647.167 66.4405 649.416 61.1921C651.666 55.9436 650.675 52.2215 648.506 53.6407C646.337 55.06 641.811 57.5503 638.571 57.7645C635.331 57.9788 628.556 56.4524 625.611 56.7202C622.638 57.0147 618.809 56.4524 619.238 53.3461C619.666 50.2399 619.934 46.7857 621.032 43.1974C622.103 39.6092 623.254 39.2343 627.914 39.6628C632.573 40.0912 634.18 41.082 637.125 39.8502C640.044 38.5917 639.535 36.2353 638.973 32.9148C638.411 29.5944 635.304 30.478 631.154 30.1834C627.003 29.8889 624.138 30.8261 623.87 28.5232C623.602 26.2203 624.486 23.5426 623.977 19.9276C623.495 16.3126 624.647 12.403 627.432 11.7604C630.217 11.1177 634.233 12.0282 638.223 11.9746C642.186 11.9211 643.98 12.6441 644.596 15.67C645.239 18.6958 645.239 26.3542 647.461 25.899C649.684 25.4438 650.461 18.5887 650.38 15.3754C650.246 12.1353 648.131 7.18138 648.131 7.18138Z" fill="white"/>
<path d="M549.482 150.041C549.482 150.041 547.875 146.693 544.635 146.077C541.395 145.461 539.762 146.426 534.46 146.693C529.158 146.961 525.81 145.836 523.106 145.81C520.374 145.81 514.724 145.756 517.054 151.246C519.357 156.762 521.767 158.475 521.847 163.563C521.928 168.651 521.928 174.221 521.017 179.121C520.107 184.021 520.16 187.074 518.366 189.779C516.599 192.483 510.145 195.589 509.958 198.83C509.771 202.096 518.714 200.222 522.543 199.927C526.373 199.633 531.246 198.267 534.62 199.178C538.021 200.061 545.037 200.624 547.393 200.329C549.75 200.008 550.473 197.357 552.106 193.099C553.74 188.841 552.829 185.896 551.142 187.074C549.455 188.279 545.894 190.394 543.35 190.662C540.779 190.93 535.316 189.913 532.96 190.234C530.604 190.555 527.524 190.234 527.765 187.744C528.033 185.253 528.14 182.495 528.89 179.576C529.64 176.658 530.55 176.336 534.272 176.55C537.994 176.738 539.333 177.514 541.636 176.417C543.939 175.319 543.457 173.471 542.895 170.82C542.332 168.169 539.895 168.972 536.548 168.865C533.228 168.731 530.952 169.588 530.684 167.767C530.389 165.946 531.005 163.777 530.523 160.885C530.015 157.993 530.818 154.86 533.04 154.271C535.263 153.682 538.476 154.271 541.663 154.111C544.849 153.95 546.269 154.486 546.884 156.869C547.474 159.252 547.715 165.384 549.482 164.956C551.249 164.527 551.651 159.038 551.49 156.467C551.33 153.923 549.482 150.041 549.482 150.041Z" fill="white"/>
<path d="M625.987 148.54C625.987 148.54 624.541 145.247 621.623 144.738C618.704 144.229 617.204 145.22 612.438 145.675C607.671 146.104 604.645 145.086 602.182 145.14C599.718 145.22 594.631 145.327 596.692 150.763C598.754 156.199 600.923 157.832 600.977 162.893C601.031 167.954 601.004 173.524 600.147 178.424C599.29 183.325 599.317 186.377 597.71 189.135C596.103 191.893 590.266 195.16 590.078 198.427C589.891 201.694 597.978 199.552 601.432 199.15C604.886 198.749 609.305 197.222 612.357 198.025C615.41 198.802 621.756 199.15 623.899 198.775C626.041 198.4 626.684 195.723 628.183 191.438C629.683 187.154 628.879 184.235 627.353 185.467C625.827 186.725 622.613 188.948 620.284 189.296C617.954 189.644 613.027 188.787 610.885 189.189C608.742 189.564 605.958 189.35 606.199 186.859C606.44 184.369 606.547 181.611 607.243 178.692C607.939 175.773 608.743 175.425 612.116 175.506C615.49 175.586 616.669 176.309 618.757 175.157C620.846 174.006 620.418 172.158 619.936 169.534C619.454 166.91 617.231 167.793 614.232 167.767C611.233 167.74 609.198 168.65 608.93 166.856C608.689 165.035 609.251 162.866 608.796 160.001C608.341 157.136 609.091 153.976 611.099 153.334C613.107 152.664 616.026 153.173 618.891 152.932C621.756 152.664 623.042 153.146 623.577 155.529C624.113 157.886 624.3 163.991 625.88 163.509C627.46 163.027 627.862 157.538 627.755 154.994C627.648 152.37 625.987 148.54 625.987 148.54Z" fill="white"/>
<path d="M729.802 145.381C729.802 145.381 728.543 142.248 725.946 141.793C723.322 141.337 721.983 142.328 717.672 142.783C713.36 143.239 710.683 142.301 708.46 142.382C706.264 142.489 701.659 142.65 703.453 147.844C705.247 153.012 707.175 154.566 707.148 159.439C707.121 164.313 707.068 169.641 706.238 174.354C705.407 179.067 705.407 181.986 703.935 184.664C702.462 187.315 697.187 190.528 696.972 193.661C696.758 196.794 704.042 194.652 707.148 194.223C710.254 193.795 714.217 192.295 716.975 193.018C719.733 193.741 725.41 194.009 727.312 193.607C729.24 193.206 729.855 190.635 731.248 186.511C732.64 182.388 731.944 179.576 730.552 180.808C729.159 182.04 726.267 184.182 724.179 184.557C722.09 184.932 717.672 184.155 715.744 184.557C713.816 184.958 711.325 184.771 711.566 182.361C711.807 179.978 711.941 177.327 712.611 174.515C713.28 171.703 714.003 171.355 717.029 171.382C720.055 171.436 721.126 172.105 723 170.954C724.875 169.829 724.527 168.062 724.098 165.545C723.697 163.054 721.688 163.911 718.984 163.911C716.279 163.938 714.432 164.821 714.244 163.081C714.03 161.34 714.565 159.252 714.217 156.52C713.842 153.789 714.539 150.736 716.36 150.094C718.154 149.424 720.778 149.88 723.348 149.612C725.919 149.344 727.071 149.772 727.526 152.049C727.981 154.325 728.088 160.162 729.507 159.68C730.927 159.198 731.355 153.923 731.275 151.486C731.248 149.023 729.802 145.381 729.802 145.381Z" fill="white"/>
<path d="M552.963 4.93177C552.963 4.93177 553.445 10.2873 554.623 14.3308C555.801 18.3742 555.641 23.0335 557.194 26.4343C558.747 29.835 559.872 35.2173 561.773 37.9487C563.674 40.68 565.361 49.0883 566.968 51.1501C568.548 53.212 570.877 62.6378 572.484 64.3515C574.091 66.0653 573.93 70.0819 576.929 70.8585C579.901 71.6351 587.801 65.262 590.612 43.0097C593.424 20.7574 593.638 23.7833 596.316 14.5182C598.994 5.27985 605.313 5.49408 604.43 2.14687C603.546 -1.22712 598.458 0.915149 594.147 0.78126C589.809 0.620594 584.534 -1.22712 583.784 1.3971C583.008 4.04809 584.561 7.77019 584.775 10.7693C584.989 13.7684 583.998 22.7389 583.838 27.425C583.677 32.0844 582.847 45.3929 582.044 49.0347C581.24 52.6764 580.303 60.3081 578.429 56.9073C576.554 53.5066 575.992 50.802 574.519 45.0984C573.046 39.3947 573.341 41.0549 572.296 32.6735C571.279 24.292 570.931 24.292 571.172 17.6244C571.413 10.9567 573.796 10.0463 572.591 6.00287C571.413 1.95943 571.466 0.620565 567.771 0.834786C564.102 1.02223 559.068 1.53098 556.069 1.3971C553.097 1.26321 553.043 2.60211 552.963 4.93177Z" fill="white"/>
<path d="M669.447 146.479C669.447 146.479 669.662 150.335 670.304 153.253C670.947 156.172 670.786 159.546 671.67 161.983C672.554 164.42 673.143 168.302 674.241 170.284C675.338 172.266 676.222 178.317 677.159 179.817C678.07 181.316 679.328 188.118 680.265 189.35C681.203 190.582 681.069 193.473 682.809 194.036C684.55 194.598 689.316 190.019 691.244 173.979C693.172 157.939 693.279 160.108 694.966 153.441C696.653 146.773 700.402 146.961 699.92 144.524C699.438 142.087 696.412 143.64 693.842 143.506C691.271 143.372 688.192 142.034 687.71 143.935C687.228 145.836 688.085 148.514 688.192 150.71C688.299 152.878 687.603 159.359 687.442 162.706C687.281 166.08 686.639 175.666 686.13 178.291C685.621 180.915 684.952 186.431 683.88 183.967C682.809 181.504 682.515 179.576 681.712 175.452C680.908 171.328 681.069 172.533 680.56 166.482C680.051 160.43 679.864 160.43 680.078 155.637C680.292 150.843 681.712 150.174 681.069 147.255C680.426 144.336 680.453 143.372 678.284 143.506C676.115 143.64 673.116 143.988 671.349 143.908C669.554 143.828 669.528 144.792 669.447 146.479Z" fill="white"/>
<path d="M605.341 212.513C605.341 212.513 605.341 216.047 605.876 218.752C606.412 221.456 606.037 224.509 606.84 226.785C607.644 229.061 608.099 232.676 609.17 234.551C610.241 236.452 610.884 242.022 611.794 243.468C612.705 244.914 613.695 251.18 614.633 252.412C615.57 253.616 615.249 256.241 617.15 256.91C619.051 257.58 624.54 253.857 627.647 239.505C630.753 225.152 630.726 227.107 632.975 221.242C635.252 215.351 639.349 215.86 638.974 213.611C638.599 211.361 635.171 212.486 632.36 212.138C629.548 211.79 626.228 210.263 625.585 211.95C624.942 213.637 625.719 216.154 625.692 218.136C625.665 220.118 624.514 225.902 624.139 228.954C623.764 231.98 622.479 240.629 621.729 242.959C621.006 245.289 619.961 250.216 618.917 247.886C617.9 245.556 617.685 243.762 617.043 239.96C616.4 236.157 616.507 237.255 616.32 231.712C616.132 226.196 615.918 226.169 616.454 221.831C616.989 217.493 618.596 217.038 618.034 214.334C617.498 211.629 617.605 210.745 615.195 210.692C612.785 210.611 609.491 210.638 607.537 210.397C605.635 210.129 605.528 210.986 605.341 212.513Z" fill="white"/>
<path d="M654.156 64.3519C654.156 64.3519 656.191 53.7479 656.727 46.4376C657.262 39.1272 657.61 37.1189 658.146 30.4781C658.655 23.8372 659.324 20.5167 657.905 14.465C656.486 8.4132 654.076 6.32454 654.718 3.67354C655.361 1.02255 657.53 1.77236 659.726 2.2008C661.922 2.60247 664.947 2.06685 667.116 3.13796C669.285 4.20906 670.062 5.25344 671.053 7.95799C672.043 10.6625 673.945 19.0708 674.935 22.1234C675.926 25.1493 678.095 33.2361 679.086 36.2888C680.077 39.3147 683.129 46.1162 684.656 49.1689C686.182 52.2215 688.405 59.3176 689.824 58.0323C691.243 56.747 691.136 52.0876 691.082 46.4108C691.002 40.7339 690.145 34.7089 689.529 29.0052C688.913 23.3016 689.288 20.3292 688.11 15.2683C686.932 10.234 685.298 9.83244 684.281 7.12789C683.29 4.42334 685.272 2.81666 687.735 2.92377C690.199 3.0041 693.198 3.78062 696.224 3.88773C699.25 3.99484 702.035 3.11123 704.739 3.86101C707.47 4.63756 706.239 8.25254 704.819 8.86843C703.4 9.48431 701.713 11.4123 700.749 14.7328C699.785 18.0532 699.062 23.3551 698.875 28.3358C698.687 33.3165 697.938 38.6452 698.527 45.3397C699.116 52.0341 698.687 56.024 698.58 58.675C698.473 61.326 699.973 65.7443 698.259 67.3242C696.545 68.9308 687.28 67.2438 684.522 66.8154C681.791 66.3869 678.042 63.5753 676.274 59.5051C674.507 55.4349 673.543 51.7395 671.883 44.0008C670.249 36.262 669.607 30.9065 668.321 28.5233C667.036 26.14 666.715 27.1308 666.313 30.7726C665.911 34.4144 665.67 41.082 665.242 45.42C664.814 49.7312 664.599 55.7294 666.152 58.4607C667.706 61.1921 670.865 64.9678 670.865 64.9678C670.865 64.9678 675.658 69.4664 673.141 70.0555C670.651 70.6446 668.161 70.8856 664.626 70.0823C661.091 69.2789 657.476 70.484 655.307 69.0648C653.219 67.6456 654.156 64.3519 654.156 64.3519Z" fill="white"/>
<path d="M539.763 89.148C536.818 87.3806 536.095 89.3354 534.328 91.6115C532.587 93.8876 524.366 90.2458 524.366 90.2458C524.366 90.2458 519.145 86.7111 515.074 88.9069C511.004 91.1027 507.791 96.3244 505.622 101.251C503.453 106.179 502.248 111.132 503.105 115.176C503.962 119.219 508.835 122.727 512.53 121.87C516.226 121.013 520.992 118.844 521.929 120.21C522.893 121.576 519.386 126.128 516.895 130.038C514.405 133.947 508.648 136.732 505.408 134.295C502.167 131.858 500.936 128.806 496.973 127.976C493.009 127.172 492.153 131.805 495.366 135.259C498.579 138.714 503.747 143.56 507.389 144.364C511.031 145.167 516.467 142.703 521.34 137.187C526.214 131.698 528.731 126.771 531.596 121.228C534.461 115.658 535.988 110.383 537.541 104.759C539.067 99.136 542.709 90.9421 539.763 89.148ZM524.688 109.285C521.18 114.158 519.841 113.783 517.484 114.694C515.128 115.604 511.459 115.149 509.906 112.418C508.326 109.686 510.12 106.42 510.897 103.447C511.674 100.475 514.458 96.9135 518.181 95.7085C521.903 94.5035 525.785 97.3151 525.785 97.3151C525.785 97.3151 528.195 104.411 524.688 109.285Z" fill="white"/>
<path d="M550.26 84.8897C550.26 84.8897 546.297 92.7624 545.494 96.4041C544.69 100.046 543.512 105 541.611 111.266C539.71 117.532 538.21 121.816 537.782 125.137C537.327 128.457 537.514 132.795 540.915 130.921C544.315 129.046 545.815 124.44 548.6 121.2C551.385 117.96 553.607 112.042 557.303 111.185C560.998 110.329 564.238 112.765 563.381 118.067C562.524 123.369 560.436 125.645 562.605 130.037C564.774 134.455 569.112 134.616 573.905 131.456C578.698 128.296 579.153 124.655 575.137 124.842C571.12 125.03 568.79 124.949 569.647 119.969C570.504 114.988 571.87 113.703 569.728 108.642C567.585 103.554 565.684 100.822 560.998 101.304C556.312 101.813 550.448 107.249 550.233 103.902C550.019 100.555 551.465 97.9305 554.25 94.7171C557.035 91.5038 559.043 91.236 560.516 87.5942C561.989 83.9793 560.73 81.596 558.053 81.837C555.375 82.078 552.376 81.9709 550.26 84.8897Z" fill="white"/>
<path d="M607.564 96.3237C605.02 92.5748 599.504 88.3439 599.504 88.3439C599.504 88.3439 590.908 86.041 584.776 89.4686C578.644 92.9229 577.412 99.2157 576.957 102.536C576.502 105.857 576.635 111.533 577.894 113.569C579.153 115.604 580.599 121.682 584.16 124.467C587.721 127.252 590.319 129.367 594.121 125.833C597.924 122.298 602.101 117.773 605.02 110.891C607.939 104.009 610.081 100.099 607.564 96.3237ZM596.719 109.954C594.898 113.89 592.809 116.809 589.382 118.683C585.981 120.558 584.829 115.175 583.624 112.122C582.393 109.07 583.892 104.464 586.409 99.8851C588.9 95.3061 591.577 95.4132 591.577 95.4132C594.63 94.1815 598.834 97.6893 599.691 101.385C600.575 105.08 598.54 106.017 596.719 109.954Z" fill="white"/>
<path d="M600.628 219.85C597.79 215.753 591.952 211.388 591.952 211.388C591.952 211.388 583.196 209.433 577.385 213.878C571.547 218.323 570.851 225.607 570.664 229.436C570.476 233.265 571.065 239.746 572.511 241.995C573.931 244.244 575.885 251.046 579.661 253.938C583.437 256.857 586.195 259.026 589.703 254.688C593.21 250.35 596.986 244.833 599.316 236.72C601.645 228.606 603.466 223.947 600.628 219.85ZM590.934 236.318C589.462 240.977 587.587 244.485 584.347 246.922C581.107 249.359 579.527 243.28 578.054 239.906C576.582 236.532 577.706 231.123 579.822 225.687C581.937 220.251 584.615 220.144 584.615 220.144C587.56 218.484 592.032 222.153 593.21 226.303C594.362 230.427 592.407 231.659 590.934 236.318Z" fill="white"/>
<path d="M630.513 89.175C630.513 89.175 629.924 86.8185 624.997 84.6495C620.07 82.4806 615.705 82.9894 614.286 85.9349C612.84 88.8805 611.929 95.5213 614.821 98.6275C617.713 101.734 621.649 103.555 623.845 107.625C626.041 111.695 629.228 115.819 626.764 119.407C624.3 122.995 619.748 128.485 617.526 125.753C615.303 122.995 616.187 116.702 613.857 116.274C611.527 115.846 608.475 117.399 608.02 121.067C607.564 124.736 608.957 132.1 618.302 132.126C627.648 132.126 634.208 125.7 636.029 121.442C637.85 117.185 639.403 111.213 635.199 107.411C630.995 103.581 626.443 100.743 626.202 97.7439C625.961 94.7448 627.915 96.8066 631.584 96.2711C635.279 95.682 630.513 89.175 630.513 89.175Z" fill="white"/>
<path d="M686.827 88.8799C686.827 88.8799 686.345 86.5235 682.141 84.3813C677.937 82.239 674.188 82.7478 672.956 85.7201C671.697 88.6657 670.894 95.3065 673.358 98.4128C675.821 101.492 679.169 103.286 681.043 107.357C682.917 111.427 685.595 115.524 683.48 119.112C681.338 122.7 677.428 128.243 675.527 125.485C673.626 122.754 674.429 116.434 672.447 116.032C670.466 115.631 667.842 117.211 667.413 120.853C666.985 124.494 668.163 131.885 676.143 131.858C684.149 131.805 689.799 125.351 691.406 121.067C692.986 116.782 694.352 110.838 690.763 107.035C687.175 103.233 683.292 100.421 683.105 97.422C682.917 94.4229 684.578 96.4848 687.737 95.9225C690.87 95.3869 686.827 88.8799 686.827 88.8799Z" fill="white"/>
<path d="M652.82 77.312C652.82 77.312 651.454 81.9445 650.088 86.2289C648.723 90.5134 648.937 93.1912 646.821 93.1108C644.706 93.0305 640.85 91.2364 639.538 93.8339C638.226 96.4581 636.914 99.4036 639.618 99.8321C642.323 100.261 646.232 100.743 646.232 100.743C646.232 100.743 645.697 107.383 644.92 111.695C644.171 116.006 642.832 119.299 642.992 123.289C643.153 127.279 646.929 131.43 650.624 129.582C654.319 127.708 660.799 123.959 662.433 120.665C664.066 117.398 663.718 110.034 660.639 111.936C657.559 113.837 656.22 117.452 653.516 117.023C650.811 116.595 651.186 114.613 651.668 109.606C652.15 104.598 652.284 100.957 654.694 101.037C657.104 101.117 661.924 101.974 663.504 99.6982C665.111 97.4221 666.128 93.7803 662.513 93.6464C658.898 93.5125 654.346 94.0213 655.364 91.049C656.381 88.0767 657.934 86.8181 659.273 83.5244C660.585 80.2576 659.728 70.2159 652.82 77.312Z" fill="white"/>
<path d="M516.465 165.09C514.832 160.698 510.708 156.815 507.147 154.191C503.585 151.567 499.408 148.916 494.534 147.764C489.661 146.613 485.966 146.747 481.36 146.533C476.754 146.318 470.676 144.792 468.48 145.917C466.284 147.041 472.309 149.478 472.818 151.968C472.818 151.968 473.568 162.465 473.246 169.213C472.925 175.961 471.693 189.136 470.22 194.277C468.748 199.445 467.007 203.971 470.086 203.489C473.193 203.007 477.584 200.757 482.217 200.356C486.849 199.954 494.454 201.855 500.158 198.133C505.861 194.411 509.985 191.84 513.091 184.584C516.198 177.381 518.099 169.454 516.465 165.09ZM502.354 184.102C499.033 189.163 495.659 189.323 490.973 190.636C486.287 191.948 482.324 191.466 481.146 190.18C479.967 188.895 482.404 182.87 482.618 178.264C482.833 173.658 482.404 169.642 482.297 165.652C482.19 161.662 481.199 156.065 481.199 156.065C480.69 153.575 486.474 154.78 491.669 155.932C496.837 157.083 497.373 158.663 500.988 160.671C504.576 162.68 505.942 166.428 506.638 171.382C507.334 176.336 505.674 179.041 502.354 184.102Z" fill="white"/>
<path d="M583.518 148.514C583.518 148.514 583.036 146.506 579.394 145.194C575.752 143.881 570.317 144.203 566.3 145.14C562.256 146.077 558.936 150.201 558.534 153.039C558.106 155.878 555.696 158.877 557.811 162.412C559.927 165.946 564.051 169.24 568.817 170.606C573.583 171.971 575.083 170.606 578.055 173.899C581.028 177.193 583.411 181.263 581.215 185.44C579.019 189.618 580.251 193.929 574.306 193.099C568.362 192.242 563.89 190.609 562.096 186.271C560.302 181.906 557.758 181.799 556.847 182.602C555.964 183.405 554.946 186.512 556.446 191.412C557.918 196.312 560.596 199.874 562.551 201.105C564.479 202.337 570.745 202.632 576.743 201.775C582.741 200.918 586.972 196.285 588.552 192.938C590.132 189.591 591.337 188.225 591.364 181.692C591.391 175.131 589.623 170.498 585.392 169.16C581.188 167.821 577.841 166.241 573.691 163.777C569.54 161.314 567.317 159.787 569.192 156.44C571.066 153.093 574.842 151.299 577.038 153.093C579.234 154.914 577.439 156.815 579.608 159.198C581.777 161.581 585.098 163.429 587.428 162.412C589.757 161.394 589.355 157.94 588.07 154.753C586.785 151.567 583.518 148.514 583.518 148.514Z" fill="white"/>
<path d="M683.479 197.249C679.677 197.356 677.91 200.409 672.849 198.186C667.788 195.964 665.779 198.427 664.44 192.108C663.102 185.788 664.521 184.423 664.199 180.138C663.851 175.854 664.226 173.872 662.753 170.686C661.281 167.472 659.728 165.999 659.728 165.999C659.728 165.999 663.235 166.16 664.708 163.67C666.181 161.179 667.948 158.127 667.574 154.699C667.199 151.272 666.904 145.568 664.226 144.872C661.549 144.176 659.112 144.069 655.309 143.881C651.507 143.694 647.49 142.649 643.661 143.613C639.805 144.577 638.68 145.648 635.735 144.658C632.789 143.667 629.71 145.809 630.352 149.237C630.352 149.237 630.727 152.664 631.959 155.583C633.191 158.475 633.753 163.348 633.646 165.919C633.539 168.463 633.78 174.461 633.646 177.3C633.512 180.138 633.807 185.279 633.673 188.118C633.539 190.956 632.254 195.16 632.414 197.463C632.575 199.739 633.378 199.793 636.11 199.927C638.814 200.061 641.465 201.319 642.751 197.383C644.009 193.447 643.5 192.858 643.795 186.618C644.089 180.379 642.858 177.46 644.866 175.559C646.848 173.658 653.14 172.533 654.667 174.89C656.193 177.246 656.006 181.209 656.595 186.083C657.184 190.956 656.782 193.768 658.442 198.695C660.103 203.622 664.199 208.924 670.947 209.808C677.695 210.692 683.56 206.969 685.568 204.506C687.576 202.042 687.282 197.142 683.479 197.249ZM653.435 160.805C649.579 161.769 648.16 163.402 644.946 162.679C641.733 161.956 641.546 159.948 640.608 156.788C639.671 153.601 639.189 152.155 639.269 150.736C639.323 149.612 644.464 150.12 647.169 150.254C649.873 150.388 652.873 150.227 655.577 150.361C658.282 150.495 660.076 152.557 660.236 155.422C660.343 158.288 657.264 159.867 653.435 160.805Z" fill="white"/>
<path d="M535.612 211.682C535.612 211.682 539.468 215.377 539.334 219.367C539.2 223.357 539.12 225.151 535.799 231.256C532.452 237.362 529.507 245.261 528.114 246.975C526.722 248.716 523.455 253.027 521.072 256.936C518.688 260.846 523.026 264.568 528.462 261.649C533.898 258.73 535.264 258.329 542.815 258.623C550.366 258.891 556.981 260.471 560.622 258.382C564.264 256.294 568.923 250.242 569.111 245.341C569.298 240.468 565.282 240.307 562.952 243.333C560.622 246.359 556.472 250.215 553.821 250.108C551.143 250.001 543.565 251.072 540.941 249.626C538.316 248.207 540.726 243.387 542.654 239.022C544.582 234.657 545.6 231.578 547.126 226.276C548.653 220.974 550.956 218.858 549.322 214.788C547.689 210.718 542.467 207.424 539.388 206.407C536.308 205.389 533.978 207.638 535.612 211.682Z" fill="white"/>
<path d="M673.571 238.567C670.92 237.255 669.662 239.639 666.073 243.146C662.458 246.654 658.951 247.725 655.041 248.797C651.131 249.868 648.186 245.717 647.918 242.477C647.65 239.237 650.06 236.506 652.417 235.783C654.773 235.06 659.433 234.417 661.789 233.292C664.145 232.168 666.957 229.436 667.894 225.045C668.831 220.626 667.814 216.556 663.289 213.584C658.763 210.585 654.157 210.022 650.998 211.522C647.865 213.021 647.65 215.699 644.169 218.538C639.403 222.447 638.439 227.615 638.439 227.615C638.439 227.615 638.225 233.667 638.091 237.282C637.957 240.897 639.403 243.387 640.849 246.654C642.268 249.948 644.491 252.438 652.524 254.741C660.557 257.044 666.529 252.037 669.715 249.305C672.875 246.628 676.222 239.88 673.571 238.567ZM647.891 222.313C649.177 219.127 655.068 216.529 655.068 216.529C657.424 215.405 661.066 221.59 659.807 224.375C658.549 227.16 653.033 230.186 649.578 229.65C646.097 229.088 646.606 225.473 647.891 222.313Z" fill="white"/>
<mask id="path-22-outside-1_294_761043" maskUnits="userSpaceOnUse" x="718" y="214" width="486" height="77" fill="black">
<rect fill="white" x="718" y="214" width="486" height="77"/>
<path fill-rule="evenodd" clip-rule="evenodd" d="M722.899 235.406C756.255 217.089 902.764 202.925 972.9 235.406C1023.44 258.811 1153.83 261.41 1173.71 258.811C1199.65 255.419 1218.52 262.881 1180.45 268.309C1149.99 272.65 1021.98 283.912 961.781 289C930.394 289 917.361 278.995 903.137 268.075C888.197 256.605 871.943 244.126 831.727 241.172C795.248 238.493 765.898 240.281 746.45 241.466C724.046 242.831 714.783 243.396 722.899 235.406ZM940.12 251C946.981 251 954.446 251.184 964.206 254.384C969.775 256.21 973.844 258.676 977.427 260.848C981.691 263.433 985.265 265.599 989.855 265.766C998.3 266.074 980.158 271.081 964.206 268.005C948.253 264.928 938.813 251 940.12 251Z"/>
</mask>
<path fill-rule="evenodd" clip-rule="evenodd" d="M722.899 235.406C756.255 217.089 902.764 202.925 972.9 235.406C1023.44 258.811 1153.83 261.41 1173.71 258.811C1199.65 255.419 1218.52 262.881 1180.45 268.309C1149.99 272.65 1021.98 283.912 961.781 289C930.394 289 917.361 278.995 903.137 268.075C888.197 256.605 871.943 244.126 831.727 241.172C795.248 238.493 765.898 240.281 746.45 241.466C724.046 242.831 714.783 243.396 722.899 235.406ZM940.12 251C946.981 251 954.446 251.184 964.206 254.384C969.775 256.21 973.844 258.676 977.427 260.848C981.691 263.433 985.265 265.599 989.855 265.766C998.3 266.074 980.158 271.081 964.206 268.005C948.253 264.928 938.813 251 940.12 251Z" fill="#D6DAE5" fill-opacity="0.8"/>
<path d="M972.9 235.406L973.74 233.591V233.591L972.9 235.406ZM722.899 235.406L721.937 233.653L721.694 233.786L721.496 233.981L722.899 235.406ZM1173.71 258.811L1173.45 256.828L1173.71 258.811ZM1180.45 268.309L1180.73 270.289L1180.45 268.309ZM961.781 289V291H961.866L961.95 290.993L961.781 289ZM903.137 268.075L904.355 266.488L903.137 268.075ZM831.727 241.172L831.874 239.178L831.727 241.172ZM746.45 241.466L746.329 239.47L746.45 241.466ZM964.206 254.384L963.583 256.284L964.206 254.384ZM940.12 251L940.12 249L940.12 251ZM977.427 260.848L978.463 259.138L977.427 260.848ZM989.855 265.766L989.927 263.767L989.855 265.766ZM964.206 268.005L963.827 269.968L964.206 268.005ZM973.74 233.591C938.226 217.144 883.668 212.585 834.036 214.358C809.173 215.246 785.449 217.727 765.828 221.141C746.282 224.541 730.587 228.903 721.937 233.653L723.862 237.159C731.889 232.751 747.016 228.473 766.514 225.081C785.937 221.702 809.478 219.238 834.178 218.356C883.673 216.588 937.438 221.187 972.06 237.221L973.74 233.591ZM1173.45 256.828C1163.74 258.098 1126.35 258.116 1084.96 254.866C1043.53 251.614 998.642 245.123 973.74 233.591L972.06 237.221C997.697 249.094 1043.27 255.606 1084.65 258.854C1126.05 262.105 1163.8 262.123 1173.97 260.794L1173.45 256.828ZM1180.73 270.289C1190.27 268.929 1196.47 267.416 1199.92 265.886C1200.79 265.498 1201.55 265.081 1202.17 264.626C1202.77 264.183 1203.36 263.61 1203.7 262.864C1204.09 262.032 1204.11 261.105 1203.71 260.252C1203.36 259.491 1202.75 258.957 1202.19 258.585C1201.07 257.846 1199.48 257.322 1197.7 256.939C1195.88 256.546 1193.67 256.263 1191.19 256.105C1186.23 255.788 1180.05 255.965 1173.45 256.828L1173.97 260.794C1180.34 259.961 1186.25 259.798 1190.93 260.097C1193.28 260.246 1195.28 260.509 1196.86 260.85C1198.49 261.201 1199.5 261.599 1199.98 261.92C1200.22 262.079 1200.16 262.108 1200.08 261.94C1199.96 261.68 1199.98 261.374 1200.07 261.184C1200.12 261.081 1200.11 261.172 1199.79 261.41C1199.49 261.634 1199.01 261.913 1198.29 262.23C1195.38 263.52 1189.66 264.975 1180.17 266.329L1180.73 270.289ZM961.95 290.993C1022.11 285.908 1150.2 274.641 1180.73 270.289L1180.17 266.329C1149.78 270.66 1021.85 281.916 961.613 287.007L961.95 290.993ZM901.919 269.661C909.014 275.108 916.012 280.49 925.231 284.469C934.481 288.46 945.863 291 961.781 291V287C946.313 287 935.485 284.537 926.816 280.796C918.116 277.042 911.484 271.961 904.355 266.488L901.919 269.661ZM831.581 243.167C851.495 244.63 865.379 248.442 876.091 253.255C886.813 258.071 894.448 263.925 901.919 269.661L904.355 266.488C896.886 260.754 888.924 254.634 877.73 249.606C866.526 244.573 852.174 240.669 831.874 239.178L831.581 243.167ZM746.572 243.462C766.007 242.278 795.244 240.498 831.581 243.167L831.874 239.178C795.252 236.488 765.789 238.284 746.329 239.47L746.572 243.462ZM721.496 233.981C720.433 235.027 719.573 236.011 718.979 236.935C718.409 237.823 717.924 238.899 718.01 240.062C718.107 241.383 718.889 242.319 719.827 242.897C720.693 243.43 721.778 243.729 722.899 243.917C725.164 244.296 728.345 244.338 732.239 244.218C736.168 244.097 740.982 243.803 746.572 243.462L746.329 239.47C740.717 239.812 735.971 240.101 732.116 240.22C728.225 240.34 725.397 240.279 723.56 239.972C722.63 239.816 722.142 239.625 721.926 239.492C721.784 239.404 721.979 239.497 721.999 239.769C722.007 239.882 721.955 239.703 722.345 239.098C722.71 238.529 723.336 237.782 724.302 236.831L721.496 233.981ZM964.829 252.483C954.768 249.185 947.051 249 940.12 249L940.12 253C946.91 253 954.125 253.184 963.583 256.284L964.829 252.483ZM978.463 259.138C974.877 256.964 970.636 254.387 964.829 252.483L963.583 256.284C968.913 258.032 972.811 260.389 976.39 262.558L978.463 259.138ZM989.927 263.767C985.94 263.622 982.805 261.769 978.463 259.138L976.39 262.558C980.578 265.097 984.589 267.576 989.782 267.765L989.927 263.767ZM963.827 269.968C972.096 271.563 980.867 271.06 986.506 270.127C987.924 269.893 989.171 269.627 990.184 269.35C991.141 269.088 992.057 268.774 992.694 268.386C992.866 268.281 993.075 268.137 993.273 267.946C993.457 267.768 993.743 267.441 993.897 266.954C994.077 266.388 994.025 265.758 993.711 265.211C993.441 264.739 993.061 264.475 992.823 264.34C992.361 264.076 991.839 263.964 991.452 263.901C991.015 263.831 990.502 263.788 989.927 263.767L989.782 267.765C990.262 267.782 990.598 267.815 990.815 267.85C991.082 267.893 991.021 267.917 990.84 267.814C990.743 267.758 990.459 267.581 990.241 267.201C989.98 266.745 989.937 266.212 990.084 265.747C990.206 265.361 990.419 265.141 990.49 265.072C990.575 264.99 990.631 264.959 990.612 264.97C990.487 265.047 990.035 265.244 989.13 265.491C988.28 265.723 987.172 265.963 985.853 266.181C980.544 267.059 972.268 267.522 964.584 266.041L963.827 269.968ZM940.12 249C939.597 249 938.911 249.203 938.434 249.834C938.032 250.365 937.997 250.922 938 251.181C938.006 251.694 938.183 252.147 938.284 252.386C938.528 252.961 938.943 253.649 939.452 254.373C940.492 255.855 942.145 257.799 944.334 259.819C948.706 263.852 955.379 268.339 963.827 269.968L964.584 266.041C957.08 264.593 951.056 260.578 947.047 256.879C945.045 255.032 943.586 253.301 942.726 252.075C942.283 251.445 942.051 251.022 941.967 250.823C941.904 250.675 941.996 250.826 942 251.134C942.002 251.29 941.986 251.768 941.624 252.247C941.187 252.824 940.562 253 940.12 253L940.12 249Z" fill="#A0A2AC" fill-opacity="0.6" mask="url(#path-22-outside-1_294_761043)"/>
<path fill-rule="evenodd" clip-rule="evenodd" d="M726.835 242.25C731.321 242.388 737.937 241.985 746.45 241.466C765.898 240.281 795.248 238.493 831.727 241.173C871.943 244.127 888.197 256.605 903.137 268.075C917.361 278.995 930.394 289 961.781 289C1021.98 283.912 1149.99 272.651 1180.45 268.309C1207.9 264.395 1205.75 259.424 1192.69 258.227C1190.79 260.001 1187.11 261.644 1182.45 262.309C1151.99 266.651 1023.98 277.912 963.781 283C932.394 283 919.361 272.995 905.137 262.075C890.197 250.605 873.943 238.127 833.727 235.173C798.204 232.563 766.833 236.989 745.716 239.969C737.924 241.068 731.529 241.971 726.835 242.25ZM940.5 250C942.877 250 945.522 249.422 948.37 248.799C953.739 247.625 959.829 246.293 966.206 248.384C972.316 250.387 976.407 254.476 980.03 258.096C983.464 261.528 986.478 264.539 990.392 264.957C988.807 264.856 986.639 264.697 984.1 264.462C981.896 263.557 979.765 262.265 977.427 260.848C973.844 258.677 969.775 256.21 964.206 254.384C954.826 251.309 947.566 251.019 940.924 251.001C940.258 250.376 940.089 250 940.5 250ZM990.392 264.957C990.706 264.977 990.998 264.994 991.265 265.01L991 265C990.795 264.993 990.592 264.978 990.392 264.957Z" fill="#9A9DA7" fill-opacity="0.6"/>
<path fill-rule="evenodd" clip-rule="evenodd" d="M972.9 235.406C902.764 202.925 756.255 217.089 722.899 235.406C718.784 239.457 719.137 241.309 723.404 241.972C723.872 241.47 724.37 240.949 724.9 240.406C751.475 213.169 904.764 207.925 974.9 240.406C1025.44 263.811 1168.62 263.099 1188.5 260.5C1197.94 259.266 1201.57 260.36 1201.69 262.347C1204.26 258.956 1190.46 256.621 1173.71 258.811C1153.83 261.41 1023.44 258.811 972.9 235.406ZM942.134 254.597C944.904 259.682 954.044 270.659 966.206 273.004C981.237 275.903 997.01 267.837 991.715 266.639C989.616 268.029 976.283 270.334 964.206 268.005C953.466 265.933 945.678 258.944 942.134 254.597Z" fill="#FDFDFF" fill-opacity="0.6"/>
<path d="M340.431 267.936C373.827 276.916 439.401 265.903 493.037 240.87C486.763 250.732 448.879 272.988 347.537 283.11C220.86 295.763 245.072 264.12 150.882 249.287C110.382 242.909 59.5926 261.916 52.882 263.909C10.882 276.382 36.8 261.519 52.882 254.909C89.3823 239.909 97.8821 210.908 150.882 210.908C178.382 210.908 234.124 238.456 236.621 231.25C239.117 224.043 258.188 218.82 287.701 219.248C316.838 219.671 374.382 240.87 370.802 249.287C365.221 262.409 313.714 260.752 340.431 267.936Z" fill="#D6DAE5" fill-opacity="0.8"/>
<path d="M492.615 239.964L495.722 238.513L493.881 241.407C492.189 244.067 488.487 247.404 482.424 251.063C476.334 254.739 467.778 258.788 456.269 262.836C433.251 270.931 398.362 279.039 347.637 284.105C284.217 290.44 258.428 285.7 236.672 277.441C231.6 275.515 226.767 273.408 221.737 271.215C205.272 264.037 186.696 255.939 150.726 250.275C130.663 247.115 107.987 250.24 89.4315 254.434C74.5438 257.799 62.4114 261.824 56.4239 263.81C54.9478 264.3 53.8451 264.666 53.1667 264.867C42.6751 267.983 36.3252 269.424 32.9813 269.691C32.1416 269.758 31.4346 269.756 30.8749 269.667C30.3704 269.587 29.7195 269.396 29.35 268.836C28.921 268.186 29.1401 267.499 29.3692 267.081C29.6061 266.65 29.9912 266.228 30.424 265.829C32.152 264.238 35.6976 262.097 39.7247 259.973C43.7874 257.831 48.4514 255.649 52.5019 253.984C65.499 248.643 74.8492 241.555 84.0688 234.566C87.7041 231.811 91.319 229.07 95.1293 226.459C108.581 217.238 124.15 209.908 150.882 209.908C157.894 209.908 166.639 211.659 175.79 214.134C184.956 216.614 194.608 219.842 203.448 222.834C204.089 223.051 204.725 223.266 205.357 223.48C213.458 226.225 220.759 228.698 226.291 230.144C229.281 230.925 231.682 231.385 233.383 231.445C234.238 231.475 234.835 231.4 235.217 231.265C235.574 231.14 235.648 231.003 235.676 230.922C236.414 228.791 238.315 226.956 241.006 225.407C243.716 223.848 247.354 222.504 251.791 221.415C260.67 219.235 272.907 218.034 287.716 218.248C302.449 218.462 324.242 223.911 341.863 230.33C350.681 233.542 358.514 237.019 363.936 240.242C366.639 241.848 368.803 243.426 370.187 244.916C371.515 246.345 372.423 248.032 371.722 249.678C370.916 251.574 369.32 253.12 367.343 254.4C365.358 255.686 362.91 256.757 360.273 257.671C355.174 259.439 349.209 260.677 344.208 261.713L343.708 261.817C341.142 262.35 338.865 262.828 337.087 263.304C336.198 263.542 335.457 263.772 334.879 264C334.419 264.182 334.115 264.342 333.93 264.469C334.018 264.54 334.148 264.634 334.343 264.748C335.351 265.34 337.349 266.072 340.691 266.97C357.181 271.405 381.754 270.923 408.972 266.173C436.163 261.427 465.881 252.441 492.615 239.964Z" stroke="#A0A2AC" stroke-opacity="0.6" stroke-width="2"/>
<path fill-rule="evenodd" clip-rule="evenodd" d="M333.233 263.74C334.57 262.691 338.8 261.813 343.98 260.739C354.176 258.625 368.054 255.747 370.802 249.287C371.204 248.339 370.833 247.23 369.815 246.007C365.618 251.791 353.711 255.669 344.608 258.634C338.4 260.656 333.496 262.253 333.233 263.74ZM35.8237 263.291C26.9888 268.545 25.4676 272.05 52.8813 263.909C53.5389 263.713 54.6198 263.355 56.0728 262.872C69.4473 258.434 114.35 243.534 150.881 249.287C186.989 254.973 205.696 263.129 222.175 270.314C248.682 281.871 269.42 290.913 347.537 283.11C448.878 272.988 486.762 250.732 493.037 240.87C488.17 243.141 483.206 245.297 478.176 247.333C458.565 257.914 418.693 271.003 347.537 278.11C269.42 285.913 248.682 276.871 222.175 265.314C205.696 258.129 186.989 249.973 150.881 244.287C114.35 238.534 69.4473 253.434 56.0728 257.872C54.6198 258.355 53.5389 258.713 52.8813 258.909C44.9456 261.265 39.4345 262.646 35.8237 263.291Z" fill="#9A9DA7" fill-opacity="0.6"/>
<path fill-rule="evenodd" clip-rule="evenodd" d="M345.715 269.141C378.904 278.332 421.75 269.031 463.094 253.017C419.628 268.231 373.809 274.512 345.715 269.141ZM492.818 240.972C491.249 243.033 488.499 245.672 484.361 248.659C488.907 245.655 491.695 242.979 493.037 240.87C492.964 240.904 492.891 240.938 492.818 240.972ZM33.7024 268.614C22.3168 269.963 40.5096 259.994 52.8813 254.909C66.0066 249.515 75.5112 242.311 84.7662 235.295C101.249 222.802 116.94 210.908 150.881 210.908C165.133 210.908 186.969 218.306 205.049 224.432C221.856 230.127 235.417 234.721 236.62 231.249C239.116 224.043 258.187 218.82 287.701 219.248C309.056 219.558 345.671 231.028 362.296 240.447C344.907 232.381 308.651 223.552 287.701 223.248C258.187 222.82 239.117 228.043 236.62 235.249C235.417 238.721 221.857 234.127 205.049 228.432C186.97 222.306 165.133 214.908 150.881 214.908C116.94 214.908 101.249 226.802 84.7664 239.295C75.5114 246.311 66.0068 253.515 52.8815 258.909C46.385 261.579 38.2835 265.596 33.7024 268.614ZM356.437 257.829C352.297 259.014 347.871 259.932 343.98 260.739C338.635 261.848 334.302 262.746 333.115 263.841C332.488 262.264 337.519 261.399 344.18 260.252C347.984 259.597 352.319 258.851 356.437 257.829Z" fill="#FDFDFF" fill-opacity="0.6"/>
<path d="M263.5 279.731C263.5 287.739 252.5 297.178 239.5 300.217C230.358 302.354 204 299.186 204 291.178C204 283.169 219.5 275.624 233 273.177C246.5 270.731 263.5 271.723 263.5 279.731Z" fill="#D6DAE5" fill-opacity="0.8"/>
<path d="M239.728 301.191C246.38 299.635 252.525 296.444 257.025 292.597C261.487 288.782 264.5 284.168 264.5 279.731C264.5 277.304 263.185 275.46 261.18 274.148C259.207 272.856 256.502 272.028 253.469 271.546C247.39 270.58 239.646 270.957 232.822 272.193C225.977 273.434 218.615 275.966 212.94 279.225C210.103 280.853 207.645 282.687 205.885 284.666C204.129 286.642 203 288.842 203 291.178C203 293.781 205.125 295.734 207.792 297.152C210.529 298.608 214.218 299.711 218.128 300.483C225.925 302.022 234.96 302.305 239.728 301.191Z" stroke="#A0A2AC" stroke-opacity="0.6" stroke-width="2"/>
<path fill-rule="evenodd" clip-rule="evenodd" d="M263.149 277.852C259.83 284.394 250.791 290.811 240.5 293.217C232.262 295.143 208.828 297.894 204.272 292.561C207.087 299.545 230.903 302.227 239.5 300.217C252.5 297.178 263.5 287.739 263.5 279.731C263.5 279.055 263.379 278.43 263.149 277.852Z" fill="#9A9DA7" fill-opacity="0.6"/>
</g>
<defs>
<clipPath id="clip0_294_761043">
<rect width="1202" height="312" fill="white"/>
</clipPath>
</defs>
</svg>
