<svg width="280" height="280" viewBox="0 0 280 280" fill="none" xmlns="http://www.w3.org/2000/svg">
<path d="M85.0651 16.9842C85.0651 16.9842 81.6643 12.8604 76.3355 12.6729C71.0068 12.4855 68.6236 14.0654 60.2154 15.431C51.834 16.7967 46.1838 15.913 41.8191 16.4218C37.4543 16.9306 28.4302 17.9214 33.518 24.8032C38.6058 31.6583 42.8634 33.4792 44.3094 40.2004C45.7286 46.9216 47.1211 54.3123 46.8801 60.98C46.6391 67.6476 47.496 71.6643 45.3538 75.6006C43.2115 79.5369 33.6787 84.8389 34.1874 89.2036C34.6962 93.5684 48.5135 89.3911 54.5653 88.2932C60.6171 87.1685 68.0612 84.4372 73.7113 84.9996C79.3614 85.5351 90.7152 84.946 94.4373 84.0891C98.1326 83.2323 98.6146 79.5637 100.168 73.6191C101.721 67.6744 99.5251 63.9255 97.1151 65.8267C94.7051 67.7279 89.5905 71.2358 85.5471 72.0659C81.5037 72.896 72.5063 72.6015 68.811 73.4584C65.1157 74.3153 60.1083 74.4759 59.894 71.1287C59.6798 67.7814 59.1443 64.0862 59.6263 60.1231C60.1083 56.1332 61.4739 55.5173 67.4721 55.062C73.4703 54.6068 75.8 55.3566 79.2008 53.4822C82.6016 51.6077 81.3698 49.2245 79.8167 45.8238C78.2636 42.423 74.5415 43.9761 69.1859 44.4314C63.8304 44.9134 60.4296 46.4397 59.5191 44.0832C58.6087 41.7268 59.0371 38.7276 57.5108 35.0055C55.9845 31.2834 56.4665 26.9723 59.8405 25.7405C63.2145 24.5355 68.5432 24.7229 73.5774 23.9196C78.6117 23.0895 81.0484 23.5179 82.6015 26.5974C84.1546 29.65 86.0826 37.7369 88.7872 36.8264C91.4917 35.916 90.7687 28.5522 89.8851 25.1782C89.0014 21.8042 85.0651 16.9842 85.0651 16.9842Z" fill="white"/>
<path d="M188.131 16.1814C188.131 16.1814 186.283 11.9237 182.267 11.0133C178.25 10.1029 176.135 11.2275 169.52 11.3078C162.906 11.3882 158.756 9.80831 155.355 9.67442C151.954 9.54053 144.885 9.2192 147.536 16.2082C150.187 23.1972 153.079 25.4732 152.972 31.8196C152.838 38.1927 152.57 45.1549 151.204 51.2334C149.812 57.312 149.732 61.1144 147.402 64.4348C145.072 67.7285 136.852 71.2899 136.45 75.3602C136.048 79.4304 147.322 77.5291 152.115 77.3417C156.908 77.1542 163.067 75.6815 167.271 76.9668C171.475 78.2522 180.205 79.2697 183.177 79.0019C186.149 78.7073 187.167 75.4405 189.416 70.1921C191.666 64.9436 190.675 61.2215 188.506 62.6407C186.337 64.06 181.811 66.5503 178.571 66.7645C175.331 66.9788 168.556 65.4524 165.611 65.7202C162.638 66.0147 158.809 65.4524 159.238 62.3461C159.666 59.2399 159.934 55.7857 161.032 52.1974C162.103 48.6092 163.254 48.2343 167.914 48.6628C172.573 49.0912 174.18 50.082 177.125 48.8502C180.044 47.5917 179.535 45.2353 178.973 41.9148C178.411 38.5944 175.304 39.478 171.154 39.1834C167.003 38.8889 164.138 39.8261 163.87 37.5232C163.602 35.2203 164.486 32.5426 163.977 28.9276C163.495 25.3126 164.647 21.403 167.432 20.7604C170.217 20.1177 174.233 21.0282 178.223 20.9746C182.186 20.9211 183.98 21.6441 184.596 24.67C185.239 27.6958 185.239 35.3542 187.461 34.899C189.684 34.4438 190.461 27.5887 190.38 24.3754C190.246 21.1353 188.131 16.1814 188.131 16.1814Z" fill="white"/>
<path d="M89.4819 159.041C89.4819 159.041 87.8752 155.693 84.6351 155.077C81.395 154.461 79.7616 155.426 74.4596 155.693C69.1576 155.961 65.8104 154.836 63.1058 154.81C60.3745 154.81 54.7244 154.756 57.0541 160.246C59.3569 165.762 61.7669 167.475 61.8473 172.563C61.9276 177.651 61.9276 183.221 61.0171 188.121C60.1067 193.021 60.1603 196.074 58.3662 198.779C56.5989 201.483 50.1454 204.589 49.958 207.83C49.7705 211.096 58.7143 209.222 62.5435 208.927C66.3727 208.633 71.2463 207.267 74.6203 208.178C78.021 209.061 85.0368 209.624 87.3932 209.329C89.7497 209.008 90.4727 206.357 92.1061 202.099C93.7396 197.841 92.8291 194.896 91.1421 196.074C89.4551 197.279 85.8936 199.394 83.3498 199.662C80.7791 199.93 75.3164 198.913 72.96 199.234C70.6035 199.555 67.5242 199.234 67.7652 196.744C68.033 194.253 68.14 191.495 68.8898 188.576C69.6396 185.658 70.55 185.336 74.2722 185.55C77.9943 185.738 79.3331 186.514 81.636 185.417C83.9389 184.319 83.4569 182.471 82.8946 179.82C82.3322 177.169 79.8955 177.972 76.5483 177.865C73.2278 177.731 70.9517 178.588 70.6839 176.767C70.3894 174.946 71.0053 172.777 70.5233 169.885C70.0145 166.993 70.8178 163.86 73.0403 163.271C75.2629 162.682 78.4762 163.271 81.6627 163.111C84.8493 162.95 86.2685 163.486 86.8844 165.869C87.4735 168.252 87.7145 174.384 89.4819 173.956C91.2492 173.527 91.6509 168.038 91.4902 165.467C91.3295 162.923 89.4819 159.041 89.4819 159.041Z" fill="white"/>
<path d="M165.987 157.54C165.987 157.54 164.541 154.247 161.623 153.738C158.704 153.229 157.204 154.22 152.438 154.675C147.671 155.104 144.645 154.086 142.182 154.14C139.718 154.22 134.631 154.327 136.692 159.763C138.754 165.199 140.923 166.832 140.977 171.893C141.031 176.954 141.004 182.524 140.147 187.424C139.29 192.325 139.317 195.377 137.71 198.135C136.103 200.893 130.266 204.16 130.078 207.427C129.891 210.694 137.978 208.552 141.432 208.15C144.886 207.749 149.305 206.222 152.357 207.025C155.41 207.802 161.756 208.15 163.899 207.775C166.041 207.4 166.684 204.723 168.183 200.438C169.683 196.154 168.879 193.235 167.353 194.467C165.827 195.725 162.613 197.948 160.284 198.296C157.954 198.644 153.027 197.787 150.885 198.189C148.742 198.564 145.958 198.35 146.199 195.859C146.44 193.369 146.547 190.611 147.243 187.692C147.939 184.773 148.743 184.425 152.116 184.506C155.49 184.586 156.669 185.309 158.757 184.157C160.846 183.006 160.418 181.158 159.936 178.534C159.454 175.91 157.231 176.793 154.232 176.767C151.233 176.74 149.198 177.65 148.93 175.856C148.689 174.035 149.251 171.866 148.796 169.001C148.341 166.136 149.091 162.976 151.099 162.334C153.107 161.664 156.026 162.173 158.891 161.932C161.756 161.664 163.042 162.146 163.577 164.529C164.113 166.886 164.3 172.991 165.88 172.509C167.46 172.027 167.862 166.538 167.755 163.994C167.648 161.37 165.987 157.54 165.987 157.54Z" fill="white"/>
<path d="M269.802 154.381C269.802 154.381 268.543 151.248 265.946 150.793C263.322 150.337 261.983 151.328 257.672 151.783C253.36 152.239 250.683 151.301 248.46 151.382C246.264 151.489 241.659 151.65 243.453 156.844C245.247 162.012 247.175 163.566 247.148 168.439C247.121 173.313 247.068 178.641 246.238 183.354C245.407 188.067 245.407 190.986 243.935 193.664C242.462 196.315 237.187 199.528 236.972 202.661C236.758 205.794 244.042 203.652 247.148 203.223C250.254 202.795 254.217 201.295 256.975 202.018C259.733 202.741 265.41 203.009 267.312 202.607C269.24 202.206 269.855 199.635 271.248 195.511C272.64 191.388 271.944 188.576 270.552 189.808C269.159 191.04 266.267 193.182 264.179 193.557C262.09 193.932 257.672 193.155 255.744 193.557C253.816 193.958 251.325 193.771 251.566 191.361C251.807 188.978 251.941 186.327 252.611 183.515C253.28 180.703 254.003 180.355 257.029 180.382C260.055 180.436 261.126 181.105 263 179.954C264.875 178.829 264.527 177.062 264.098 174.545C263.697 172.054 261.688 172.911 258.984 172.911C256.279 172.938 254.432 173.821 254.244 172.081C254.03 170.34 254.565 168.252 254.217 165.52C253.842 162.789 254.539 159.736 256.36 159.094C258.154 158.424 260.778 158.88 263.348 158.612C265.919 158.344 267.071 158.772 267.526 161.049C267.981 163.325 268.088 169.162 269.507 168.68C270.927 168.198 271.355 162.923 271.275 160.486C271.248 158.023 269.802 154.381 269.802 154.381Z" fill="white"/>
<path d="M92.9629 13.9318C92.9629 13.9318 93.445 19.2873 94.6232 23.3308C95.8014 27.3742 95.6407 32.0335 97.1938 35.4343C98.7469 38.835 99.8716 44.2173 101.773 46.9487C103.674 49.68 105.361 58.0883 106.968 60.1501C108.548 62.212 110.877 71.6378 112.484 73.3515C114.091 75.0653 113.93 79.0819 116.929 79.8585C119.901 80.6351 127.801 74.262 130.612 52.0097C133.424 29.7574 133.638 32.7833 136.316 23.5182C138.994 14.2798 145.313 14.4941 144.43 11.1469C143.546 7.77288 138.458 9.91515 134.147 9.78126C129.809 9.62059 124.534 7.77288 123.784 10.3971C123.008 13.0481 124.561 16.7702 124.775 19.7693C124.989 22.7684 123.998 31.7389 123.838 36.425C123.677 41.0844 122.847 54.3929 122.044 58.0347C121.24 61.6764 120.303 69.3081 118.429 65.9073C116.554 62.5066 115.992 59.802 114.519 54.0984C113.046 48.3947 113.341 50.0549 112.296 41.6735C111.279 33.292 110.931 33.292 111.172 26.6244C111.413 19.9567 113.796 19.0463 112.591 15.0029C111.413 10.9594 111.466 9.62056 107.771 9.83479C104.102 10.0222 99.0682 10.531 96.0691 10.3971C93.0968 10.2632 93.0432 11.6021 92.9629 13.9318Z" fill="white"/>
<path d="M209.447 155.479C209.447 155.479 209.662 159.335 210.304 162.253C210.947 165.172 210.786 168.546 211.67 170.983C212.554 173.42 213.143 177.302 214.241 179.284C215.338 181.266 216.222 187.317 217.159 188.817C218.07 190.316 219.328 197.118 220.265 198.35C221.203 199.582 221.069 202.473 222.809 203.036C224.55 203.598 229.316 199.019 231.244 182.979C233.172 166.939 233.279 169.108 234.966 162.441C236.653 155.773 240.402 155.961 239.92 153.524C239.438 151.087 236.412 152.64 233.842 152.506C231.271 152.372 228.192 151.034 227.71 152.935C227.228 154.836 228.085 157.514 228.192 159.71C228.299 161.878 227.603 168.359 227.442 171.706C227.281 175.08 226.639 184.666 226.13 187.291C225.621 189.915 224.952 195.431 223.88 192.967C222.809 190.504 222.515 188.576 221.712 184.452C220.908 180.328 221.069 181.533 220.56 175.482C220.051 169.43 219.864 169.43 220.078 164.637C220.292 159.843 221.712 159.174 221.069 156.255C220.426 153.336 220.453 152.372 218.284 152.506C216.115 152.64 213.116 152.988 211.349 152.908C209.554 152.828 209.528 153.792 209.447 155.479Z" fill="white"/>
<path d="M145.341 221.513C145.341 221.513 145.341 225.047 145.876 227.752C146.412 230.456 146.037 233.509 146.84 235.785C147.644 238.061 148.099 241.676 149.17 243.551C150.241 245.452 150.884 251.022 151.794 252.468C152.705 253.914 153.695 260.18 154.633 261.411C155.57 262.616 155.249 265.241 157.15 265.91C159.051 266.58 164.54 262.857 167.647 248.505C170.753 234.152 170.726 236.107 172.975 230.242C175.252 224.351 179.349 224.86 178.974 222.611C178.599 220.361 175.171 221.486 172.36 221.138C169.548 220.79 166.228 219.263 165.585 220.95C164.942 222.637 165.719 225.154 165.692 227.136C165.665 229.118 164.514 234.902 164.139 237.954C163.764 240.98 162.479 249.629 161.729 251.959C161.006 254.289 159.961 259.216 158.917 256.886C157.9 254.556 157.685 252.762 157.043 248.96C156.4 245.157 156.507 246.255 156.32 240.712C156.132 235.196 155.918 235.169 156.454 230.831C156.989 226.493 158.596 226.038 158.034 223.334C157.498 220.629 157.605 219.745 155.195 219.692C152.785 219.611 149.491 219.638 147.537 219.397C145.635 219.129 145.528 219.986 145.341 221.513Z" fill="white"/>
<path d="M194.156 73.3519C194.156 73.3519 196.191 62.7479 196.727 55.4376C197.262 48.1272 197.61 46.1189 198.146 39.4781C198.655 32.8372 199.324 29.5167 197.905 23.465C196.486 17.4132 194.076 15.3245 194.718 12.6735C195.361 10.0225 197.53 10.7724 199.726 11.2008C201.922 11.6025 204.947 11.0668 207.116 12.138C209.285 13.2091 210.062 14.2534 211.053 16.958C212.043 19.6625 213.945 28.0708 214.935 31.1234C215.926 34.1493 218.095 42.2361 219.086 45.2888C220.077 48.3147 223.129 55.1162 224.656 58.1689C226.182 61.2215 228.405 68.3176 229.824 67.0323C231.243 65.747 231.136 61.0876 231.082 55.4108C231.002 49.7339 230.145 43.7089 229.529 38.0052C228.913 32.3016 229.288 29.3292 228.11 24.2683C226.932 19.234 225.298 18.8324 224.281 16.1279C223.29 13.4233 225.272 11.8167 227.735 11.9238C230.199 12.0041 233.198 12.7806 236.224 12.8877C239.25 12.9948 242.035 12.1112 244.739 12.861C247.47 13.6376 246.239 17.2525 244.819 17.8684C243.4 18.4843 241.713 20.4123 240.749 23.7328C239.785 27.0532 239.062 32.3551 238.875 37.3358C238.687 42.3165 237.938 47.6452 238.527 54.3397C239.116 61.0341 238.687 65.024 238.58 67.675C238.473 70.326 239.973 74.7443 238.259 76.3242C236.545 77.9308 227.28 76.2438 224.522 75.8154C221.791 75.3869 218.042 72.5753 216.274 68.5051C214.507 64.4349 213.543 60.7395 211.883 53.0008C210.249 45.262 209.607 39.9065 208.321 37.5233C207.036 35.14 206.715 36.1308 206.313 39.7726C205.911 43.4144 205.67 50.082 205.242 54.42C204.814 58.7312 204.599 64.7294 206.152 67.4607C207.706 70.1921 210.865 73.9678 210.865 73.9678C210.865 73.9678 215.658 78.4664 213.141 79.0555C210.651 79.6446 208.161 79.8856 204.626 79.0823C201.091 78.2789 197.476 79.484 195.307 78.0648C193.219 76.6456 194.156 73.3519 194.156 73.3519Z" fill="white"/>
<path d="M79.7634 98.148C76.8178 96.3806 76.0948 98.3354 74.3275 100.611C72.587 102.888 64.3662 99.2458 64.3662 99.2458C64.3662 99.2458 59.1445 95.7111 55.0743 97.9069C51.0041 100.103 47.7908 105.324 45.6218 110.251C43.4528 115.179 42.2478 120.132 43.1047 124.176C43.9616 128.219 48.8351 131.727 52.5304 130.87C56.2258 130.013 60.9922 127.844 61.9295 129.21C62.8935 130.576 59.3856 135.128 56.8952 139.038C54.4049 142.947 48.6477 145.732 45.4076 143.295C42.1675 140.858 40.9357 137.806 36.9726 136.976C33.0095 136.172 32.1526 140.805 35.3659 144.259C38.5792 147.714 43.7474 152.56 47.3891 153.364C51.0309 154.167 56.4668 151.703 61.3403 146.187C66.2139 140.698 68.731 135.771 71.5962 130.228C74.4614 124.658 75.9878 119.383 77.5409 113.759C79.0672 108.136 82.7089 99.9421 79.7634 98.148ZM64.6876 118.285C61.1797 123.158 59.8408 122.783 57.4843 123.694C55.1279 124.604 51.4594 124.149 49.9062 121.418C48.3264 118.686 50.1205 115.42 50.897 112.447C51.6736 109.475 54.4584 105.913 58.1805 104.708C61.9027 103.503 65.7854 106.315 65.7854 106.315C65.7854 106.315 68.1954 113.411 64.6876 118.285Z" fill="white"/>
<path d="M90.2602 93.8897C90.2602 93.8897 86.2971 101.762 85.4938 105.404C84.6904 109.046 83.5122 114 81.611 120.266C79.7097 126.532 78.2102 130.816 77.7818 134.137C77.3265 137.457 77.5139 141.795 80.9147 139.921C84.3155 138.046 85.8151 133.44 88.6 130.2C91.3849 126.96 93.6074 121.042 97.3027 120.185C100.998 119.329 104.238 121.765 103.381 127.067C102.524 132.369 100.436 134.645 102.605 139.037C104.774 143.455 109.112 143.616 113.905 140.456C118.698 137.296 119.153 133.655 115.137 133.842C111.12 134.03 108.79 133.949 109.647 128.969C110.504 123.988 111.87 122.703 109.728 117.642C107.585 112.554 105.684 109.822 100.998 110.304C96.3119 110.813 90.4476 116.249 90.2334 112.902C90.0192 109.555 91.4652 106.93 94.25 103.717C97.0349 100.504 99.0432 100.236 100.516 96.5942C101.989 92.9793 100.73 90.596 98.0525 90.837C95.3747 91.078 92.3756 90.9709 90.2602 93.8897Z" fill="white"/>
<path d="M147.564 105.324C145.02 101.575 139.504 97.3439 139.504 97.3439C139.504 97.3439 130.908 95.041 124.776 98.4686C118.644 101.923 117.412 108.216 116.957 111.536C116.502 114.857 116.635 120.533 117.894 122.569C119.153 124.604 120.599 130.682 124.16 133.467C127.721 136.252 130.319 138.367 134.121 134.833C137.924 131.298 142.101 126.773 145.02 119.891C147.939 113.009 150.081 109.099 147.564 105.324ZM136.719 118.954C134.898 122.89 132.809 125.809 129.382 127.683C125.981 129.558 124.829 124.175 123.624 121.122C122.393 118.07 123.892 113.464 126.409 108.885C128.9 104.306 131.577 104.413 131.577 104.413C134.63 103.181 138.834 106.689 139.691 110.385C140.575 114.08 138.54 115.017 136.719 118.954Z" fill="white"/>
<path d="M140.628 228.85C137.79 224.753 131.952 220.388 131.952 220.388C131.952 220.388 123.196 218.433 117.385 222.878C111.547 227.323 110.851 234.607 110.664 238.436C110.476 242.265 111.065 248.746 112.511 250.995C113.931 253.244 115.885 260.046 119.661 262.938C123.437 265.857 126.195 268.026 129.703 263.688C133.21 259.35 136.986 253.833 139.316 245.72C141.645 237.606 143.466 232.947 140.628 228.85ZM130.934 245.318C129.462 249.977 127.587 253.485 124.347 255.922C121.107 258.359 119.527 252.28 118.054 248.906C116.582 245.532 117.706 240.123 119.822 234.687C121.937 229.251 124.615 229.144 124.615 229.144C127.56 227.484 132.032 231.153 133.21 235.303C134.362 239.427 132.407 240.659 130.934 245.318Z" fill="white"/>
<path d="M170.513 98.175C170.513 98.175 169.924 95.8185 164.997 93.6495C160.07 91.4806 155.705 91.9894 154.286 94.9349C152.84 97.8805 151.929 104.521 154.821 107.628C157.713 110.734 161.649 112.555 163.845 116.625C166.041 120.695 169.228 124.819 166.764 128.407C164.3 131.995 159.748 137.485 157.526 134.753C155.303 131.995 156.187 125.702 153.857 125.274C151.527 124.846 148.475 126.399 148.02 130.067C147.564 133.736 148.957 141.1 158.302 141.126C167.648 141.126 174.208 134.7 176.029 130.442C177.85 126.185 179.403 120.213 175.199 116.411C170.995 112.581 166.443 109.743 166.202 106.744C165.961 103.745 167.915 105.807 171.584 105.271C175.279 104.682 170.513 98.175 170.513 98.175Z" fill="white"/>
<path d="M226.827 97.8799C226.827 97.8799 226.345 95.5235 222.141 93.3813C217.937 91.239 214.188 91.7478 212.956 94.7201C211.697 97.6657 210.894 104.307 213.358 107.413C215.821 110.492 219.169 112.286 221.043 116.357C222.917 120.427 225.595 124.524 223.48 128.112C221.338 131.7 217.428 137.243 215.527 134.485C213.626 131.754 214.429 125.434 212.447 125.032C210.466 124.631 207.842 126.211 207.413 129.853C206.985 133.494 208.163 140.885 216.143 140.858C224.149 140.805 229.799 134.351 231.406 130.067C232.986 125.782 234.352 119.838 230.763 116.035C227.175 112.233 223.292 109.421 223.105 106.422C222.917 103.423 224.578 105.485 227.737 104.922C230.87 104.387 226.827 97.8799 226.827 97.8799Z" fill="white"/>
<path d="M192.82 86.312C192.82 86.312 191.454 90.9445 190.088 95.2289C188.723 99.5134 188.937 102.191 186.821 102.111C184.706 102.031 180.85 100.236 179.538 102.834C178.226 105.458 176.914 108.404 179.618 108.832C182.323 109.261 186.232 109.743 186.232 109.743C186.232 109.743 185.697 116.383 184.92 120.695C184.171 125.006 182.832 128.299 182.992 132.289C183.153 136.279 186.929 140.43 190.624 138.582C194.319 136.708 200.799 132.959 202.433 129.665C204.066 126.398 203.718 119.034 200.639 120.936C197.559 122.837 196.22 126.452 193.516 126.023C190.811 125.595 191.186 123.613 191.668 118.606C192.15 113.598 192.284 109.957 194.694 110.037C197.104 110.117 201.924 110.974 203.504 108.698C205.111 106.422 206.128 102.78 202.513 102.646C198.898 102.513 194.346 103.021 195.364 100.049C196.381 97.0767 197.934 95.8181 199.273 92.5244C200.585 89.2576 199.728 79.2159 192.82 86.312Z" fill="white"/>
<path d="M56.4654 174.09C54.832 169.698 50.7082 165.815 47.1468 163.191C43.5853 160.567 39.408 157.916 34.5345 156.764C29.6609 155.613 25.9656 155.747 21.3598 155.533C16.7541 155.318 10.6755 153.792 8.47974 154.917C6.28397 156.041 12.3089 158.478 12.8177 160.968C12.8177 160.968 13.5675 171.465 13.2462 178.213C12.9248 184.961 11.6931 198.136 10.2203 203.277C8.7475 208.445 7.00698 212.971 10.0864 212.489C13.1926 212.007 17.5842 209.757 22.2167 209.356C26.8493 208.954 34.4541 210.855 40.1578 207.133C45.8614 203.411 49.9852 200.84 53.0914 193.584C56.1977 186.381 58.0989 178.454 56.4654 174.09ZM42.3535 193.102C39.0331 198.163 35.6591 198.323 30.973 199.636C26.2869 200.948 22.3238 200.466 21.1456 199.18C19.9674 197.895 22.4042 191.87 22.6184 187.264C22.8326 182.658 22.4042 178.642 22.2971 174.652C22.1899 170.662 21.1992 165.065 21.1992 165.065C20.6904 162.575 26.4744 163.78 31.6693 164.932C36.8374 166.083 37.3729 167.663 40.9879 169.671C44.5761 171.68 45.9418 175.428 46.638 180.382C47.3342 185.336 45.674 188.041 42.3535 193.102Z" fill="white"/>
<path d="M123.518 157.514C123.518 157.514 123.036 155.506 119.394 154.194C115.752 152.881 110.317 153.203 106.3 154.14C102.256 155.077 98.936 159.201 98.5343 162.039C98.1059 164.878 95.6958 167.877 97.8113 171.412C99.9267 174.946 104.051 178.24 108.817 179.606C113.583 180.971 115.083 179.606 118.055 182.899C121.028 186.193 123.411 190.263 121.215 194.44C119.019 198.618 120.251 202.929 114.306 202.099C108.362 201.242 103.89 199.609 102.096 195.271C100.302 190.906 97.7578 190.799 96.8473 191.602C95.9637 192.405 94.9461 195.512 96.4457 200.412C97.9185 205.312 100.596 208.874 102.551 210.105C104.479 211.337 110.745 211.632 116.743 210.775C122.741 209.918 126.972 205.285 128.552 201.938C130.132 198.591 131.337 197.225 131.364 190.692C131.391 184.131 129.623 179.498 125.392 178.16C121.188 176.821 117.841 175.241 113.691 172.777C109.54 170.314 107.317 168.787 109.192 165.44C111.066 162.093 114.842 160.299 117.038 162.093C119.234 163.914 117.439 165.815 119.608 168.198C121.777 170.581 125.098 172.429 127.428 171.412C129.757 170.394 129.355 166.94 128.07 163.753C126.785 160.567 123.518 157.514 123.518 157.514Z" fill="white"/>
<path d="M223.479 206.249C219.677 206.356 217.91 209.409 212.849 207.186C207.788 204.964 205.779 207.427 204.44 201.108C203.102 194.788 204.521 193.423 204.199 189.138C203.851 184.854 204.226 182.872 202.753 179.686C201.281 176.472 199.728 174.999 199.728 174.999C199.728 174.999 203.235 175.16 204.708 172.67C206.181 170.179 207.948 167.127 207.574 163.699C207.199 160.272 206.904 154.568 204.226 153.872C201.549 153.176 199.112 153.069 195.309 152.881C191.507 152.694 187.49 151.649 183.661 152.613C179.805 153.577 178.68 154.648 175.735 153.658C172.789 152.667 169.71 154.809 170.352 158.237C170.352 158.237 170.727 161.664 171.959 164.583C173.191 167.475 173.753 172.348 173.646 174.919C173.539 177.463 173.78 183.461 173.646 186.3C173.512 189.138 173.807 194.279 173.673 197.118C173.539 199.956 172.254 204.16 172.414 206.463C172.575 208.739 173.378 208.793 176.11 208.927C178.814 209.061 181.465 210.319 182.751 206.383C184.009 202.447 183.5 201.858 183.795 195.618C184.089 189.379 182.858 186.46 184.866 184.559C186.848 182.658 193.14 181.533 194.667 183.89C196.193 186.246 196.006 190.209 196.595 195.083C197.184 199.956 196.782 202.768 198.442 207.695C200.103 212.622 204.199 217.924 210.947 218.808C217.695 219.692 223.56 215.969 225.568 213.506C227.576 211.042 227.282 206.142 223.479 206.249ZM193.435 169.805C189.579 170.769 188.16 172.402 184.946 171.679C181.733 170.956 181.546 168.948 180.608 165.788C179.671 162.601 179.189 161.155 179.269 159.736C179.323 158.612 184.464 159.12 187.169 159.254C189.873 159.388 192.873 159.227 195.577 159.361C198.282 159.495 200.076 161.557 200.236 164.422C200.343 167.288 197.264 168.867 193.435 169.805Z" fill="white"/>
<path d="M75.6119 220.682C75.6119 220.682 79.4678 224.377 79.334 228.367C79.2001 232.357 79.1198 234.151 75.7994 240.256C72.4521 246.362 69.5065 254.261 68.1141 255.975C66.7216 257.716 63.4548 262.027 61.0716 265.936C58.6884 269.846 63.0263 273.568 68.4622 270.649C73.8981 267.73 75.2638 267.329 82.8151 267.623C90.3664 267.891 96.9805 269.471 100.622 267.382C104.264 265.294 108.923 259.242 109.111 254.341C109.298 249.468 105.282 249.307 102.952 252.333C100.622 255.359 96.4717 259.215 93.8207 259.108C91.1429 259.001 83.5649 260.072 80.9406 258.626C78.3164 257.207 80.7265 252.387 82.6545 248.022C84.5824 243.657 85.6 240.578 87.1263 235.276C88.6526 229.974 90.9555 227.858 89.3221 223.788C87.6886 219.718 82.467 216.424 79.3876 215.407C76.3081 214.389 73.9785 216.638 75.6119 220.682Z" fill="white"/>
<path d="M213.571 247.567C210.92 246.255 209.662 248.639 206.073 252.146C202.458 255.654 198.951 256.725 195.041 257.797C191.131 258.868 188.186 254.717 187.918 251.477C187.65 248.237 190.06 245.506 192.417 244.783C194.773 244.06 199.433 243.417 201.789 242.292C204.145 241.168 206.957 238.436 207.894 234.045C208.831 229.626 207.814 225.556 203.289 222.584C198.763 219.585 194.157 219.022 190.998 220.522C187.865 222.021 187.65 224.699 184.169 227.538C179.403 231.447 178.439 236.615 178.439 236.615C178.439 236.615 178.225 242.667 178.091 246.282C177.957 249.897 179.403 252.387 180.849 255.654C182.268 258.948 184.491 261.438 192.524 263.741C200.557 266.044 206.529 261.037 209.715 258.305C212.875 255.628 216.222 248.88 213.571 247.567ZM187.891 231.313C189.177 228.127 195.068 225.529 195.068 225.529C197.424 224.405 201.066 230.59 199.807 233.375C198.549 236.16 193.033 239.186 189.578 238.65C186.097 238.088 186.606 234.473 187.891 231.313Z" fill="white"/>
</svg>
