<svg width="108" height="58" viewBox="0 0 108 58" fill="none" xmlns="http://www.w3.org/2000/svg">
<path d="M10.6956 25.0601H1.26355V23.3801H3.71155V11.6201H1.26355V9.94008H15.3996V16.4921H14.4636C14.1116 15.4521 13.7516 14.5961 13.3836 13.9241C13.0156 13.2361 12.5836 12.7001 12.0876 12.3161C11.5916 11.9161 10.9996 11.6441 10.3116 11.5001C9.62355 11.3401 8.79956 11.2601 7.83956 11.2601H7.43155V17.1401H8.84756L11.8956 15.0041H12.3756V20.6441H11.8956L8.84756 18.4841H7.43155V23.3801H10.6956V25.0601Z" fill="white"/>
<path d="M17.2273 25.0601V23.4521H19.2673V16.6601L17.3233 14.5961V14.4521L22.3393 12.4601L22.6753 16.0361H22.7473C23.2433 14.8841 23.8353 14.0201 24.5233 13.4441C25.2273 12.8681 26.0673 12.5401 27.0433 12.4601L27.2353 16.2521C26.5313 16.3001 25.8193 16.3801 25.0993 16.4921C24.3793 16.5881 23.6353 16.7321 22.8673 16.9241V23.4521H25.8193V25.0601H17.2273Z" fill="white"/>
<path d="M32.4842 11.2361C31.8442 11.2361 31.3002 11.0121 30.8522 10.5641C30.4042 10.1001 30.1802 9.54808 30.1802 8.90808C30.1802 8.26808 30.4042 7.72408 30.8522 7.27608C31.3002 6.81208 31.8442 6.58008 32.4842 6.58008C33.1242 6.58008 33.6762 6.81208 34.1402 7.27608C34.6042 7.72408 34.8362 8.26808 34.8362 8.90808C34.8362 9.54808 34.6042 10.1001 34.1402 10.5641C33.6762 11.0121 33.1242 11.2361 32.4842 11.2361ZM28.7642 25.0601V23.4521H30.8042V16.6601L28.8602 14.5961V14.4521L34.4042 12.4601V23.4521H36.4442V25.0601H28.7642Z" fill="white"/>
<path d="M44.727 22.0841C45.575 22.0841 46.303 21.9161 46.911 21.5801C47.535 21.2281 48.047 20.7801 48.447 20.2361V21.1001C48.191 22.4441 47.639 23.5001 46.791 24.2681C45.943 25.0361 44.831 25.4201 43.455 25.4201C41.775 25.4201 40.431 24.8841 39.423 23.8121C38.415 22.7401 37.911 21.3081 37.911 19.5161C37.911 18.4281 38.087 17.4361 38.439 16.5401C38.791 15.6281 39.271 14.8601 39.879 14.2361C40.487 13.6121 41.199 13.1481 42.015 12.8441C42.847 12.5241 43.735 12.4121 44.679 12.5081L47.559 12.8201L47.991 17.4041H41.703C41.255 17.4041 40.967 17.4601 40.839 17.5721C40.711 17.6681 40.647 17.9001 40.647 18.2681C40.647 19.3241 40.991 20.2281 41.679 20.9801C42.367 21.7161 43.383 22.0841 44.727 22.0841Z" fill="white"/>
<path d="M50.0801 25.0601V23.4521H52.1201V16.6601L50.1761 14.5961V14.4521L55.7201 12.4601V15.9401H55.7921C56.6241 14.7401 57.3841 13.8601 58.0721 13.3001C58.7761 12.7401 59.5361 12.4601 60.3521 12.4601C61.3121 12.4601 62.0961 12.7801 62.7041 13.4201C63.3121 14.0601 63.6161 14.9641 63.6161 16.1321V23.4521H65.6561V25.0601H58.4561V23.4521H60.0161V18.0761C60.0161 17.3401 59.8721 16.7961 59.5841 16.4441C59.2961 16.0761 58.8561 15.8921 58.2641 15.8921C57.8641 15.8921 57.4481 15.9801 57.0161 16.1561C56.5841 16.3161 56.1521 16.5721 55.7201 16.9241V23.4521H57.2801V25.0601H50.0801Z" fill="white"/>
<path d="M67.2962 18.9401C67.2962 18.0121 67.4242 17.1561 67.6802 16.3721C67.9362 15.5721 68.2802 14.8841 68.7122 14.3081C69.1602 13.7321 69.6882 13.2841 70.2962 12.9641C70.9202 12.6281 71.5842 12.4601 72.2882 12.4601C73.2162 12.4601 74.0242 12.7641 74.7122 13.3721C75.4162 13.9801 76.0322 14.8041 76.5602 15.8441V11.5961L74.6402 9.55608V9.41208L80.1602 7.42008V21.8921L82.7522 22.3481L80.1842 25.3481C79.1282 25.1721 78.3122 24.8121 77.7362 24.2681C77.1602 23.7241 76.7122 23.0921 76.3922 22.3721C75.8802 23.3161 75.2882 24.0601 74.6162 24.6041C73.9442 25.1481 73.1682 25.4201 72.2882 25.4201C71.5842 25.4201 70.9202 25.2601 70.2962 24.9401C69.6882 24.6041 69.1602 24.1481 68.7122 23.5721C68.2802 22.9961 67.9362 22.3161 67.6802 21.5321C67.4242 20.7321 67.2962 19.8681 67.2962 18.9401ZM71.0162 18.9401C71.0162 20.1401 71.2562 21.0281 71.7362 21.6041C72.2162 22.1801 72.8722 22.4681 73.7042 22.4681C74.2002 22.4681 74.6882 22.3481 75.1682 22.1081C75.6642 21.8681 76.1762 21.4041 76.7042 20.7161C76.8642 20.2841 76.9682 19.9481 77.0162 19.7081C77.0802 19.4521 77.1122 19.1961 77.1122 18.9401C77.1122 18.6841 77.0802 18.4361 77.0162 18.1961C76.9682 17.9401 76.8642 17.5961 76.7042 17.1641C76.1762 16.4761 75.6642 16.0121 75.1682 15.7721C74.6882 15.5321 74.2002 15.4121 73.7042 15.4121C72.8722 15.4121 72.2162 15.7001 71.7362 16.2761C71.2562 16.8521 71.0162 17.7401 71.0162 18.9401Z" fill="white"/>
<path d="M83.9586 25.0601V23.4521H85.9986V11.6201L84.0546 9.55608V9.41208L89.5986 7.42008V23.4521H91.6386V25.0601H83.9586Z" fill="white"/>
<path d="M92.3374 14.4281V12.8201H106.857V14.4281H105.177L102.297 24.3161C101.737 26.2201 100.993 27.5801 100.065 28.3961C99.1374 29.2121 97.9854 29.6201 96.6094 29.6201C95.9854 29.6201 95.4094 29.5401 94.8814 29.3801C94.3534 29.2361 93.8734 29.0281 93.4414 28.7561L94.4734 24.4841C95.2894 25.2361 96.0734 25.7161 96.8254 25.9241C97.5774 26.1481 98.1694 26.2601 98.6014 26.2601C99.0494 26.2601 99.4334 26.1881 99.7534 26.0441C100.073 25.9001 100.289 25.7001 100.401 25.4441L94.0414 14.4281H92.3374ZM101.049 19.2761L101.529 20.3321L103.113 14.4281H98.4814L101.049 19.2761Z" fill="white"/>
<path d="M6.80755 45.0361V43.3561H16.8156V45.0361H15.4956V51.4201H14.5356C14.3276 50.6681 14.0556 50.0601 13.7196 49.5961C13.3996 49.1321 12.9276 48.7961 12.3036 48.5881C11.9356 49.5161 11.3756 50.2201 10.6236 50.7001C9.87155 51.1801 9.00756 51.4201 8.03155 51.4201C7.03955 51.4201 6.11955 51.2121 5.27155 50.7961C4.43955 50.3801 3.71155 49.8201 3.08755 49.1161C2.47955 48.3961 1.99955 47.5561 1.64755 46.5961C1.31155 45.6361 1.14355 44.6281 1.14355 43.5721C1.14355 42.4361 1.34355 41.3801 1.74355 40.4041C2.14355 39.4121 2.67155 38.5641 3.32755 37.8601C3.99955 37.1561 4.77556 36.6041 5.65556 36.2041C6.53556 35.7881 7.45555 35.5801 8.41556 35.5801C9.19955 35.5801 9.91955 35.7001 10.5756 35.9401C11.2476 36.1641 11.8316 36.5001 12.3276 36.9481L14.1996 35.5801H14.3916V42.1081H13.4556C12.7196 40.8601 11.7916 39.9401 10.6716 39.3481C9.56755 38.7561 8.43956 38.4601 7.28756 38.4601C6.23155 38.4601 5.32756 38.7321 4.57556 39.2761C3.83956 39.8041 3.47155 40.7401 3.47155 42.0841C3.47155 42.9801 3.63155 43.7961 3.95155 44.5321C4.27155 45.2521 4.70356 45.8681 5.24756 46.3801C5.80756 46.8761 6.45555 47.2681 7.19156 47.5561C7.94355 47.8281 8.73555 47.9641 9.56755 47.9641C10.4156 47.9641 11.0316 47.7961 11.4156 47.4601C11.8156 47.1241 12.0156 46.6841 12.0156 46.1401V45.0361H6.80755Z" fill="white"/>
<path d="M17.907 51.0601V49.4521H19.947V37.6201L18.003 35.5561V35.4121L23.547 33.4201V41.9641H23.619C24.451 40.7641 25.211 39.8841 25.899 39.3241C26.603 38.7641 27.363 38.4841 28.179 38.4841C29.139 38.4841 29.923 38.8041 30.531 39.4441C31.139 40.0841 31.443 40.9881 31.443 42.1561V49.4521H33.483V51.0601H26.283V49.4521H27.843V44.1001C27.843 43.3641 27.699 42.8201 27.411 42.4681C27.123 42.1001 26.683 41.9161 26.091 41.9161C25.691 41.9161 25.283 42.0121 24.867 42.2041C24.467 42.3961 24.027 42.6441 23.547 42.9481V49.4521H25.107V51.0601H17.907Z" fill="white"/>
<path d="M46.1151 44.4601C46.1151 45.4841 45.9871 46.4281 45.7311 47.2921C45.4911 48.1401 45.1311 48.8681 44.6511 49.4761C44.1871 50.0841 43.6111 50.5641 42.9231 50.9161C42.2511 51.2521 41.4831 51.4201 40.6191 51.4201C39.7871 51.4201 39.0111 51.2681 38.2911 50.9641C37.5871 50.6441 36.9791 50.2201 36.4671 49.6921C35.9551 49.1481 35.5551 48.5161 35.2671 47.7961C34.9791 47.0601 34.8351 46.2761 34.8351 45.4441C34.8351 44.5161 34.9871 43.6281 35.2911 42.7801C35.6111 41.9321 36.0431 41.1961 36.5871 40.5721C37.1471 39.9321 37.8031 39.4201 38.5551 39.0361C39.3231 38.6521 40.1551 38.4601 41.0511 38.4601C42.5871 38.4601 43.8111 39.0041 44.7231 40.0921C45.6511 41.1801 46.1151 42.6361 46.1151 44.4601ZM41.1231 47.8201C42.1951 47.8201 43.0591 47.4761 43.7151 46.7881C44.3711 46.0841 44.7311 45.1241 44.7951 43.9081C43.9311 43.3161 43.1151 42.8361 42.3471 42.4681C41.5791 42.1001 40.7471 41.9161 39.8511 41.9161C39.0511 41.9161 38.4511 42.1561 38.0511 42.6361C37.6511 43.1001 37.4511 43.6761 37.4511 44.3641C37.4511 45.3241 37.7951 46.1401 38.4831 46.8121C39.1871 47.4841 40.0671 47.8201 41.1231 47.8201Z" fill="white"/>
<path d="M57.7131 43.4281L56.3691 43.4041C55.9691 42.4121 55.4651 41.6521 54.8571 41.1241C54.2491 40.5801 53.5451 40.3081 52.7451 40.3081C52.2011 40.3081 51.7931 40.4201 51.5211 40.6441C51.2491 40.8521 51.1131 41.1241 51.1131 41.4601C51.1131 42.0521 51.4731 42.4841 52.1931 42.7561C52.9131 43.0281 53.6971 43.3161 54.5451 43.6201C55.3931 43.9241 56.1771 44.3401 56.8971 44.8681C57.6171 45.3961 57.9771 46.2121 57.9771 47.3161C57.9771 47.8761 57.8651 48.4041 57.6411 48.9001C57.4171 49.3961 57.0811 49.8361 56.6331 50.2201C56.1851 50.5881 55.6251 50.8761 54.9531 51.0841C54.2811 51.3081 53.4971 51.4201 52.6011 51.4201C51.9611 51.4201 51.3131 51.3561 50.6571 51.2281C50.0171 51.1001 49.4011 50.9481 48.8091 50.7721L47.2731 46.2121H48.6171C49.1611 47.4121 49.8171 48.2761 50.5851 48.8041C51.3531 49.3161 52.1131 49.5721 52.8651 49.5721C53.4251 49.5721 53.8811 49.4521 54.2331 49.2121C54.6011 48.9721 54.7851 48.6761 54.7851 48.3241C54.7851 47.8121 54.4251 47.4361 53.7051 47.1961C52.9851 46.9401 52.2011 46.6521 51.3531 46.3321C50.5051 45.9961 49.7211 45.5401 49.0011 44.9641C48.2811 44.3721 47.9211 43.4841 47.9211 42.3001C47.9211 41.1161 48.3531 40.1801 49.2171 39.4921C50.0971 38.8041 51.3211 38.4601 52.8891 38.4601C53.6091 38.4601 54.2731 38.5321 54.8811 38.6761C55.5051 38.8041 56.0891 38.9561 56.6331 39.1321L57.7131 43.4281Z" fill="white"/>
<path d="M68.1118 50.2201L64.2238 51.4201C63.2158 50.8121 62.5118 50.1801 62.1118 49.5241C61.7278 48.8521 61.5358 47.9481 61.5358 46.8121V41.1721H59.1598V40.9561L64.6558 35.1721H65.0158V38.8201H68.4238V41.1721H65.0158V45.9481C65.0158 46.8441 65.2398 47.6041 65.6878 48.2281C66.1518 48.8521 66.9598 49.5161 68.1118 50.2201Z" fill="white"/>
<path d="M79.6618 43.4281L78.3178 43.4041C77.9178 42.4121 77.4138 41.6521 76.8058 41.1241C76.1978 40.5801 75.4938 40.3081 74.6938 40.3081C74.1498 40.3081 73.7418 40.4201 73.4698 40.6441C73.1978 40.8521 73.0618 41.1241 73.0618 41.4601C73.0618 42.0521 73.4218 42.4841 74.1418 42.7561C74.8618 43.0281 75.6458 43.3161 76.4938 43.6201C77.3418 43.9241 78.1258 44.3401 78.8458 44.8681C79.5658 45.3961 79.9258 46.2121 79.9258 47.3161C79.9258 47.8761 79.8138 48.4041 79.5898 48.9001C79.3658 49.3961 79.0298 49.8361 78.5818 50.2201C78.1338 50.5881 77.5738 50.8761 76.9018 51.0841C76.2298 51.3081 75.4458 51.4201 74.5498 51.4201C73.9098 51.4201 73.2618 51.3561 72.6058 51.2281C71.9658 51.1001 71.3498 50.9481 70.7578 50.7721L69.2218 46.2121H70.5658C71.1098 47.4121 71.7658 48.2761 72.5338 48.8041C73.3018 49.3161 74.0618 49.5721 74.8138 49.5721C75.3738 49.5721 75.8298 49.4521 76.1818 49.2121C76.5498 48.9721 76.7338 48.6761 76.7338 48.3241C76.7338 47.8121 76.3738 47.4361 75.6538 47.1961C74.9338 46.9401 74.1498 46.6521 73.3018 46.3321C72.4538 45.9961 71.6698 45.5401 70.9498 44.9641C70.2298 44.3721 69.8698 43.4841 69.8698 42.3001C69.8698 41.1161 70.3018 40.1801 71.1658 39.4921C72.0458 38.8041 73.2698 38.4601 74.8378 38.4601C75.5578 38.4601 76.2218 38.5321 76.8298 38.6761C77.4538 38.8041 78.0378 38.9561 78.5818 39.1321L79.6618 43.4281Z" fill="white"/>
</svg>
