<svg width="120" height="48" viewBox="0 0 120 48" fill="none" xmlns="http://www.w3.org/2000/svg">
<g opacity="0.4">
<path fill-rule="evenodd" clip-rule="evenodd" d="M49.9997 24C49.9997 30.0341 47.9442 35.5881 44.4951 40H120V8H44.4951C47.9442 12.4119 49.9997 17.9659 49.9997 24ZM56.84 22V13.6H59.708C61.376 13.6 62.312 14.692 62.312 16.144C62.312 17.584 61.376 18.688 59.708 18.688H58.088V22H56.84ZM58.088 14.776V17.512H59.54C60.404 17.512 60.968 17.044 60.968 16.144C60.968 15.244 60.404 14.776 59.54 14.776H58.088ZM67.0042 21.16C66.7282 21.712 66.2002 22.18 65.3002 22.18C64.2082 22.18 63.2722 21.52 63.2722 19.816V16.456H64.4722V19.696C64.4722 20.608 64.9282 21.04 65.6362 21.04C66.4522 21.04 67.0282 20.512 67.0282 19.108V16.456H68.2042V22H67.0282V21.16H67.0042ZM75.6006 19.228C75.6006 21.076 74.3646 22.18 72.9006 22.18C71.9886 22.18 71.3766 21.784 71.0286 21.184H71.0046V22H69.8286V13.6H71.0046V17.272H71.0286C71.3766 16.672 71.9886 16.276 72.9006 16.276C74.3646 16.276 75.6006 17.38 75.6006 19.228ZM70.9446 19.228C70.9446 20.284 71.6166 21.028 72.6486 21.028C73.6806 21.028 74.3526 20.284 74.3526 19.228C74.3526 18.172 73.6806 17.428 72.6486 17.428C71.6166 17.428 70.9446 18.172 70.9446 19.228ZM76.8627 22V13.6H78.0387V22H76.8627ZM79.5811 15.16V13.72H81.0211V15.16H79.5811ZM79.7131 16.456H80.8891V22H79.7131V16.456ZM87.0876 21.616C86.5236 21.988 85.9116 22.18 85.1916 22.18C83.4036 22.18 82.1436 20.992 82.1436 19.228C82.1436 17.464 83.4036 16.276 85.1916 16.276C85.9116 16.276 86.5236 16.468 87.0876 16.84L86.5356 17.836C86.1516 17.596 85.6716 17.416 85.1556 17.416C84.0876 17.416 83.3916 18.184 83.3916 19.228C83.3916 20.272 84.0876 21.04 85.1556 21.04C85.6716 21.04 86.1516 20.86 86.5356 20.62L87.0876 21.616ZM60.932 33.184C60.584 33.784 59.972 34.18 59.06 34.18C57.596 34.18 56.36 33.076 56.36 31.228C56.36 29.38 57.596 28.276 59.06 28.276C59.972 28.276 60.584 28.672 60.932 29.272H60.956V25.6H62.132V34H60.956V33.184H60.932ZM57.608 31.228C57.608 32.284 58.28 33.028 59.312 33.028C60.344 33.028 61.016 32.284 61.016 31.228C61.016 30.172 60.344 29.428 59.312 29.428C58.28 29.428 57.608 30.172 57.608 31.228ZM63.3941 31.228C63.3941 29.524 64.6901 28.276 66.4301 28.276C68.1701 28.276 69.4661 29.524 69.4661 31.228C69.4661 32.932 68.1701 34.18 66.4301 34.18C64.6901 34.18 63.3941 32.932 63.3941 31.228ZM68.2181 31.228C68.2181 30.136 67.4861 29.428 66.4301 29.428C65.3741 29.428 64.6421 30.136 64.6421 31.228C64.6421 32.32 65.3741 33.028 66.4301 33.028C67.4861 33.028 68.2181 32.32 68.2181 31.228ZM71.8469 31.132V34H70.6709V28.456H71.8469V29.32H71.8709C72.1949 28.576 72.8309 28.276 73.5389 28.276C74.3309 28.276 74.8949 28.624 75.2189 29.404H75.2429C75.5789 28.612 76.2869 28.276 76.9829 28.276C78.0269 28.276 78.8789 28.924 78.8789 30.568V34H77.7029V30.628C77.7029 29.86 77.3189 29.452 76.6109 29.452C75.8909 29.452 75.3629 29.92 75.3629 31.12V34H74.1869V30.628C74.1869 29.86 73.8029 29.452 73.0829 29.452C72.3749 29.452 71.8469 29.92 71.8469 31.132ZM84.5889 33.184C84.2409 33.784 83.6289 34.18 82.7169 34.18C81.2529 34.18 80.0169 33.076 80.0169 31.228C80.0169 29.38 81.2529 28.276 82.7169 28.276C83.6289 28.276 84.2409 28.672 84.5889 29.272H84.6129V28.456H85.7889V34H84.6129V33.184H84.5889ZM81.2649 31.228C81.2649 32.284 81.9369 33.028 82.9689 33.028C84.0009 33.028 84.6729 32.284 84.6729 31.228C84.6729 30.172 84.0009 29.428 82.9689 29.428C81.9369 29.428 81.2649 30.172 81.2649 31.228ZM87.2803 27.16V25.72H88.7203V27.16H87.2803ZM87.4123 28.456H88.5883V34H87.4123V28.456ZM91.4028 29.296C91.7628 28.66 92.3628 28.276 93.2148 28.276C94.4028 28.276 95.3028 28.912 95.3028 30.592V34H94.1268V30.796C94.1268 29.848 93.6468 29.452 92.8548 29.452C91.9908 29.452 91.3788 29.968 91.3788 31.348V34H90.2028V28.456H91.3788V29.296H91.4028Z" fill="white"/>
<circle cx="25" cy="24" r="18.5" stroke="white" stroke-width="3"/>
<path d="M28.2177 12.5257C23.2343 12.5257 20.4657 16.6297 20.4657 23.9909C20.4657 31.352 23.2343 35.4886 28.2177 35.4886C33.2011 35.4886 35.9697 31.352 35.9697 23.9909C35.9697 16.6297 33.2011 12.5257 28.2177 12.5257ZM28.2177 15.5223C30.9863 15.5223 32.6474 18.6817 32.6474 23.9909C32.6474 29.3 30.9863 32.492 28.2177 32.492C25.4491 32.492 23.788 29.3 23.788 23.9909C23.788 18.6817 25.4491 15.5223 28.2177 15.5223Z" fill="#123B6B"/>
<path d="M32 26.5204V21.509C32 20.1472 31.8416 18.9421 31.5249 17.8938C31.2082 16.8357 30.7529 15.9441 30.1591 15.2191C29.5553 14.4941 28.818 13.9454 27.947 13.5731C27.0859 13.191 26.1011 13 24.9926 13C23.894 13 22.9092 13.191 22.0382 13.5731C21.1771 13.9454 20.4496 14.4941 19.8558 15.2191C19.252 15.9441 18.7918 16.8357 18.4751 17.8938C18.1584 18.9421 18 20.1472 18 21.509V26.5204C18 27.8822 18.1584 29.0922 18.4751 30.1503C18.7918 31.1986 19.252 32.0804 19.8558 32.7956C20.4595 33.5304 21.1969 34.0839 22.0679 34.4562C22.9388 34.8187 23.9236 35 25.0223 35C26.1308 35 27.1156 34.8139 27.9767 34.4416C28.8378 34.0693 29.5652 33.5206 30.1591 32.7956C30.7529 32.0804 31.2082 31.1986 31.5249 30.1503C31.8416 29.0922 32 27.8822 32 26.5204ZM20.7614 25.9766C20.7614 25.7219 20.7614 25.4721 20.7614 25.2271C20.7614 24.9822 20.7614 24.7373 20.7614 24.4923V20.9065C20.7614 19.9071 20.8604 19.0303 21.0583 18.2759C21.2662 17.5117 21.5779 16.8896 21.9936 16.4095C22.34 16.0274 22.7607 15.7384 23.2556 15.5424C23.7603 15.3367 24.3393 15.2338 24.9926 15.2338C25.6359 15.2338 26.2001 15.3269 26.685 15.513C27.1799 15.6992 27.5956 15.9784 27.9321 16.3507C28.2785 16.7132 28.5507 17.1688 28.7487 17.7174C28.9565 18.2563 29.1 18.8784 29.1792 19.5838L20.7614 25.9766ZM29.2386 27.0935C29.2386 28.1418 29.1297 29.053 28.912 29.827C28.7041 30.601 28.3726 31.228 27.9173 31.7081C27.5808 32.0608 27.17 32.3302 26.685 32.5164C26.2001 32.7025 25.6458 32.7956 25.0223 32.7956C24.4284 32.7956 23.894 32.7123 23.4189 32.5458C22.9438 32.3694 22.538 32.1147 22.2015 31.7816C21.8353 31.4289 21.5384 30.9831 21.3107 30.4442C21.0831 29.8956 20.9247 29.2636 20.8356 28.5484L29.2386 22.185C29.2386 22.4594 29.2386 22.8072 29.2386 23.2285C29.2386 23.6399 29.2386 23.9192 29.2386 24.0661V27.0935Z" fill="white"/>
<rect x="1" y="1" width="118" height="46" stroke="white" stroke-width="2"/>
</g>
</svg>
