<svg width="488" height="200" viewBox="0 0 488 200" fill="none" xmlns="http://www.w3.org/2000/svg">
<mask id="path-1-outside-1_294_760985" maskUnits="userSpaceOnUse" x="1" y="62" width="486" height="77" fill="black">
<rect fill="white" x="1" y="62" width="486" height="77"/>
<path fill-rule="evenodd" clip-rule="evenodd" d="M5.89924 83.406C39.2551 65.0891 185.764 50.9255 255.9 83.406C306.439 106.811 436.83 109.41 456.709 106.811C482.653 103.419 501.521 110.881 463.448 116.309C432.989 120.65 304.979 131.912 244.781 137C213.394 137 200.361 126.995 186.137 116.075C171.197 104.605 154.943 92.1264 114.727 89.1725C78.2478 86.4929 48.8982 88.2812 29.4503 89.4662C7.04596 90.8313 -2.21718 91.3957 5.89924 83.406ZM223.12 99C229.981 99.0003 237.446 99.1845 247.206 102.384C252.775 104.21 256.844 106.676 260.427 108.848C264.691 111.433 268.265 113.599 272.855 113.766C281.3 114.074 263.158 119.081 247.206 116.005C231.253 112.928 221.813 98.9999 223.12 99Z"/>
</mask>
<path fill-rule="evenodd" clip-rule="evenodd" d="M5.89924 83.406C39.2551 65.0891 185.764 50.9255 255.9 83.406C306.439 106.811 436.83 109.41 456.709 106.811C482.653 103.419 501.521 110.881 463.448 116.309C432.989 120.65 304.979 131.912 244.781 137C213.394 137 200.361 126.995 186.137 116.075C171.197 104.605 154.943 92.1264 114.727 89.1725C78.2478 86.4929 48.8982 88.2812 29.4503 89.4662C7.04596 90.8313 -2.21718 91.3957 5.89924 83.406ZM223.12 99C229.981 99.0003 237.446 99.1845 247.206 102.384C252.775 104.21 256.844 106.676 260.427 108.848C264.691 111.433 268.265 113.599 272.855 113.766C281.3 114.074 263.158 119.081 247.206 116.005C231.253 112.928 221.813 98.9999 223.12 99Z" fill="#D6DAE5" fill-opacity="0.8"/>
<path d="M255.9 83.406L256.74 81.5912L256.74 81.5912L255.9 83.406ZM5.89924 83.406L4.93656 81.653L4.69368 81.7863L4.4962 81.9807L5.89924 83.406ZM456.709 106.811L456.45 104.828L456.45 104.828L456.709 106.811ZM463.448 116.309L463.73 118.289L463.73 118.289L463.448 116.309ZM244.781 137V139H244.866L244.95 138.993L244.781 137ZM186.137 116.075L187.355 114.488L187.355 114.488L186.137 116.075ZM114.727 89.1725L114.874 87.1778L114.874 87.1778L114.727 89.1725ZM29.4503 89.4662L29.3287 87.4699L29.4503 89.4662ZM247.206 102.384L246.583 104.284L246.583 104.284L247.206 102.384ZM223.12 99L223.12 97L223.12 97L223.12 99ZM260.427 108.848L261.463 107.138L261.463 107.138L260.427 108.848ZM272.855 113.766L272.927 111.767L272.927 111.767L272.855 113.766ZM247.206 116.005L246.827 117.968L246.827 117.968L247.206 116.005ZM256.74 81.5912C221.226 65.1443 166.668 60.5853 117.036 62.3582C92.1725 63.2464 68.4487 65.7273 48.8282 69.1406C29.2825 72.5409 13.5872 76.9026 4.93656 81.653L6.86191 85.1591C14.8892 80.751 30.016 76.4734 49.5138 73.0814C68.9367 69.7024 92.4778 67.238 117.178 66.3557C166.673 64.5877 220.438 69.1872 255.06 85.2209L256.74 81.5912ZM456.45 104.828C446.736 106.098 409.352 106.116 367.959 102.866C326.532 99.6136 281.642 93.1232 256.74 81.5912L255.06 85.2209C280.697 97.0939 326.273 103.606 367.646 106.854C409.052 110.105 446.803 110.123 456.968 108.794L456.45 104.828ZM463.73 118.289C473.271 116.929 479.466 115.416 482.916 113.886C483.792 113.498 484.554 113.081 485.17 112.626C485.768 112.183 486.357 111.61 486.702 110.864C487.088 110.032 487.108 109.105 486.711 108.252C486.357 107.491 485.75 106.957 485.189 106.585C484.073 105.846 482.478 105.322 480.702 104.939C478.877 104.546 476.668 104.263 474.188 104.105C469.225 103.788 463.052 103.965 456.45 104.828L456.968 108.794C463.338 107.961 469.252 107.798 473.934 108.097C476.276 108.246 478.279 108.509 479.86 108.85C481.49 109.201 482.496 109.599 482.98 109.92C483.219 110.079 483.163 110.108 483.084 109.94C482.963 109.68 482.985 109.373 483.072 109.184C483.12 109.081 483.113 109.172 482.791 109.41C482.488 109.634 482.008 109.913 481.294 110.23C478.385 111.52 472.661 112.975 463.165 114.329L463.73 118.289ZM244.95 138.993C305.109 133.908 433.199 122.641 463.73 118.289L463.165 114.329C432.78 118.66 304.849 129.916 244.613 135.007L244.95 138.993ZM184.919 117.661C192.014 123.108 199.012 128.49 208.231 132.469C217.481 136.46 228.863 139 244.781 139V135C229.313 135 218.485 132.537 209.816 128.796C201.116 125.042 194.484 119.961 187.355 114.488L184.919 117.661ZM114.581 91.1671C134.495 92.6299 148.379 96.4425 159.091 101.255C169.813 106.071 177.448 111.925 184.919 117.661L187.355 114.488C179.886 108.754 171.924 102.634 160.73 97.6058C149.526 92.5726 135.174 88.669 114.874 87.1778L114.581 91.1671ZM29.572 91.4625C49.0074 90.2783 78.2437 88.498 114.581 91.1671L114.874 87.1778C78.2518 84.4878 48.789 86.2841 29.3287 87.4699L29.572 91.4625ZM4.4962 81.9807C3.43305 83.0273 2.5733 84.0109 1.97941 84.9351C1.4091 85.8226 0.924297 86.8994 1.00975 88.0621C1.10682 89.383 1.88882 90.3185 2.82726 90.897C3.69256 91.4304 4.7781 91.7289 5.89913 91.9166C8.16425 92.296 11.3454 92.3378 15.2389 92.2178C19.1678 92.0966 23.9815 91.8031 29.572 91.4625L29.3287 87.4699C23.7169 87.8118 18.9711 88.1007 15.1156 88.2197C11.2246 88.3397 8.3965 88.2792 6.55985 87.9716C5.62999 87.8159 5.14152 87.6247 4.92627 87.492C4.78415 87.4044 4.97903 87.4973 4.99899 87.7689C5.00733 87.8823 4.95541 87.7031 5.34453 87.0975C5.71008 86.5287 6.33632 85.7822 7.30228 84.8313L4.4962 81.9807ZM247.829 100.483C237.768 97.1851 230.051 97.0003 223.12 97L223.12 101C229.91 101 237.125 101.184 246.583 104.284L247.829 100.483ZM261.463 107.138C257.877 104.964 253.636 102.387 247.829 100.483L246.583 104.284C251.913 106.032 255.811 108.389 259.39 110.558L261.463 107.138ZM272.927 111.767C268.94 111.622 265.805 109.769 261.463 107.138L259.39 110.558C263.578 113.097 267.589 115.576 272.782 115.765L272.927 111.767ZM246.827 117.968C255.096 119.563 263.867 119.06 269.506 118.127C270.924 117.893 272.171 117.627 273.184 117.35C274.141 117.088 275.057 116.774 275.694 116.386C275.866 116.281 276.075 116.137 276.273 115.946C276.457 115.768 276.743 115.441 276.897 114.954C277.077 114.388 277.024 113.758 276.711 113.211C276.441 112.739 276.061 112.475 275.823 112.34C275.361 112.076 274.839 111.964 274.452 111.901C274.015 111.831 273.502 111.788 272.927 111.767L272.782 115.765C273.262 115.782 273.598 115.815 273.815 115.85C274.082 115.893 274.021 115.917 273.84 115.814C273.743 115.758 273.459 115.581 273.241 115.201C272.98 114.745 272.937 114.212 273.084 113.747C273.206 113.361 273.419 113.141 273.49 113.072C273.575 112.99 273.631 112.959 273.612 112.97C273.487 113.047 273.035 113.244 272.13 113.491C271.28 113.723 270.172 113.963 268.853 114.181C263.544 115.059 255.268 115.522 247.584 114.041L246.827 117.968ZM223.12 97C222.597 97 221.911 97.2028 221.434 97.8335C221.032 98.3646 220.997 98.9219 221 99.1806C221.006 99.6941 221.183 100.147 221.284 100.386C221.528 100.961 221.943 101.649 222.452 102.373C223.492 103.855 225.145 105.799 227.334 107.819C231.706 111.852 238.379 116.339 246.827 117.968L247.584 114.041C240.08 112.593 234.056 108.578 230.047 104.879C228.045 103.032 226.586 101.301 225.726 100.075C225.283 99.4454 225.051 99.0217 224.967 98.8233C224.904 98.6752 224.996 98.8257 225 99.1337C225.002 99.2897 224.986 99.7683 224.624 100.247C224.187 100.824 223.562 101 223.12 101L223.12 97Z" fill="#A0A2AC" fill-opacity="0.6" mask="url(#path-1-outside-1_294_760985)"/>
<path fill-rule="evenodd" clip-rule="evenodd" d="M9.83496 90.2502C14.3209 90.3881 20.9369 89.985 29.4504 89.4663C48.8982 88.2813 78.2478 86.4931 114.727 89.1726C154.943 92.1266 171.197 104.605 186.137 116.075C200.361 126.995 213.394 137 244.781 137C304.979 131.912 432.989 120.651 463.448 116.309C490.9 112.395 488.748 107.424 475.686 106.227C473.794 108.001 470.111 109.644 465.448 110.309C434.99 114.651 306.979 125.912 246.781 131C215.394 131 202.361 120.995 188.137 110.075C173.197 98.6051 156.943 86.1266 116.727 83.1726C81.2039 80.5633 49.8335 84.9895 28.7161 87.969C20.9244 89.0684 14.5286 89.9708 9.83496 90.2502ZM223.5 98.0001C225.877 98.0001 228.522 97.4218 231.37 96.7991C236.739 95.625 242.829 94.2934 249.206 96.3839C255.316 98.3872 259.407 102.476 263.03 106.096C266.464 109.528 269.478 112.539 273.392 112.957C271.807 112.856 269.639 112.697 267.1 112.462C264.896 111.557 262.765 110.265 260.427 108.848C256.845 106.677 252.775 104.21 247.206 102.384C237.826 99.3092 230.566 99.0193 223.925 99.0012C223.258 98.3764 223.089 98.0001 223.5 98.0001ZM273.392 112.957C273.706 112.977 273.998 112.994 274.265 113.01L274 113C273.795 112.993 273.592 112.978 273.392 112.957Z" fill="#9A9DA7" fill-opacity="0.6"/>
<path fill-rule="evenodd" clip-rule="evenodd" d="M255.9 83.406C185.764 50.9255 39.2551 65.0891 5.89924 83.406C1.78414 87.4568 2.1366 89.3088 6.40424 89.9723C6.87199 89.4704 7.37028 88.9485 7.89957 88.406C34.4751 61.1688 187.764 55.9255 257.9 88.406C308.439 111.811 451.621 111.099 471.5 108.5C480.937 107.266 484.567 108.36 484.69 110.347C487.263 106.956 473.461 104.621 456.709 106.811C436.83 109.41 306.439 106.811 255.9 83.406ZM225.134 102.597C227.904 107.682 237.044 118.659 249.206 121.004C264.237 123.903 280.01 115.837 274.715 114.639C272.616 116.029 259.283 118.334 247.206 116.005C236.466 113.933 228.678 106.944 225.134 102.597Z" fill="#FDFDFF" fill-opacity="0.6"/>
</svg>
