<svg width="488" height="200" viewBox="0 0 488 200" fill="none" xmlns="http://www.w3.org/2000/svg">
<path d="M322.431 112.936C355.827 121.916 421.401 110.903 475.037 85.8697C468.763 95.7323 430.879 117.988 329.537 128.11C202.86 140.763 227.072 109.12 132.882 94.287C92.3821 87.909 41.5926 106.916 34.882 108.909C-7.11795 121.382 18.8 106.519 34.882 99.9094C71.3823 84.9087 79.8821 55.908 132.882 55.908C160.382 55.908 216.124 83.4556 218.621 76.2495C221.117 69.0434 240.188 63.8202 269.701 64.2482C298.838 64.6707 356.382 85.8697 352.802 94.287C347.221 107.409 295.714 105.752 322.431 112.936Z" fill="#D6DAE5" fill-opacity="0.8"/>
<path d="M474.615 84.9636L477.722 83.5133L475.881 86.4065C474.189 89.0671 470.487 92.4043 464.424 96.0633C458.334 99.7386 449.778 103.788 438.269 107.836C415.251 115.931 380.362 124.039 329.637 129.105C266.217 135.44 240.428 130.7 218.672 122.441C213.6 120.515 208.767 118.408 203.737 116.215C187.272 109.037 168.696 100.939 132.726 95.2748C112.663 92.1152 89.9874 95.2402 71.4315 99.4341C56.5438 102.799 44.4114 106.824 38.4239 108.81C36.9478 109.3 35.8451 109.666 35.1667 109.867C24.6751 112.983 18.3252 114.424 14.9813 114.691C14.1416 114.758 13.4346 114.756 12.8749 114.667C12.3704 114.587 11.7195 114.396 11.35 113.836C10.921 113.186 11.1401 112.499 11.3692 112.081C11.6061 111.65 11.9912 111.228 12.424 110.829C14.152 109.238 17.6976 107.097 21.7247 104.973C25.7874 102.831 30.4514 100.649 34.5019 98.9844C47.499 93.643 56.8492 86.5552 66.0688 79.5663C69.7041 76.8107 73.319 74.0704 77.1293 71.4586C90.5812 62.2378 106.15 54.908 132.882 54.908C139.894 54.908 148.639 56.6593 157.79 59.1345C166.956 61.6137 176.608 64.8416 185.448 67.8339C186.089 68.0507 186.725 68.2663 187.357 68.4802C195.458 71.225 202.759 73.6985 208.291 75.1437C211.281 75.9249 213.682 76.3855 215.383 76.445C216.238 76.475 216.835 76.3995 217.217 76.2652C217.574 76.1398 217.648 76.0031 217.676 75.9222C218.414 73.7906 220.315 71.9557 223.006 70.4073C225.716 68.8476 229.354 67.5043 233.791 66.4149C242.67 64.2349 254.907 63.0335 269.716 63.2483C284.449 63.4619 306.242 68.9105 323.863 75.33C332.681 78.5425 340.514 82.0194 345.936 85.2422C348.639 86.8483 350.803 88.4262 352.187 89.9163C353.515 91.3453 354.423 93.0317 353.722 94.6784C352.916 96.5741 351.32 98.1196 349.343 99.4003C347.358 100.686 344.91 101.757 342.273 102.671C337.174 104.439 331.209 105.677 326.208 106.713L325.708 106.817C323.142 107.35 320.865 107.828 319.087 108.304C318.198 108.542 317.457 108.772 316.879 109C316.419 109.182 316.115 109.342 315.93 109.469C316.018 109.54 316.148 109.634 316.343 109.748C317.351 110.34 319.349 111.072 322.691 111.97C339.181 116.405 363.754 115.923 390.972 111.173C418.163 106.427 447.881 97.4409 474.615 84.9636Z" stroke="#A0A2AC" stroke-opacity="0.6" stroke-width="2"/>
<path fill-rule="evenodd" clip-rule="evenodd" d="M315.234 108.74C316.571 107.691 320.8 106.813 325.981 105.739C336.177 103.625 350.055 100.747 352.802 94.2869C353.205 93.3395 352.834 92.2302 351.815 91.0068C347.618 96.7909 335.711 100.669 326.609 103.634C320.4 105.656 315.496 107.253 315.234 108.74ZM17.8242 108.291C8.98928 113.545 7.46809 117.05 34.8818 108.909C35.5394 108.713 36.6203 108.355 38.0733 107.872C51.4478 103.434 96.3507 88.5339 132.882 94.2868C168.989 99.973 187.697 108.129 204.175 115.314C230.683 126.871 251.421 135.913 329.537 128.11C430.878 117.988 468.763 95.7322 475.037 85.8696C470.171 88.1409 465.206 90.2968 460.176 92.3328C440.565 102.914 400.694 116.003 329.537 123.11C251.421 130.913 230.683 121.871 204.175 110.314C187.697 103.129 168.989 94.973 132.882 89.2868C96.3507 83.5339 51.4478 98.4343 38.0733 102.872C36.6203 103.355 35.5394 103.713 34.8818 103.909C26.946 106.265 21.435 107.646 17.8242 108.291Z" fill="#9A9DA7" fill-opacity="0.6"/>
<path fill-rule="evenodd" clip-rule="evenodd" d="M327.715 114.141C360.905 123.333 403.751 114.031 445.094 98.0168C401.629 113.231 355.81 119.512 327.715 114.141ZM474.818 85.9717C473.249 88.0327 470.5 90.6722 466.361 93.6589C470.907 90.6555 473.695 87.9791 475.037 85.8697C474.964 85.9037 474.891 85.9377 474.818 85.9717ZM15.7029 113.614C4.31724 114.963 22.51 104.994 34.8818 99.9093C48.0071 94.5151 57.5117 87.3107 66.7667 80.2954C83.2492 67.8017 98.9403 55.908 132.882 55.908C147.133 55.908 168.97 63.3064 187.05 69.432C203.857 75.1265 217.418 79.7211 218.62 76.2494C221.117 69.0433 240.187 63.8201 269.701 64.2481C291.057 64.5578 327.672 76.0284 344.297 85.4472C326.908 77.3808 290.652 68.5519 269.701 68.2481C240.188 67.8201 221.117 73.0433 218.621 80.2494C217.418 83.7211 203.857 79.1265 187.05 73.432C168.97 67.3064 147.133 59.908 132.882 59.908C98.9405 59.908 83.2494 71.8017 66.7669 84.2954C57.5118 91.3107 48.0072 98.5152 34.882 103.909C28.3855 106.579 20.284 110.596 15.7029 113.614ZM338.437 102.829C334.297 104.014 329.871 104.932 325.981 105.739C320.636 106.848 316.303 107.746 315.115 108.841C314.488 107.264 319.519 106.399 326.18 105.252C329.984 104.597 334.32 103.851 338.437 102.829Z" fill="#FDFDFF" fill-opacity="0.6"/>
<path d="M245.5 124.731C245.5 132.739 234.5 142.178 221.5 145.217C212.358 147.354 186 144.186 186 136.178C186 128.169 201.5 120.624 215 118.177C228.5 115.731 245.5 116.723 245.5 124.731Z" fill="#D6DAE5" fill-opacity="0.8"/>
<path d="M221.728 146.191C228.38 144.635 234.525 141.444 239.025 137.597C243.487 133.782 246.5 129.168 246.5 124.731C246.5 122.304 245.185 120.46 243.18 119.148C241.207 117.856 238.502 117.028 235.469 116.546C229.39 115.58 221.646 115.957 214.822 117.193C207.977 118.434 200.615 120.966 194.94 124.225C192.103 125.853 189.645 127.687 187.885 129.666C186.129 131.642 185 133.842 185 136.178C185 138.781 187.125 140.734 189.792 142.152C192.529 143.608 196.218 144.711 200.128 145.483C207.925 147.022 216.96 147.305 221.728 146.191Z" stroke="#A0A2AC" stroke-opacity="0.6" stroke-width="2"/>
<path fill-rule="evenodd" clip-rule="evenodd" d="M245.149 122.852C241.83 129.394 232.791 135.811 222.5 138.217C214.262 140.143 190.828 142.894 186.272 137.561C189.087 144.545 212.903 147.227 221.5 145.217C234.5 142.178 245.5 132.739 245.5 124.731C245.5 124.055 245.379 123.43 245.149 122.852Z" fill="#9A9DA7" fill-opacity="0.6"/>
</svg>
