<svg width="480" height="480" viewBox="0 0 480 480" fill="none" xmlns="http://www.w3.org/2000/svg">
<g clip-path="url(#clip0_277_255032)">
<path opacity="0.3" fill-rule="evenodd" clip-rule="evenodd" d="M259.389 92.9036C348.852 100.948 371.448 160.072 371.448 160.072C378.3 179.189 366.597 171.652 353.527 163.235C344.163 157.205 334.098 150.723 329.648 153.264C322.064 157.599 333.056 178.34 333.056 178.34C349.462 210.533 337.083 246.285 337.083 246.285C328.365 269.524 306.805 282.585 284.229 289.899L285.084 289.923C285.084 289.923 318.514 305.242 344.05 421.786L119.323 422.254C121.178 406.934 133.256 355.855 144.859 323.352C156.47 290.85 168.54 286.673 168.54 286.673L169.406 286.697C135.119 271.72 125.709 249.526 124.736 208.362C123.499 156.054 169.927 84.8593 259.389 92.9036Z" fill="url(#paint0_linear_277_255032)"/>
<path opacity="0.3" d="M288.896 294.226C288.896 294.226 257.995 310.473 215.023 309.958C215.023 309.958 190.969 311.527 165.204 289.923C165.204 289.923 166.829 288.25 168.667 287.355C197.325 302.486 257.328 300.105 282.659 290.327C286.146 291.42 288.896 294.226 288.896 294.226Z" fill="#214354"/>
<path opacity="0.5" d="M277.024 292.181C277.024 292.181 240.575 306.186 212.368 302.54C184.162 298.894 170.356 287.577 170.356 287.577L198.943 296.017L212.567 299.473L231.77 298.87L249.785 297.174L277.024 292.181Z" fill="#214354"/>
<path d="M371.543 160.032C369.641 155.507 367.144 151.275 364.402 147.217C361.652 143.167 358.609 139.315 355.319 135.693C348.71 128.473 341.236 122.03 333.089 116.585C329.047 113.803 324.767 111.41 320.447 109.087C316.073 106.876 311.626 104.792 307.046 103.024C297.915 99.4421 288.437 96.7236 278.807 94.8374C269.17 92.9907 259.406 91.8098 249.57 91.469C239.742 91.1362 229.867 91.8812 220.198 93.7436C210.537 95.6141 201.074 98.602 192.174 102.826C183.274 107.019 174.912 112.345 167.343 118.614C152.253 131.215 140.405 147.558 132.915 165.667C131.94 167.918 131.164 170.24 130.308 172.539C129.586 174.885 128.754 177.191 128.176 179.576C126.844 184.292 125.917 189.119 125.212 193.969C124.538 198.827 124.308 203.741 124.356 208.647C124.467 213.537 124.704 218.435 125.132 223.317C126.004 233.057 127.732 242.845 131.465 251.991C133.335 256.548 135.721 260.915 138.693 264.862C141.649 268.825 145.144 272.368 148.98 275.474C156.684 281.68 165.592 286.166 174.73 289.717C183.876 293.323 205.782 300.876 222.275 299.267C228.758 299.243 235.233 298.918 241.692 298.371C254.603 297.246 267.466 295.153 279.964 291.539C292.415 287.886 304.652 283.511 315.264 275.807C320.543 271.948 325.345 267.391 329.34 262.184C333.334 256.969 336.497 251.151 338.589 244.858C342.028 232.265 343.217 219.101 341.838 206.135C341.616 204.518 341.537 202.893 341.18 201.292L340.269 196.489C339.413 193.343 338.684 190.165 337.471 187.137C336.489 184.031 334.959 181.13 333.628 178.166C332.145 175.328 330.83 172.396 329.712 169.392C328.627 166.388 327.691 163.29 327.446 160.143C327.335 158.582 327.438 156.973 328.048 155.594C328.658 154.223 329.942 153.193 331.456 153.074C332.978 152.931 334.555 153.319 336.053 153.819C337.559 154.326 339.025 154.984 340.459 155.705C343.328 157.147 346.102 158.796 348.836 160.508C354.321 163.892 359.607 167.641 365.409 170.541C366.875 171.231 368.373 171.897 370.013 172.126C370.814 172.222 371.725 172.222 372.439 171.691C373.168 171.183 373.437 170.296 373.524 169.487C373.691 167.839 373.334 166.23 372.962 164.661C372.597 163.099 372.09 161.562 371.543 160.032ZM371.353 160.104C371.884 161.625 372.383 163.155 372.764 164.716C373.128 166.27 373.461 167.878 373.287 169.456C373.199 170.224 372.93 171.025 372.296 171.461C371.686 171.92 370.838 171.928 370.069 171.833C368.5 171.603 367.01 170.938 365.567 170.248C359.829 167.332 354.559 163.551 349.09 160.127C346.356 158.408 343.614 156.696 340.729 155.198C339.286 154.453 337.812 153.763 336.275 153.216C334.737 152.677 333.112 152.234 331.4 152.368C329.657 152.463 328.056 153.7 327.351 155.261C326.629 156.83 326.51 158.558 326.598 160.199C326.804 163.504 327.715 166.666 328.769 169.741C329.855 172.808 331.139 175.796 332.597 178.705C333.857 181.645 335.316 184.506 336.227 187.581C337.368 190.577 338.034 193.715 338.819 196.814L339.635 201.538C339.794 202.322 339.889 203.115 339.96 203.916L340.214 206.301C341.442 219.029 340.134 232.019 336.647 244.28C334.642 250.208 331.567 255.899 327.707 260.915C323.84 265.94 319.179 270.363 314.028 274.111C303.685 281.601 291.71 286.641 279.425 290.224C267.117 293.822 254.381 295.962 241.581 297.135C235.177 297.705 228.75 298.054 222.33 298.102C219.113 298.118 215.911 298.118 212.748 297.824C209.57 297.539 206.376 297.111 203.222 296.604L203.285 296.62C193.822 294.297 184.399 291.738 175.316 288.242C166.234 284.803 157.421 280.468 149.82 274.452C146.032 271.448 142.584 268.009 139.652 264.157C136.704 260.321 134.334 256.049 132.463 251.579C128.731 242.608 126.947 232.923 126.02 223.238C125.56 218.387 125.291 213.513 125.148 208.631C125.069 203.765 125.267 198.891 125.901 194.056C126.583 189.238 127.423 184.419 128.794 179.743C129.38 177.373 130.221 175.083 130.942 172.761C131.798 170.478 132.59 168.172 133.565 165.937C141.047 147.93 153.054 131.849 168.136 119.573C183.25 107.312 201.455 99.0696 220.531 95.4793C230.073 93.6644 239.814 93.0304 249.523 93.2443C259.231 93.5138 268.94 94.6154 278.506 96.3828C297.606 99.9176 316.358 106.464 332.708 117.163C340.903 122.45 348.448 128.758 355.042 135.947C358.339 139.545 361.398 143.365 364.164 147.383C366.922 151.401 369.443 155.626 371.353 160.104Z" fill="#002636"/>
<path opacity="0.3" d="M365.409 150.213C365.409 150.213 368.349 159.295 366.431 161.593C364.513 163.892 335.094 143.048 321.026 149.571C321.026 149.571 320.329 150.593 320.258 153.28C320.194 155.776 320.701 160.183 321.343 164.027C321.985 167.863 326.971 180.512 328.952 188.326C334.959 211.984 337.266 261.866 296.212 284.121L300.816 282.845L315.526 274.912L328.952 260.844L336.116 249.075L338.55 240.507L341.236 227.969L341.49 216.842L340.848 203.67L338.93 193.692L335.99 184.482L332.534 176.937L329.467 170.93L327.866 165.429L326.598 160.207L327.359 155.966L329.213 153.343L334.65 152.828L337.916 154.167L347.054 158.717L356.841 164.922L360.867 167.355L366.946 170.747L370.972 171.326L372.51 169.725C372.51 169.725 373.152 166.016 372.954 165.889C372.756 165.762 371.099 159.557 371.099 159.557C371.099 159.557 368.729 155.332 368.603 155.142C368.476 154.952 365.409 150.213 365.409 150.213Z" fill="#214354"/>
<path opacity="0.5" d="M334.65 152.836L331.258 151.496L327.002 150.839L322.627 150.894C322.627 150.894 321.533 151.029 321.581 152.091C321.628 153.145 327.287 164.898 327.287 164.898L326.907 160.825L327.335 156.315L329.205 153.359L332.058 152.202L334.65 152.836Z" fill="#214354"/>
<path d="M333.469 151.647C332.28 151.354 331.083 151.124 329.879 150.965C328.674 150.799 327.461 150.704 326.249 150.688C325.036 150.648 323.832 150.751 322.635 150.886C323.84 150.87 325.036 150.886 326.233 151.029C327.422 151.156 328.603 151.354 329.76 151.631C330.917 151.901 332.066 152.226 333.184 152.622C334.293 153.01 337.202 154.017 337.368 153.684C337.535 153.351 338.105 153.446 333.469 151.647Z" fill="#002636"/>
<path opacity="0.5" d="M337.479 187.145C337.479 187.145 341.68 209.875 337.075 233.089C332.471 256.303 326.717 264.553 326.717 264.553L331.416 257.935L336.116 249.075L339.667 238.169L341.204 226.368L341.49 213.228L340.848 203.67L337.479 187.145Z" fill="#214354"/>
<path opacity="0.3" d="M125.656 191.266L130.308 172.539L137.742 155.776L148.489 139.085L162.454 124.391L173.811 113.954L192.182 102.826L208.921 97.2625L222.156 94.1953L231.175 93.0461L244.601 92.0872L257.456 92.4676L278.807 94.8452L290.069 98.8C290.069 98.8 250.165 91.1282 218.701 99.9492C187.236 108.778 153.664 137.429 143.012 179.315C143.012 179.315 136.735 203.266 136.141 219.632C135.547 235.998 142.315 267.755 159.608 281.633L152.507 277.606L143.876 269.935L137.544 262.643L132.939 254.012L129.293 243.075L127.185 236.743L125.133 223.325L125.069 203.551L125.656 191.266Z" fill="#214354"/>
<path opacity="0.5" d="M329.879 371.428C327.723 367.434 336.512 410.406 334.214 422.809L343.534 422.793C343.534 422.785 332.034 375.423 329.879 371.428Z" fill="#214354"/>
<path opacity="0.5" d="M124.959 201.245C124.959 201.245 128.359 231.742 133.479 245.817C138.598 259.893 148.997 275.475 148.997 275.475L143.893 269.927L138.139 263.658L133.534 255.344L129.952 246.388L127.519 237.947L126.108 228.484L125.339 218.126L124.697 207.379L124.959 201.245Z" fill="#214354"/>
<path d="M122.311 404.144C121.717 407.148 121.13 410.144 120.607 413.164C120.076 416.167 119.569 419.195 119.252 422.317C120.187 416.429 121.566 410.199 122.898 404.271C124.229 398.303 125.711 392.375 127.161 386.439C130.126 374.582 133.335 362.781 136.799 351.068C138.534 345.219 140.302 339.37 142.228 333.576C144.122 327.767 146.143 322.013 148.457 316.394C150.771 310.782 153.442 305.298 156.708 300.218C158.316 297.666 160.115 295.233 162.089 292.99C163.088 291.88 164.134 290.802 165.267 289.859C166.329 288.948 168.103 287.755 169.228 287.247L168.524 285.793C168.429 285.785 168.342 285.809 168.263 285.841C166.599 286.554 165.402 287.482 164.165 288.504C162.945 289.51 161.851 290.628 160.797 291.785C158.721 294.115 156.858 296.612 155.202 299.227C151.857 304.45 149.202 310.037 146.88 315.728C144.566 321.434 142.569 327.236 140.706 333.069C138.812 338.894 137.076 344.767 135.364 350.647C132.043 362.433 129.008 374.289 126.202 386.201C124.808 392.161 123.524 398.145 122.311 404.144Z" fill="#002636"/>
<path d="M289.087 292.261C287.882 291.278 286.645 290.366 285.235 289.606L282.944 290.509L283.523 290.763C284.799 291.468 286.479 292.015 287.636 292.982L289.356 294.472C289.903 294.995 290.434 295.55 290.973 296.081C291.504 296.628 292.059 297.143 292.566 297.713L294.064 299.441L295.562 301.169C296.045 301.755 296.489 302.381 296.957 302.984C297.868 304.204 299.342 305.829 300.222 307.073L304.264 312.518C304.668 313.168 305.04 313.834 305.429 314.492L307.735 318.446C313.719 329.106 318.752 340.043 323.111 351.456C324.18 354.317 325.139 357.218 326.154 360.103L327.66 364.43L328.413 366.594L329.078 368.789L331.741 377.562C332.637 380.487 333.548 383.403 334.285 386.375L336.639 395.244C337.416 398.2 338.272 401.141 338.922 404.128L343.522 422.492C344.061 422.484 345.056 422.333 345.056 421.794C345.056 421.723 345.048 421.644 345.032 421.572L340.768 403.669C340.103 400.673 339.223 397.733 338.43 394.769L335.981 385.9C335.205 382.928 334.262 380.011 333.334 377.087L330.56 368.313L329.863 366.118L329.086 363.954L327.525 359.627C326.471 356.75 325.488 353.841 324.379 350.98C319.861 339.576 314.884 328.321 308.797 317.646L306.443 313.683C306.047 313.025 305.667 312.36 305.254 311.71L303.963 309.8L301.387 305.98C300.491 304.735 299.524 303.539 298.597 302.31C298.122 301.708 297.67 301.09 297.178 300.495L295.657 298.759L294.135 297.024C293.628 296.453 293.049 295.93 292.51 295.383C291.956 294.844 291.417 294.29 290.854 293.766L289.087 292.261Z" fill="#002636"/>
<path opacity="0.5" d="M167.074 321.933C167.074 321.933 161.534 329.019 156.549 346.669C151.564 364.319 146.833 407.418 146.064 420.851L146.04 422.912L153.149 422.872L153.736 420.019V413.496L154.116 398.47L155.138 384.085L156.866 368.163L159.743 352.05L162.493 338.942L164.926 328.837L167.074 321.933Z" fill="#214354"/>
<path d="M156.454 379.084C156.049 383.911 155.614 388.737 155.392 393.58C155.059 398.414 154.892 403.257 154.67 408.091C154.377 412.672 155.146 418.038 154.964 422.634L153.093 422.872C153.061 420.693 152.855 417.435 152.84 415.256C152.824 412.823 152.808 410.39 152.895 407.964L153.149 400.673C153.228 398.24 153.474 395.823 153.632 393.397C153.957 388.547 154.504 383.712 155.011 378.878C156.137 369.217 157.571 359.595 159.489 350.061C161.478 340.55 163.769 331.079 167.082 321.933C167.098 321.894 167.145 321.87 167.193 321.886C167.232 321.902 167.256 321.949 167.24 321.997C164.141 331.19 162.762 340.701 160.995 350.219C159.228 359.754 157.413 369.447 156.454 379.084Z" fill="#002636"/>
<path opacity="0.5" d="M263.614 331.341C263.614 331.341 260.761 330.192 261.784 336.841C262.806 343.491 266.341 402.298 265.318 423.015H275.851L276.62 403.859L273.807 367.537L271.698 353.406L270.113 344.822L267.474 337.666L266.428 335.082L265.152 332.451L263.614 331.341Z" fill="#214354"/>
<path d="M275.874 421.786C275.874 421.398 275.882 421.01 275.874 420.621C275.811 410.485 275.628 400.34 275.058 390.203C274.463 380.075 274.091 369.946 272.783 359.889C272.141 354.856 271.372 349.839 270.152 344.917C269.542 342.46 268.86 340.012 267.988 337.634C267.56 336.445 267.061 335.28 266.482 334.155C266.189 333.6 265.872 333.045 265.5 332.546C265.135 332.054 264.699 331.531 264.168 331.317L264.136 331.301C264.097 331.286 264.073 331.238 264.089 331.198C264.105 331.159 264.152 331.135 264.192 331.151C264.866 331.397 265.262 331.92 265.666 332.419C266.062 332.926 266.395 333.473 266.704 334.036C267.314 335.161 267.846 336.326 268.297 337.515C269.217 339.893 269.962 342.334 270.627 344.791C271.959 349.704 272.839 354.745 273.591 359.77C275.066 369.843 276.072 379.972 276.825 390.116C277.57 400.261 278.125 410.437 277.974 420.629C277.966 421.01 277.95 421.398 277.943 421.786H275.874Z" fill="#002636"/>
<path d="M161.693 123.353C179.493 106.686 210.902 87.7361 259.374 92.103C305.73 96.2718 333.834 114.382 349.249 128.845C365.972 144.53 371.805 159.454 371.86 159.604V159.612C374.278 166.365 374.555 170.185 372.716 171.643C369.713 174.029 362.049 169.091 353.18 163.369C344.2 157.583 334.008 151.029 329.847 153.414C322.778 157.456 333.342 177.603 333.453 177.809C349.772 209.828 337.63 245.794 337.503 246.166C318.902 295.779 242.422 299.29 221.181 299.29C218.209 299.29 216.315 299.219 215.816 299.203C210.276 298.973 202.976 297.745 202.873 297.721C143.052 283.939 125.473 263.047 124.174 208.084C123.46 178.15 137.837 145.687 161.693 123.353ZM125.188 208.06C125.862 236.529 130.546 253.386 141.356 266.249C152.634 279.667 171.679 289.067 203.072 296.715C203.143 296.731 210.379 297.951 215.855 298.181C219.913 298.355 315.589 301.676 336.536 245.825C336.663 245.469 348.662 209.915 332.542 178.285C332.082 177.421 321.415 157.052 329.332 152.527C330.093 152.091 330.981 151.901 331.987 151.901C337.25 151.901 344.676 156.077 352.792 161.308C360.622 166.349 368.722 171.564 371.139 169.638C372.106 168.869 372.685 166.357 369.958 158.756C369.625 157.9 347.18 101.035 259.271 93.1254C211.156 88.7981 180.032 107.581 162.374 124.106C138.741 146.242 124.491 178.411 125.188 208.06Z" fill="#002636"/>
<path opacity="0.3" d="M144.659 201.786C144.659 201.786 148.145 205.805 148.145 207.415C148.145 209.025 143.983 213.51 143.097 216.444L146.85 212.596L153.155 210.225L155.393 208.215L150.479 205.939L144.659 201.786Z" fill="#214354"/>
<path opacity="0.3" d="M136.441 189.633C136.441 189.633 137.508 191.5 139.355 193.824C141.651 196.719 145.156 200.329 149.318 201.967C149.318 201.967 151.575 202.996 152.718 202.929C153.861 202.862 156.137 208.158 156.137 208.158C156.137 208.158 153.051 207.215 152.851 207.148C152.651 207.082 146.48 203.196 146.413 202.996C146.346 202.796 141.451 197.567 141.451 197.567L136.441 189.633Z" fill="#214354"/>
<path opacity="0.3" d="M147.165 185.338C147.165 185.338 149.317 195.719 153.613 200.005C153.613 200.005 155.394 202.215 157.537 203.053L158.204 206.539L157.061 207.815L152.299 201.71L149.546 195.538L148.136 190.643L147.165 185.338Z" fill="#214354"/>
<path opacity="0.3" d="M141.087 222.168C141.087 222.168 144.887 212.158 151.945 213.406C151.945 213.406 153.031 213.777 153.374 214.52C154.04 215.949 152.126 220.644 153.459 225.292L154.355 220.644L157.479 212.329L157.393 210.587L152.564 210.501L147.421 212.329L143.983 215.815L142.154 218.901L141.087 222.168Z" fill="#214354"/>
<path opacity="0.3" d="M159.546 203.91C159.546 203.91 159.365 208.939 164.546 208.177C169.727 207.415 162.489 209.701 162.489 209.701L158.822 209.615V206.624L159.546 203.91Z" fill="#214354"/>
<path opacity="0.3" d="M163.489 210.615C163.489 210.615 161.327 211.482 161.327 212.872C161.327 214.253 161.727 215.558 162.984 216.806C164.232 218.054 159.765 215.244 159.765 215.244C159.765 215.244 159.05 211.939 159.05 211.806C159.05 211.672 160.079 210.777 160.26 210.777C160.441 210.768 163.489 210.615 163.489 210.615Z" fill="#214354"/>
<path d="M138.554 192.967C139.344 194.024 140.059 195.129 140.935 196.11C142.564 198.167 144.459 199.986 146.411 201.691C148.383 203.386 150.535 204.843 152.774 206.12C153.459 206.51 154.164 206.872 154.869 207.215C154.421 206.653 153.993 206.091 153.583 205.51C152.212 203.501 151.126 201.339 150.231 199.129L149.592 197.462L149.059 195.757C148.678 194.633 148.459 193.462 148.173 192.319C147.916 191.167 147.754 189.995 147.545 188.843L147.154 185.347L147.897 188.776C148.221 189.9 148.507 191.033 148.869 192.138C149.269 193.233 149.593 194.348 150.078 195.395L150.754 196.986L151.526 198.529C152.602 200.558 153.831 202.491 155.288 204.215C155.879 204.891 156.488 205.539 157.136 206.148C157.174 205.31 157.25 204.472 157.412 203.653C157.783 201.7 158.441 199.815 159.422 198.119C159.65 197.691 159.945 197.3 160.203 196.891L160.603 196.291L161.069 195.729C161.384 195.357 161.679 194.986 162.003 194.633L163.031 193.643L163.546 193.157L164.107 192.719L165.231 191.852C166.003 191.319 166.822 190.843 167.612 190.348C166.889 190.948 166.146 191.509 165.46 192.129L164.479 193.11L163.993 193.595L163.555 194.129L162.698 195.205C162.431 195.576 162.203 195.976 161.955 196.348L161.593 196.919L161.288 197.529C161.098 197.938 160.869 198.329 160.717 198.748C160.022 200.405 159.66 202.158 159.545 203.91C159.488 204.786 159.526 205.663 159.612 206.52C159.688 207.12 159.803 207.767 159.945 208.329L160.041 208.663C160.06 208.739 160.088 208.825 160.107 208.891C160.183 208.891 160.269 208.882 160.345 208.882C161.203 208.815 162.079 208.71 162.936 208.539C164.66 208.206 166.374 207.701 168.012 207.005C169.641 206.282 171.26 205.472 172.746 204.424C173.527 203.948 174.203 203.348 174.937 202.805C175.641 202.234 176.299 201.596 176.994 200.986C176.394 201.672 175.813 202.396 175.184 203.062C174.527 203.701 173.908 204.405 173.184 204.986C171.822 206.253 170.26 207.301 168.66 208.282C167.041 209.234 165.298 210.015 163.479 210.615C162.574 210.92 161.641 211.158 160.688 211.358C160.469 211.396 160.26 211.434 160.05 211.472C160.05 211.558 160.06 211.796 160.088 211.968C160.107 212.168 160.174 212.377 160.212 212.587C160.326 212.996 160.46 213.415 160.66 213.815C160.822 214.234 161.088 214.596 161.317 214.987C161.603 215.339 161.86 215.72 162.184 216.053C163.469 217.387 165.136 218.473 167.003 219.158C167.451 219.377 167.936 219.511 168.412 219.654C168.889 219.797 169.374 219.958 169.86 220.082C170.851 220.263 171.841 220.52 172.851 220.644C173.86 220.749 174.879 220.911 175.899 220.959L178.984 221.073L175.899 221.311C174.87 221.378 173.832 221.33 172.794 221.349C171.755 221.339 170.717 221.197 169.67 221.12C169.155 221.044 168.632 220.939 168.117 220.844C167.593 220.749 167.07 220.663 166.565 220.492C164.498 219.977 162.469 219.025 160.726 217.587C160.288 217.225 159.907 216.806 159.498 216.396C159.155 215.939 158.755 215.501 158.479 214.987C158.298 214.711 158.145 214.415 158.002 214.12C157.774 214.453 157.564 214.796 157.364 215.139C157.05 215.663 156.802 216.206 156.517 216.749C156.298 217.311 156.031 217.863 155.84 218.444C155.059 220.739 154.678 223.225 154.974 225.683C154.993 226.302 155.183 226.902 155.278 227.511C155.345 227.816 155.383 228.13 155.469 228.426L155.774 229.311C155.993 229.902 156.145 230.511 156.421 231.083L157.269 232.778C157.526 233.369 157.898 233.883 158.25 234.407L159.326 235.997C160.126 236.988 160.993 237.95 161.822 238.931C160.907 238.035 159.955 237.15 159.05 236.216L157.821 234.712C157.412 234.207 156.983 233.711 156.66 233.14L155.621 231.464C155.288 230.902 155.059 230.273 154.774 229.673L154.364 228.768C154.25 228.454 154.174 228.13 154.078 227.816C153.917 227.168 153.659 226.54 153.564 225.873C152.993 223.244 153.155 220.463 153.783 217.815C153.936 217.149 154.174 216.511 154.364 215.853C154.612 215.225 154.85 214.577 155.145 213.958C155.44 213.339 155.745 212.73 156.098 212.139C156.193 211.977 156.288 211.834 156.383 211.682C156.25 211.653 156.107 211.625 155.974 211.596C155.517 211.491 155.059 211.472 154.593 211.406C154.136 211.387 153.669 211.368 153.202 211.358C151.354 211.406 149.488 211.834 147.859 212.806C147.431 213.015 147.078 213.339 146.678 213.606C146.488 213.749 146.278 213.872 146.107 214.034L145.592 214.539C145.269 214.892 144.868 215.187 144.592 215.587L143.707 216.758C143.383 217.139 143.183 217.587 142.935 218.015L142.211 219.32L141.078 222.101L141.878 219.177L142.449 217.768C142.649 217.301 142.802 216.806 143.087 216.377L143.868 215.044C144.116 214.587 144.497 214.215 144.802 213.796L145.297 213.187C145.469 212.987 145.678 212.825 145.869 212.644C146.269 212.301 146.63 211.891 147.069 211.606C148.764 210.301 150.869 209.52 153.012 209.215C153.212 209.196 153.421 209.177 153.631 209.158C152.955 208.748 152.297 208.32 151.64 207.882C149.412 206.339 147.316 204.615 145.44 202.681C143.583 200.738 141.821 198.71 140.364 196.481C139.573 195.414 138.944 194.233 138.249 193.1C137.592 191.948 137.04 190.738 136.43 189.567C137.154 190.748 137.801 191.89 138.554 192.967Z" fill="#002636"/>
</g>
<path d="M171.472 207.28C171.472 207.28 172.33 198.355 162.89 194.61C157.774 192.581 141.218 187.45 118.059 189.594C102.381 191.045 108.098 244.301 130.335 250.597C156.009 257.856 168.607 243.858 171.472 207.28Z" fill="#FF8431"/>
<path d="M282.63 200.177C282.63 200.177 281.744 190.609 271.912 189.53C263.437 188.601 237.098 188.801 223.5 192.402C207.237 196.711 207.615 208.487 207.615 212.503C207.615 216.455 209.509 265.267 249.975 255.22C290.448 245.166 282.63 200.177 282.63 200.177Z" fill="#FF8431"/>
<path d="M228.137 195.897C228.137 195.897 215.26 196.968 215.532 211.989C215.796 226.902 215.932 233.318 218.747 238.277C221.563 243.244 210.701 229.16 210.701 229.16L209.358 208.773L212.709 196.833L226.257 193.746L228.137 195.897Z" fill="#E8782D"/>
<path d="M124.326 192.467C124.326 192.467 117.888 193.467 117.287 203.692C116.687 213.918 120.303 244.401 131.972 247.41L128.549 249.01L120.096 240.785L111.449 219.334L111.649 200.684L114.065 190.859L123.118 188.851L124.326 192.467Z" fill="#E8782D"/>
<path d="M267.975 197.104C267.975 197.104 274.813 196.704 276.221 201.127C277.628 205.55 277.428 214.404 275.821 219.842C274.213 225.272 270.19 224.265 268.782 217.026C267.374 209.781 262.244 201.434 262.844 199.219C263.451 197.004 267.975 197.104 267.975 197.104Z" fill="#F9A870"/>
<path d="M154.201 198.648C154.201 198.648 160.525 199.105 161.368 202.856C162.211 206.608 161.132 213.768 159.103 217.991C157.074 222.214 153.479 220.935 152.922 214.897C152.365 208.859 148.499 201.499 149.278 199.77C150.057 198.047 154.201 198.648 154.201 198.648Z" fill="#F9A870"/>
<path d="M227.601 234.262C227.601 234.262 230.417 239.764 234.44 242.579C238.463 245.395 234.976 246.338 231.224 244.323C227.466 242.308 224.386 237.077 223.443 235.069C222.507 233.054 224.65 229.703 227.601 234.262Z" fill="#F79552"/>
<path d="M127.077 232.104C127.077 232.104 128.705 236.834 131.607 239.556C134.508 242.279 131.607 242.629 128.828 240.585C126.048 238.542 124.175 233.99 123.654 232.268C123.125 230.546 125.233 228.102 127.077 232.104Z" fill="#F79552"/>
<path d="M105.239 201.906C106.168 193.381 108.068 184.571 115.171 183.928C138.902 181.763 159.281 187.279 164.548 189.38C175.959 193.939 175.187 206.579 175.18 206.694C175.173 206.844 175.037 210.295 178.324 210.745C180.397 211.053 183.526 211.21 187.628 211.21C202.855 211.21 203.913 209.159 204.663 207.322C205.914 197.118 212.038 190.53 222.863 187.729C236.869 184.106 264.086 183.749 273.64 184.771C281.979 185.664 288.139 189.558 290.547 195.504L291.047 196.961L291.068 197.04C291.076 197.083 291.354 198.076 293.719 197.94C296.635 197.762 301.165 196.761 303.602 196.225C304.488 196.032 305.088 195.897 305.403 195.847C306.332 195.689 307.346 195.997 308.261 196.697C309.583 197.712 310.49 199.391 310.669 201.149C310.94 202.878 310.226 205.65 308.182 206.358C307.675 206.536 303.052 208.108 297.907 209.388L297.471 209.523L297.342 209.552C297.149 209.573 292.533 210.181 291.369 217.612C291.218 218.555 291.061 219.291 290.89 219.877C290.668 220.985 290.411 222.107 290.132 223.214C286.645 236.927 273.447 253.112 251.839 258.35C247.866 259.314 244.043 259.8 240.492 259.8C233.117 259.8 226.658 257.721 221.291 253.626C213.71 247.838 208.808 239.099 206.314 226.909L206.264 226.794C203.399 220.12 194.531 218.72 187.607 218.72C175.595 218.72 174.301 221.328 172.644 224.665L172.436 225.072C169.628 238.106 165.005 246.059 157.452 250.861C153.25 253.526 148.513 254.827 142.961 254.827C138.709 254.827 134.336 254.148 129.97 252.805C121.224 250.111 115.543 244.051 110.362 231.889C106.246 222.214 104.281 210.731 105.239 201.906ZM129.198 192.467C126.168 192.467 123.853 192.552 121.216 192.753L120.866 192.788C120.666 192.81 115.929 193.324 114.707 199.026C114.607 199.484 114.521 199.877 114.457 200.098C114.307 200.906 114.178 201.77 114.085 202.671C113.228 210.581 114.528 220.706 117.479 229.095C120.845 238.649 122.696 243.915 130.427 246.952C138.909 250.282 148.456 248.117 154.158 244.501C162.018 239.514 165.241 230.289 166.956 207.908C166.97 207.83 168.056 200.334 161.782 197.826C159.539 196.918 147.47 192.467 129.198 192.467ZM212.495 210.831C212.509 211.253 212.516 211.653 212.523 212.024V212.296C212.523 212.546 212.759 237.549 226.872 248.324C233.46 253.348 240.463 254.477 250.288 252.097C266.194 248.238 276.248 238.527 280.171 223.229C282.887 212.625 280.822 204.085 280.364 202.421L280.293 202.006C280.264 201.72 279.542 195.039 272.197 194.253C271.782 194.21 271.354 194.16 270.896 194.103L270.768 194.089C268.367 193.81 265.38 193.46 261.114 193.46C249.574 193.46 233.96 194.31 224.764 196.683C212.173 199.941 212.359 206.229 212.495 210.831L211.78 210.845L212.495 210.831Z" fill="#002636"/>
<path d="M120.026 418.079C138.068 311.974 160.839 294.36 160.839 294.36C161.701 290.279 165.561 289.775 165.561 289.775C166.85 286.052 169.856 287.052 169.856 287.052C184.892 293.284 201.217 297.358 201.217 297.358L207.014 309.815C211.736 300.791 219.258 298.647 219.258 298.647C244.6 300.15 281.118 290.484 281.118 290.484C281.118 290.484 285.787 288.448 287.129 293.917C287.129 293.917 290.562 293.917 293.141 296.496C295.719 299.074 296.001 301.363 296.001 301.363C296.001 301.363 321.061 320.983 342.97 418.491V456.779H120.026V418.079Z" fill="url(#paint1_linear_277_255032)"/>
<path d="M192.192 366.205C189.821 366.205 187.898 364.282 187.898 361.911C187.898 359.539 189.821 357.616 192.192 357.616C194.565 357.616 196.487 359.539 196.487 361.911C196.487 364.282 194.565 366.205 192.192 366.205Z" fill="#D3A68D"/>
<path d="M222.691 366.205C220.319 366.205 218.397 364.282 218.397 361.911C218.397 359.539 220.319 357.616 222.691 357.616C225.063 357.616 226.986 359.539 226.986 361.911C226.986 364.282 225.063 366.205 222.691 366.205Z" fill="#D3A68D"/>
<path d="M192.192 406.156C189.821 406.156 187.898 404.233 187.898 401.861C187.898 399.489 189.821 397.566 192.192 397.566C194.565 397.566 196.487 399.489 196.487 401.861C196.487 404.233 194.565 406.156 192.192 406.156Z" fill="#D3A68D"/>
<path d="M222.265 406.156C219.893 406.156 217.97 404.233 217.97 401.861C217.97 399.489 219.893 397.566 222.265 397.566C224.636 397.566 226.56 399.489 226.56 401.861C226.56 404.233 224.636 406.156 222.265 406.156Z" fill="#D3A68D"/>
<path opacity="0.35" d="M168.261 321.235C168.261 321.235 162.929 328.055 158.131 345.044C153.332 362.033 148.778 403.517 148.038 416.447L148.015 418.43L154.858 418.392L155.422 415.646V409.368L155.789 394.904L156.773 381.058L158.436 365.732L161.205 350.224L163.852 337.606L166.194 327.88L168.261 321.235Z" fill="#D3A68D"/>
<path d="M158.039 376.245C157.65 380.89 157.23 385.536 157.017 390.197C156.696 394.851 156.536 399.512 156.323 404.165C156.04 408.574 156.78 413.739 156.605 418.163L154.805 418.392C154.774 416.294 154.576 413.159 154.56 411.061C154.545 408.719 154.53 406.377 154.614 404.043L154.858 397.025C154.934 394.683 155.171 392.356 155.323 390.022C155.636 385.353 156.162 380.7 156.651 376.046C157.734 366.747 159.115 357.486 160.961 348.309C162.876 339.155 165.08 330.038 168.269 321.235C168.284 321.197 168.33 321.174 168.376 321.189C168.414 321.205 168.437 321.25 168.421 321.296C165.439 330.145 164.111 339.299 162.41 348.461C160.709 357.639 158.962 366.968 158.039 376.245Z" fill="#002636"/>
<path opacity="0.25" d="M261.185 330.29C261.185 330.29 258.439 329.184 259.423 335.584C260.407 341.985 263.809 398.588 262.825 418.529H272.964L273.704 400.091L270.995 365.13L268.966 351.528L267.441 343.266L264.9 336.378L263.893 333.891L262.665 331.358L261.185 330.29Z" fill="#D3A68D"/>
<path d="M272.986 417.347C272.986 416.973 272.994 416.6 272.986 416.226C272.925 406.469 272.75 396.704 272.201 386.947C271.628 377.198 271.27 367.449 270.011 357.768C269.393 352.924 268.653 348.095 267.479 343.358C266.891 340.993 266.235 338.636 265.396 336.347C264.984 335.203 264.503 334.082 263.947 332.998C263.664 332.464 263.359 331.93 263.001 331.45C262.65 330.977 262.23 330.473 261.719 330.267L261.688 330.252C261.65 330.237 261.627 330.191 261.643 330.153C261.658 330.115 261.704 330.092 261.742 330.107C262.39 330.344 262.772 330.847 263.161 331.328C263.542 331.816 263.863 332.342 264.16 332.884C264.748 333.967 265.259 335.089 265.693 336.233C266.578 338.521 267.295 340.871 267.936 343.236C269.218 347.966 270.065 352.817 270.789 357.654C272.208 367.35 273.177 377.099 273.902 386.864C274.619 396.628 275.153 406.423 275.008 416.233C275 416.6 274.985 416.973 274.977 417.347H272.986Z" fill="#002636"/>
<path d="M191.33 365.237C188.958 365.237 187.035 363.313 187.035 360.942C187.035 358.57 188.958 356.647 191.33 356.647C193.703 356.647 195.625 358.57 195.625 360.942C195.625 363.313 193.703 365.237 191.33 365.237Z" fill="#5B3400" stroke="#352300" stroke-width="1.52571" stroke-miterlimit="10"/>
<path d="M221.837 365.237C219.465 365.237 217.543 363.313 217.543 360.942C217.543 358.57 219.465 356.647 221.837 356.647C224.209 356.647 226.132 358.57 226.132 360.942C226.132 363.313 224.209 365.237 221.837 365.237Z" fill="#5B3400" stroke="#352300" stroke-width="1.52571" stroke-miterlimit="10"/>
<path d="M191.33 405.195C188.958 405.195 187.035 403.272 187.035 400.9C187.035 398.528 188.958 396.605 191.33 396.605C193.703 396.605 195.625 398.528 195.625 400.9C195.625 403.272 193.703 405.195 191.33 405.195Z" fill="#5B3400" stroke="#352300" stroke-width="1.52571" stroke-miterlimit="10"/>
<path d="M221.402 405.195C219.031 405.195 217.108 403.272 217.108 400.9C217.108 398.528 219.031 396.605 221.402 396.605C223.775 396.605 225.697 398.528 225.697 400.9C225.697 403.272 223.775 405.195 221.402 405.195Z" fill="#5B3400" stroke="#352300" stroke-width="1.52571" stroke-miterlimit="10"/>
<path d="M167.239 303.079C167.239 303.079 167.064 304.346 167.064 305.635C167.064 305.635 185.967 297.724 191.155 300.875L188.538 299.303L183.816 298.983L175.333 300.272L168.246 302.095L167.239 303.079Z" fill="#D3A68D"/>
<path d="M190.376 315.262L190.109 316.055C190.109 316.055 194.191 317.413 197.341 323.432L198.272 321.998L194.908 318.062L192.329 315.911L190.376 315.262Z" fill="#D3A68D"/>
<path d="M202.148 301.164C202.148 301.164 183.679 295.649 179.095 293.65C174.51 291.652 170.146 289.142 167.858 288.066L170.291 287.281L185.396 292.865L198.784 296.519L201.149 297.518L202.148 301.164Z" fill="#D3A68D"/>
<path d="M255.441 307.527L253.625 309.182C253.625 309.182 229.885 301.34 224.789 304.941L225.064 304.17L232.082 302.454C232.082 302.454 242.892 303.888 243.182 303.888C243.472 303.888 252.336 305.887 252.618 305.887C252.901 305.887 255.441 307.527 255.441 307.527Z" fill="#D3A68D"/>
<path d="M225.561 319.42L227.567 321.853C227.567 321.853 203.163 324.477 184.077 351.871L188.333 345.547L193.414 338.888L198.716 333.372L203.301 329.436L209.602 325.141L216.048 321.922L222.776 319.77L225.561 319.42Z" fill="#D3A68D"/>
<path d="M212.919 302.736C212.919 302.736 251.695 301.309 271.56 293.536L271.125 292.743L254.906 296.069L230.96 298.647L217.214 299.181L212.919 302.736Z" fill="#D3A68D"/>
<path d="M297.55 303.491C297.55 303.491 292.607 302.957 290.57 304.246C288.533 305.536 287.496 304.796 287.496 304.796L288.961 303.171L294.545 301.348L295.727 301.134L297.55 303.491Z" fill="#D3A68D"/>
<path d="M284.018 294.573C284.018 294.573 282.942 292.209 279.181 292.75C275.42 293.284 273.063 293.505 273.063 293.505L275.748 292.003L283.049 289.966L285.841 291.255L286.81 293.185L284.018 294.573Z" fill="#D3A68D"/>
<path d="M165.348 289.92L166.347 293.147L161.267 297.51L159.687 295.291L160.618 291.995L163.128 290.492L165.348 289.92Z" fill="#D3A68D"/>
<path d="M159.024 295.161C159.436 290.889 162.754 289.455 164.844 289.226C166.423 286.213 169.734 286.289 169.879 286.296L170.016 286.304L170.146 286.357C184.953 292.491 201.232 296.595 201.4 296.633L201.751 296.725L207.129 308.282C213.881 298.441 218.877 298.403 219.129 298.403C244.547 299.181 279.364 290.172 280.867 289.775C281.248 289.623 283.247 288.905 285.123 289.828C286.336 290.431 287.206 291.568 287.717 293.208C288.884 293.33 291.539 293.833 293.683 295.969C295.88 298.166 296.528 300.196 296.704 300.966C299.412 303.27 322.847 325.438 343.718 418.346L342.231 418.682C321.573 326.743 297.863 304.033 295.697 302.126C294.842 302.072 291.455 302.026 287.999 304.445L287.496 304.796L287.046 304.376C285.673 303.087 281.736 299.601 280.089 298.945L279.15 298.571L279.776 297.77C279.898 297.617 282.576 294.223 286.169 293.353C285.787 292.308 285.223 291.583 284.475 291.209C283.087 290.515 281.446 291.202 281.431 291.209L281.324 291.247C281.233 291.27 279.013 291.85 275.328 292.704C274.398 293.383 270.599 296.16 267.326 298.777C266.037 299.807 264.237 301.164 262.421 302.499C260.254 304.216 258.019 305.848 255.693 307.382L255.448 307.542L255.143 307.443C251.337 306.245 247.416 305.368 243.495 304.613C241.534 304.239 239.551 303.957 237.575 303.728C235.599 303.491 233.616 303.369 231.647 303.392C229.694 303.445 227.703 303.613 225.979 304.307C225.552 304.483 225.148 304.697 224.789 304.941C224.599 305.063 224.454 305.215 224.286 305.353L223.813 305.856C223.218 306.558 222.783 307.374 222.531 308.251C222.02 310.021 222.302 311.989 222.936 313.813C223.576 315.636 225.178 317.543 226.338 319.084L226.895 319.824L226.002 319.976C221.456 320.77 216.398 322.112 212.286 324.241C208.151 326.346 204.33 329.039 200.798 332.06C197.266 335.089 194.039 338.483 191.109 342.114C190.674 342.648 190.224 343.289 190.224 343.289C190.224 343.289 186.174 349.758 184.724 352.604C184.045 353.946 183.382 355.525 183.054 356.876C183.099 356.723 182.954 357.28 182.954 357.28C182.657 358.516 182.382 359.759 182.123 361.003C180.231 370.355 179.422 379.906 178.888 389.45C178.423 398.749 178.217 408.887 178.255 418.202H178.011C177.836 408.635 177.866 398.817 178.209 389.251C178.621 379.693 179.293 370.111 181.078 360.675C181.978 355.96 183.138 351.276 184.923 346.791C186.715 342.313 188.943 338.048 191.262 333.853C193.39 330.046 195.618 326.301 197.906 322.593C197.021 321.281 196.06 320.015 195.008 318.84C194.351 318.092 193.642 317.39 192.879 316.765C192.116 316.147 191.3 315.575 190.4 315.293L190.11 315.201L190.224 314.903C190.781 313.393 191.247 311.837 191.628 310.273C192.01 308.709 192.307 307.122 192.383 305.543C192.452 303.995 192.322 302.309 191.437 301.241C190.987 300.737 190.331 300.402 189.614 300.188C188.897 299.967 188.119 299.86 187.333 299.807C184.183 299.616 180.963 300.112 177.805 300.699C174.647 301.302 171.481 302.026 168.369 302.827L167.27 303.11L167.438 302.042C167.644 300.714 167.972 299.494 168.384 298.273C168.788 297.053 169.307 295.878 169.902 294.749C170.489 293.612 171.168 292.529 171.946 291.522C172.503 290.79 173.121 290.103 173.785 289.47C172.427 288.951 171.077 288.41 169.727 287.853C169.2 287.868 167.194 288.082 166.195 290.019L167.484 293.299L166.95 293.635C166.912 293.658 163.006 296.145 161.823 298.105L161.198 299.151L159.626 296.74C158.009 298.365 153.31 303.834 147.222 317.68C140.273 333.494 130.05 363.772 120.789 418.232L119.287 417.973C136.283 317.909 156.331 297.503 159.024 295.161ZM281.286 297.747C283.293 298.96 286.519 301.828 287.633 302.843C290.624 300.928 293.469 300.592 294.98 300.569C294.667 299.746 293.995 298.441 292.599 297.045C290.448 294.894 287.29 294.451 286.886 294.436C284.445 294.734 282.301 296.679 281.286 297.747ZM192.238 334.394C189.881 338.537 187.608 342.74 185.785 347.126C185.144 348.683 184.579 350.269 184.068 351.879C186.044 348.37 188.302 345.036 190.758 341.847C193.634 338.148 196.815 334.669 200.325 331.541C202.064 329.962 203.918 328.505 205.84 327.14C207.755 325.767 209.769 324.538 211.851 323.432C215.757 321.342 219.968 319.816 224.324 318.908C223.287 317.444 222.432 315.895 221.799 314.202C221.089 312.256 220.693 310.044 221.265 307.9C221.547 306.84 222.066 305.826 222.76 304.979C222.943 304.773 223.119 304.567 223.317 304.368C223.538 304.185 223.737 303.972 223.973 303.812C224.431 303.484 224.927 303.209 225.422 302.995C227.444 302.149 229.542 301.95 231.602 301.866C235.729 301.767 239.787 302.309 243.769 303.079C247.66 303.819 251.482 304.849 255.242 306.108L259.415 302.789L264.046 299.44C264.046 299.44 270.66 294.444 271.552 293.536C259.041 296.29 236.835 300.455 219.106 299.913C219.06 299.913 214.231 300.104 207.648 310.235L206.9 311.387L206.885 311.356C201.736 318.855 196.777 326.514 192.238 334.394ZM169.025 301.081C171.824 300.28 174.647 299.639 177.515 299.181C180.757 298.693 184.053 298.304 187.402 298.601C188.241 298.685 189.08 298.815 189.912 299.097C190.736 299.372 191.582 299.799 192.2 300.539C192.795 301.287 193.062 302.179 193.192 303.026C193.314 303.88 193.314 304.735 193.253 305.566C192.963 308.801 192.017 311.86 190.842 314.827C190.842 314.827 193.146 315.735 195.831 318.313C197.624 320.037 198.41 320.846 198.738 321.189C201.179 317.261 203.521 313.652 206.13 309.762L200.66 298.022C198.562 297.48 187.463 294.551 175.776 290.202C170.215 293.536 169.025 301.081 169.025 301.081ZM161.198 296.351C162.51 294.825 164.608 293.322 165.592 292.666L164.844 290.774C163.662 290.957 161.297 291.888 160.549 295.359L161.198 296.351Z" fill="#002636"/>
<path d="M219.686 359.302C219.686 359.302 218.328 362.811 222.119 363.528" stroke="#724727" stroke-width="0.762854" stroke-miterlimit="10" stroke-linecap="round" stroke-linejoin="round"/>
<path d="M189.042 359.302C189.042 359.302 187.684 362.811 191.475 363.528" stroke="#724727" stroke-width="0.762854" stroke-miterlimit="10" stroke-linecap="round" stroke-linejoin="round"/>
<path d="M219.113 399.252C219.113 399.252 217.755 402.761 221.547 403.478" stroke="#724727" stroke-width="0.762854" stroke-miterlimit="10" stroke-linecap="round" stroke-linejoin="round"/>
<path d="M189.042 399.107C189.042 399.107 187.684 402.616 191.475 403.333" stroke="#724727" stroke-width="0.762854" stroke-miterlimit="10" stroke-linecap="round" stroke-linejoin="round"/>
<path d="M454 181C397.042 38.9165 221.5 -35 35.5005 40.5C290 -2.09808e-05 382.517 78.9028 430 181C462.323 250.5 438.583 366.047 378.5 388.5C318.418 410.952 319.189 369.195 248.002 405.314C176.815 441.433 173.385 403.85 126.213 421.909C88.4753 436.357 -12.6506 370.504 13.0002 403.85C28.5004 424 61.0002 444.462 116.35 453.972C251.539 477.197 322.572 451.178 378.5 421.909C440.698 389.359 499.5 294.5 454 181Z" fill="#D6DAE5" fill-opacity="0.8"/>
<path d="M35.1244 39.5734C34.6534 39.7646 34.4008 40.2787 34.5372 40.7683C34.6736 41.258 35.1556 41.5674 35.6576 41.4875C162.806 21.2538 249.34 30.8733 309.971 58.1878C370.569 85.4871 405.421 130.521 429.094 181.422C445.14 215.924 447.296 261.948 437.929 302.166C428.551 342.43 407.719 376.514 378.15 387.563C363.231 393.138 352.14 394.71 342.794 394.52C335.191 394.366 328.732 393.049 322.204 391.72C320.68 391.409 319.152 391.098 317.604 390.8C309.445 389.231 300.869 388.079 289.837 389.616C278.82 391.151 265.413 395.359 247.55 404.422C229.816 413.42 216.353 417.802 205.411 419.619C194.482 421.433 186.022 420.698 178.267 419.398C175.936 419.007 173.663 418.564 171.403 418.123C158.576 415.619 146.17 413.198 125.855 420.975C116.736 424.467 103.611 423.141 89.2398 419.524C74.922 415.92 59.599 410.107 46.2004 404.862C44.6646 404.26 43.1535 403.666 41.672 403.084C36.7021 401.13 32.0657 399.308 27.946 397.782C22.6108 395.806 18.0726 394.301 14.7525 393.654C13.1046 393.333 11.6579 393.202 10.5296 393.385C9.37483 393.571 8.32278 394.143 7.9871 395.383C7.69459 396.464 8.05223 397.761 8.73092 399.154C9.43286 400.595 10.587 402.353 12.2076 404.46C27.9118 424.875 60.68 445.422 116.18 454.957C183.867 466.586 235.54 465.894 277.32 458.611C319.105 451.327 350.946 437.458 378.964 422.795C441.573 390.03 500.637 294.648 454.929 180.628C397.726 37.9354 221.538 -36.0944 35.1244 39.5734Z" stroke="#A0A2AC" stroke-opacity="0.6" stroke-width="2" stroke-linejoin="round"/>
<path fill-rule="evenodd" clip-rule="evenodd" d="M67.5402 28.9177C56.9088 32.2924 46.222 36.1479 35.5005 40.4999C290 -4.49153e-05 382.517 78.9027 430 181C439.4 201.212 444.059 225.318 444.461 249.896C444.9 222.923 440.292 196.128 430 174C384.566 76.3068 297.898 -0.149753 67.5402 28.9177ZM11.1664 394.318C11.6843 395.089 12.2942 395.932 13.0002 396.85C28.5004 417 61.0002 437.462 116.35 446.972C251.539 470.197 322.572 444.178 378.5 414.909C424.568 390.801 468.773 332.511 470.115 257.782C471.513 335.862 425.997 397.053 378.5 421.909C322.572 451.178 251.539 477.197 116.35 453.972C61.0002 444.462 28.5004 424 13.0002 403.85C7.93715 397.268 7.81334 394.551 11.1664 394.318Z" fill="#9A9DA7" fill-opacity="0.6"/>
<path fill-rule="evenodd" clip-rule="evenodd" d="M18.6909 410.444C7.19233 395.246 23.1908 401.535 47.2989 411.012C74.5849 421.738 112.26 436.548 132.213 428.909C152.249 421.239 164.393 423.606 177.19 426.101C194.523 429.48 213.051 433.092 254.002 412.314C292.948 392.554 310.356 396.102 327.974 399.694C342.559 402.667 357.288 405.669 384.5 395.5C433.728 377.104 459.462 298.008 443.685 235.007C449.368 299.056 424.659 371.251 378.5 388.5C351.288 398.669 336.559 395.667 321.974 392.694C304.356 389.102 286.948 385.554 248.002 405.314C207.051 426.092 188.523 422.48 171.19 419.101C158.393 416.606 146.249 414.239 126.213 421.909C106.26 429.548 68.5849 414.738 41.2989 404.012C16.9791 394.451 0.911976 388.135 13.0002 403.85C14.692 406.049 16.5864 408.252 18.6909 410.444ZM35.5005 40.5C192.184 -23.0999 341.445 19.3274 418.653 119.214C339.579 24.896 192.034 -17.5172 41.9096 39.5C39.7847 39.8249 37.6484 40.1582 35.5005 40.5Z" fill="#FDFDFF" fill-opacity="0.6"/>
<mask id="path-65-outside-1_277_255032" maskUnits="userSpaceOnUse" x="365" y="299" width="77" height="84" fill="black">
<rect fill="white" x="365" y="299" width="77" height="84"/>
<path fill-rule="evenodd" clip-rule="evenodd" d="M427.914 333.791C428.451 333.211 428.957 332.621 429.429 332.02C440.429 318.02 445.429 302.02 429.429 301.02C413.429 300.02 363.485 336.82 377.429 346.52C379.666 348.077 382.586 349.009 385.917 349.397C372.287 360 362.148 372.455 369.429 377.52C380.929 385.52 410.429 377.02 421.429 363.02C430.53 351.436 435.524 338.483 427.914 333.791Z"/>
</mask>
<path fill-rule="evenodd" clip-rule="evenodd" d="M427.914 333.791C428.451 333.211 428.957 332.621 429.429 332.02C440.429 318.02 445.429 302.02 429.429 301.02C413.429 300.02 363.485 336.82 377.429 346.52C379.666 348.077 382.586 349.009 385.917 349.397C372.287 360 362.148 372.455 369.429 377.52C380.929 385.52 410.429 377.02 421.429 363.02C430.53 351.436 435.524 338.483 427.914 333.791Z" fill="#D6DAE5" fill-opacity="0.8"/>
<path d="M429.429 332.02L431.001 333.256L431.001 333.256L429.429 332.02ZM427.914 333.791L426.447 332.431L424.792 334.216L426.864 335.493L427.914 333.791ZM429.429 301.02L429.554 299.024L429.429 301.02ZM377.429 346.52L378.571 344.878L378.571 344.878L377.429 346.52ZM385.917 349.397L387.145 350.975L391.001 347.976L386.149 347.41L385.917 349.397ZM369.429 377.52L368.287 379.162L368.287 379.162L369.429 377.52ZM421.429 363.02L419.856 361.784L419.856 361.784L421.429 363.02ZM427.856 330.784C427.42 331.34 426.949 331.889 426.447 332.431L429.38 335.15C429.952 334.533 430.494 333.902 431.001 333.256L427.856 330.784ZM429.304 303.016C432.994 303.247 435.08 304.317 436.213 305.626C437.34 306.927 437.842 308.832 437.565 311.433C437.001 316.739 433.287 323.873 427.856 330.784L431.001 333.256C436.571 326.167 440.857 318.301 441.543 311.857C441.891 308.583 441.33 305.426 439.238 303.008C437.152 300.598 433.863 299.293 429.554 299.024L429.304 303.016ZM378.571 344.878C377.4 344.064 376.961 343.079 377.003 341.804C377.049 340.377 377.715 338.502 379.122 336.231C381.918 331.715 387.151 326.404 393.456 321.314C399.732 316.248 406.926 311.515 413.509 308.121C416.801 306.424 419.907 305.08 422.645 304.193C425.414 303.296 427.668 302.914 429.304 303.016L429.554 299.024C427.19 298.876 424.383 299.425 421.412 300.387C418.411 301.36 415.099 302.802 411.677 304.566C404.832 308.094 397.411 312.98 390.944 318.201C384.506 323.399 378.867 329.044 375.721 334.125C374.156 336.652 373.083 339.236 373.005 341.674C372.921 344.264 373.971 346.551 376.287 348.162L378.571 344.878ZM386.149 347.41C383.027 347.047 380.456 346.189 378.571 344.878L376.287 348.162C378.877 349.964 382.144 350.971 385.686 351.383L386.149 347.41ZM370.571 375.878C369.359 375.035 368.918 373.999 369.012 372.616C369.118 371.071 369.916 369.051 371.503 366.633C374.656 361.829 380.4 356.223 387.145 350.975L384.689 347.818C377.804 353.174 371.664 359.097 368.159 364.438C366.418 367.092 365.195 369.798 365.021 372.344C364.836 375.052 365.858 377.472 368.287 379.162L370.571 375.878ZM419.856 361.784C414.71 368.334 405.025 373.787 395.073 376.595C390.128 377.991 385.221 378.702 380.906 378.599C376.562 378.494 373.002 377.569 370.571 375.878L368.287 379.162C371.606 381.471 376.045 382.483 380.81 382.598C385.605 382.713 390.917 381.924 396.159 380.445C406.582 377.503 417.148 371.706 423.001 364.256L419.856 361.784ZM426.864 335.493C429.52 337.131 430.361 340.327 429.008 345.296C427.672 350.208 424.323 356.1 419.856 361.784L423.001 364.256C427.636 358.356 431.335 351.98 432.868 346.346C434.385 340.77 433.918 335.143 428.963 332.088L426.864 335.493Z" fill="#A0A2AC" fill-opacity="0.6" mask="url(#path-65-outside-1_277_255032)"/>
<path fill-rule="evenodd" clip-rule="evenodd" d="M427 327.079C425.341 329.684 423.698 332.137 422.03 334.394C422.688 334.254 423.345 334.123 424 334C425.615 333.697 426.972 333.567 428.096 333.592C428.566 333.076 429.011 332.552 429.429 332.02C438.594 320.355 443.594 307.301 435.751 302.693C438.831 307.565 433.572 316.754 427 327.079ZM431.638 340.949C429.725 345.626 425.104 352.004 420 358.5C409 372.5 380.5 384.5 369 376.5C368.351 376.049 367.812 375.56 367.378 375.039C367.757 375.989 368.429 376.824 369.429 377.52C380.929 385.52 410.429 377.02 421.429 363.02C427.473 355.327 431.706 347.029 431.638 340.949ZM385.796 349.382C386.547 348.91 387.314 348.441 388.093 347.978C384.167 346.856 379.84 345.068 375.025 342.526C375.167 344.118 375.928 345.476 377.429 346.52C379.639 348.058 382.514 348.986 385.796 349.382Z" fill="#9A9DA7" fill-opacity="0.6"/>
<path d="M118.5 43.5172C118.5 48.1963 111.197 53.7111 102.567 55.4869C96.498 56.7358 79 54.8844 79 50.2053C79 45.5262 89.2899 41.1174 98.2521 39.688C107.214 38.2586 118.5 38.8381 118.5 43.5172Z" fill="#D6DAE5" fill-opacity="0.8"/>
<path d="M102.769 56.4664C107.219 55.5508 111.341 53.6704 114.371 51.3898C117.344 49.1525 119.5 46.3446 119.5 43.5172C119.5 41.86 118.472 40.6699 117.096 39.8773C115.736 39.0945 113.9 38.6046 111.875 38.3215C107.808 37.7529 102.642 37.9752 98.0946 38.7005C93.5299 39.4285 88.6147 40.9153 84.8143 42.8355C82.9166 43.7943 81.2505 44.8843 80.0443 46.0784C78.8482 47.2625 78 48.6563 78 50.2053C78 51.1304 78.4394 51.9097 79.0526 52.5299C79.6578 53.1422 80.4811 53.6536 81.405 54.0859C83.2563 54.9523 85.7324 55.602 88.3365 56.0544C93.5276 56.9561 99.5597 57.1267 102.769 56.4664Z" stroke="#A0A2AC" stroke-opacity="0.6" stroke-width="2"/>
<path fill-rule="evenodd" clip-rule="evenodd" d="M117.507 41.3992C114.732 44.7988 109.367 47.9048 103.368 49.1748C97.9493 50.3222 82.7468 51.9507 79.2314 48.9761C79.0795 49.3825 78.9995 49.7929 78.9995 50.2053C78.9995 54.8844 96.4975 56.7358 102.567 55.4869C111.197 53.7111 118.5 48.1963 118.5 43.5172C118.5 42.6856 118.143 41.9835 117.507 41.3992Z" fill="#9A9DA7" fill-opacity="0.6"/>
<path d="M89.5 50.5172C89.5 55.1963 78.6849 60.7111 65.9034 62.4869C56.9147 63.7358 31 61.8844 31 57.2053C31 52.5262 46.2395 48.1174 59.5126 46.688C72.7857 45.2586 89.5 45.8381 89.5 50.5172Z" fill="#D6DAE5" fill-opacity="0.8"/>
<path d="M66.041 63.4774C72.5224 62.5769 78.5314 60.7262 82.9477 58.4823C85.1529 57.3619 87.0017 56.1229 88.3143 54.822C89.6097 53.5383 90.5 52.0746 90.5 50.5172C90.5 49.5979 90.078 48.83 89.4462 48.2272C88.8317 47.6407 87.9936 47.1813 87.0434 46.8119C85.1407 46.0719 82.5285 45.5949 79.5777 45.3163C73.6547 44.7572 66.0877 44.9741 59.4055 45.6937C52.7129 46.4145 45.5098 47.8869 39.956 49.7816C37.1855 50.7267 34.7729 51.7945 33.0328 52.9577C31.3632 54.0737 30 55.4882 30 57.2053C30 58.2941 30.7523 59.0962 31.5671 59.6527C32.4114 60.2294 33.566 60.7159 34.8883 61.1337C37.5468 61.9738 41.1394 62.6137 44.9644 63.0623C52.6066 63.9586 61.4273 64.1185 66.041 63.4774Z" stroke="#A0A2AC" stroke-opacity="0.6" stroke-width="2"/>
<path fill-rule="evenodd" clip-rule="evenodd" d="M31.4023 55.8731C31.1388 56.3132 30.9995 56.758 30.9995 57.2054C30.9995 61.8845 56.9142 63.7358 65.9029 62.487C78.6844 60.7111 89.4995 55.1963 89.4995 50.5172C89.4995 49.6109 88.8724 48.8584 87.7648 48.2445C83.7609 51.7043 75.8047 54.8855 66.893 56.1748C58.8727 57.3352 36.2088 58.9876 31.4023 55.8731Z" fill="#9A9DA7" fill-opacity="0.6"/>
<defs>
<linearGradient id="paint0_linear_277_255032" x1="252.565" y1="106.763" x2="246.374" y2="422.492" gradientUnits="userSpaceOnUse">
<stop stop-color="#DFDFDF"/>
<stop offset="1" stop-color="#DFDFDF" stop-opacity="0"/>
</linearGradient>
<linearGradient id="paint1_linear_277_255032" x1="231.672" y1="372.013" x2="237.863" y2="456.779" gradientUnits="userSpaceOnUse">
<stop stop-color="#E7C4A7"/>
<stop offset="1" stop-color="#E7C4A7" stop-opacity="0"/>
</linearGradient>
<clipPath id="clip0_277_255032">
<rect width="262.333" height="330.492" fill="white" transform="matrix(-1 0 0 1 374 92)"/>
</clipPath>
</defs>
</svg>
