<svg width="666" height="276" viewBox="0 0 666 276" fill="none" xmlns="http://www.w3.org/2000/svg">
<g filter="url(#filter0_i_334_3570)">
<circle cx="326.5" cy="128.5" r="128.5" fill="#FFDAA4"/>
</g>
<circle cx="326.5" cy="128.5" r="126.5" stroke="#CEB075" stroke-width="4"/>
<ellipse cx="404.079" cy="82.9674" rx="26.7799" ry="52.0119" transform="rotate(-26.1855 404.079 82.9674)" fill="#DDC391"/>
<path fill-rule="evenodd" clip-rule="evenodd" d="M423.971 129.642C437.243 123.115 437.727 96.9277 425.051 71.1504C414.749 50.2018 398.927 35.9709 386.237 34.8774C399.349 33.6784 416.962 48.4811 428.109 71.1504C440.785 96.9277 440.302 123.115 427.03 129.642C424.543 130.864 421.785 131.31 418.86 131.058C420.658 130.894 422.371 130.429 423.971 129.642Z" fill="#CEB075"/>
<ellipse cx="235.118" cy="159.511" rx="14.3095" ry="37.8069" transform="rotate(-20.2888 235.118 159.511)" fill="#DDC391"/>
<path fill-rule="evenodd" clip-rule="evenodd" d="M246.491 193.235C253.904 190.495 254.044 172.397 246.804 152.812C242.943 142.37 237.764 133.613 232.646 128.128C238.309 133.386 244.241 142.922 248.539 154.549C255.78 174.133 255.64 192.231 248.227 194.972C244.767 196.251 240.334 193.958 235.853 189.156C239.73 192.755 243.479 194.349 246.491 193.235Z" fill="#CEB075"/>
<ellipse cx="275.405" cy="82.5539" rx="19.1508" ry="24.355" transform="rotate(28.5067 275.405 82.5539)" fill="#DDC391"/>
<path fill-rule="evenodd" clip-rule="evenodd" d="M275.031 105.443C281.646 104.07 288.193 99.1367 292.235 91.6945C298.654 79.8744 296.324 66.2001 287.029 61.1523C282.221 58.5409 276.491 58.7497 271.191 61.1961C275.083 60.3883 278.998 60.8123 282.44 62.6819C291.735 67.7298 294.065 81.404 287.646 93.2242C284.547 98.9296 279.976 103.16 275.031 105.443Z" fill="#CEB075"/>
<ellipse cx="294.028" cy="121.826" rx="12.1214" ry="15.4153" transform="rotate(28.5067 294.028 121.826)" fill="#DDC391"/>
<path fill-rule="evenodd" clip-rule="evenodd" d="M289.926 136.451C294.38 135.836 298.896 132.622 301.618 127.611C305.681 120.129 304.206 111.474 298.323 108.279C297.293 107.72 296.196 107.365 295.065 107.2C297.26 106.896 299.44 107.224 301.382 108.279C307.265 111.474 308.74 120.129 304.677 127.611C301.325 133.782 295.252 137.227 289.926 136.451Z" fill="#CEB075"/>
<ellipse cx="405.237" cy="168.081" rx="12.1485" ry="25.2484" transform="rotate(9.07392 405.237 168.081)" fill="#DDC391"/>
<mask id="path-12-outside-1_334_3570" maskUnits="userSpaceOnUse" x="0" y="199" width="486" height="77" fill="black">
<rect fill="white" y="199" width="486" height="77"/>
<path fill-rule="evenodd" clip-rule="evenodd" d="M4.89924 220.406C38.2551 202.089 184.764 187.925 254.9 220.406C305.439 243.811 435.83 246.41 455.709 243.811C481.653 240.419 500.521 247.881 462.448 253.309C431.989 257.65 303.979 268.912 243.781 274C212.394 274 199.361 263.995 185.137 253.075C170.197 241.605 153.943 229.126 113.727 226.172C77.2478 223.493 47.8982 225.281 28.4503 226.466C6.04596 227.831 -3.21718 228.396 4.89924 220.406ZM222.12 236C228.981 236 236.446 236.184 246.206 239.384C251.775 241.21 255.844 243.676 259.427 245.848C263.691 248.433 267.265 250.599 271.855 250.766C280.3 251.074 262.158 256.081 246.206 253.005C230.253 249.928 220.813 236 222.12 236Z"/>
</mask>
<g filter="url(#filter1_ii_334_3570)">
<path fill-rule="evenodd" clip-rule="evenodd" d="M4.89924 220.406C38.2551 202.089 184.764 187.925 254.9 220.406C305.439 243.811 435.83 246.41 455.709 243.811C481.653 240.419 500.521 247.881 462.448 253.309C431.989 257.65 303.979 268.912 243.781 274C212.394 274 199.361 263.995 185.137 253.075C170.197 241.605 153.943 229.126 113.727 226.172C77.2478 223.493 47.8982 225.281 28.4503 226.466C6.04596 227.831 -3.21718 228.396 4.89924 220.406ZM222.12 236C228.981 236 236.446 236.184 246.206 239.384C251.775 241.21 255.844 243.676 259.427 245.848C263.691 248.433 267.265 250.599 271.855 250.766C280.3 251.074 262.158 256.081 246.206 253.005C230.253 249.928 220.813 236 222.12 236Z" fill="#D6DAE5" fill-opacity="0.8"/>
</g>
<path d="M254.9 220.406L255.74 218.591L255.74 218.591L254.9 220.406ZM4.89924 220.406L3.93656 218.653L3.69368 218.786L3.4962 218.981L4.89924 220.406ZM455.709 243.811L455.45 241.828L455.45 241.828L455.709 243.811ZM462.448 253.309L462.73 255.289L462.73 255.289L462.448 253.309ZM243.781 274V276H243.866L243.95 275.993L243.781 274ZM185.137 253.075L186.355 251.488L186.355 251.488L185.137 253.075ZM113.727 226.172L113.874 224.178L113.874 224.178L113.727 226.172ZM28.4503 226.466L28.3287 224.47L28.4503 226.466ZM246.206 239.384L245.583 241.284L245.583 241.284L246.206 239.384ZM222.12 236L222.12 234L222.12 234L222.12 236ZM259.427 245.848L260.463 244.138L260.463 244.138L259.427 245.848ZM271.855 250.766L271.927 248.767L271.927 248.767L271.855 250.766ZM246.206 253.005L245.827 254.968L245.827 254.968L246.206 253.005ZM255.74 218.591C220.226 202.144 165.668 197.585 116.036 199.358C91.1725 200.246 67.4487 202.727 47.8282 206.141C28.2825 209.541 12.5872 213.903 3.93656 218.653L5.86191 222.159C13.8892 217.751 29.016 213.473 48.5138 210.081C67.9367 206.702 91.4778 204.238 116.178 203.356C165.673 201.588 219.438 206.187 254.06 222.221L255.74 218.591ZM455.45 241.828C445.736 243.098 408.352 243.116 366.959 239.866C325.532 236.614 280.642 230.123 255.74 218.591L254.06 222.221C279.697 234.094 325.273 240.606 366.646 243.854C408.052 247.105 445.803 247.123 455.968 245.794L455.45 241.828ZM462.73 255.289C472.271 253.929 478.466 252.416 481.916 250.886C482.792 250.498 483.554 250.081 484.17 249.626C484.768 249.183 485.357 248.61 485.702 247.864C486.088 247.032 486.108 246.105 485.711 245.252C485.357 244.491 484.75 243.957 484.189 243.585C483.073 242.846 481.478 242.322 479.702 241.939C477.877 241.546 475.668 241.263 473.188 241.105C468.225 240.788 462.052 240.965 455.45 241.828L455.968 245.794C462.338 244.961 468.252 244.798 472.934 245.097C475.276 245.246 477.279 245.509 478.86 245.85C480.49 246.201 481.496 246.599 481.98 246.92C482.219 247.079 482.163 247.108 482.084 246.94C481.963 246.68 481.985 246.373 482.072 246.184C482.12 246.081 482.113 246.172 481.791 246.41C481.488 246.634 481.008 246.913 480.294 247.23C477.385 248.52 471.661 249.975 462.165 251.329L462.73 255.289ZM243.95 275.993C304.109 270.908 432.199 259.641 462.73 255.289L462.165 251.329C431.78 255.66 303.849 266.916 243.613 272.007L243.95 275.993ZM183.919 254.661C191.014 260.108 198.012 265.49 207.231 269.469C216.481 273.46 227.863 276 243.781 276V272C228.313 272 217.485 269.537 208.816 265.796C200.116 262.042 193.484 256.961 186.355 251.488L183.919 254.661ZM113.581 228.167C133.495 229.63 147.379 233.442 158.091 238.255C168.813 243.071 176.448 248.925 183.919 254.661L186.355 251.488C178.886 245.754 170.924 239.634 159.73 234.606C148.526 229.573 134.174 225.669 113.874 224.178L113.581 228.167ZM28.572 228.462C48.0074 227.278 77.2437 225.498 113.581 228.167L113.874 224.178C77.2518 221.488 47.789 223.284 28.3287 224.47L28.572 228.462ZM3.4962 218.981C2.43305 220.027 1.5733 221.011 0.979414 221.935C0.409096 222.823 -0.0757032 223.899 0.00974865 225.062C0.106825 226.383 0.888815 227.319 1.82726 227.897C2.69256 228.43 3.7781 228.729 4.89913 228.917C7.16425 229.296 10.3454 229.338 14.2389 229.218C18.1678 229.097 22.9815 228.803 28.572 228.462L28.3287 224.47C22.7169 224.812 17.9711 225.101 14.1156 225.22C10.2246 225.34 7.3965 225.279 5.55985 224.972C4.62999 224.816 4.14152 224.625 3.92627 224.492C3.78415 224.404 3.97903 224.497 3.99899 224.769C4.00733 224.882 3.95541 224.703 4.34453 224.098C4.71008 223.529 5.33632 222.782 6.30228 221.831L3.4962 218.981ZM246.829 237.483C236.768 234.185 229.051 234 222.12 234L222.12 238C228.91 238 236.125 238.184 245.583 241.284L246.829 237.483ZM260.463 244.138C256.877 241.964 252.636 239.387 246.829 237.483L245.583 241.284C250.913 243.032 254.811 245.389 258.39 247.558L260.463 244.138ZM271.927 248.767C267.94 248.622 264.805 246.769 260.463 244.138L258.39 247.558C262.578 250.097 266.589 252.576 271.782 252.765L271.927 248.767ZM245.827 254.968C254.096 256.563 262.867 256.06 268.506 255.127C269.924 254.893 271.171 254.627 272.184 254.35C273.141 254.088 274.057 253.774 274.694 253.386C274.866 253.281 275.075 253.137 275.273 252.946C275.457 252.768 275.743 252.441 275.897 251.954C276.077 251.388 276.024 250.758 275.711 250.211C275.441 249.739 275.061 249.475 274.823 249.34C274.361 249.076 273.839 248.964 273.452 248.901C273.015 248.831 272.502 248.788 271.927 248.767L271.782 252.765C272.262 252.782 272.598 252.815 272.815 252.85C273.082 252.893 273.021 252.917 272.84 252.814C272.743 252.758 272.459 252.581 272.241 252.201C271.98 251.745 271.937 251.212 272.084 250.747C272.206 250.361 272.419 250.141 272.49 250.072C272.575 249.99 272.631 249.959 272.612 249.97C272.487 250.047 272.035 250.244 271.13 250.491C270.28 250.723 269.172 250.963 267.853 251.181C262.544 252.059 254.268 252.522 246.584 251.041L245.827 254.968ZM222.12 234C221.597 234 220.911 234.203 220.434 234.834C220.032 235.365 219.997 235.922 220 236.181C220.006 236.694 220.183 237.147 220.284 237.386C220.528 237.961 220.943 238.649 221.452 239.373C222.492 240.855 224.145 242.799 226.334 244.819C230.706 248.852 237.379 253.339 245.827 254.968L246.584 251.041C239.08 249.593 233.056 245.578 229.047 241.879C227.045 240.032 225.586 238.301 224.726 237.075C224.283 236.445 224.051 236.022 223.967 235.823C223.904 235.675 223.996 235.826 224 236.134C224.002 236.29 223.986 236.768 223.624 237.247C223.187 237.824 222.562 238 222.12 238L222.12 234Z" fill="#A0A2AC" fill-opacity="0.6" mask="url(#path-12-outside-1_334_3570)"/>
<g filter="url(#filter2_ii_334_3570)">
<path d="M189 249.554C189 257.562 178 267 165 270.039C155.858 272.177 129.5 269.008 129.5 261C129.5 252.992 145 245.446 158.5 243C172 240.554 189 241.545 189 249.554Z" fill="#D6DAE5" fill-opacity="0.8"/>
</g>
<path d="M165.228 271.013C171.88 269.458 178.025 266.267 182.525 262.42C186.987 258.605 190 253.99 190 249.554C190 247.127 188.685 245.282 186.68 243.97C184.707 242.679 182.002 241.85 178.969 241.369C172.89 240.403 165.146 240.779 158.322 242.016C151.477 243.256 144.115 245.789 138.44 249.047C135.603 250.676 133.145 252.509 131.385 254.489C129.629 256.464 128.5 258.665 128.5 261C128.5 263.603 130.625 265.557 133.292 266.974C136.029 268.43 139.718 269.534 143.628 270.305C151.425 271.844 160.46 272.128 165.228 271.013Z" stroke="#A0A2AC" stroke-opacity="0.6" stroke-width="2"/>
<defs>
<filter id="filter0_i_334_3570" x="198" y="0" width="257" height="257" filterUnits="userSpaceOnUse" color-interpolation-filters="sRGB">
<feFlood flood-opacity="0" result="BackgroundImageFix"/>
<feBlend mode="normal" in="SourceGraphic" in2="BackgroundImageFix" result="shape"/>
<feColorMatrix in="SourceAlpha" type="matrix" values="0 0 0 0 0 0 0 0 0 0 0 0 0 0 0 0 0 0 127 0" result="hardAlpha"/>
<feOffset dx="9" dy="-10"/>
<feComposite in2="hardAlpha" operator="arithmetic" k2="-1" k3="1"/>
<feColorMatrix type="matrix" values="0 0 0 0 0 0 0 0 0 0 0 0 0 0 0 0 0 0 0.1 0"/>
<feBlend mode="normal" in2="shape" result="effect1_innerShadow_334_3570"/>
</filter>
<filter id="filter1_ii_334_3570" x="0" y="199" width="486" height="77" filterUnits="userSpaceOnUse" color-interpolation-filters="sRGB">
<feFlood flood-opacity="0" result="BackgroundImageFix"/>
<feBlend mode="normal" in="SourceGraphic" in2="BackgroundImageFix" result="shape"/>
<feColorMatrix in="SourceAlpha" type="matrix" values="0 0 0 0 0 0 0 0 0 0 0 0 0 0 0 0 0 0 127 0" result="hardAlpha"/>
<feOffset dx="2" dy="-6"/>
<feComposite in2="hardAlpha" operator="arithmetic" k2="-1" k3="1"/>
<feColorMatrix type="matrix" values="0 0 0 0 0 0 0 0 0 0 0 0 0 0 0 0 0 0 0.25 0"/>
<feBlend mode="normal" in2="shape" result="effect1_innerShadow_334_3570"/>
<feColorMatrix in="SourceAlpha" type="matrix" values="0 0 0 0 0 0 0 0 0 0 0 0 0 0 0 0 0 0 127 0" result="hardAlpha"/>
<feOffset dy="4"/>
<feComposite in2="hardAlpha" operator="arithmetic" k2="-1" k3="1"/>
<feColorMatrix type="matrix" values="0 0 0 0 1 0 0 0 0 1 0 0 0 0 1 0 0 0 0.25 0"/>
<feBlend mode="normal" in2="effect1_innerShadow_334_3570" result="effect2_innerShadow_334_3570"/>
</filter>
<filter id="filter2_ii_334_3570" x="127.5" y="239.823" width="63.5" height="32.8665" filterUnits="userSpaceOnUse" color-interpolation-filters="sRGB">
<feFlood flood-opacity="0" result="BackgroundImageFix"/>
<feBlend mode="normal" in="SourceGraphic" in2="BackgroundImageFix" result="shape"/>
<feColorMatrix in="SourceAlpha" type="matrix" values="0 0 0 0 0 0 0 0 0 0 0 0 0 0 0 0 0 0 127 0" result="hardAlpha"/>
<feOffset dx="2" dy="-6"/>
<feComposite in2="hardAlpha" operator="arithmetic" k2="-1" k3="1"/>
<feColorMatrix type="matrix" values="0 0 0 0 0 0 0 0 0 0 0 0 0 0 0 0 0 0 0.25 0"/>
<feBlend mode="normal" in2="shape" result="effect1_innerShadow_334_3570"/>
<feColorMatrix in="SourceAlpha" type="matrix" values="0 0 0 0 0 0 0 0 0 0 0 0 0 0 0 0 0 0 127 0" result="hardAlpha"/>
<feOffset dy="4"/>
<feComposite in2="hardAlpha" operator="arithmetic" k2="-1" k3="1"/>
<feColorMatrix type="matrix" values="0 0 0 0 1 0 0 0 0 1 0 0 0 0 1 0 0 0 0.25 0"/>
<feBlend mode="normal" in2="effect1_innerShadow_334_3570" result="effect2_innerShadow_334_3570"/>
</filter>
</defs>
</svg>
