<svg width="220" height="220" viewBox="0 0 220 220" fill="none" xmlns="http://www.w3.org/2000/svg">
<g clip-path="url(#clip0_100_15419)">
<rect width="220" height="220" rx="10" fill="#FFD2EA"/>
<path d="M168.952 220.237L48.9884 219.987C48.8784 219.987 48.7726 219.936 48.705 219.852C48.6373 219.767 48.6076 219.653 48.633 219.547C62.1503 157.867 79.5811 149.24 80.3173 148.902C80.3596 148.881 80.4103 148.868 80.4569 148.868L142.67 147.133C142.704 147.129 142.759 147.138 142.797 147.155C143.068 147.248 149.478 149.642 155.663 166.959C162.106 184.995 168.368 212.042 169.316 219.831C169.328 219.936 169.295 220.038 169.227 220.114C169.155 220.19 169.053 220.237 168.952 220.237ZM49.4369 219.264L168.537 219.509C167.437 211.251 161.294 184.889 154.978 167.2C149.236 151.127 143.246 148.14 142.611 147.861L80.5584 149.591C79.4076 150.209 62.4423 160.24 49.4369 219.264Z" fill="#002636"/>
<path d="M168.952 219.873C167.962 211.695 161.514 184.428 155.32 167.077C149.122 149.727 142.679 147.497 142.679 147.497L80.4652 149.232C80.4652 149.232 62.6198 157.41 48.9883 219.623L168.952 219.873Z" fill="#DFDFDF"/>
<path d="M168.266 215.02C167.986 213.408 167.673 211.809 167.356 210.206C166.709 207.003 166.023 203.809 165.279 200.627C163.781 194.268 162.161 187.939 160.388 181.648C159.474 178.509 158.548 175.374 157.536 172.264C156.542 169.15 155.476 166.053 154.241 163.007C153.001 159.97 151.584 156.987 149.798 154.199C148.914 152.803 147.92 151.47 146.811 150.226C146.249 149.608 145.665 149.012 145.013 148.475C144.353 147.929 143.714 147.434 142.826 147.053C142.784 147.036 142.737 147.023 142.686 147.028H142.661C132.291 147.315 121.926 147.734 111.561 148.085C106.378 148.276 101.195 148.449 96.0083 148.602C90.8256 148.758 85.6429 148.94 80.456 149.046H80.4475C80.4263 149.046 80.4052 149.05 80.384 149.063C79.631 149.469 78.971 149.955 78.3279 150.48L77.3844 151.284C77.084 151.563 76.7964 151.859 76.5002 152.147C76.2125 152.439 75.9037 152.718 75.6329 153.023L74.8206 153.949L74.0083 154.876C73.746 155.193 73.5048 155.523 73.251 155.845C72.756 156.5 72.2398 157.139 71.7617 157.803L70.3867 159.843L69.6971 160.862C69.4771 161.209 69.274 161.565 69.0625 161.916L67.806 164.031C64.5567 169.73 61.8998 175.738 59.4883 181.826C58.896 183.353 58.3714 184.906 57.8087 186.442L56.9752 188.752L56.5606 189.907L56.1883 191.078L54.7075 195.762C54.2125 197.323 53.709 198.88 53.2944 200.467L51.9871 205.201C51.564 206.783 51.0944 208.353 50.739 209.952L48.4629 219.509C48.4544 219.547 48.4502 219.59 48.4502 219.628C48.4502 219.915 48.6829 220.152 48.9706 220.157H48.9833C55.9471 220.03 64.1464 220.148 79.0894 220.241C89.1164 220.305 99.1729 220.275 109.17 220.203L168.989 219.907C168.82 218.24 168.549 216.624 168.266 215.02ZM108.764 219.293C98.771 219.179 88.8287 219.183 78.8652 219.128C69.126 219.078 59.3994 219.082 49.656 219.09L51.7248 210.197C52.0717 208.602 52.5287 207.033 52.9433 205.455L54.1998 200.72C54.5933 199.134 55.0798 197.577 55.5579 196.016L56.9794 191.332L57.3348 190.16L57.7367 189.005L58.5406 186.695C59.0821 185.155 59.594 183.607 60.1652 182.08C62.4921 175.987 65.1787 170.149 68.3729 164.458L69.604 162.347C69.8114 161.996 70.0102 161.641 70.226 161.294L72.3837 158.387C72.8533 157.723 73.6402 156.856 74.1267 156.204C74.3764 155.883 74.6133 155.548 74.8714 155.235L75.671 154.313L76.4706 153.391C76.7414 153.086 77.0375 152.811 77.321 152.519C77.6087 152.236 77.8921 151.94 78.184 151.66L79.1021 150.865C79.7198 150.349 80.6167 150.057 81.2979 149.68L81.6067 149.545C86.7894 149.363 90.8552 149.126 96.0379 148.991C101.221 148.855 106.408 148.737 111.594 148.64C121.93 148.415 132.296 148.149 142.627 147.861C143.228 148.132 143.858 148.712 144.425 149.198C145.03 149.702 145.589 150.277 146.122 150.869C147.175 152.067 148.136 153.365 148.994 154.728C150.738 157.44 152.163 160.367 153.399 163.363C154.634 166.362 155.713 169.434 156.724 172.535C157.752 175.628 158.696 178.75 159.622 181.872C161.471 188.125 163.184 194.425 164.767 200.754C165.541 203.923 166.332 207.088 167.043 210.273C167.754 213.438 168.426 216.692 168.926 219.835L108.764 219.293Z" fill="#002636"/>
<path d="M78.4297 151.529C78.4297 151.529 94.9255 160.202 117.865 159.927C117.865 159.927 130.705 160.765 144.459 149.232C144.459 149.232 143.592 148.339 142.61 147.861C141.62 147.383 83.6208 148.868 81.7593 149.448C79.8978 150.032 78.4297 151.529 78.4297 151.529Z" fill="#BDC5C9"/>
<path d="M84.7676 150.438C84.7676 150.438 104.225 157.913 119.282 155.967C134.34 154.021 141.71 147.979 141.71 147.979L126.449 152.485L119.176 154.33L108.925 154.008L99.3087 153.103L84.7676 150.438Z" fill="#A2A8AA"/>
<path d="M34.3622 79.915C34.3622 79.915 46.4243 48.3535 94.1812 44.0593C141.938 39.7651 166.722 77.77 166.062 105.693C165.402 133.616 157.469 145.187 124.258 153.281C124.258 153.281 120.374 153.941 117.4 154.068C114.425 154.19 63.8635 155.68 52.707 125.937C52.707 125.937 46.0985 106.852 54.8562 89.6669C54.8562 89.6669 60.7243 78.595 56.6754 76.2808C50.985 73.0316 28.0837 97.4304 34.3622 79.915Z" fill="#DFDFDF"/>
<path d="M34.3116 79.8938C35.327 77.478 36.6597 75.2188 38.1235 73.0526C39.5916 70.8907 41.2162 68.8346 42.972 66.9011C46.5005 63.0469 50.4901 59.6072 54.8393 56.7007C56.997 55.2157 59.2816 53.938 61.5874 52.6984C63.9228 51.518 66.2962 50.4053 68.7416 49.4619C73.6155 47.5496 78.6755 46.0984 83.8159 45.0915C88.9605 44.1057 94.1728 43.4753 99.4232 43.2934C104.669 43.1157 109.941 43.5134 115.102 44.5076C120.26 45.5061 125.311 47.1011 130.062 49.3561C134.814 51.5942 139.277 54.4372 143.317 57.7838C151.373 64.5107 157.698 73.2346 161.696 82.9019C162.216 84.1034 162.631 85.343 163.088 86.5699C163.473 87.8222 163.917 89.0534 164.226 90.3269C164.937 92.8442 165.432 95.4207 165.808 98.0099C166.168 100.603 166.29 103.226 166.265 105.845C166.206 108.456 166.079 111.07 165.85 113.676C165.385 118.876 164.463 124.101 162.47 128.983C161.472 131.416 160.198 133.747 158.612 135.854C157.034 137.97 155.168 139.861 153.12 141.519C149.008 144.832 144.252 147.226 139.374 149.122C134.492 151.047 122.798 155.079 113.994 154.22C110.533 154.207 107.077 154.034 103.629 153.742C96.7366 153.141 89.8701 152.024 83.1982 150.095C76.5516 148.145 70.0193 145.809 64.3543 141.697C61.5366 139.636 58.9728 137.204 56.8405 134.424C54.7082 131.64 53.0201 128.535 51.9032 125.176C50.067 118.453 49.4324 111.426 50.1685 104.504C50.287 103.641 50.3293 102.774 50.5197 101.919L51.0062 99.3553C51.4632 97.6757 51.8524 95.9792 52.4997 94.363C53.0243 92.7046 53.8409 91.1561 54.5516 89.5738C55.3428 88.0592 56.0451 86.4938 56.6416 84.8903C57.2212 83.2869 57.7205 81.6326 57.8516 79.953C57.9109 79.1196 57.8558 78.2607 57.5301 77.5246C57.2043 76.7926 56.5189 76.2426 55.7108 76.1792C54.8985 76.103 54.0566 76.3103 53.257 76.5769C52.4532 76.8476 51.6705 77.1988 50.9047 77.5838C49.3732 78.3538 47.8924 79.2338 46.4328 80.1476C43.5051 81.9542 40.6831 83.9553 37.5862 85.5038C36.8035 85.8719 36.0039 86.2272 35.1281 86.3499C34.7008 86.4007 34.2143 86.4007 33.8335 86.1172C33.4443 85.8465 33.3004 85.3726 33.2539 84.9411C33.165 84.0611 33.3554 83.2022 33.5543 82.3646C33.7489 81.5311 34.0197 80.7103 34.3116 79.8938ZM34.4131 79.9319C34.1297 80.7442 33.8631 81.5607 33.66 82.3942C33.4654 83.2234 33.2877 84.0822 33.3808 84.9242C33.4274 85.3346 33.5712 85.7619 33.9097 85.9946C34.2354 86.2399 34.6881 86.2442 35.0985 86.1934C35.9362 86.0707 36.7316 85.7153 37.5016 85.3472C40.5647 83.7903 43.3782 81.7722 46.2974 79.9446C47.757 79.0265 49.2209 78.1126 50.7609 77.313C51.5309 76.9153 52.3178 76.5472 53.1385 76.2553C53.9593 75.9676 54.8266 75.7307 55.7405 75.8026C56.6712 75.8534 57.5259 76.5134 57.9024 77.3469C58.2874 78.1846 58.3508 79.1069 58.3043 79.9826C58.1943 81.7469 57.7078 83.4349 57.1451 85.0765C56.5655 86.7138 55.8801 88.3088 55.1016 89.8615C54.4289 91.4311 53.6505 92.9584 53.1639 94.5999C52.5547 96.1992 52.1993 97.8745 51.7805 99.5288L51.3447 102.05C51.2601 102.469 51.2093 102.892 51.1712 103.32L51.0359 104.593C50.3801 111.388 51.0782 118.322 52.9397 124.867C54.0101 128.031 55.6516 131.069 57.712 133.747C59.7766 136.43 62.2643 138.79 65.0143 140.791C70.5355 144.79 76.9282 147.48 83.4859 149.393C90.0562 151.313 96.8551 152.456 103.688 153.082C107.106 153.386 110.537 153.573 113.964 153.598C115.682 153.606 117.391 153.606 119.079 153.45C120.776 153.298 122.481 153.069 124.165 152.798L124.131 152.807C129.182 151.567 134.213 150.201 139.061 148.335C143.91 146.499 148.614 144.185 152.672 140.973C154.694 139.37 156.534 137.534 158.1 135.478C159.674 133.43 160.939 131.15 161.937 128.763C163.93 123.974 164.882 118.804 165.377 113.634C165.622 111.045 165.766 108.443 165.842 105.837C165.884 103.239 165.779 100.637 165.44 98.0565C165.076 95.4842 164.628 92.9119 163.896 90.4157C163.583 89.1507 163.134 87.928 162.749 86.6884C162.292 85.4699 161.869 84.2388 161.349 83.0457C157.355 73.4334 150.945 64.8492 142.894 58.2957C134.826 51.7507 125.108 47.3507 114.925 45.4342C109.831 44.4653 104.631 44.1269 99.4485 44.2411C94.2658 44.3849 89.0832 44.973 83.9766 45.9165C73.7805 47.8034 63.7705 51.298 55.0424 57.0096C50.6678 59.8315 46.6401 63.1992 43.1201 67.0365C41.36 68.9572 39.727 70.9965 38.2504 73.1415C36.7781 75.2865 35.4327 77.5415 34.4131 79.9319Z" fill="#002636"/>
<path d="M37.586 74.6519C37.586 74.6519 36.0164 79.5003 37.0403 80.7273C38.0641 81.9542 53.7686 70.8273 61.2782 74.3092C61.2782 74.3092 61.6505 74.855 61.6886 76.2892C61.7224 77.6219 61.4516 79.9742 61.1089 82.0261C60.7663 84.0738 58.1051 90.8261 57.0474 94.9976C53.8405 107.626 52.6093 134.255 74.5247 146.135L72.0666 145.454L64.2143 141.219L57.0474 133.709L53.2228 127.426L51.924 122.853L50.4897 116.16L50.3543 110.22L50.697 103.188L51.7209 97.8619L53.2905 92.9457L55.1351 88.918L56.7724 85.7111L57.627 82.775L58.304 79.9869L57.8978 77.7234L56.9078 76.323L54.0055 76.048L52.2624 76.763L47.3843 79.1915L42.1595 82.5042L40.0103 83.803L36.7653 85.6138L34.616 85.9226L33.7953 85.068C33.7953 85.068 33.4526 83.088 33.5584 83.0203C33.6641 82.9526 34.5484 79.64 34.5484 79.64C34.5484 79.64 35.8134 77.385 35.881 77.2834C35.9487 77.1819 37.586 74.6519 37.586 74.6519Z" fill="#BDC5C9"/>
<path d="M54.0059 76.0524L55.8166 75.3374L58.0885 74.9862L60.4239 75.0158C60.4239 75.0158 61.0078 75.0877 60.9824 75.6547C60.957 76.2174 57.9362 82.4916 57.9362 82.4916L58.1393 80.317L57.9109 77.9097L56.9124 76.3316L55.3893 75.7139L54.0059 76.0524Z" fill="#A2A8AA"/>
<path d="M54.6361 75.4176C55.2707 75.2611 55.9096 75.1384 56.5526 75.0538C57.1957 74.9649 57.843 74.9142 58.4903 74.9057C59.1376 74.8845 59.7807 74.9395 60.4196 75.0115C59.7765 75.003 59.1376 75.0115 58.4988 75.0876C57.8642 75.1553 57.2338 75.2611 56.6161 75.4092C55.9984 75.553 55.3849 75.7265 54.7884 75.938C54.1961 76.1453 52.6434 76.6826 52.5546 76.5049C52.4657 76.3272 52.1611 76.378 54.6361 75.4176Z" fill="#002636"/>
<path d="M165.943 101.894C165.943 101.894 164.128 118.174 161.395 125.688C158.662 133.202 153.111 141.519 153.111 141.519L155.836 138.558L158.907 135.211L161.366 130.773L163.278 125.993L164.577 121.487L165.33 116.435L165.74 110.906L166.083 105.169L165.943 101.894Z" fill="#BDC5C9"/>
<path d="M52.4953 94.3672C52.4953 94.3672 50.253 106.501 52.711 118.893C55.1691 131.285 58.2406 135.689 58.2406 135.689L55.7318 132.156L53.223 127.426L51.3276 121.605L50.5068 115.305L50.3545 108.291L50.6972 103.188L52.4953 94.3672Z" fill="#A2A8AA"/>
<path d="M84.2512 219.01L84.2469 220.275L49.2627 220.156L50.0581 217.487L76.7415 217.449L84.2512 219.01Z" fill="#DFDFDF"/>
<path d="M56.5523 192.741C57.7031 190.609 53.0112 213.548 54.2381 220.169L49.2627 220.161C49.2627 220.157 55.4015 194.873 56.5523 192.741Z" fill="#BDC5C9"/>
<path d="M168.909 219.835L168.952 220.237L150.916 220.207L150.933 219.704L150.937 219.569L168.909 219.835Z" fill="#DFDFDF"/>
<path d="M143.461 166.32C143.461 166.32 146.418 170.102 149.079 179.524C151.741 188.946 154.266 211.953 154.677 219.124L154.689 220.224L150.894 220.203L150.581 218.68V215.198L150.378 207.177L149.832 199.498L148.91 190.998L147.374 182.397L145.906 175.399L144.607 170.005L143.461 166.32Z" fill="#BDC5C9"/>
<path d="M149.131 196.828C149.347 199.405 149.579 201.981 149.698 204.566C149.875 207.147 149.964 209.732 150.083 212.313C150.239 214.758 149.829 217.622 149.926 220.076L150.925 220.203C150.942 219.04 151.052 217.301 151.06 216.137C151.069 214.838 151.077 213.54 151.03 212.245L150.895 208.353C150.853 207.054 150.722 205.763 150.637 204.469C150.464 201.88 150.172 199.299 149.901 196.718C149.3 191.561 148.534 186.425 147.51 181.335C146.449 176.258 145.226 171.202 143.457 166.32C143.449 166.299 143.424 166.286 143.398 166.295C143.377 166.303 143.364 166.328 143.373 166.354C145.027 171.262 145.763 176.338 146.707 181.42C147.65 186.509 148.619 191.683 149.131 196.828Z" fill="#002636"/>
<path d="M85.3936 219.15V220.275L149.934 220.207L149.913 219.513L94.3712 218.122L85.3936 219.15Z" fill="#DFDFDF"/>
<path d="M91.9261 171.342C91.9261 171.342 93.4492 170.729 92.9034 174.278C92.3576 177.828 90.4707 209.22 91.0165 220.279H85.3938L84.9834 210.054L86.4853 190.664L87.6107 183.12L88.4569 178.539L89.8657 174.718L90.4242 173.339L91.1053 171.934L91.9261 171.342Z" fill="#C2CACC"/>
<path d="M85.3814 219.624C85.3814 219.416 85.3772 219.209 85.3814 219.002C85.4153 213.59 85.5126 208.175 85.8172 202.764C86.1345 197.357 86.3334 191.95 87.0315 186.581C87.3741 183.895 87.7845 181.217 88.4361 178.589C88.7618 177.278 89.1257 175.97 89.5911 174.701C89.8195 174.067 90.0861 173.445 90.3949 172.844C90.5515 172.548 90.7207 172.252 90.9195 171.985C91.1141 171.723 91.3468 171.444 91.6303 171.329L91.6472 171.321C91.6684 171.312 91.6811 171.287 91.6726 171.266C91.6641 171.245 91.6388 171.232 91.6176 171.24C91.258 171.372 91.0464 171.651 90.8307 171.917C90.6191 172.188 90.4415 172.48 90.2765 172.78C89.9507 173.381 89.6672 174.003 89.4261 174.638C88.9353 175.907 88.5376 177.21 88.1822 178.522C87.4714 181.145 87.0018 183.835 86.5999 186.518C85.813 191.895 85.2757 197.302 84.8738 202.717C84.4761 208.133 84.1799 213.565 84.2603 219.006C84.2645 219.209 84.273 219.416 84.2772 219.624H85.3814Z" fill="#002636"/>
<path opacity="0.32" d="M165.571 96.5674L163.088 86.5701L159.119 77.622L153.382 68.712L145.928 60.8681L139.865 55.2962L130.058 49.3562L121.123 46.3862L114.057 44.7489L109.243 44.1355L102.076 43.6235L95.2133 43.8266L83.8156 45.0958L77.8037 47.207C77.8037 47.207 99.1056 43.1116 115.902 47.8205C132.698 52.5335 150.619 67.8278 156.306 90.1874C156.306 90.1874 159.656 102.973 159.974 111.709C160.291 120.446 156.678 137.399 147.446 144.807L151.237 142.657L155.844 138.562L159.225 134.67L161.683 130.062L163.629 124.224L164.754 120.844L165.85 113.681L165.884 103.125L165.571 96.5674Z" fill="#BDC5C9"/>
<path d="M146.333 60.3138C136.831 51.4165 120.064 41.3007 94.1888 43.6319C69.4431 45.8573 54.4408 55.5246 46.2119 63.2457C37.2849 71.6184 34.1711 79.5849 34.1414 79.6653V79.6696C32.8511 83.2742 32.703 85.3134 33.6845 86.0919C35.288 87.3653 39.3791 84.7296 44.1134 81.6749C48.9069 78.5865 54.3477 75.0876 56.5688 76.3611C60.3427 78.5188 54.7031 89.2734 54.6438 89.3834C45.9327 106.476 52.4142 125.675 52.4819 125.874C62.4115 152.358 103.238 154.233 114.577 154.233C116.163 154.233 117.175 154.195 117.441 154.186C120.398 154.063 124.295 153.408 124.35 153.395C156.284 146.038 165.668 134.885 166.362 105.545C166.742 89.5653 159.068 72.2361 146.333 60.3138ZM165.82 105.532C165.46 120.729 162.96 129.728 157.189 136.595C151.169 143.757 141.002 148.775 124.244 152.858C124.206 152.866 120.343 153.518 117.42 153.64C115.254 153.733 64.18 155.506 52.9981 125.692C52.9304 125.501 46.525 106.522 55.1304 89.6373C55.3758 89.1761 61.0704 78.303 56.8438 75.8873C56.4377 75.6546 55.9638 75.553 55.4265 75.553C52.6173 75.553 48.6531 77.7826 44.3208 80.5749C40.1407 83.2657 35.8168 86.0496 34.5264 85.0215C34.0103 84.6111 33.7014 83.2699 35.1568 79.2126C35.3345 78.7557 47.3161 48.3999 94.2438 44.1776C119.929 41.8676 136.543 51.8946 145.969 60.7157C158.585 72.5323 166.192 89.705 165.82 105.532Z" fill="#002636"/>
<path d="M97.1932 95.5942C97.1932 95.5942 93.2121 85.6434 86.4725 84.755C79.3436 83.8157 68.864 105.262 69.1982 115.547C69.5452 126.276 86.9632 92.218 86.9632 92.218L97.1932 95.5942Z" fill="#A2A8AA"/>
<path d="M147.265 93.4705C147.265 93.4705 152.98 86.2444 157.27 86.4813C161.56 86.7182 162.593 95.2982 158.066 109.116L147.265 93.4705Z" fill="#A2A8AA"/>
<path d="M105.871 122.113C104.835 117.294 102.922 112.708 101.112 108.172C100.287 105.875 99.3939 103.599 98.3489 101.407C97.2993 99.2201 96.1485 97.0708 94.7016 95.1754C93.9993 94.2108 93.187 93.3477 92.3112 92.5947C91.4397 91.8374 90.4374 91.2662 89.3839 91.025C88.3516 90.7797 87.192 90.8812 86.1089 91.19C85.0258 91.5074 83.9893 92.0362 83.0458 92.7258C81.1589 94.1051 79.5808 95.9539 78.2227 97.9339C76.8604 99.9224 75.7054 102.063 74.6774 104.263C73.6577 106.467 72.7651 108.739 72.0162 111.054C71.6439 112.209 71.3054 113.376 71.0347 114.544C70.9077 115.136 70.7893 115.682 70.7597 116.253C70.7089 116.841 70.7216 117.412 70.7639 117.979C70.8527 119.109 71.2339 120.162 71.8601 121.076C72.4731 122.003 73.3743 122.747 74.3347 123.386C76.2935 124.651 78.595 125.447 80.9304 126.047C83.2658 126.644 85.6862 127.054 88.102 127.401C90.5178 127.748 92.9458 127.989 95.3658 128.057C96.5716 128.15 97.7816 128.197 98.9874 128.146C100.193 128.108 101.395 127.981 102.546 127.651C103.112 127.473 103.675 127.253 104.183 126.932C104.678 126.602 105.131 126.187 105.448 125.671C105.761 125.155 105.951 124.562 106.006 123.949C106.057 123.331 105.985 122.718 105.871 122.113ZM106.137 122.054C106.408 123.242 106.175 124.613 105.575 125.734C104.999 126.868 103.887 127.638 102.74 128.15C100.4 129.178 97.8328 129.411 95.3409 129.504C92.8362 129.462 90.3612 129.17 87.9032 128.835C85.4531 128.48 83.0077 128.07 80.5708 127.448C78.1508 126.822 75.727 126.001 73.5397 124.596C72.4651 123.881 71.4197 123.027 70.6624 121.893C69.8924 120.78 69.4227 119.439 69.317 118.11C69.262 117.45 69.2539 116.786 69.3089 116.147C69.3428 115.487 69.482 114.823 69.6131 114.214C69.8966 112.983 70.2477 111.785 70.6285 110.597C71.3943 108.223 72.3081 105.905 73.3531 103.641C74.4066 101.382 75.5997 99.1777 77.0212 97.1004C78.4427 95.0316 80.1012 93.0685 82.1954 91.537C84.277 90.0308 86.9635 89.007 89.7135 89.6035C91.0589 89.9208 92.417 90.2085 93.3985 91.0547C94.3885 91.9008 95.2685 92.8485 96.0174 93.8724C97.5574 95.8947 98.742 98.1158 99.8208 100.362C100.879 102.617 101.827 104.919 102.652 107.259C104.137 112.005 105.025 117.269 106.137 122.054Z" fill="#002636"/>
<path d="M105.871 122.113C105.871 122.113 99.1354 90.1409 88.2327 90.1409C77.33 90.1409 70.3873 112.12 70.0573 115.919C69.7273 119.718 70.3873 125.007 84.1034 127.486C97.8154 129.961 107.478 129.301 105.871 122.113Z" fill="#EFEFEF"/>
<path d="M96.2085 129.06C92.9381 129.06 88.8808 128.624 84.0535 127.752C70.7816 125.353 69.3939 120.412 69.7831 115.893C70.092 112.327 76.9162 89.8657 88.2335 89.8657C92.8831 89.8657 96.6696 95.5688 101.4 106.027C104.979 113.947 106.104 121.888 106.142 122.053C106.574 123.978 106.235 125.535 105.135 126.682C103.608 128.268 100.621 129.06 96.2085 129.06ZM88.2293 90.4115C77.8089 90.4115 70.6969 111.629 70.3246 115.94C69.9523 120.213 71.3062 124.892 84.1466 127.215C95.2946 129.229 101.865 128.763 104.378 126.145C105.36 125.125 105.643 123.771 105.25 122.011V122.007C105.182 121.69 99.242 89.9884 88.2293 90.4115Z" fill="#002636"/>
<path d="M136.231 123.272C136.231 123.272 143.296 91.5032 153.704 89.7686C164.116 88.034 158.104 119.126 147.303 124.677C141.19 127.816 135.821 128.311 136.231 123.272Z" fill="#EFEFEF"/>
<path d="M136.231 123.272C136.671 121.351 137.073 119.418 137.437 117.463C137.801 115.513 141.359 104.149 143.081 100.544C143.944 98.7462 144.892 96.9777 146.009 95.2897C147.13 93.6143 148.407 91.9939 150.07 90.6993C150.468 90.3566 150.95 90.1027 151.399 89.8193C151.636 89.6923 151.894 89.595 152.143 89.485L152.52 89.3243L152.922 89.2185C153.958 88.8927 155.189 88.8504 156.302 89.3412C157.419 89.832 158.202 90.7966 158.667 91.7654C159.158 92.747 159.416 93.775 159.585 94.7947C159.911 96.8381 159.877 98.8773 159.699 100.883C159.513 102.888 159.171 104.868 158.701 106.819C157.757 110.711 156.378 114.506 154.394 118.022C153.396 119.773 152.232 121.457 150.789 122.929C150.07 123.665 149.262 124.338 148.369 124.901C147.917 125.193 147.443 125.417 147.003 125.641C146.559 125.878 146.097 126.085 145.624 126.267C145.15 126.449 144.659 126.589 144.181 126.745C143.686 126.868 143.199 127.012 142.692 127.097C141.693 127.295 140.661 127.397 139.637 127.308C138.63 127.224 137.551 126.906 136.887 126.111C136.248 125.294 136.164 124.241 136.231 123.272ZM136.231 123.272C136.172 124.241 136.307 125.307 136.989 126.022C137.691 126.707 138.711 126.847 139.641 126.771C140.589 126.69 141.516 126.428 142.412 126.09C143.314 125.764 144.189 125.366 145.048 124.935C145.894 124.52 146.851 124.148 147.599 123.67C148.374 123.183 149.097 122.587 149.753 121.91C151.073 120.564 152.177 118.974 153.129 117.302C155.029 113.943 156.374 110.25 157.288 106.48C157.741 104.593 158.075 102.677 158.252 100.752C158.426 98.8308 158.447 96.8889 158.151 95.0358C157.999 94.1135 157.762 93.2081 157.364 92.4212C156.979 91.63 156.416 90.9827 155.71 90.6739C155.012 90.3608 154.136 90.3566 153.307 90.6274L152.994 90.7077L152.689 90.8389C152.49 90.932 152.283 91.0081 152.084 91.1097C151.703 91.355 151.301 91.5539 150.95 91.8627C149.495 92.9923 148.281 94.5027 147.214 96.102C146.152 97.7097 145.23 99.4273 144.388 101.183C142.713 104.703 141.325 108.38 140.115 112.107C138.732 115.771 137.086 119.413 136.231 123.272Z" fill="#002636"/>
<path d="M136.231 123.272C136.231 123.272 143.296 91.5032 153.704 89.7686C164.116 88.034 158.104 119.126 147.303 124.677C141.19 127.816 135.821 128.311 136.231 123.272Z" fill="#EFEFEF"/>
<path d="M139.679 127.317C138.693 127.317 137.873 127.114 137.263 126.707C136.265 126.039 135.829 124.875 135.96 123.247C135.96 123.234 135.964 123.221 135.964 123.209C135.981 123.128 137.771 115.153 140.809 107.072C144.917 96.1485 149.241 90.2339 153.662 89.4978C156.065 89.1001 157.804 90.3228 158.701 93.0347C159.983 96.9016 159.403 103.705 157.233 110.364C154.859 117.632 151.288 122.934 147.43 124.918C144.346 126.5 141.668 127.317 139.679 127.317ZM136.502 123.31C136.392 124.715 136.747 125.705 137.564 126.255C139.214 127.355 143.224 126.796 147.595 124.55C155.468 120.505 160.867 101.314 158.18 93.2082C157.368 90.7501 155.883 89.6797 153.746 90.0351C143.736 91.7062 136.709 122.405 136.502 123.31Z" fill="#002636"/>
<path d="M88.2286 90.1408C88.2286 90.1408 91.2874 90.0562 94.4266 93.6946C97.5659 97.3289 89.0578 128.56 84.0993 127.486C79.1409 126.411 68.7332 124.347 70.0532 115.919C71.3732 107.491 78.8109 90.1408 88.2286 90.1408Z" fill="#002636"/>
<path d="M148.792 92.8653C158.79 91.9557 150.489 123.369 145.323 125.666C137.458 129.161 137.061 120.048 137.061 120.048L137.226 119.574C142.679 98.0946 148.378 93.3645 148.378 93.3645L148.792 92.8653Z" fill="#002636"/>
<path d="M87.9961 93.7878C87.9961 93.7878 83.0926 108.49 76.958 106.836C76.958 106.836 82.0857 110.055 77.4149 122.976C77.4149 122.976 82.7499 108.934 87.9538 110.812C87.9538 110.812 82.5469 108.858 87.9961 93.7878Z" fill="#EFEFEF"/>
<path d="M91.3129 98.1792C91.3129 98.1792 90.2214 101.458 88.8506 101.09C88.8506 101.09 89.9929 101.809 88.9521 104.69C88.9521 104.69 90.141 101.56 91.3002 101.978C91.3002 101.978 90.0944 101.543 91.3129 98.1792Z" fill="#EFEFEF"/>
<path d="M151.347 101.395C151.347 101.395 150.577 104.2 149.574 104.005C149.574 104.005 150.416 104.509 149.68 106.979C149.68 106.979 150.522 104.289 151.372 104.542C151.372 104.542 150.488 104.28 151.347 101.395Z" fill="#EFEFEF"/>
<path d="M149.63 96.7195C149.63 96.7195 145.691 109.822 140.995 108.794C140.995 108.794 144.904 111.252 141.164 122.794C141.164 122.794 145.429 110.233 149.406 111.519C149.402 111.519 145.268 110.178 149.63 96.7195Z" fill="#EFEFEF"/>
<path d="M89.2901 115.665C89.2901 115.665 87.6232 120.67 85.7955 122.811C83.9678 124.956 81.5859 125.112 80.634 124.875C79.6821 124.638 81.3236 122.857 83.7309 121.203C86.2017 119.506 90.1321 112.153 89.2901 115.665Z" fill="#0D333D"/>
<path d="M148.872 116.435C148.872 116.435 148.107 120.137 146.986 121.817C145.864 123.496 144.181 123.809 143.483 123.721C142.784 123.632 143.804 122.223 145.378 120.844C146.998 119.431 149.177 113.863 148.872 116.435Z" fill="#0D333D"/>
<path d="M145.273 103.015C145.273 103.015 146.923 96.6688 149.321 95.1119C149.321 95.1119 149.554 94.8919 149.279 94.7608C149.017 94.6338 147.172 95.9284 145.89 98.01C144.608 100.092 144.266 102.596 144.346 102.952C144.426 103.307 144.672 103.654 144.892 103.578C145.112 103.51 145.273 103.015 145.273 103.015Z" fill="#0D333D"/>
<path d="M75.4735 113.88C75.8517 113.88 76.1584 113.573 76.1584 113.194C76.1584 112.816 75.8517 112.509 75.4735 112.509C75.0948 112.509 74.7881 112.816 74.7881 113.194C74.7881 113.573 75.0948 113.88 75.4735 113.88Z" fill="#EFEFEF"/>
<path d="M140.3 116.921C140.606 116.921 140.855 116.673 140.855 116.367C140.855 116.061 140.606 115.813 140.3 115.813C139.994 115.813 139.746 116.061 139.746 116.367C139.746 116.673 139.994 116.921 140.3 116.921Z" fill="#EFEFEF"/>
<path d="M134.437 126.035C134.437 126.035 135.36 129.314 140.068 128.696C140.068 128.696 136.485 131.463 134.843 130.642C133.206 129.825 134.437 126.035 134.437 126.035Z" fill="#CCD3D6"/>
<path d="M103.802 129.648C103.802 129.648 107.208 129.656 107.901 124.956C107.901 124.956 109.581 129.157 108.346 130.511C107.11 131.865 103.802 129.648 103.802 129.648Z" fill="#CCD3D6"/>
<path d="M52.918 127.219C52.918 127.219 53.2353 149.456 53.5526 159.779C53.8699 170.102 56.2518 184.398 64.8276 185.828C73.4034 187.258 76.898 171.532 77.376 159.462V148.343L74.516 147.15L70.1499 144.925L65.623 142.306L60.9395 138.494L57.1276 134.365L54.111 129.838L52.918 127.219Z" fill="#FF77BE"/>
<path d="M163.35 127.418C163.35 127.418 163.066 149.655 162.779 159.978C162.495 170.301 160.355 184.597 152.659 186.027C144.963 187.457 141.824 171.731 141.396 159.661V148.542L143.96 147.349L147.882 145.124L151.944 142.505L156.149 138.693L159.572 134.564L162.233 129.94L163.35 127.418Z" fill="#FF77BE"/>
<path opacity="0.23" d="M141.862 157.139C141.862 157.139 154.309 149.811 158.303 144.036C162.297 138.261 163.008 135.875 163.008 135.875L162.724 128.628L160.55 132.918L159.775 134.805L157.588 137.305L154.313 140.821L149.431 144.396L143.356 147.853L141.52 148.724L141.862 157.139Z" fill="#BA4286"/>
<path opacity="0.23" d="M160.447 175.585C160.447 175.585 154.173 186.226 148.694 184.559L150.361 185.989L153.221 186.069L155.544 185.219L157.507 182.892C157.507 182.892 158.776 180.827 158.937 180.59C159.098 180.354 160.05 177.811 160.05 177.811L160.447 175.585Z" fill="#BA4286"/>
<path opacity="0.23" d="M141.705 153.268C141.705 153.268 152.083 146.431 156.263 138.812L154.766 139.967L151.944 142.509L149.088 144.257L144.722 146.681L141.396 148.547L141.705 153.268Z" fill="#BA4286"/>
<path d="M141.168 161.823C141.439 166.248 141.989 170.669 143.059 174.972C143.609 177.113 144.282 179.236 145.259 181.216C145.75 182.202 146.312 183.158 147.01 184.009C147.709 184.851 148.55 185.591 149.532 186.044C150.509 186.501 151.609 186.632 152.646 186.441C153.678 186.264 154.672 185.845 155.544 185.219C157.304 183.962 158.548 182.054 159.474 180.07C160.392 178.06 161.035 175.932 161.526 173.77C162.017 171.608 162.355 169.413 162.605 167.208C162.838 165.004 162.982 162.787 163.041 160.57C163.083 158.349 163.096 156.111 163.121 153.881L163.214 140.559C163.231 137.741 163.257 134.936 163.29 132.135C163.409 129 163.341 127.676 163.341 127.676L163.384 126.864L162.601 128.45L160.426 132.74C160.426 132.74 160.439 132.838 160.515 132.838L159.495 134.5L156.047 138.575L151.829 142.323L147.899 144.819C147.23 145.213 146.549 145.576 145.872 145.961L143.854 147.087L141.29 148.255L141.117 148.335V148.546L141.079 155.18C141.092 157.389 141.011 159.597 141.168 161.823ZM141.718 155.168L141.68 148.75L144.062 147.62L144.074 147.616L144.083 147.611L146.105 146.444C146.778 146.05 147.455 145.674 148.123 145.272L152.714 141.989L156.259 138.816L156.263 138.807L159.271 135.118L159.652 134.627L159.656 134.623L160.955 132.393C161.04 132.266 161.137 132.11 161.251 131.903C162 130.553 162.588 129.153 162.694 129.787C162.8 130.422 162.677 139.882 162.677 139.882C162.677 139.882 162.685 139.852 162.698 139.793C162.69 139.996 162.681 140.195 162.677 140.398L162.652 153.97L162.482 160.536C162.398 162.736 162.229 164.928 161.97 167.111C161.717 169.29 161.374 171.456 160.879 173.576C160.388 175.695 159.749 177.773 158.857 179.702C157.96 181.61 156.767 183.395 155.159 184.529C153.572 185.646 151.516 186.09 149.815 185.265C148.961 184.868 148.208 184.208 147.569 183.429C146.926 182.646 146.384 181.75 145.91 180.806C144.967 178.915 144.299 176.846 143.753 174.748C142.687 170.53 142.12 166.151 141.836 161.768C141.671 159.589 141.743 157.376 141.718 155.168Z" fill="#002636"/>
<path d="M77.7366 154.977L77.6943 148.343V148.132L77.5039 148.051L74.6439 146.884L72.3931 145.758C71.64 145.378 70.8827 145.009 70.1339 144.616L65.7508 142.12L61.0546 138.371L57.2131 134.297L56.075 132.634C56.1596 132.634 56.1766 132.537 56.1766 132.537L53.7523 128.247L52.8808 126.661L52.5635 127.177C52.5635 127.177 52.8512 128.797 52.9866 131.932C53.0204 134.729 53.0542 137.534 53.0712 140.356L53.1769 153.678C53.2066 155.908 53.2192 158.142 53.27 160.367C53.3377 162.584 53.4985 164.801 53.7566 167.005C54.0358 169.209 54.4123 171.405 54.9581 173.567C55.5039 175.725 56.2231 177.857 57.2469 179.867C58.2792 181.851 59.6627 183.759 61.6258 185.016C62.5989 185.642 63.7073 186.061 64.8581 186.238C66.0131 186.424 67.24 186.298 68.3273 185.841C69.4231 185.388 70.3581 184.652 71.1366 183.806C71.915 182.955 72.5412 182.003 73.0869 181.013C74.1785 179.033 74.9273 176.909 75.5366 174.769C76.7296 170.47 77.3431 166.049 77.6435 161.619C77.8127 159.398 77.7196 157.19 77.7366 154.977ZM76.8904 161.573C76.5731 165.956 75.9427 170.335 74.7539 174.553C74.1446 176.651 73.4 178.72 72.3466 180.611C71.8219 181.555 71.2169 182.452 70.5019 183.234C69.7869 184.017 68.9492 184.677 67.9973 185.071C66.1019 185.896 63.8089 185.451 62.0446 184.334C60.2508 183.205 58.9266 181.419 57.9239 179.507C56.9339 177.578 56.2189 175.501 55.6731 173.381C55.1231 171.261 54.7423 169.095 54.4589 166.916C54.1712 164.738 53.985 162.542 53.8877 160.342L53.7016 153.776L53.6762 140.203C53.6677 140 53.6592 139.801 53.6508 139.598C53.6677 139.658 53.6762 139.687 53.6762 139.687C53.6762 139.687 53.5366 130.227 53.655 129.593C53.7735 128.958 54.4292 130.358 55.2627 131.708C55.3896 131.911 55.4954 132.072 55.5927 132.199L57.0396 134.428L57.0439 134.433L57.4669 134.923L60.8177 138.613L60.8262 138.621L64.7735 141.794L69.8885 145.077C70.6289 145.483 71.3862 145.86 72.135 146.249L74.39 147.417L74.3985 147.421L74.4112 147.425L77.0681 148.555L77.0258 154.973C76.9962 157.177 77.0766 159.394 76.8904 161.573Z" fill="#002636"/>
<path d="M65.4458 177.688C68.7683 177.688 71.462 175.662 71.462 173.161C71.462 170.661 68.7683 168.634 65.4458 168.634C62.123 168.634 59.4297 170.661 59.4297 173.161C59.4297 175.662 62.123 177.688 65.4458 177.688Z" fill="#BA4286" stroke="#912668" stroke-width="0.846154" stroke-miterlimit="10"/>
<path d="M59.4003 167.636C60.37 167.636 61.1561 166.833 61.1561 165.842C61.1561 164.851 60.37 164.048 59.4003 164.048C58.4306 164.048 57.6445 164.851 57.6445 165.842C57.6445 166.833 58.4306 167.636 59.4003 167.636Z" fill="#BA4286" stroke="#912668" stroke-width="0.846154" stroke-miterlimit="10"/>
<path d="M65.5351 166.269C66.5048 166.269 67.2908 165.466 67.2908 164.475C67.2908 163.485 66.5048 162.682 65.5351 162.682C64.5654 162.682 63.7793 163.485 63.7793 164.475C63.7793 165.466 64.5654 166.269 65.5351 166.269Z" fill="#BA4286" stroke="#912668" stroke-width="0.846154" stroke-miterlimit="10"/>
<path d="M71.6093 167.754C72.579 167.754 73.3651 166.951 73.3651 165.96C73.3651 164.969 72.579 164.167 71.6093 164.167C70.6396 164.167 69.8535 164.969 69.8535 165.96C69.8535 166.951 70.6396 167.754 71.6093 167.754Z" fill="#BA4286" stroke="#912668" stroke-width="0.846154" stroke-miterlimit="10"/>
<path opacity="0.25" d="M60.3429 171.532C60.3429 171.532 59.5094 176.097 65.6652 176.495C70.6617 176.816 70.6279 174.786 70.6279 174.786L70.0737 175.936C70.0737 175.936 68.6056 177.447 68.1698 177.405C67.734 177.366 63.6429 177.443 63.6429 177.443L60.9437 176.292C60.9437 176.292 59.8733 174.625 59.7506 174.464C59.6321 174.303 59.3148 172.878 59.4333 172.717C59.5475 172.565 60.3429 171.532 60.3429 171.532Z" fill="#91346E"/>
<path opacity="0.11" d="M66.7959 172.514C67.6183 172.514 68.2851 172.099 68.2851 171.587C68.2851 171.076 67.6183 170.661 66.7959 170.661C65.9734 170.661 65.3066 171.076 65.3066 171.587C65.3066 172.099 65.9734 172.514 66.7959 172.514Z" fill="white"/>
<path d="M152.163 177.388C155.287 177.388 157.82 175.482 157.82 173.132C157.82 170.781 155.287 168.875 152.163 168.875C149.039 168.875 146.507 170.781 146.507 173.132C146.507 175.482 149.039 177.388 152.163 177.388Z" fill="#BA4286" stroke="#912668" stroke-width="0.846154" stroke-miterlimit="10"/>
<path d="M157.849 167.94C158.761 167.94 159.499 167.185 159.499 166.252C159.499 165.32 158.761 164.564 157.849 164.564C156.938 164.564 156.199 165.32 156.199 166.252C156.199 167.185 156.938 167.94 157.849 167.94Z" fill="#BA4286" stroke="#912668" stroke-width="0.846154" stroke-miterlimit="10"/>
<path d="M152.08 166.65C152.991 166.65 153.73 165.894 153.73 164.962C153.73 164.03 152.991 163.274 152.08 163.274C151.168 163.274 150.43 164.03 150.43 164.962C150.43 165.894 151.168 166.65 152.08 166.65Z" fill="#BA4286" stroke="#912668" stroke-width="0.846154" stroke-miterlimit="10"/>
<path d="M146.368 168.05C147.279 168.05 148.018 167.295 148.018 166.362C148.018 165.43 147.279 164.674 146.368 164.674C145.456 164.674 144.718 165.43 144.718 166.362C144.718 167.295 145.456 168.05 146.368 168.05Z" fill="#BA4286" stroke="#912668" stroke-width="0.846154" stroke-miterlimit="10"/>
<path opacity="0.25" d="M156.962 171.6C156.962 171.6 157.744 175.894 151.957 176.267C147.256 176.571 147.29 174.659 147.29 174.659L147.815 175.742C147.815 175.742 149.198 177.159 149.608 177.125C150.019 177.087 153.865 177.164 153.865 177.164L156.403 176.08C156.403 176.08 157.41 174.511 157.524 174.363C157.634 174.215 157.935 172.869 157.825 172.721C157.715 172.573 156.962 171.6 156.962 171.6Z" fill="#91346E"/>
<path opacity="0.11" d="M150.895 172.522C151.668 172.522 152.295 172.132 152.295 171.651C152.295 171.169 151.668 170.779 150.895 170.779C150.121 170.779 149.494 171.169 149.494 171.651C149.494 172.132 150.121 172.522 150.895 172.522Z" fill="white"/>
<path d="M163.066 97.0411C163.066 97.0411 156.474 78.4596 111.726 79.0519C66.4521 79.6527 52.3425 115.445 50.5571 115.741C48.7717 116.037 48.2344 112.526 48.2344 112.526C43.6271 88.2242 51.0944 77.5035 51.0944 77.5035C48.2344 82.7454 21.8303 119.236 10.5553 106.531C-0.719741 93.8258 49.8886 44.7319 55.9809 40.9327C64.2013 35.8092 74.9221 44.3892 74.9221 44.3892C83.024 37.8781 93.7448 34.1465 106.369 34.0238C106.369 34.0238 128.289 32.9535 141.73 43.4331C141.73 43.4331 149.193 38.9865 155.709 42.0031C162.224 45.0196 212.405 94.9004 201.13 107.605C189.855 120.31 163.646 77.7446 160.79 72.5027C160.79 72.5027 167.28 88.4654 165.748 112.547C165.744 112.547 165.626 102.105 163.066 97.0411Z" fill="#FF77BE"/>
<path opacity="0.23" d="M71.7752 54.4796C71.7752 54.4796 73.1291 55.7066 70.8656 57.255C68.6022 58.8035 66.1018 60.2335 63.7199 62.26C61.3379 64.2866 55.9352 70.6793 57.2087 82.115C58.4779 93.5508 62.7468 98.6912 62.7468 98.6912L60.1449 101.568L56.9676 105.858L54.5856 109.433L52.6818 112.373L51.4126 114.358C51.4126 114.358 50.6256 116.287 49.7456 115.348C48.8614 114.408 48.5652 113.575 48.2987 111.578C48.2987 111.578 47.5626 107.411 47.3637 104.868C47.1649 102.325 46.9279 98.7927 47.0464 96.8085C47.1649 94.8243 47.4822 91.8458 47.9983 90.0562L48.8699 85.8085L49.7837 82.1827C49.7837 82.1827 50.0122 81.3366 50.1772 80.8712C50.3422 80.4058 52.4449 76.9535 52.4449 76.9535L55.8591 71.5127L59.7895 64.6843L61.1518 62.3489C61.1518 62.3489 64.5533 56.4258 68.2891 54.9577C68.2849 54.9535 70.5822 53.8873 71.7752 54.4796Z" fill="#BA4286"/>
<path opacity="0.4" d="M71.775 54.4797C71.775 54.4797 72.0542 55.2708 71.2208 55.8674C70.3873 56.4639 68.64 57.1366 66.5373 58.2112C64.4346 59.2816 62.2092 61.0289 60.4619 63.4912C60.4619 63.4912 62.0781 60.0262 63.3304 58.4481C64.5827 56.8701 66.5754 55.5881 66.5754 55.5881L68.5723 54.577L70.4465 54.1581C70.4508 54.1581 71.6438 54.1455 71.775 54.4797Z" fill="#BA4286"/>
<path opacity="0.1" d="M54.1877 74.3304C54.1877 74.3304 50.3758 97.3585 57.602 104.906C57.602 104.906 53.5531 110.901 52.6774 112.369C51.8058 113.837 50.1939 113.122 49.6016 109.074C49.0051 105.025 46.9235 96.6774 50.9724 79.2297L51.7678 77.3089L53.1978 74.8085L54.1877 74.3304Z" fill="#BA4286"/>
<path opacity="0.23" d="M12.079 93.1108C12.079 93.1108 10.5094 107.842 21.3105 102.761C32.1117 97.6801 50.5156 77.9858 50.5156 77.9858L47.9179 82.4281L40.8483 91.3212L34.8913 97.9931L29.2517 102.918L23.3752 107.127L19.7621 108.684L15.2352 109.251C15.2352 109.251 11.8717 107.821 11.8421 107.732C11.8125 107.644 9.87477 105.38 9.87477 105.38L8.92285 101.805L9.91708 97.0412L10.9113 94.5408L12.079 93.1108Z" fill="#BA4286"/>
<path opacity="0.23" d="M75.3379 50.93C75.3379 50.93 78.5194 48.0235 78.8494 44.9562C79.1752 41.8888 78.3713 41.9481 78.3713 41.9481L75.1855 44.3596C75.1855 44.3596 75.7821 45.1338 76.0486 45.9673C76.3152 46.8008 76.4675 47.8712 76.1375 48.7977C75.8117 49.72 75.3379 50.93 75.3379 50.93Z" fill="#BA4286"/>
<path opacity="0.23" d="M146.732 41.7874C146.732 41.7874 145.518 42.5658 145.991 43.6785C146.47 44.7912 157.406 56.3666 160.981 72.4223L158.696 65.835L155.6 59.7977L152.266 54.5558L148.022 49.5677L145.425 45.925L141.52 43.7039L144.003 42.4854L146.732 41.7874Z" fill="#BA4286"/>
<path opacity="0.23" d="M164.019 77.6261C164.019 77.6261 182.126 99.1861 189.154 102.046C196.181 104.906 200.945 103.595 201.66 97.9973L201.63 97.5488L201.825 97.5319L202.214 98.6488L202.751 100.988L202.781 102.833L202.645 104.559L201.99 106.315L200.814 107.863L198.893 109.205L195.944 109.742L194.455 109.475L191.878 108.718L188.794 106.992L186.112 105.054L183.582 102.837L181.437 100.544L178.429 97.5234L175.509 93.978L171.401 88.7953L167.885 83.8538L164.34 78.4342L164.019 77.6261Z" fill="#BA4286"/>
<path opacity="0.23" d="M164.695 89.6584C164.695 89.6584 165.05 93.7073 164.179 94.4223C163.307 95.1373 159.495 91.4819 158.065 90.3734L160.646 93.3138L163.388 97.2865L164.619 100.98L165.689 106.738L165.85 101.932L165.732 97.6419L165.254 92.3619L164.695 89.6584Z" fill="#BA4286"/>
<path opacity="0.06" d="M88.5746 42.3246C88.5746 42.3246 100.311 36.3677 111.4 36.8458C123.364 37.3619 128.014 39.6804 134.876 42.0877C134.876 42.0877 137.449 42.9761 137.377 44.4104C137.267 46.6146 125.315 43.9323 111.4 43.8731C107.486 43.8561 97.967 44.5415 90.7493 44.9434C84.3904 45.3031 88.5746 42.3246 88.5746 42.3246Z" fill="white"/>
<path opacity="0.06" d="M15.5941 98.9493C15.5941 98.9493 16.7068 105.143 27.1907 96.2501C27.1907 96.2501 28.8195 94.6636 28.0453 93.8259C27.0933 92.7978 25.126 94.3632 25.126 94.3632C25.126 94.3632 19.9433 98.8309 18.2764 97.6378C16.6095 96.4447 14.8199 97.0413 15.5941 98.9493Z" fill="white"/>
<path opacity="0.06" d="M197.551 91.6216C197.551 91.6216 200.767 96.6859 199.637 98.8266C198.508 100.972 194.099 99.9562 193.621 98.1709C193.143 96.3855 196.54 97.8747 197.374 97.1005C198.207 96.3262 196.244 92.5143 196.244 92.5143C196.244 92.5143 194.632 88.1693 197.551 91.6216Z" fill="white"/>
<path d="M97.2278 58.0208C95.3958 64.6165 92.9378 69.3931 87.0866 68.0731C81.1805 66.7362 81.7516 60.83 83.5835 54.2342C85.4155 47.6385 89.9551 43.1369 93.7247 44.1819C97.4901 45.2269 99.0597 51.425 97.2278 58.0208Z" fill="#002636" stroke="#002636" stroke-width="0.423077" stroke-miterlimit="10"/>
<path d="M93.5433 51.7301C94.3112 49.1138 93.7684 46.6511 92.3316 46.2292C90.8944 45.8074 89.1069 47.5865 88.339 50.2028C87.5711 52.8191 88.1135 55.2822 89.5507 55.7036C90.9879 56.1254 92.7754 54.3464 93.5433 51.7301Z" fill="#EFEFEF"/>
<path d="M87.9626 61.9597C88.7406 61.9597 89.3714 61.3289 89.3714 60.5508C89.3714 59.7728 88.7406 59.142 87.9626 59.142C87.1845 59.142 86.5537 59.7728 86.5537 60.5508C86.5537 61.3289 87.1845 61.9597 87.9626 61.9597Z" fill="#EFEFEF"/>
<path d="M92.3185 59.6032C92.7483 59.6032 93.097 59.2546 93.097 58.8247C93.097 58.3949 92.7483 58.0463 92.3185 58.0463C91.8887 58.0463 91.54 58.3949 91.54 58.8247C91.54 59.2546 91.8887 59.6032 92.3185 59.6032Z" fill="#EFEFEF"/>
<path d="M129.999 57.3946C131.581 63.0977 133.709 67.2227 138.761 66.0804C143.863 64.9254 143.373 59.8188 141.79 54.12C140.208 48.4169 136.282 44.5288 133.028 45.4342C129.771 46.3354 128.413 51.6915 129.999 57.3946Z" fill="#002636" stroke="#002636" stroke-width="0.423077" stroke-miterlimit="10"/>
<path d="M136.623 55.3847C137.865 55.02 138.334 52.8927 137.671 50.6327C137.008 48.373 135.463 46.8364 134.221 47.2007C132.979 47.5653 132.51 49.693 133.173 51.9527C133.837 54.2127 135.381 55.7493 136.623 55.3847Z" fill="#EFEFEF"/>
<path d="M138.003 60.7962C138.675 60.7962 139.221 60.2508 139.221 59.5777C139.221 58.9046 138.675 58.3593 138.003 58.3593C137.33 58.3593 136.784 58.9046 136.784 59.5777C136.784 60.2508 137.33 60.7962 138.003 60.7962Z" fill="#EFEFEF"/>
<path d="M134.243 58.757C134.614 58.757 134.916 58.4558 134.916 58.0843C134.916 57.7129 134.614 57.4116 134.243 57.4116C133.872 57.4116 133.57 57.7129 133.57 58.0843C133.57 58.4558 133.872 58.757 134.243 58.757Z" fill="#EFEFEF"/>
<path d="M109.599 64.9043C109.599 64.9043 109.687 73.5478 116.44 73.4462C123.196 73.3447 122.498 64.532 122.498 64.532C122.498 64.532 119.799 65.1074 116.258 62.9581C116.258 62.9539 113.339 64.9339 109.599 64.9043Z" fill="#FF155F"/>
<path opacity="0.5" d="M110.452 69.1816C110.452 69.1816 112.817 67.5189 116.02 67.3793C119.222 67.2397 122.061 68.547 122.061 68.547C122.061 68.547 122.679 66.5627 122.501 64.532C122.501 64.532 119.421 65.0058 116.261 62.9581C116.261 62.9581 113.151 64.9466 109.602 64.9085C109.597 64.9043 109.737 68.0689 110.452 69.1816Z" fill="#930000"/>
<path d="M105.845 59.6749C105.718 60.8722 105.828 62.1245 106.446 63.0384C106.755 63.4868 107.178 63.838 107.677 64.0665C107.804 64.1215 107.94 64.1595 108.066 64.2145L108.261 64.2907L108.468 64.3372C108.608 64.3669 108.743 64.4092 108.883 64.443C109.027 64.4642 109.166 64.4811 109.31 64.5065C109.594 64.5699 109.89 64.5615 110.182 64.5911C110.478 64.5826 110.774 64.5995 111.075 64.5657C111.675 64.5361 112.272 64.4176 112.851 64.2611C113.431 64.0961 113.998 63.8761 114.548 63.6222C115.09 63.3557 115.627 63.0638 116.122 62.738C116.194 62.6872 116.287 62.6872 116.359 62.7253L116.397 62.7465C117.37 63.2711 118.44 63.6772 119.519 63.9142C120.061 64.0242 120.611 64.1003 121.156 64.1003C121.702 64.1299 122.244 64.0665 122.785 63.9945C123.323 63.8845 123.847 63.7788 124.274 63.5165C124.71 63.2669 125.074 62.9072 125.315 62.4418C125.561 61.9807 125.696 61.4434 125.738 60.8849C125.785 60.3307 125.764 59.7553 125.679 59.1842V59.1799C125.675 59.1588 125.692 59.1334 125.713 59.1334C125.734 59.1292 125.751 59.1418 125.76 59.1588C126.178 60.2461 126.356 61.4984 125.912 62.7084C125.683 63.3049 125.248 63.8422 124.702 64.1976C124.562 64.2822 124.427 64.3795 124.283 64.4472L123.835 64.6249C123.534 64.7392 123.242 64.7857 122.942 64.8703C121.736 65.0988 120.488 65.0099 119.329 64.6968C118.161 64.388 117.07 63.8888 116.101 63.1611L116.38 63.1738C115.25 63.7195 114.095 64.1257 112.928 64.5107C111.751 64.8576 110.546 65.2342 109.251 65.1834C108.608 65.1834 107.961 65.0099 107.351 64.7434C106.751 64.4472 106.209 63.9734 105.879 63.3853C105.541 62.7972 105.405 62.133 105.405 61.4942C105.405 60.8553 105.524 60.2292 105.761 59.6495C105.769 59.6284 105.795 59.6157 105.816 59.6242C105.841 59.6326 105.85 59.6538 105.845 59.6749Z" fill="#002636"/>
<path d="M109.599 64.9043C109.599 64.9043 109.687 73.5478 116.44 73.4462C123.196 73.3447 122.498 64.532 122.498 64.532C122.498 64.532 119.799 65.1074 116.258 62.9581C116.258 62.9539 113.339 64.9339 109.599 64.9043Z" stroke="#002636" stroke-width="0.846154" stroke-miterlimit="10"/>
<path d="M202.654 99.7954C200.534 89.6247 188.755 74.3812 177.455 62.057C177.349 61.9427 177.248 61.8285 177.142 61.7143C176.541 61.0585 175.936 60.4112 175.34 59.7766C174.895 59.3027 174.46 58.8247 174.015 58.3508C171.769 55.9816 169.484 53.6504 167.145 51.37C164.805 49.0939 162.423 46.8558 159.931 44.7362C159.309 44.2031 158.67 43.6912 158.023 43.1877C157.367 42.6885 156.716 42.1935 155.95 41.7916C154.423 41.0681 152.76 40.7085 151.093 40.6577C149.426 40.607 147.764 40.8523 146.164 41.2839C144.641 41.7154 143.173 42.2823 141.764 43.0439C139.442 41.2754 136.903 39.8031 134.242 38.6312C133.565 38.3139 132.867 38.0516 132.182 37.7681C131.479 37.5143 130.79 37.2393 130.079 37.015C128.67 36.5327 127.236 36.1308 125.793 35.7627C122.908 35.0393 119.972 34.5189 117.023 34.1677C114.07 33.8166 111.104 33.6262 108.125 33.6177C107.385 33.6135 106.624 33.6347 105.896 33.66C105.155 33.6854 104.415 33.6854 103.67 33.732C102.93 33.7827 102.185 33.8166 101.445 33.8843C100.705 33.9647 99.9643 34.0281 99.2239 34.117C96.2708 34.485 93.3389 35.0773 90.4831 35.9235C84.8689 37.582 79.5297 40.2473 74.9139 43.8816C73.6404 42.9339 72.312 42.1173 70.92 41.3897C69.4308 40.6197 67.8739 39.9723 66.245 39.5239C64.6204 39.0754 62.9239 38.8173 61.2147 38.9104C60.36 38.9443 59.5097 39.0797 58.6847 39.3081C57.8554 39.5239 57.0558 39.8581 56.3027 40.2685L55.7443 40.5858C55.5624 40.7043 55.3804 40.827 55.2112 40.9539C54.8643 41.2035 54.5385 41.4616 54.2127 41.7239C53.5654 42.2485 52.9308 42.79 52.3089 43.3358C51.0608 44.4273 49.8381 45.5485 48.6324 46.6781C46.2166 48.9458 43.8558 51.2643 41.533 53.6166C36.8876 58.3297 32.3903 63.1908 28.0876 68.2212C23.7933 73.2558 19.6683 78.4512 16.0087 83.985C14.1853 86.7562 12.4845 89.6162 11.0672 92.6327C10.3649 94.1431 9.73872 95.6958 9.27757 97.312C8.82911 98.9239 8.49488 100.604 8.59641 102.321C8.62603 103.176 8.82064 104.035 9.12949 104.847C9.42564 105.668 9.95449 106.404 10.5426 107.026C11.7018 108.287 13.3095 109.179 15.023 109.437C15.8776 109.573 16.7406 109.573 17.591 109.471C18.4372 109.365 19.2622 109.158 20.066 108.896C21.6737 108.371 23.1714 107.601 24.6014 106.742C27.453 104.999 30.0295 102.875 32.4664 100.629C34.8991 98.3739 37.1837 95.9666 39.3795 93.4873C41.571 91.0039 43.6654 88.4358 45.6708 85.8043C46.6735 84.4885 47.655 83.1558 48.607 81.802C48.7931 81.5312 48.9835 81.2604 49.1697 80.9897C49.0047 81.4339 48.8481 81.8781 48.6958 82.3266L48.2981 83.6212C48.167 84.0527 48.0739 84.4927 47.9597 84.9285C47.7227 85.8 47.5662 86.6843 47.3927 87.5685C47.3674 87.7081 47.3462 87.8477 47.3208 87.9831C47.3208 87.9958 47.3166 88.0043 47.3166 88.017C47.105 89.2481 46.94 90.4835 46.8216 91.7231C46.792 92.0447 46.7624 92.3747 46.737 92.7089C46.7327 92.7893 46.7243 92.8696 46.7158 92.95C46.335 97.9846 46.5127 104.513 48.0358 112.56C48.0485 112.653 48.4039 114.887 49.5039 115.686C49.7662 115.877 50.0539 115.974 50.3543 115.974C50.4347 115.974 50.5193 115.965 50.5997 115.953C50.9593 115.894 51.3654 115.272 52.6008 113.313C57.8343 105.016 73.7631 79.7712 111.734 79.2635C124.452 79.0943 142.103 80.4693 154.029 87.9747C161.15 92.455 162.859 97.0623 162.876 97.1089C162.88 97.1173 162.88 97.1258 162.884 97.1343C165.393 102.093 165.541 112.441 165.541 112.547C165.541 112.661 165.634 112.754 165.749 112.754C165.867 112.754 165.96 112.67 165.964 112.555C167.157 93.7539 163.422 79.7543 161.75 74.5885C166.984 83.4054 183.81 108.815 195.212 110.114C197.606 110.389 199.654 109.585 201.291 107.741C202.912 105.913 203.373 103.239 202.654 99.7954ZM154.287 87.6489C142.272 80.0631 124.507 78.5527 111.722 78.5527C72.0539 78.5527 57.7666 104.191 52.4993 112.538C51.6954 113.812 51.0016 114.908 50.7858 114.984C50.5024 115.03 50.2485 114.967 50.0074 114.793C49.047 114.1 48.7127 111.967 48.7085 111.938C47.9808 108.109 47.5662 104.627 47.3674 101.488L47.3462 101.166C47.287 100.142 47.2531 99.165 47.2362 98.2173L47.232 97.752C47.1981 94.1854 47.8158 90.8643 48.4716 87.3612C48.6493 86.4897 48.8058 85.6097 49.0427 84.7508C49.157 84.3193 49.25 83.8835 49.3854 83.4604L49.7831 82.187C50.0708 81.345 49.817 81.6877 50.1766 80.8754C50.4177 80.3212 50.6843 79.7627 50.9762 79.2339C51.12 78.9927 51.2681 78.7558 51.4077 78.5104C51.4077 78.5104 52.402 76.9366 53.7008 74.9312C54.4327 73.8947 55.3889 72.287 56.0404 71.1954C57.5297 68.695 58.7312 66.4062 60.1316 64.1004C60.4785 63.5208 60.817 62.937 61.1554 62.3489C61.4854 61.7693 61.8281 61.2108 62.2004 60.665C62.9366 59.5693 63.787 58.5454 64.7093 57.602C65.64 56.667 66.6597 55.8039 67.8062 55.1439C67.8104 55.1439 67.8104 55.1397 67.8147 55.1397C69.2108 54.4162 70.5139 54.1835 71.5039 54.5939C71.6097 54.6404 71.7366 54.5897 71.7789 54.4797C71.8254 54.3739 71.7747 54.247 71.6647 54.2047C70.6493 53.7816 69.2447 53.9804 67.7131 54.7335C67.6793 54.7462 67.6454 54.7631 67.6116 54.7758C67.5227 54.8181 67.4381 54.8689 67.3535 54.9154C67.2943 54.9493 67.2308 54.9789 67.1716 55.0127C66.1097 55.5839 65.1366 56.3073 64.2524 57.1239C63.237 58.0462 62.3485 59.0954 61.5447 60.2039C61.1427 60.7581 60.7789 61.3462 60.4362 61.9343C60.0977 62.5139 59.755 63.0893 59.4081 63.6604C58.0289 65.962 56.6074 68.2466 55.2154 70.5523C54.5512 71.6397 53.8912 72.7354 53.2397 73.8354C51.9197 75.8704 50.6166 77.8123 50.5193 77.9858C49.7958 79.1831 48.9835 80.3508 48.1754 81.5058C47.2235 82.8512 46.2377 84.1754 45.235 85.4827C43.2254 88.0973 41.1268 90.6443 38.9353 93.1066C36.7395 95.5647 34.4591 97.9508 32.0349 100.176C29.6106 102.397 27.051 104.487 24.2503 106.18C22.8456 107.013 21.3818 107.753 19.8418 108.253C19.0718 108.498 18.2891 108.693 17.4937 108.79C16.6983 108.879 15.8987 108.879 15.1203 108.752C13.5591 108.507 12.4803 107.868 11.4014 106.7C10.2803 105.583 9.73872 104.035 9.65834 102.448C9.56526 100.857 9.88257 99.2412 10.3226 97.6843C10.7753 96.1231 11.3887 94.6 12.0826 93.115C13.4787 90.1493 14.8156 87.1539 16.6264 84.4081C20.2691 78.9208 24.3856 73.7508 28.6756 68.7373C32.9741 63.7323 37.4672 58.8923 42.1041 54.1962C44.4227 51.8523 46.7835 49.5423 49.1908 47.2916C50.3966 46.1662 51.6108 45.0535 52.8504 43.9747C53.4724 43.4331 54.0985 42.9043 54.7331 42.3881C55.0504 42.1343 55.372 41.8804 55.6977 41.6435C55.8585 41.5208 56.0235 41.415 56.1843 41.3093L56.7004 41.0131C57.3943 40.6323 58.1304 40.3235 58.9004 40.1204C59.6662 39.9047 60.4574 39.782 61.2527 39.7481C62.8477 39.6593 64.4639 39.9004 66.0208 40.3277C67.582 40.755 69.0924 41.3812 70.5393 42.1258C71.982 42.8704 73.3908 43.7377 74.6643 44.7108L74.6854 44.7277L74.677 44.7404C74.8504 44.8504 75.0577 45.0535 75.2227 45.2481C75.3877 45.4512 75.54 45.6754 75.6543 45.9208C75.8912 46.4031 76.0097 46.9531 76.0266 47.5116C76.0308 47.5835 76.0266 47.6554 76.0266 47.7231C75.9589 48.5481 75.6627 49.5423 74.9774 50.7227C74.9181 50.8243 74.952 50.9512 75.0535 51.0104C75.0873 51.0316 75.1254 51.04 75.1593 51.04C75.2312 51.04 75.3031 51.002 75.3412 50.9343C76.1535 49.5339 76.4327 48.3704 76.4497 47.4481C76.492 46.8643 76.437 46.255 76.2381 45.6797C76.0774 45.2312 75.8616 44.8123 75.54 44.4358C80.0331 40.9116 85.2243 38.3097 90.7031 36.6808C93.5166 35.8431 96.402 35.2508 99.317 34.887C100.045 34.7981 100.777 34.7304 101.509 34.6543C102.24 34.5866 102.977 34.5527 103.709 34.502C104.44 34.4554 105.181 34.4554 105.917 34.4258C106.666 34.4004 107.381 34.3793 108.121 34.3835C114.002 34.4089 119.904 35.0689 125.611 36.4777C127.037 36.8373 128.454 37.2308 129.842 37.7089C131.234 38.1743 132.609 38.6947 133.95 39.2912C136.641 40.4631 139.196 41.9397 141.519 43.7166L141.549 43.742L141.675 43.8435C142.864 44.605 143.837 45.5189 144.92 46.4877L145.729 47.2239L146.507 47.9939C147.036 48.4973 147.522 49.0473 148.017 49.5847C149.9 51.662 151.584 53.9127 153.132 56.2566C155.806 60.4577 158.48 65.8308 160.579 72.5831H160.583C160.583 72.5873 160.583 72.5958 160.587 72.6C160.646 72.7481 165.651 83.1516 165.503 104.534C165.211 101.056 164.847 99.9012 163.337 96.91C163.223 96.5631 161.391 92.1293 154.287 87.6489ZM186.644 73.4208C187.029 73.8946 187.406 74.3727 187.787 74.8508C194.184 82.9485 200.729 92.6285 202.239 99.88C202.929 103.184 202.501 105.735 200.97 107.462C199.425 109.2 197.297 109.475 195.051 109.222C182.786 107.825 164.2 78.3116 160.98 72.4181C159 66.0635 156.513 60.9231 153.995 56.8235C153.898 56.6585 153.801 56.4935 153.708 56.3285C152.151 53.8154 150.437 51.3912 148.495 49.1489C148.005 48.5904 147.527 48.0277 147.002 47.4989L146.232 46.695L145.428 45.925C144.485 45.0408 143.52 44.2031 142.454 43.4373C145.107 42.0835 148.098 41.2247 151.076 41.2923C152.667 41.3304 154.254 41.6731 155.679 42.3416C156.36 42.6927 157.02 43.1835 157.659 43.67C158.302 44.1608 158.933 44.6685 159.555 45.1931C162.042 47.2873 164.424 49.5085 166.768 51.772C169.108 54.0354 171.401 56.3539 173.652 58.7062C178.14 63.4066 182.464 68.2677 186.56 73.315C186.585 73.3489 186.615 73.3827 186.644 73.4208Z" fill="#002636"/>
<path opacity="0.23" d="M53.5946 133.375C53.5946 133.375 61.4554 149.575 77.0627 152.79L77.38 148.343L71.5246 145.703L64.7723 141.794L59.7292 136.891L54.9062 130.578L53.6539 128.675L53.1758 129.686L53.5946 133.375Z" fill="#BA4286"/>
<path d="M134.555 150.463C134.555 150.463 128.704 159.606 131.378 169.523C134.394 180.722 146.862 179.529 146.862 179.529C149.562 192.631 150.12 204.304 150.12 204.304C127.092 195.965 85.2793 205.615 85.2793 205.615C85.2793 205.615 86.0324 187.47 87.7797 181.432L87.9278 181.462C101.39 183.129 111.366 175.078 109.221 165.707C107.288 157.254 103.146 153.556 103.146 153.556C103.146 153.556 120.34 155.824 134.555 150.463Z" fill="#EB35B7"/>
<path d="M92.0697 182.27C92.0697 182.27 91.1178 193.587 91.2362 204.19L85.2793 205.616L86.1128 195.094L87.6993 182.545L88.2535 181.674L92.0697 182.27Z" fill="#DD33B5"/>
<path d="M131.619 157.076C131.619 157.076 125.006 160.291 107.258 159.28L105.591 156.302L104.876 154.872L112.263 155.049L121.913 154.753L130.608 152.667L134.001 151.474L131.619 157.076Z" fill="#DD33B5"/>
<path d="M145.674 180.006C145.674 180.006 147.937 192.394 147.819 203.233L150.12 204.304L149.427 194.535L146.867 179.884L145.674 180.006Z" fill="#DD33B5"/>
<path d="M105.571 155.625C105.571 155.625 122.405 157.055 133.126 152.291L134.238 150.582L128.996 152.248L123.953 153.442L117.082 153.797L106.996 153.996L103.938 153.64L105.571 155.625Z" fill="#C932AD"/>
<path d="M84.8271 206.394L84.8483 205.839C84.8779 205.095 85.7791 187.389 87.5221 181.373L87.6322 181.001L88.0129 181.047C95.4337 181.965 102.216 179.93 106.125 175.598C108.659 172.793 109.611 169.311 108.807 165.799C106.929 157.6 102.901 153.907 102.863 153.869L101.848 152.955L103.201 153.133C103.371 153.154 120.459 155.32 134.403 150.061L135.546 149.921L134.911 150.687C134.852 150.776 129.195 159.792 131.784 169.408C134.674 180.125 146.139 179.16 146.634 179.114L147.011 179.08L147.087 179.452C149.761 192.436 150.535 204.168 150.539 204.283L150.569 204.917L149.973 204.701C127.325 196.502 85.7833 206.174 85.3645 206.271L84.8271 206.394ZM88.2287 182.27C87.0356 187.956 85.9779 201.651 85.8383 204.663C90.7883 203.589 128.104 196.282 149.664 203.694C149.507 201.122 148.822 191.37 146.567 180.303C144.418 180.383 133.743 179.922 130.968 169.633C128.793 161.569 132.203 153.936 133.621 151.25C121.817 155.345 108.558 154.351 104.572 153.979C105.901 155.523 108.189 159.326 109.628 165.618C110.495 169.404 109.471 173.153 106.747 176.169C102.698 180.662 95.8737 183.158 88.2287 182.27Z" fill="#002636"/>
<path d="M122.278 178.09C122.556 178.09 122.781 177.865 122.781 177.587C122.781 177.309 122.556 177.083 122.278 177.083C122 177.083 121.774 177.309 121.774 177.587C121.774 177.865 122 178.09 122.278 178.09Z" fill="#C932AD"/>
<path d="M121.85 179.165C122.11 179.165 122.32 178.954 122.32 178.695C122.32 178.436 122.11 178.225 121.85 178.225C121.591 178.225 121.381 178.436 121.381 178.695C121.381 178.954 121.591 179.165 121.85 179.165Z" fill="#C932AD"/>
<path d="M123.132 177.147C123.41 177.147 123.636 176.921 123.636 176.643C123.636 176.365 123.41 176.14 123.132 176.14C122.854 176.14 122.629 176.365 122.629 176.643C122.629 176.921 122.854 177.147 123.132 177.147Z" fill="#C932AD"/>
<path d="M124.123 176.423C124.401 176.423 124.626 176.197 124.626 175.919C124.626 175.642 124.401 175.416 124.123 175.416C123.845 175.416 123.619 175.642 123.619 175.919C123.619 176.197 123.845 176.423 124.123 176.423Z" fill="#C932AD"/>
<path d="M125.294 176.279C125.572 176.279 125.798 176.054 125.798 175.776C125.798 175.498 125.572 175.272 125.294 175.272C125.017 175.272 124.791 175.498 124.791 175.776C124.791 176.054 125.017 176.279 125.294 176.279Z" fill="#C932AD"/>
<path d="M126.424 176.711C126.702 176.711 126.928 176.485 126.928 176.207C126.928 175.929 126.702 175.704 126.424 175.704C126.146 175.704 125.921 175.929 125.921 176.207C125.921 176.485 126.146 176.711 126.424 176.711Z" fill="#C932AD"/>
<path d="M126.944 177.768C127.222 177.768 127.447 177.543 127.447 177.265C127.447 176.987 127.222 176.761 126.944 176.761C126.666 176.761 126.44 176.987 126.44 177.265C126.44 177.543 126.666 177.768 126.944 177.768Z" fill="#C932AD"/>
<path d="M126.856 178.983C127.134 178.983 127.359 178.757 127.359 178.479C127.359 178.201 127.134 177.976 126.856 177.976C126.578 177.976 126.353 178.201 126.353 178.479C126.353 178.757 126.578 178.983 126.856 178.983Z" fill="#C932AD"/>
<path d="M126.398 180.066C126.676 180.066 126.901 179.84 126.901 179.562C126.901 179.284 126.676 179.059 126.398 179.059C126.12 179.059 125.895 179.284 125.895 179.562C125.895 179.84 126.12 180.066 126.398 180.066Z" fill="#C932AD"/>
<path d="M125.768 181.09C126.046 181.09 126.272 180.864 126.272 180.586C126.272 180.308 126.046 180.083 125.768 180.083C125.49 180.083 125.265 180.308 125.265 180.586C125.265 180.864 125.49 181.09 125.768 181.09Z" fill="#C932AD"/>
<path d="M125.096 182.139C125.374 182.139 125.6 181.913 125.6 181.635C125.6 181.357 125.374 181.132 125.096 181.132C124.818 181.132 124.593 181.357 124.593 181.635C124.593 181.913 124.818 182.139 125.096 182.139Z" fill="#C932AD"/>
<path d="M124.36 183.087C124.638 183.087 124.863 182.861 124.863 182.583C124.863 182.305 124.638 182.08 124.36 182.08C124.082 182.08 123.856 182.305 123.856 182.583C123.856 182.861 124.082 183.087 124.36 183.087Z" fill="#C932AD"/>
<path d="M123.598 184.017C123.876 184.017 124.102 183.792 124.102 183.514C124.102 183.236 123.876 183.01 123.598 183.01C123.32 183.01 123.095 183.236 123.095 183.514C123.095 183.792 123.32 184.017 123.598 184.017Z" fill="#C932AD"/>
<path d="M122.9 184.91C123.168 184.91 123.386 184.692 123.386 184.424C123.386 184.155 123.168 183.937 122.9 183.937C122.631 183.937 122.413 184.155 122.413 184.424C122.413 184.692 122.631 184.91 122.9 184.91Z" fill="#C932AD"/>
<path d="M121.085 178.289C121.362 178.289 121.588 178.063 121.588 177.785C121.588 177.507 121.362 177.282 121.085 177.282C120.807 177.282 120.581 177.507 120.581 177.785C120.581 178.063 120.807 178.289 121.085 178.289Z" fill="#C932AD"/>
<path d="M120.028 177.553C120.306 177.553 120.531 177.327 120.531 177.049C120.531 176.771 120.306 176.546 120.028 176.546C119.75 176.546 119.524 176.771 119.524 177.049C119.524 177.327 119.75 177.553 120.028 177.553Z" fill="#C932AD"/>
<path d="M118.922 177.028C119.201 177.028 119.426 176.803 119.426 176.525C119.426 176.247 119.201 176.021 118.922 176.021C118.644 176.021 118.419 176.247 118.419 176.525C118.419 176.803 118.644 177.028 118.922 177.028Z" fill="#C932AD"/>
<path d="M117.743 177.1C118.021 177.1 118.246 176.874 118.246 176.596C118.246 176.319 118.021 176.093 117.743 176.093C117.465 176.093 117.239 176.319 117.239 176.596C117.239 176.874 117.465 177.1 117.743 177.1Z" fill="#C932AD"/>
<path d="M116.71 177.734C116.988 177.734 117.214 177.509 117.214 177.231C117.214 176.953 116.988 176.728 116.71 176.728C116.433 176.728 116.207 176.953 116.207 177.231C116.207 177.509 116.433 177.734 116.71 177.734Z" fill="#C932AD"/>
<path d="M116.401 178.873C116.679 178.873 116.904 178.647 116.904 178.369C116.904 178.091 116.679 177.866 116.401 177.866C116.123 177.866 115.897 178.091 115.897 178.369C115.897 178.647 116.123 178.873 116.401 178.873Z" fill="#C932AD"/>
<path d="M116.714 180.049C116.992 180.049 117.218 179.823 117.218 179.545C117.218 179.267 116.992 179.042 116.714 179.042C116.436 179.042 116.211 179.267 116.211 179.545C116.211 179.823 116.436 180.049 116.714 180.049Z" fill="#C932AD"/>
<path d="M117.362 181.026C117.64 181.026 117.865 180.801 117.865 180.523C117.865 180.245 117.64 180.019 117.362 180.019C117.084 180.019 116.858 180.245 116.858 180.523C116.858 180.801 117.084 181.026 117.362 181.026Z" fill="#C932AD"/>
<path d="M118.174 181.919C118.452 181.919 118.678 181.693 118.678 181.415C118.678 181.137 118.452 180.912 118.174 180.912C117.896 180.912 117.671 181.137 117.671 181.415C117.671 181.693 117.896 181.919 118.174 181.919Z" fill="#C932AD"/>
<path d="M119.029 182.824C119.307 182.824 119.532 182.599 119.532 182.321C119.532 182.043 119.307 181.817 119.029 181.817C118.751 181.817 118.525 182.043 118.525 182.321C118.525 182.599 118.751 182.824 119.029 182.824Z" fill="#C932AD"/>
<path d="M119.926 183.62C120.204 183.62 120.43 183.394 120.43 183.116C120.43 182.838 120.204 182.613 119.926 182.613C119.648 182.613 119.423 182.838 119.423 183.116C119.423 183.394 119.648 183.62 119.926 183.62Z" fill="#C932AD"/>
<path d="M120.847 184.394C121.125 184.394 121.351 184.168 121.351 183.89C121.351 183.612 121.125 183.387 120.847 183.387C120.569 183.387 120.344 183.612 120.344 183.89C120.344 184.168 120.569 184.394 120.847 184.394Z" fill="#C932AD"/>
<path d="M121.779 185.037C122.043 185.037 122.257 184.823 122.257 184.559C122.257 184.295 122.043 184.081 121.779 184.081C121.515 184.081 121.301 184.295 121.301 184.559C121.301 184.823 121.515 185.037 121.779 185.037Z" fill="#C932AD"/>
<path d="M122.367 177.942C122.645 177.942 122.87 177.716 122.87 177.439C122.87 177.161 122.645 176.935 122.367 176.935C122.089 176.935 121.863 177.161 121.863 177.439C121.863 177.716 122.089 177.942 122.367 177.942Z" fill="white"/>
<path d="M121.939 179.017C122.199 179.017 122.409 178.806 122.409 178.547C122.409 178.288 122.199 178.077 121.939 178.077C121.68 178.077 121.47 178.288 121.47 178.547C121.47 178.806 121.68 179.017 121.939 179.017Z" fill="white"/>
<path d="M123.225 176.994C123.504 176.994 123.729 176.769 123.729 176.491C123.729 176.213 123.504 175.987 123.225 175.987C122.947 175.987 122.722 176.213 122.722 176.491C122.722 176.769 122.947 176.994 123.225 176.994Z" fill="white"/>
<path d="M124.211 176.275C124.49 176.275 124.715 176.049 124.715 175.772C124.715 175.494 124.49 175.268 124.211 175.268C123.934 175.268 123.708 175.494 123.708 175.772C123.708 176.049 123.934 176.275 124.211 176.275Z" fill="white"/>
<path d="M125.388 176.127C125.666 176.127 125.892 175.902 125.892 175.624C125.892 175.346 125.666 175.12 125.388 175.12C125.11 175.12 124.885 175.346 124.885 175.624C124.885 175.902 125.11 176.127 125.388 176.127Z" fill="white"/>
<path d="M126.517 176.563C126.795 176.563 127.021 176.337 127.021 176.059C127.021 175.781 126.795 175.556 126.517 175.556C126.239 175.556 126.014 175.781 126.014 176.059C126.014 176.337 126.239 176.563 126.517 176.563Z" fill="white"/>
<path d="M127.033 177.62C127.311 177.62 127.536 177.395 127.536 177.117C127.536 176.839 127.311 176.614 127.033 176.614C126.755 176.614 126.529 176.839 126.529 177.117C126.529 177.395 126.755 177.62 127.033 177.62Z" fill="white"/>
<path d="M126.944 178.835C127.222 178.835 127.447 178.609 127.447 178.331C127.447 178.053 127.222 177.828 126.944 177.828C126.666 177.828 126.44 178.053 126.44 178.331C126.44 178.609 126.666 178.835 126.944 178.835Z" fill="white"/>
<path d="M126.492 179.918C126.77 179.918 126.995 179.692 126.995 179.414C126.995 179.136 126.77 178.911 126.492 178.911C126.214 178.911 125.988 179.136 125.988 179.414C125.988 179.692 126.214 179.918 126.492 179.918Z" fill="white"/>
<path d="M125.857 180.941C126.135 180.941 126.36 180.716 126.36 180.438C126.36 180.16 126.135 179.935 125.857 179.935C125.579 179.935 125.354 180.16 125.354 180.438C125.354 180.716 125.579 180.941 125.857 180.941Z" fill="white"/>
<path d="M125.185 181.991C125.463 181.991 125.689 181.765 125.689 181.487C125.689 181.209 125.463 180.984 125.185 180.984C124.907 180.984 124.682 181.209 124.682 181.487C124.682 181.765 124.907 181.991 125.185 181.991Z" fill="white"/>
<path d="M124.448 182.939C124.726 182.939 124.951 182.713 124.951 182.435C124.951 182.157 124.726 181.932 124.448 181.932C124.17 181.932 123.944 182.157 123.944 182.435C123.944 182.713 124.17 182.939 124.448 182.939Z" fill="white"/>
<path d="M123.686 183.869C123.964 183.869 124.19 183.644 124.19 183.366C124.19 183.088 123.964 182.862 123.686 182.862C123.408 182.862 123.183 183.088 123.183 183.366C123.183 183.644 123.408 183.869 123.686 183.869Z" fill="white"/>
<path d="M122.988 184.762C123.257 184.762 123.475 184.544 123.475 184.275C123.475 184.007 123.257 183.789 122.988 183.789C122.72 183.789 122.502 184.007 122.502 184.275C122.502 184.544 122.72 184.762 122.988 184.762Z" fill="white"/>
<path d="M121.173 178.141C121.451 178.141 121.677 177.915 121.677 177.637C121.677 177.359 121.451 177.134 121.173 177.134C120.895 177.134 120.67 177.359 120.67 177.637C120.67 177.915 120.895 178.141 121.173 178.141Z" fill="white"/>
<path d="M120.116 177.405C120.394 177.405 120.619 177.179 120.619 176.901C120.619 176.623 120.394 176.398 120.116 176.398C119.837 176.398 119.612 176.623 119.612 176.901C119.612 177.179 119.837 177.405 120.116 177.405Z" fill="white"/>
<path d="M119.012 176.876C119.291 176.876 119.516 176.65 119.516 176.372C119.516 176.094 119.291 175.869 119.012 175.869C118.734 175.869 118.509 176.094 118.509 176.372C118.509 176.65 118.734 176.876 119.012 176.876Z" fill="white"/>
<path d="M117.832 176.952C118.11 176.952 118.335 176.726 118.335 176.449C118.335 176.171 118.11 175.945 117.832 175.945C117.554 175.945 117.328 176.171 117.328 176.449C117.328 176.726 117.554 176.952 117.832 176.952Z" fill="white"/>
<path d="M116.803 177.587C117.081 177.587 117.307 177.361 117.307 177.083C117.307 176.805 117.081 176.58 116.803 176.58C116.525 176.58 116.3 176.805 116.3 177.083C116.3 177.361 116.525 177.587 116.803 177.587Z" fill="white"/>
<path d="M116.491 178.721C116.769 178.721 116.994 178.495 116.994 178.217C116.994 177.939 116.769 177.714 116.491 177.714C116.213 177.714 115.987 177.939 115.987 178.217C115.987 178.495 116.213 178.721 116.491 178.721Z" fill="white"/>
<path d="M116.803 179.901C117.081 179.901 117.307 179.675 117.307 179.397C117.307 179.119 117.081 178.894 116.803 178.894C116.525 178.894 116.3 179.119 116.3 179.397C116.3 179.675 116.525 179.901 116.803 179.901Z" fill="white"/>
<path d="M117.451 180.878C117.729 180.878 117.954 180.653 117.954 180.375C117.954 180.097 117.729 179.871 117.451 179.871C117.173 179.871 116.947 180.097 116.947 180.375C116.947 180.653 117.173 180.878 117.451 180.878Z" fill="white"/>
<path d="M118.263 181.771C118.541 181.771 118.767 181.545 118.767 181.267C118.767 180.989 118.541 180.764 118.263 180.764C117.985 180.764 117.76 180.989 117.76 181.267C117.76 181.545 117.985 181.771 118.263 181.771Z" fill="white"/>
<path d="M119.118 182.672C119.396 182.672 119.621 182.446 119.621 182.168C119.621 181.891 119.396 181.665 119.118 181.665C118.84 181.665 118.614 181.891 118.614 182.168C118.614 182.446 118.84 182.672 119.118 182.672Z" fill="white"/>
<path d="M120.014 183.467C120.293 183.467 120.518 183.242 120.518 182.964C120.518 182.686 120.293 182.46 120.014 182.46C119.736 182.46 119.511 182.686 119.511 182.964C119.511 183.242 119.736 183.467 120.014 183.467Z" fill="white"/>
<path d="M120.936 184.242C121.214 184.242 121.44 184.016 121.44 183.738C121.44 183.46 121.214 183.235 120.936 183.235C120.658 183.235 120.433 183.46 120.433 183.738C120.433 184.016 120.658 184.242 120.936 184.242Z" fill="white"/>
<path d="M121.872 184.889C122.136 184.889 122.35 184.675 122.35 184.411C122.35 184.147 122.136 183.933 121.872 183.933C121.608 183.933 121.394 184.147 121.394 184.411C121.394 184.675 121.608 184.889 121.872 184.889Z" fill="white"/>
</g>
<defs>
<clipPath id="clip0_100_15419">
<rect width="220" height="220" rx="10" fill="white"/>
</clipPath>
</defs>
</svg>
