<svg width="220" height="220" viewBox="0 0 220 220" fill="none" xmlns="http://www.w3.org/2000/svg">
<rect width="220" height="220" rx="55.9696" fill="#89A7B0"/>
<path d="M59.7707 201.817C59.7707 201.817 57.7948 201.486 56.1451 199.077C54.5 196.663 33.7479 151.484 17.9359 159.488C17.9359 159.488 10.3584 162.228 11.2361 179.448C11.2361 179.448 11.6772 184.932 13.9794 193.156C13.9794 193.156 15.0133 197.135 10.873 198.425C10.873 198.425 16.0656 206.75 21.5523 211.688C21.5523 211.688 22.9814 202.913 22.3197 195.02C22.3197 195.02 18.4505 195.823 17.7934 192.202C17.1363 188.581 12.44 168.263 20.0175 163.876C27.595 159.488 41.2107 183.284 47.2488 195.13C53.2869 206.975 54.9366 214.102 57.9005 214.318L59.7707 201.817Z" fill="#FF0600"/>
<path opacity="0.5" d="M25.243 164.224C25.243 164.224 22.5273 161.898 19.1636 162.545C15.7999 163.192 13.4702 169.782 13.9894 177.534C14.5087 185.285 16.1905 193.684 16.9671 195.107C17.7437 196.53 20.0734 196.787 20.0734 196.787C20.0734 196.787 21.1074 200.275 19.9448 209.967L21.5715 211.684L21.8012 209.105L22.2332 204.41L22.4078 198.338L22.3435 195.02L20.34 195.024L18.5708 193.992L17.7942 192.615L16.889 186.543L16.1537 182.321L15.8964 176.937C15.8964 176.937 15.8964 173.922 15.8964 173.748C15.8964 173.573 16.457 169.7 16.457 169.571C16.457 169.443 17.6196 166.427 17.6196 166.427L19.0855 164.532L21.0706 163.412L22.9684 163.453L25.243 164.224Z" fill="#930000"/>
<path opacity="0.5" d="M30.6738 162.802C30.6738 162.802 38.0489 169.911 43.8711 181.15C49.6932 192.39 48.2687 196.787 48.2687 196.787L49.6288 200.018L52.3446 191.49L50.0148 187.612L44.5144 178.631L38.6923 170.553L34.8095 166.033L31.7032 162.994L30.6738 162.802Z" fill="#930000"/>
<path opacity="0.5" d="M50.46 189.379C50.46 189.379 50.7265 193.62 48.916 198.274C48.916 198.274 49.3709 200.472 49.6283 200.018C49.8856 199.563 52.344 191.49 52.344 191.49L50.46 189.379Z" fill="#930000"/>
<path d="M59.821 201.523H59.8164L59.8394 201.362C59.8302 201.362 59.8302 201.362 59.8348 201.362L59.8118 201.358L59.7659 201.344L59.6648 201.316C59.5959 201.298 59.5269 201.27 59.458 201.248C59.3202 201.197 59.1777 201.137 59.0444 201.073C58.7687 200.94 58.5068 200.779 58.2541 200.605C57.7532 200.247 57.3029 199.816 56.9077 199.329C56.7147 199.081 56.5217 198.833 56.3746 198.576C56.2184 198.301 56.0622 198.012 55.9059 197.718L54.9823 195.965C53.7554 193.62 52.5101 191.279 51.2188 188.962C48.6363 184.331 45.8976 179.778 42.8693 175.409C41.3529 173.229 39.7676 171.09 38.0628 169.048C36.3626 167.001 34.5475 165.041 32.5394 163.27C30.5313 161.512 28.321 159.915 25.7707 158.937C24.4978 158.465 23.1377 158.18 21.7591 158.189C20.3805 158.212 19.0112 158.566 17.7843 159.181L17.821 159.162C16.8974 159.571 16.1943 160.158 15.5464 160.824C15.3764 160.98 15.2293 161.159 15.0823 161.338C14.9352 161.517 14.7836 161.691 14.6411 161.87C14.3884 162.251 14.1035 162.614 13.8738 163.013C13.8048 163.137 13.7359 163.261 13.6624 163.385C13.6348 163.435 13.6072 163.486 13.5751 163.536C13.4464 163.761 13.3223 163.981 13.2166 164.215L13.088 164.5C13.0099 164.665 12.9363 164.835 12.8628 165.009L12.6606 165.464C12.5917 165.666 12.5182 165.863 12.4492 166.065C12.3895 166.23 12.3298 166.4 12.2746 166.574C12.2149 166.749 12.1597 166.923 12.1046 167.097C12.0954 167.125 12.0908 167.148 12.0816 167.171C12.0219 167.368 11.9667 167.57 11.9162 167.772C11.7783 168.277 11.6543 168.805 11.5394 169.369C11.5348 169.388 11.5302 169.411 11.5256 169.429C11.4567 169.764 11.3969 170.113 11.3372 170.471C11.305 170.65 11.2775 170.829 11.2545 171.012C11.2315 171.159 11.2131 171.315 11.1948 171.467C10.9788 173.096 10.8777 174.739 10.8731 176.382C10.8731 176.455 10.8731 176.533 10.8731 176.602C10.8731 176.933 10.8731 177.263 10.8823 177.593C10.8915 178.039 10.9053 178.498 10.9236 178.961L10.9374 179.48L11.0063 180.159C11.0569 180.609 11.1166 181.049 11.181 181.495C11.2039 181.664 11.2315 181.839 11.2591 182.009C11.2867 182.178 11.3142 182.362 11.3418 182.55C11.3648 182.706 11.3923 182.862 11.4153 183.023C11.4705 183.376 11.5348 183.748 11.6083 184.147C11.6083 184.152 11.6083 184.152 11.6083 184.156C11.6083 184.156 11.6083 184.156 11.6083 184.161C12.0219 186.502 12.5136 189.393 13.5337 193.019C13.5705 193.17 14.439 196.741 10.6295 197.929L10 198.044L10.3676 198.59C10.4182 198.673 15.6429 207.012 21.102 211.918L21.8143 212.565L21.8556 211.748C21.8694 211.661 23.2801 202.849 22.6276 195.006L22.6 194.671L22.2692 194.74C22.2508 194.744 20.569 195.075 19.3374 194.244C18.6849 193.803 18.2668 193.101 18.0921 192.16C18.0416 191.89 17.9681 191.522 17.8808 191.077C14.8709 175.831 15.6383 166.772 20.1692 164.146C21.102 163.605 22.1911 163.513 23.395 163.866C31.6663 166.308 43.3564 188.842 46.8028 195.593C48.8799 199.669 50.6352 202.895 51.8943 205.741C54.3849 211.372 55.7589 214.47 57.8819 214.63L58.1576 214.649L60.0646 201.872L60.1059 201.583L59.821 201.523ZM12.8766 187.475C12.7755 187.006 12.679 186.552 12.5917 186.121C12.4768 185.542 12.3619 184.964 12.2562 184.381C12.2011 184.065 12.146 183.766 12.0954 183.477C12.0586 183.271 12.0265 183.06 11.9897 182.853C11.9805 182.784 11.9667 182.72 11.9576 182.651C11.8932 182.238 11.8289 181.82 11.7737 181.403C11.714 180.962 11.6543 180.522 11.6083 180.081L11.544 179.429L11.5302 178.764C11.3878 175.225 11.5807 171.632 12.4722 168.217C12.6652 167.354 12.9823 166.533 13.2718 165.702L13.814 164.504C13.9978 164.105 14.2368 163.738 14.4436 163.357C14.6641 162.981 14.9352 162.636 15.1742 162.274C15.3075 162.104 15.4545 161.943 15.5924 161.774C15.7302 161.608 15.8681 161.439 16.0289 161.296C16.6171 160.681 17.3385 160.121 18.0554 159.805L18.0921 159.786C19.2363 159.217 20.4908 158.901 21.7637 158.882C23.0366 158.878 24.3094 159.148 25.5134 159.603C27.9259 160.539 30.081 162.095 32.0386 163.821C34.0007 165.56 35.7836 167.501 37.4608 169.534C39.138 171.563 40.705 173.688 42.203 175.859C45.1945 180.205 47.9057 184.748 50.4606 189.37C51.7381 191.683 52.9742 194.019 54.1873 196.369L55.1064 198.131C55.2626 198.425 55.4188 198.719 55.5889 199.017C55.7681 199.338 55.984 199.614 56.1954 199.889C56.632 200.435 57.142 200.926 57.7164 201.344C58.0059 201.546 58.3092 201.734 58.6355 201.89C58.7963 201.968 58.9617 202.041 59.1363 202.101C59.2237 202.133 59.311 202.161 59.3983 202.188L59.4121 202.193L57.6521 213.969C56.0116 213.547 54.6376 210.449 52.4411 205.479C51.1775 202.624 49.6059 199.077 47.5197 194.983C34.1707 168.8 26.3221 164.082 23.5696 163.27C23.032 163.114 22.5173 163.031 22.021 163.031C21.249 163.031 20.5322 163.224 19.8751 163.605C12.6836 167.767 16.1576 185.377 17.3018 191.164C17.3891 191.61 17.4626 191.972 17.5086 192.243C17.7107 193.349 18.2162 194.18 19.0112 194.717C20.1094 195.456 21.4466 195.419 22.0578 195.35C22.5587 201.908 21.4237 208.852 21.1342 210.862C16.493 206.535 12.316 200.096 11.3372 198.572C15.2707 197.094 14.2873 193.106 14.2735 193.06C13.7818 191.311 13.3775 189.682 13.042 188.204C12.9869 187.97 12.9317 187.722 12.8766 187.475ZM59.4258 202.115C59.4166 202.106 59.4075 202.097 59.4029 202.087L59.435 202.064L59.4258 202.115Z" fill="#930000" stroke="#930000" stroke-width="0.34464" stroke-miterlimit="10"/>
<path opacity="0.25" d="M13.7911 200.403C13.7911 200.403 16.5069 204.41 17.4121 205.314C18.3174 206.218 16.6998 203.441 16.1163 202.083C15.5327 200.724 15.2753 199.82 15.2753 199.82C15.2753 199.82 15.018 199.347 14.5631 199.476C14.1082 199.605 13.8095 199.779 13.8095 199.779C13.8095 199.779 13.5521 200.036 13.7911 200.403Z" fill="white"/>
<path opacity="0.3" d="M56.8027 145.945C56.8027 145.945 61.7196 148.336 64.1137 149.694C66.5078 151.053 69.0306 152.668 69.0306 152.668L69.8071 151.246C69.8071 151.246 63.2084 147.758 62.8868 147.629C62.5651 147.501 57.9699 145.757 57.9699 145.757L56.8027 145.945Z" fill="#606060"/>
<path d="M13.2891 151.617C13.2891 151.617 19.7959 148.588 24.483 156.051C29.1701 163.509 27.0654 168.855 29.6617 176.763C29.6617 176.763 30.0753 168.36 38.4154 169.75C46.7557 171.141 63.3122 184.973 66.6437 186.286C66.6437 186.286 55.7347 173.89 65.6787 165.799C75.6273 157.703 83.2232 159.442 83.2232 159.442L81.2243 156.455L62.678 147.088L57.2557 145.169L43.4242 139.933L38.9668 139.598L34.9554 139.731L28.1913 141.218L22.0934 143.829L18.0175 146.404L14.81 149.552L13.2891 151.617Z" fill="#8C8C8C"/>
<path opacity="0.15" d="M17.4073 150.727C17.4073 150.727 19.7371 146.592 28.105 143.274C33.077 141.3 37.0333 140.777 37.332 141.162C37.6307 141.548 34.4417 144.825 32.112 150.034C29.7822 155.247 28.3577 159.511 27.7557 164.078L28.0131 167.653L28.445 171.444L28.831 174.027L29.4789 175.836L29.9982 175.019L30.9907 172.348L32.7599 170.324C32.7599 170.324 32.1579 166.06 32.8472 161.062C33.5365 156.064 36.3855 149.433 37.4606 147.624C38.5405 145.816 39.6617 145.082 40.0064 145.729C40.351 146.376 40.6543 150.383 41.6009 154.04C42.5475 157.703 47.0784 170.191 49.7528 174.803L51.3473 176.051L54.927 178.507L56.1769 179.108L59.5819 170.494C59.5819 170.494 51.8206 165.28 45.9526 152.273C45.9526 152.273 42.8462 143.916 44.574 143.402C46.2972 142.883 60.7904 150.208 67.7751 154.945L70.4496 151.411L63.8095 148.051L56.3055 144.862L43.4252 139.923L38.9679 139.588L33.7938 139.868L27.3238 141.589L20.6837 144.43L16.5434 147.62L13.3682 151.787L15.6795 151.066L17.4073 150.727Z" fill="#606060"/>
<path opacity="0.3" d="M42.8969 146.977C42.8969 146.977 42.2168 142.888 43.7378 142.131C45.4197 141.291 48.1998 142.585 48.1998 142.585L43.8665 140.13L42.442 140.777L41.8584 142.2L42.8969 146.977Z" fill="#606060"/>
<path opacity="0.3" d="M46.2605 158.543C46.2605 158.543 53.2452 171.012 57.8404 174.05L57.1924 176.281L55.5106 174.473L49.9458 167.465L45.7412 159.777L46.2605 158.543Z" fill="#606060"/>
<path opacity="0.3" d="M32.7376 154.862C32.7376 154.862 29.4382 163.476 30.9914 172.348L30.5687 173.435L29.5991 176.18L29.3739 174.564L29.3096 170.237L29.6312 165.39L30.3435 160.222L31.5061 155.959L32.7376 154.862Z" fill="#606060"/>
<path opacity="0.3" d="M15.6795 151.071C15.6795 151.071 18.0507 145.559 27.1721 142.264L26.9148 141.745L21.9336 144.265L17.4073 147.041L14.1723 150.208L13.3682 151.792L14.9489 151.048L15.6795 151.071Z" fill="#606060"/>
<path d="M83.3998 159.048L83.3125 155.472L83.193 155.427C83.0781 155.381 71.4936 150.842 63.0706 145.949L63.0247 145.931C62.8822 145.89 48.5636 141.892 43.9914 139.24L38.9321 136.307L39.0653 136.761C39.0653 136.77 39.2905 137.555 38.9091 138.147C38.6793 138.505 38.2704 138.73 37.6914 138.813C37.5581 138.831 37.3743 138.854 37.1445 138.882C29.3374 139.845 18.8926 142.783 13.2864 151.268C13.1991 151.397 13.1486 151.475 13.1348 151.503L12.6982 152.095L13.3737 151.783C13.3875 151.773 14.9958 151.044 17.1326 151.218C19.9954 151.452 22.4171 153.109 24.3241 156.142C27.0996 160.558 27.4764 164.247 27.8716 168.158C28.1427 170.838 28.4276 173.61 29.4799 176.813L29.8016 177.786L29.8521 176.763C29.8521 176.726 30.0589 173.101 32.5495 171.095C34.0154 169.92 35.9775 169.525 38.3853 169.925C38.5461 169.952 38.7115 169.984 38.8769 170.021C38.8953 170.026 38.9137 170.03 38.9367 170.035C39.0607 170.062 39.1894 170.094 39.3135 170.127C39.4054 170.149 39.4973 170.172 39.5892 170.2C39.6949 170.228 39.796 170.26 39.9017 170.292C40.0257 170.328 40.1452 170.365 40.2693 170.407C40.3428 170.429 40.4209 170.457 40.499 170.48C41.1424 170.7 41.7719 170.953 42.3923 171.223C44.1338 171.981 45.8019 172.894 47.447 173.853C50.7325 175.776 53.8849 177.924 57.005 180.109L61.6783 183.408C62.4595 183.959 63.2407 184.505 64.0356 185.038C64.8398 185.565 65.621 186.102 66.5446 186.515L67.551 186.965L66.8341 186.107C65.7267 184.781 64.7571 183.307 63.9345 181.775C63.1304 180.233 62.4595 178.612 62.0965 176.919C61.7197 175.235 61.6599 173.477 62.0551 171.811C62.2665 170.985 62.5422 170.168 62.9741 169.429L63.1212 169.144L63.2958 168.878L63.6496 168.341L64.0494 167.841C64.1827 167.671 64.3159 167.506 64.4722 167.355C64.7709 167.042 65.0604 166.726 65.3958 166.455L65.8829 166.028L66.4068 165.633C67.1006 165.106 67.7899 164.564 68.5251 164.096C69.9588 163.1 71.5028 162.274 73.0836 161.553C74.6689 160.828 76.337 160.31 78.0326 159.97C78.4554 159.878 78.8873 159.832 79.3147 159.764C79.7466 159.727 80.174 159.667 80.6059 159.658C81.456 159.612 82.3475 159.644 83.1425 159.791L84.011 159.952L83.5331 159.231L83.3998 159.048ZM45.3745 172.137C45.2275 172.059 45.0805 171.985 44.9334 171.907C44.5796 171.724 44.2303 171.549 43.8857 171.379C43.8719 171.375 43.8627 171.37 43.8489 171.361C41.8684 170.407 39.9476 169.333 38.3807 169.076C36.483 168.759 34.8425 168.92 33.4869 169.548C33.0412 169.755 32.6276 170.012 32.2462 170.319C30.6333 171.618 29.9946 174 29.6959 175.299C29.3191 170.631 29.0709 155.413 39.9246 142.796C40.0579 142.627 40.4163 142.292 40.6461 142.351C40.8207 142.397 40.9632 142.682 41.0413 143.159C41.0643 143.306 41.0826 143.563 41.1056 143.925C42.1625 160.704 54.3582 175.354 65.019 185.079C64.7847 184.928 64.5503 184.776 64.3205 184.625C63.5302 184.097 62.7444 183.555 61.9632 183.014L57.2715 179.732C54.133 177.561 50.9807 175.317 47.6675 173.399C47.1437 173.096 46.6152 172.802 46.0868 172.513C45.8478 172.389 45.6089 172.261 45.3745 172.137ZM25.0501 155.661C22.5871 151.741 19.467 150.888 17.4037 150.727C15.9562 150.612 14.495 151.007 13.8149 151.223L14.2652 150.608C15.0831 149.607 16.5444 148.051 18.7869 146.454C22.2608 143.98 28.3633 140.91 37.6684 140.341C37.673 140.341 38.206 140.378 38.4082 140.745C38.5737 141.048 38.4817 141.53 38.1463 142.135C38.036 142.337 37.82 142.654 37.5259 143.095C35.0033 146.867 27.5821 157.987 29.1628 174.289C28.6528 172.1 28.4414 170.085 28.2438 168.126C27.844 164.174 27.8716 160.149 25.0501 155.661ZM63.4566 182.036C63.9024 182.862 64.3895 183.661 64.9133 184.432C59.3072 179.035 42.8334 161.581 42.5301 142.599C42.5301 142.59 42.4566 141.764 42.8839 141.364C43.0815 141.176 43.3664 141.112 43.7387 141.163C45.517 141.424 58.7282 146.509 61.4577 147.716C63.691 148.703 77.7293 156.569 81.9385 158.937C81.4836 158.919 81.0287 158.928 80.5692 158.951C80.1188 158.96 79.6731 159.029 79.2228 159.066C78.7816 159.139 78.3313 159.19 77.8947 159.286C76.1394 159.644 74.4254 160.195 72.8033 160.943C71.1858 161.696 69.5407 162.32 68.084 163.343C67.335 163.825 66.6365 164.376 65.9335 164.918L65.405 165.326L64.8995 165.776C64.5549 166.065 64.247 166.395 63.9391 166.726C63.7783 166.886 63.6359 167.061 63.498 167.24L63.0752 167.772L62.703 168.341L62.5192 168.626L62.363 168.929C61.9127 169.718 61.6186 170.585 61.4026 171.462C60.9936 173.234 61.1407 175.308 61.5404 177.052C61.931 178.801 62.6295 180.462 63.4566 182.036Z" fill="#002636"/>
<path d="M193.432 150.24C193.432 150.24 188.473 147.211 184.903 154.674C181.332 162.132 182.936 167.478 180.956 175.386C180.956 175.386 180.638 166.983 174.283 168.373C167.928 169.764 155.305 183.596 152.769 184.909C152.769 184.909 161.086 172.513 153.504 164.422C145.922 156.326 140.132 158.065 140.132 158.065L141.653 155.078L155.788 145.711L159.919 143.792L170.46 138.556L173.856 138.221L176.912 138.354L182.072 139.845L186.718 142.457L189.824 145.031L192.269 148.18L193.432 150.24Z" fill="#8C8C8C"/>
<path opacity="0.15" d="M190.293 149.35C190.293 149.35 188.519 145.215 182.141 141.897C178.35 139.923 175.335 139.4 175.106 139.785C174.876 140.171 177.307 143.448 179.085 148.657C180.859 153.871 181.943 158.134 182.403 162.701L182.205 166.276L181.874 170.067L181.58 172.651L181.089 174.459L180.693 173.642L179.935 170.971L178.589 168.947C178.589 168.947 179.048 164.683 178.524 159.685C178.001 154.687 175.827 148.056 175.009 146.247C174.187 144.439 173.332 143.705 173.07 144.352C172.808 144.999 172.578 149.006 171.852 152.663C171.131 156.326 167.68 168.814 165.64 173.426L164.422 174.674L161.692 177.13L160.741 177.731L158.145 169.117C158.145 169.117 164.063 163.903 168.53 150.897C168.53 150.897 170.896 142.539 169.582 142.025C168.268 141.507 157.221 148.831 151.9 153.568L149.864 150.034L154.928 146.674L160.649 143.485L170.469 138.546L173.865 138.211L177.808 138.491L182.738 140.212L187.802 143.053L190.959 146.243L193.381 150.41L191.616 149.69L190.293 149.35Z" fill="#606060"/>
<path opacity="0.3" d="M170.869 145.6C170.869 145.6 171.384 141.511 170.231 140.754C168.948 139.914 166.83 141.208 166.83 141.208L170.134 138.753L171.218 139.4L171.664 140.823L170.869 145.6Z" fill="#606060"/>
<path opacity="0.3" d="M168.305 157.166C168.305 157.166 162.979 169.635 159.478 172.674L159.969 174.904L161.251 173.096L165.493 166.088L168.695 158.4L168.305 157.166Z" fill="#606060"/>
<path opacity="0.3" d="M178.606 153.485C178.606 153.485 181.12 162.099 179.939 170.971L180.261 172.059L181.001 174.803L181.175 173.188L181.226 168.86L180.978 164.013L180.435 158.846L179.548 154.582L178.606 153.485Z" fill="#606060"/>
<path opacity="0.3" d="M191.608 149.694C191.608 149.694 189.802 144.182 182.85 140.887L183.047 140.369L186.843 142.888L190.294 145.665L192.757 148.831L193.368 150.415L192.164 149.671L191.608 149.694Z" fill="#606060"/>
<path d="M139.901 157.859L139.538 158.579L140.2 158.419C140.806 158.272 141.482 158.244 142.134 158.286C142.461 158.295 142.791 158.354 143.118 158.391C143.444 158.46 143.77 158.506 144.092 158.598C145.388 158.937 146.661 159.456 147.865 160.181C149.069 160.906 150.245 161.728 151.339 162.724C151.904 163.192 152.423 163.733 152.956 164.261L153.356 164.656L153.728 165.083C153.985 165.358 154.206 165.67 154.431 165.982C154.551 166.134 154.652 166.299 154.753 166.469L155.061 166.969L155.327 167.506L155.46 167.772L155.575 168.057C155.902 168.795 156.113 169.612 156.274 170.438C156.572 172.104 156.527 173.862 156.242 175.546C155.966 177.24 155.456 178.86 154.84 180.402C154.215 181.935 153.475 183.408 152.63 184.735L152.083 185.593L152.85 185.143C153.553 184.73 154.151 184.188 154.762 183.665C155.369 183.133 155.966 182.587 156.559 182.036L160.12 178.736C162.5 176.552 164.904 174.404 167.408 172.481C168.662 171.526 169.935 170.608 171.259 169.851C171.732 169.58 172.215 169.328 172.702 169.107C172.761 169.08 172.816 169.057 172.876 169.034C172.968 168.993 173.065 168.956 173.157 168.919C173.235 168.887 173.317 168.855 173.395 168.828C173.464 168.8 173.538 168.777 173.607 168.754C173.703 168.722 173.8 168.69 173.896 168.662C173.91 168.658 173.924 168.653 173.942 168.649C174.071 168.612 174.195 168.58 174.315 168.552C176.153 168.153 177.646 168.543 178.763 169.722C180.66 171.723 180.817 175.354 180.821 175.39L180.858 176.414L181.102 175.441C181.906 172.237 182.117 169.465 182.329 166.785C182.632 162.88 182.921 159.185 185.035 154.77C186.487 151.736 188.33 150.08 190.517 149.846C192.148 149.671 193.371 150.401 193.385 150.41L193.899 150.722L193.568 150.13C193.555 150.103 193.518 150.025 193.454 149.896C189.18 141.406 181.221 138.473 175.27 137.509C175.096 137.482 174.953 137.459 174.852 137.44C174.411 137.358 174.099 137.133 173.924 136.775C173.634 136.183 173.804 135.398 173.804 135.389L173.906 134.934L170.05 137.867C166.562 140.52 155.653 144.517 155.543 144.559L155.511 144.577C149.091 149.465 140.264 154.008 140.172 154.054L140.08 154.1L140.016 157.675L139.901 157.859ZM168.433 171.141C168.028 171.43 167.629 171.723 167.229 172.026C164.706 173.945 162.303 176.184 159.909 178.36L156.334 181.641C155.736 182.183 155.139 182.729 154.537 183.252C154.362 183.404 154.183 183.555 154.004 183.707C162.128 173.981 171.424 159.332 172.228 142.553C172.247 142.195 172.256 141.933 172.274 141.786C172.334 141.309 172.444 141.025 172.578 140.979C172.757 140.919 173.023 141.25 173.129 141.424C181.4 154.04 181.212 169.259 180.927 173.926C180.697 172.628 180.215 170.246 178.983 168.947C178.689 168.639 178.377 168.382 178.037 168.176C177.003 167.542 175.753 167.386 174.305 167.703C173.111 167.965 171.649 169.034 170.138 169.989C170.128 169.993 170.119 169.998 170.11 170.007C169.848 170.172 169.581 170.351 169.31 170.535C169.2 170.613 169.085 170.686 168.975 170.764C168.796 170.884 168.616 171.012 168.433 171.141ZM182.03 166.749C181.878 168.708 181.717 170.723 181.327 172.912C182.531 156.606 176.874 145.49 174.953 141.718C174.728 141.277 174.567 140.96 174.48 140.758C174.223 140.153 174.154 139.671 174.278 139.368C174.429 139.001 174.838 138.964 174.843 138.964C181.938 139.533 186.588 142.603 189.235 145.077C190.945 146.674 192.057 148.23 192.682 149.231L193.026 149.846C192.507 149.63 191.395 149.235 190.292 149.35C188.72 149.515 186.345 150.364 184.465 154.284C182.315 158.772 182.338 162.797 182.03 166.749ZM156.651 175.67C156.954 173.926 157.069 171.852 156.756 170.08C156.591 169.204 156.366 168.332 156.021 167.547L155.902 167.244L155.759 166.96L155.479 166.391L155.157 165.858C155.051 165.679 154.946 165.5 154.822 165.344C154.587 165.014 154.353 164.683 154.091 164.394L153.705 163.944L153.301 163.536C152.763 162.994 152.235 162.439 151.665 161.962C150.557 160.938 149.303 160.314 148.071 159.561C146.835 158.813 145.53 158.263 144.193 157.905C143.858 157.808 143.518 157.758 143.182 157.684C142.842 157.643 142.502 157.579 142.157 157.57C141.808 157.547 141.463 157.537 141.114 157.556C144.322 155.192 155.019 147.321 156.724 146.335C158.806 145.132 168.874 140.043 170.229 139.781C170.51 139.726 170.73 139.795 170.877 139.983C171.199 140.382 171.144 141.208 171.144 141.217C170.909 160.199 158.355 177.653 154.082 183.05C154.482 182.275 154.854 181.476 155.194 180.655C155.828 179.085 156.357 177.424 156.651 175.67Z" fill="#002636"/>
<path d="M174.457 219.954L44.1604 219.683C44.041 219.683 43.9261 219.628 43.8526 219.536C43.779 219.445 43.7469 219.321 43.7744 219.206C58.4561 152.296 77.3883 142.938 78.1879 142.571C78.2338 142.548 78.289 142.535 78.3395 142.535L145.912 140.653C145.949 140.648 146.008 140.658 146.05 140.676C146.344 140.777 153.306 143.374 160.024 162.159C167.022 181.724 173.823 211.064 174.852 219.513C174.866 219.628 174.829 219.738 174.756 219.821C174.678 219.904 174.568 219.954 174.457 219.954ZM44.6475 218.898L174.007 219.165C172.812 210.206 166.14 181.609 159.279 162.421C153.044 144.985 146.537 141.745 145.848 141.442L78.4498 143.319C77.1999 143.989 58.7732 154.871 44.6475 218.898Z" fill="#002636"/>
<path d="M174.457 219.559C173.382 210.688 166.379 181.109 159.651 162.288C152.919 143.466 145.921 141.048 145.921 141.048L78.3484 142.929C78.3484 142.929 58.9659 151.801 44.1602 219.289L174.457 219.559Z" fill="#DFDFDF"/>
<path d="M173.712 214.295C173.409 212.547 173.069 210.812 172.724 209.073C172.021 205.598 171.277 202.133 170.468 198.682C168.841 191.784 167.081 184.918 165.156 178.094C164.163 174.688 163.157 171.288 162.059 167.914C160.979 164.536 159.821 161.177 158.479 157.873C157.133 154.577 155.593 151.342 153.654 148.317C152.694 146.803 151.614 145.357 150.41 144.008C149.799 143.338 149.165 142.691 148.457 142.108C147.74 141.516 147.046 140.979 146.081 140.566C146.035 140.547 145.985 140.534 145.93 140.538H145.902C134.639 140.85 123.381 141.305 112.123 141.686C106.494 141.892 100.864 142.08 95.2308 142.246C89.6017 142.415 83.9725 142.613 78.3388 142.727H78.3296C78.3067 142.727 78.2837 142.732 78.2607 142.746C77.4428 143.186 76.7259 143.714 76.0275 144.283L75.0027 145.155C74.6765 145.458 74.364 145.779 74.0423 146.091C73.7299 146.408 73.3944 146.711 73.1003 147.042L72.218 148.047L71.3358 149.052C71.0509 149.396 70.7889 149.754 70.5132 150.103C69.9756 150.814 69.415 151.507 68.8957 152.228L67.4023 154.44L66.6533 155.546C66.4143 155.922 66.1937 156.308 65.964 156.689L64.5992 158.983C61.0701 165.165 58.1843 171.682 55.565 178.286C54.9217 179.943 54.3519 181.628 53.7407 183.294L52.8355 185.799L52.3852 187.052L51.9808 188.324L50.3725 193.404C49.8348 195.098 49.288 196.787 48.8377 198.508L47.4178 203.643C46.9582 205.36 46.4482 207.062 46.0622 208.797L43.59 219.165C43.5808 219.206 43.5762 219.252 43.5762 219.293C43.5762 219.605 43.8289 219.862 44.1414 219.867H44.1552C51.7189 219.729 60.6244 219.858 76.8546 219.959C87.7452 220.028 98.668 219.995 109.526 219.917L174.498 219.596C174.314 217.788 174.02 216.035 173.712 214.295ZM109.085 218.931C98.2314 218.807 87.4327 218.811 76.611 218.752C66.0329 218.697 55.4685 218.701 44.8858 218.71L47.1329 209.063C47.5097 207.333 48.0059 205.63 48.4563 203.919L49.821 198.783C50.2484 197.062 50.7769 195.373 51.2961 193.679L52.8401 188.599L53.2261 187.328L53.6626 186.075L54.5357 183.569C55.1239 181.898 55.6799 180.219 56.3003 178.562C58.8276 171.953 61.7456 165.62 65.215 159.447L66.5522 157.157C66.7773 156.776 66.9933 156.39 67.2277 156.014L69.5712 152.861C70.0813 152.14 70.936 151.2 71.4644 150.493C71.7355 150.144 71.9929 149.781 72.2732 149.442L73.1417 148.441L74.0102 147.441C74.3043 147.11 74.6259 146.812 74.9338 146.495C75.2463 146.188 75.5541 145.867 75.8712 145.564L76.8684 144.701C77.5393 144.141 78.5135 143.824 79.2533 143.416L79.5887 143.269C85.2178 143.072 89.6338 142.815 95.2629 142.668C100.892 142.521 106.526 142.392 112.159 142.287C123.386 142.044 134.644 141.754 145.865 141.442C146.518 141.736 147.202 142.365 147.818 142.893C148.475 143.439 149.082 144.063 149.661 144.705C150.805 146.004 151.848 147.413 152.781 148.891C154.674 151.833 156.223 155.009 157.565 158.258C158.906 161.512 160.078 164.844 161.176 168.208C162.293 171.563 163.318 174.95 164.324 178.337C166.332 185.12 168.193 191.954 169.912 198.82C170.753 202.257 171.612 205.69 172.384 209.146C173.156 212.579 173.887 216.108 174.429 219.518L109.085 218.931Z" fill="#002636"/>
<path d="M76.1387 145.421C76.1387 145.421 94.0553 154.83 118.97 154.531C118.97 154.531 132.917 155.44 147.856 142.929C147.856 142.929 146.914 141.961 145.848 141.442C144.773 140.924 81.777 142.535 79.7551 143.163C77.7332 143.797 76.1387 145.421 76.1387 145.421Z" fill="#BDC5C9"/>
<path d="M83.0215 144.237C83.0215 144.237 104.155 152.347 120.509 150.236C136.863 148.125 144.868 141.571 144.868 141.571L128.293 146.459L120.394 148.46L109.26 148.111L98.8152 147.129L83.0215 144.237Z" fill="#A2A8AA"/>
<path d="M28.2745 67.7365C28.2745 67.7365 41.3756 33.4992 93.2462 28.8409C145.117 24.1826 172.035 65.4096 171.319 95.7C170.602 125.99 161.986 138.543 125.913 147.322C125.913 147.322 121.695 148.038 118.465 148.176C115.234 148.309 60.317 149.924 48.1995 117.661C48.1995 117.661 41.0218 96.9575 50.5339 78.3152C50.5339 78.3152 56.9074 66.3046 52.5098 63.7941C46.3292 60.2694 21.4553 86.7368 28.2745 67.7365Z" fill="#DFDFDF"/>
<path d="M28.22 67.7129C29.3229 65.0923 30.7704 62.6415 32.3603 60.2917C33.9549 57.9465 35.7194 55.716 37.6265 53.6187C41.4589 49.4377 45.7921 45.7064 50.516 42.5535C52.8595 40.9426 55.3409 39.5566 57.8453 38.2119C60.3819 36.9314 62.9598 35.7244 65.6158 34.7009C70.9095 32.6265 76.4053 31.0523 81.9885 29.96C87.5762 28.8907 93.2375 28.2069 98.9402 28.0095C104.638 27.8168 110.364 28.2482 115.97 29.3267C121.572 30.4098 127.058 32.14 132.219 34.5862C137.379 37.014 142.227 40.0981 146.615 43.7284C155.365 51.0256 162.234 60.4891 166.577 70.976C167.142 72.2794 167.592 73.6241 168.089 74.955C168.507 76.3135 168.989 77.649 169.325 79.0304C170.097 81.7612 170.634 84.5561 171.043 87.3649C171.434 90.1782 171.567 93.0237 171.54 95.8645C171.475 98.6962 171.337 101.533 171.089 104.36C170.584 110 169.582 115.668 167.418 120.964C166.333 123.603 164.95 126.132 163.227 128.418C161.513 130.712 159.486 132.764 157.262 134.563C152.796 138.156 147.631 140.754 142.333 142.81C137.03 144.898 124.329 149.272 114.766 148.34C111.007 148.327 107.253 148.138 103.508 147.822C96.0222 147.17 88.5642 145.958 81.3176 143.866C74.0985 141.75 67.0036 139.217 60.8506 134.756C57.7902 132.52 55.0055 129.882 52.6895 126.866C50.3735 123.846 48.5401 120.478 47.3269 116.834C45.3326 109.541 44.6433 101.918 45.4429 94.4097C45.5716 93.4734 45.6175 92.5326 45.8243 91.6055L46.3527 88.8243C46.849 87.0023 47.2718 85.162 47.9748 83.4088C48.5446 81.6097 49.4315 79.93 50.2035 78.2135C51.0628 76.5705 51.8256 74.8724 52.4735 73.133C53.1031 71.3936 53.6453 69.5991 53.7878 67.7771C53.8521 66.873 53.7924 65.9413 53.4385 65.1428C53.0847 64.3488 52.3403 63.7522 51.4626 63.6833C50.5803 63.6007 49.6659 63.8256 48.7974 64.1147C47.9243 64.4085 47.0742 64.7894 46.2425 65.207C44.579 66.0423 42.9707 66.9969 41.3853 67.9882C38.2055 69.9479 35.1404 72.1187 31.7767 73.7985C30.9266 74.1978 30.0581 74.5833 29.1069 74.7164C28.6428 74.7714 28.1144 74.7714 27.7008 74.4639C27.278 74.1702 27.1218 73.6562 27.0713 73.1881C26.9748 72.2335 27.1815 71.3018 27.3975 70.3931C27.6089 69.489 27.903 68.5986 28.22 67.7129ZM28.3303 67.7542C28.0225 68.6353 27.733 69.5211 27.5124 70.4252C27.301 71.3248 27.108 72.2564 27.2091 73.1697C27.2597 73.6149 27.4159 74.0784 27.7835 74.3308C28.1373 74.597 28.629 74.6016 29.0748 74.5466C29.9846 74.4135 30.8485 74.0279 31.6848 73.6287C35.0117 71.9397 38.0676 69.7506 41.2383 67.7679C42.8236 66.772 44.4136 65.7807 46.0862 64.9133C46.9225 64.4819 47.7772 64.0826 48.6687 63.7659C49.5602 63.4539 50.5022 63.1968 51.4948 63.2749C52.5057 63.3299 53.4339 64.0459 53.8429 64.95C54.2611 65.8587 54.33 66.8592 54.2795 67.8092C54.16 69.723 53.6315 71.5542 53.0204 73.3349C52.3908 75.1111 51.6464 76.8413 50.8009 78.5256C50.0703 80.2283 49.2247 81.8851 48.6963 83.6658C48.0346 85.4006 47.6486 87.218 47.1937 89.0125L46.7204 91.7478C46.6285 92.2022 46.5733 92.6611 46.532 93.1246L46.3849 94.5061C45.6726 101.877 46.4309 109.399 48.4527 116.499C49.6153 119.932 51.3983 123.227 53.6361 126.132C55.8786 129.042 58.5806 131.603 61.5674 133.773C67.5642 138.11 74.5075 141.029 81.6301 143.104C88.7664 145.187 96.1509 146.427 103.572 147.106C107.285 147.436 111.012 147.638 114.734 147.666C116.6 147.675 118.456 147.675 120.289 147.505C122.132 147.34 123.984 147.092 125.813 146.798L125.776 146.807C131.263 145.463 136.726 143.98 141.993 141.956C147.259 139.965 152.369 137.454 156.775 133.971C158.972 132.231 160.971 130.24 162.671 128.009C164.38 125.788 165.754 123.314 166.839 120.726C169.003 115.53 170.037 109.922 170.575 104.314C170.841 101.505 170.997 98.6825 171.08 95.8554C171.126 93.0374 171.011 90.2149 170.644 87.4154C170.248 84.625 169.761 81.8346 168.966 79.1268C168.626 77.7546 168.139 76.4282 167.721 75.0835C167.225 73.7618 166.765 72.4262 166.2 71.132C161.862 60.7048 154.9 51.3928 146.156 44.2837C137.393 37.1838 126.838 32.4108 115.777 30.3318C110.244 29.2808 104.597 28.9136 98.9677 29.0376C93.3386 29.1936 87.7095 29.8315 82.1631 30.855C71.0887 32.9019 60.2164 36.6928 50.7366 42.8885C45.9851 45.9497 41.6105 49.6029 37.7873 53.7655C35.8756 55.8491 34.1019 58.0613 32.4982 60.3881C30.899 62.715 29.4378 65.1611 28.3303 67.7542Z" fill="#002636"/>
<path d="M31.7755 62.0266C31.7755 62.0266 30.0707 67.2861 31.1828 68.6171C32.2948 69.948 49.352 57.8777 57.5085 61.6549C57.5085 61.6549 57.9128 62.2469 57.9542 63.8027C57.991 65.2484 57.6969 67.8001 57.3246 70.026C56.9524 72.2473 54.0621 79.5721 52.9133 84.0973C49.4301 97.7968 48.0929 126.683 71.896 139.57L69.2262 138.831L60.6975 134.237L52.9133 126.091L48.7592 119.275L47.3485 114.314L45.7907 107.054L45.6437 100.61L46.0159 92.9824L47.1279 87.2043L48.8327 81.8714L50.8362 77.5022L52.6146 74.0234L53.5428 70.8383L54.278 67.8139L53.8369 65.3585L52.7616 63.8394L49.6093 63.5411L47.7161 64.3167L42.4178 66.9511L36.743 70.5446L34.4086 71.9536L30.8841 73.9179L28.5497 74.2529L27.6583 73.3258C27.6583 73.3258 27.286 71.178 27.4009 71.1045C27.5158 71.0311 28.4762 67.4376 28.4762 67.4376C28.4762 67.4376 29.8502 64.9914 29.9237 64.8812C29.9972 64.7711 31.7755 62.0266 31.7755 62.0266Z" fill="#BDC5C9"/>
<path d="M49.6094 63.5457L51.5761 62.7701L54.0437 62.3892L56.5803 62.4213C56.5803 62.4213 57.2144 62.4993 57.1869 63.1143C57.1593 63.7247 53.8783 70.5308 53.8783 70.5308L54.0989 68.1719L53.8507 65.5605L52.7663 63.8486L51.112 63.1785L49.6094 63.5457Z" fill="#A2A8AA"/>
<path d="M50.2942 62.8573C50.9835 62.6875 51.6774 62.5544 52.3759 62.4626C53.0743 62.3662 53.7774 62.3111 54.4805 62.302C55.1835 62.279 55.882 62.3387 56.5759 62.4167C55.8774 62.4075 55.1835 62.4167 54.4896 62.4993C53.8004 62.5727 53.1157 62.6875 52.4448 62.8481C51.7739 63.0042 51.1076 63.1923 50.4597 63.4218C49.8163 63.6467 48.1299 64.2295 48.0334 64.0368C47.9369 63.844 47.606 63.8991 50.2942 62.8573Z" fill="#002636"/>
<path d="M171.191 91.578C171.191 91.578 169.22 109.238 166.251 117.389C163.283 125.54 157.254 134.563 157.254 134.563L160.213 131.35L163.549 127.72L166.219 122.906L168.296 117.72L169.707 112.832L170.525 107.352L170.971 101.354L171.343 95.1302L171.191 91.578Z" fill="#BDC5C9"/>
<path d="M47.9697 83.4135C47.9697 83.4135 45.5342 96.576 48.2041 110.018C50.8739 123.461 54.21 128.239 54.21 128.239L51.485 124.406L48.7601 119.275L46.7014 112.96L45.81 106.127L45.6445 98.5173L46.0167 92.9824L47.9697 83.4135Z" fill="#A2A8AA"/>
<path d="M82.4613 218.623L82.4567 219.995L44.459 219.867L45.3229 216.971L74.3048 216.93L82.4613 218.623Z" fill="#DFDFDF"/>
<path d="M52.3765 190.127C53.6264 187.814 48.5303 212.698 49.8629 219.881L44.459 219.871C44.459 219.867 51.1266 192.44 52.3765 190.127Z" fill="#BDC5C9"/>
<path d="M174.411 219.519L174.457 219.955L154.867 219.923L154.886 219.376L154.89 219.229L174.411 219.519Z" fill="#DFDFDF"/>
<path d="M146.771 161.466C146.771 161.466 149.983 165.569 152.873 175.79C155.763 186.011 158.507 210.968 158.952 218.747L158.966 219.94L154.844 219.917L154.504 218.265V214.488L154.284 205.787L153.691 197.457L152.689 188.236L151.021 178.906L149.427 171.315L148.016 165.464L146.771 161.466Z" fill="#BDC5C9"/>
<path d="M152.929 194.561C153.163 197.356 153.416 200.151 153.545 202.955C153.738 205.754 153.834 208.559 153.963 211.358C154.133 214.011 153.687 217.118 153.793 219.78L154.877 219.917C154.896 218.655 155.015 216.769 155.024 215.507C155.033 214.098 155.043 212.689 154.992 211.285L154.845 207.062C154.799 205.653 154.657 204.254 154.565 202.849C154.376 200.041 154.059 197.241 153.765 194.441C153.113 188.847 152.281 183.275 151.169 177.754C150.015 172.247 148.687 166.762 146.767 161.466C146.757 161.443 146.73 161.429 146.702 161.439C146.679 161.448 146.666 161.475 146.675 161.503C148.471 166.827 149.271 172.334 150.296 177.846C151.321 183.367 152.373 188.98 152.929 194.561Z" fill="#002636"/>
<path d="M83.7021 218.775V219.995L153.802 219.922L153.779 219.169L93.4532 217.659L83.7021 218.775Z" fill="#DFDFDF"/>
<path d="M90.7966 166.914C90.7966 166.914 92.4508 166.248 91.8581 170.099C91.2653 173.949 89.2158 208.003 89.8086 220H83.7016L83.2559 208.907L84.8872 187.874L86.1095 179.691L87.0285 174.72L88.5587 170.576L89.1653 169.08L89.9051 167.556L90.7966 166.914Z" fill="#C2CACC"/>
<path d="M83.6881 219.289C83.6881 219.064 83.6835 218.839 83.6881 218.614C83.7249 212.744 83.8306 206.87 84.1614 201C84.5061 195.134 84.7221 189.269 85.4803 183.445C85.8525 180.531 86.2982 177.626 87.0059 174.776C87.3597 173.353 87.7549 171.935 88.2604 170.558C88.5085 169.869 88.798 169.195 89.1335 168.543C89.3035 168.222 89.4873 167.901 89.7033 167.611C89.9146 167.327 90.1674 167.024 90.4753 166.9L90.4936 166.891C90.5166 166.882 90.5304 166.854 90.5212 166.831C90.512 166.808 90.4844 166.794 90.4615 166.804C90.0709 166.946 89.8411 167.249 89.6068 167.538C89.377 167.832 89.184 168.148 89.0048 168.474C88.651 169.126 88.3431 169.801 88.0812 170.489C87.5481 171.866 87.1162 173.279 86.7302 174.702C85.9582 177.548 85.4481 180.466 85.0116 183.376C84.1569 189.209 83.5733 195.075 83.1367 200.949C82.7048 206.824 82.3831 212.717 82.4704 218.619C82.475 218.839 82.4842 219.064 82.4888 219.289H83.6881Z" fill="#002636"/>
<path opacity="0.32" d="M170.785 85.8004L168.088 74.9556L163.778 65.2489L157.547 55.5835L149.45 47.0746L142.865 41.0303L132.213 34.5867L122.508 31.365L114.834 29.5888L109.605 28.9234L101.821 28.368L94.3672 28.5883L81.9878 29.9652L75.458 32.2553C75.458 32.2553 98.5948 27.8127 116.838 32.9208C135.081 38.0334 154.546 54.6243 160.722 78.8795C160.722 78.8795 164.361 92.7489 164.706 102.226C165.051 111.703 161.126 130.093 151.1 138.129L155.217 135.798L160.221 131.355L163.893 127.133L166.562 122.135L168.676 115.802L169.898 112.135L171.089 104.365L171.125 92.9141L170.785 85.8004Z" fill="#BDC5C9"/>
<path d="M149.891 46.4728C139.57 36.8212 121.36 25.8478 93.2553 28.3766C66.378 30.7907 50.0835 41.2776 41.1458 49.6533C31.4498 58.7358 28.0678 67.3778 28.0356 67.465V67.4695C26.6341 71.3798 26.4732 73.5919 27.5393 74.4363C29.2809 75.8178 33.7245 72.9585 38.8666 69.6449C44.0729 66.2946 49.9824 62.4992 52.3948 63.8806C56.4938 66.2212 50.3684 77.8876 50.304 78.0069C40.8425 96.5483 47.8824 117.375 47.9559 117.591C58.7408 146.321 103.084 148.354 115.4 148.354C117.123 148.354 118.221 148.313 118.511 148.304C121.723 148.17 125.955 147.459 126.014 147.445C160.699 139.464 170.891 127.366 171.645 95.5386C172.058 78.2043 163.723 59.4059 149.891 46.4728ZM171.057 95.5249C170.666 112.01 167.95 121.772 161.682 129.221C155.143 136.991 144.101 142.434 125.9 146.862C125.858 146.872 121.663 147.578 118.488 147.712C116.135 147.812 60.6616 149.735 48.5165 117.394C48.443 117.187 41.4858 96.5988 50.8325 78.2823C51.099 77.782 57.2841 65.9872 52.6935 63.3666C52.2524 63.1142 51.7377 63.004 51.1541 63.004C48.1029 63.004 43.7972 65.4227 39.0917 68.4517C34.5516 71.3706 29.8553 74.3904 28.4538 73.2752C27.8932 72.83 27.5577 71.3752 29.1385 66.9739C29.3315 66.4782 42.3451 33.5489 93.3151 28.9686C121.213 26.4628 139.258 37.3398 149.496 46.9088C163.199 59.7271 171.461 78.3557 171.057 95.5249Z" fill="#002636"/>
<path d="M90.7148 82.7709C90.7148 82.7709 97.0378 82.8351 100.774 86.6673C104.505 90.5041 105.13 99.2287 105.13 99.2287L101.293 91.5826L97.0884 86.7912L90.7148 82.7709Z" fill="#BDC5C9"/>
<path d="M137.36 98.7468C137.36 98.7468 137.126 90.9493 139.938 86.5022C142.75 82.055 147.846 81.1371 147.846 81.1371L143.224 86.6169L137.36 98.7468Z" fill="#BDC5C9"/>
<path d="M137.361 98.7468C138.202 95.3827 139.425 92.3353 141.106 89.3017C141.975 87.801 142.931 86.3415 144.001 84.9693C145.086 83.6108 146.483 82.2018 147.848 81.1371C146.745 82.4772 145.752 83.8632 144.792 85.2676C143.864 86.6995 142.967 88.1498 142.127 89.6322C141.281 91.1146 140.486 92.6245 139.696 94.1436L137.361 98.7468Z" fill="#002636"/>
<path d="M105.13 99.2332C104.234 97.5901 103.255 96.0114 102.253 94.4601C101.233 92.9181 100.167 91.4127 99.0092 89.9854C97.8466 88.5627 96.5783 87.2317 95.2273 85.988C93.8396 84.781 92.3507 83.707 90.7148 82.7754C92.4886 83.3766 94.4048 84.1063 95.912 85.2583C97.4009 86.4286 98.7426 87.7779 99.9512 89.2282C102.295 92.1792 103.972 95.6672 105.13 99.2332Z" fill="#002636"/>
<path d="M151.464 93.2992C151.464 93.2992 151.473 98.3568 148.417 101.652C145.361 104.947 144.029 107.054 145.559 109.289C147.089 111.524 151.877 108.22 153.84 102.845C155.802 97.471 155.765 91.1009 153.766 90.6557C151.767 90.2105 151.464 93.2992 151.464 93.2992Z" fill="#EFEFEF"/>
<path d="M148.255 96.848C148.832 95.4817 148.653 94.1016 147.855 93.7661C147.058 93.4302 145.944 94.2659 145.367 95.6322C144.791 96.9985 144.97 98.3785 145.767 98.714C146.564 99.05 147.679 98.2142 148.255 96.848Z" fill="#EFEFEF"/>
<path d="M89.9517 96.6309C89.9517 96.6309 87.9574 106.035 83.9182 104.245C79.8791 102.455 78.0226 103.024 78.6292 105.92C79.2357 108.816 83.1462 112.529 86.8316 110.344C90.5123 108.16 93.2419 103.116 94.3172 96.5896C94.3172 96.5896 94.8088 93.1154 92.6629 93.1062C90.5215 93.097 89.9517 96.6309 89.9517 96.6309Z" fill="#EFEFEF"/>
<path d="M84.0694 95.9525C85.5252 94.5064 86.0127 92.639 85.159 91.7817C84.3052 90.9248 82.4331 91.4026 80.9778 92.8487C79.522 94.2948 79.0345 96.1623 79.8883 97.0191C80.7421 97.8764 82.6141 97.3987 84.0694 95.9525Z" fill="#EFEFEF"/>
<path d="M94.2109 123.208C97.6849 116.485 103.434 102.675 105.221 98.4116C107.339 93.3541 106.6 81.5592 96.0536 80.5678C86.0912 79.6316 84.4691 90.6417 84.4691 90.6417L84.4094 91.1144L84.0556 90.7656C84.0556 90.7656 76.6527 82.4495 68.8363 88.6912C60.5603 95.2954 66.2032 104.809 70.973 108.632C74.5803 111.524 87.1987 119.61 93.7974 123.328L94.0777 123.488L94.2109 123.208Z" fill="#FF0600"/>
<path opacity="0.3" d="M68.8274 89.6504C68.8274 89.6504 65.4637 92.17 67.0812 97.0165C68.6987 101.863 82.2178 111.166 95.6725 117.628C95.6725 117.628 100.396 107.742 101.43 106.255L101.559 107.288L94.0688 123.493L81.5055 115.622L69.4064 107.095L65.2018 99.7931L65.0088 95.401L66.6906 91.0089L68.8274 89.6504Z" fill="#930000"/>
<path opacity="0.3" d="M76.332 111.68L94.5106 121.758L94.0741 123.493L86.9423 119.239L76.332 111.68Z" fill="#930000"/>
<path opacity="0.25" d="M88.1735 85.9651C88.1735 85.9651 91.4728 81.1187 97.8142 82.4772C104.156 83.8356 105.277 92.8814 103.636 97.2093C102.253 100.858 100.723 104.511 100.723 104.511C100.723 104.511 100.043 105.805 99.1055 105.415C98.2599 105.066 98.4254 104.254 98.6505 103.543C98.8849 102.799 101.757 96.3694 100.075 90.1691C98.3932 83.9687 92.0518 84.4827 89.2074 86.2267C89.2074 86.2267 88.4492 86.7775 88.1551 86.7591C87.8656 86.7408 87.9943 86.2084 88.1735 85.9651Z" fill="white"/>
<path opacity="0.15" d="M96.5408 83.9275C96.5408 83.9275 100.718 84.8408 101.738 89.3338C101.738 89.3338 101.981 90.4858 102.832 90.2334C103.401 90.0636 102.946 89.0218 102.859 88.6592C102.772 88.3012 101.269 83.854 96.9911 83.1014C96.9911 83.1014 96.2834 82.982 96.141 83.3308C95.9985 83.6842 96.3156 83.854 96.5408 83.9275Z" fill="white"/>
<path opacity="0.15" d="M74.6684 89.7054C74.6684 89.7054 78.9144 89.6825 80.9455 93.8222C80.9455 93.8222 81.5291 95.2357 82.6779 94.2536C83.142 93.8589 82.4205 92.6886 82.2551 92.3581C82.0897 92.0277 79.5991 88.0486 75.2612 88.3011C75.2612 88.3011 73.7172 88.3102 73.7035 88.8793C73.6851 89.4943 74.4341 89.6871 74.6684 89.7054Z" fill="white"/>
<path d="M146.845 121.336C151.799 117.201 160.985 108.095 163.829 105.287C167.202 101.959 171.057 91.6789 163.972 86.1853C157.281 80.9946 153.862 89.5494 153.862 89.5494L153.642 89.9211L153.522 89.4714C153.522 89.4714 149.561 79.1956 141.722 81.0084C133.423 82.9222 133.878 93.4412 135.831 98.7696C137.306 102.804 143.22 115.2 146.505 121.253L146.643 121.515L146.845 121.336Z" fill="#FF0600"/>
<path opacity="0.3" d="M138.495 103.712L147.594 120.248L146.642 121.515L143.182 114.778L138.495 103.712Z" fill="#930000"/>
<path opacity="0.25" d="M156.205 87.264C156.205 87.264 160.336 84.5837 164.311 88.6087C168.286 92.6336 165.722 100.922 162.955 103.905C160.625 106.425 158.19 108.876 158.19 108.876C158.19 108.876 157.23 109.679 156.711 108.926C156.242 108.242 156.66 107.618 157.088 107.109C157.529 106.576 161.944 102.34 163.056 96.2455C164.169 90.1507 159.5 87.7367 156.839 87.957C156.839 87.957 156.1 88.0855 155.897 87.9432C155.704 87.7918 155.994 87.3925 156.205 87.264Z" fill="white"/>
<path opacity="0.15" d="M162.878 89.2832C162.878 89.2832 165.493 91.9497 164.542 96.2776C164.542 96.2776 164.285 97.3744 164.978 97.5442C165.447 97.6544 165.511 96.5529 165.585 96.2041C165.658 95.8553 166.242 91.3531 163.499 88.7784C163.499 88.7784 163.044 88.3562 162.814 88.5948C162.584 88.8289 162.745 89.118 162.878 89.2832Z" fill="white"/>
<path opacity="0.23" d="M145.481 85.2767C145.481 85.2767 148.684 86.782 149.079 91.1557C149.079 91.1557 149.129 92.6106 150.264 92.1608C150.724 91.9773 150.499 90.6922 150.462 90.3388C150.425 89.99 149.639 85.5933 146.308 84.2578C146.308 84.2578 145.145 83.7117 144.98 84.2073C144.796 84.7443 145.306 85.1757 145.481 85.2767Z" fill="white"/>
<path d="M94.0746 123.952C93.9919 123.952 93.9138 123.929 93.8448 123.888L93.5645 123.727C86.7774 119.904 74.159 111.776 70.6805 108.99C67.4271 106.384 64.1507 101.597 64.1553 96.7733C64.1599 93.4965 65.6349 90.6556 68.5483 88.3333C75.7122 82.6149 82.2098 88.2507 83.7078 89.7331C84.1536 87.6541 86.9704 79.2554 96.0965 80.109C99.8829 80.4624 102.847 82.2477 104.662 85.2722C107.171 89.4532 107.042 95.2496 105.645 98.5861L105.379 99.2195C103.348 104.075 97.9484 116.967 94.6214 123.406L94.4882 123.686C94.433 123.801 94.3319 123.888 94.2079 123.925C94.1665 123.947 94.1206 123.952 94.0746 123.952ZM69.5546 88.9896C66.871 91.1329 65.5109 93.7305 65.5109 96.7137C65.5063 101.23 68.7275 105.874 71.8063 108.343C75.2297 111.088 87.1818 118.821 93.9781 122.667C97.2958 116.214 102.516 103.68 104.533 98.8707L104.8 98.2328C106.109 95.1073 106.233 89.6689 103.876 85.7449C102.194 82.9453 99.5475 81.3574 96.0138 81.0223C92.0665 80.6506 89.0107 82.1559 86.9199 85.497C85.3391 88.0212 84.9348 90.6831 84.9302 90.7107L84.8704 91.1788C84.8475 91.3532 84.728 91.4955 84.5626 91.5551C84.3971 91.6102 84.2133 91.5689 84.0892 91.445L83.7354 91.0962C83.6987 91.0549 81.8468 89.0998 79.1632 87.7964C75.17 85.8596 71.4157 87.5026 69.5546 88.9896Z" fill="#930000"/>
<path opacity="0.3" d="M135.592 90.7335C135.592 90.7335 136.754 99.8574 143.096 107.457C149.437 115.058 150.471 117.848 150.471 117.848L146.643 121.515L137.922 102.262L135.077 94.5336L135.592 90.7335Z" fill="#930000"/>
<path d="M168.309 93.96C168.148 90.6097 166.719 87.7918 164.173 85.8183C161.168 83.4869 158.856 83.7531 157.152 84.8086C157.147 84.8132 157.142 84.8132 157.133 84.8178C157.078 84.8545 157.023 84.8867 156.968 84.9234C155.405 85.9193 154.036 87.9387 153.668 88.3517C152.331 85.6669 148.32 79.0351 141.652 80.5726C138.734 81.2472 136.634 82.9866 135.416 85.7495C133.624 89.8157 134.162 95.3001 135.494 98.9396C136.914 102.827 142.815 115.26 146.192 121.483L146.33 121.745C146.367 121.809 146.413 121.864 146.472 121.901C146.505 121.919 146.537 121.933 146.574 121.942C146.675 121.965 146.78 121.937 146.858 121.864L147.056 121.685C151.798 117.724 160.396 109.234 163.635 106.039L164.058 105.622C166.287 103.433 168.529 98.5954 168.309 93.96ZM163.594 104.952L163.171 105.369C159.964 108.536 151.973 116.49 147.235 120.464C143.858 114.218 138.546 103.006 137.144 99.1782C135.885 95.7361 134.723 90.1095 136.404 86.3002C137.512 83.7852 139.442 82.1927 142.13 81.5731C143.996 81.1417 147.056 81.7062 149.73 84.671C151.527 86.6628 153.328 89.9901 153.328 89.9901C153.37 90.1462 153.485 90.2655 153.623 90.2885C153.76 90.316 153.898 90.2426 153.976 90.1095L155.543 87.6403C156.729 86.2589 158.3 84.5746 160.63 84.9096C161.632 85.1207 162.666 85.6898 163.773 86.5526C166.149 88.393 167.427 90.9034 167.578 94.0105C167.785 98.3613 165.68 102.896 163.594 104.952Z" fill="#930000"/>
</svg>
