<svg width="56" height="56" viewBox="0 0 56 56" fill="none" xmlns="http://www.w3.org/2000/svg">
<path d="M42.5192 21.2195C42.5399 21.5341 42.5399 21.8487 42.5399 22.1663C42.5399 31.8415 35.5231 43 22.6924 43V42.9942C18.9022 43 15.1907 41.8604 12 39.7116C12.5511 39.7812 13.105 39.816 13.6603 39.8174C16.8013 39.8204 19.8525 38.7141 22.3236 36.6769C19.3387 36.6175 16.7212 34.5746 15.8068 31.5921C16.8524 31.8038 17.9298 31.7603 18.9561 31.466C15.7018 30.7758 13.3606 27.7745 13.3606 24.2889C13.3606 24.257 13.3606 24.2266 13.3606 24.1961C14.3302 24.7631 15.4159 25.0777 16.5264 25.1125C13.4614 22.9623 12.5166 18.6821 14.3675 15.3357C17.9091 19.9102 23.1344 22.6911 28.7438 22.9855C28.1816 20.4423 28.9496 17.7774 30.7618 15.9897C33.5713 13.2174 37.99 13.3595 40.631 16.3072C42.1932 15.9839 43.6905 15.3821 45.0607 14.5296C44.54 16.2245 43.4502 17.6643 41.9943 18.5792C43.377 18.4081 44.7278 18.0195 46 17.4265C45.0635 18.8996 43.8839 20.1828 42.5192 21.2195Z" fill="white"/>
</svg>
