<svg width="220" height="220" viewBox="0 0 220 220" fill="none" xmlns="http://www.w3.org/2000/svg">
<g clip-path="url(#clip0_100_15647)">
<rect x="110" y="-14.905" width="176.642" height="176.642" rx="44.9391" transform="rotate(45 110 -14.905)" fill="#FAC9B9"/>
<mask id="mask0_100_15647" style="mask-type:alpha" maskUnits="userSpaceOnUse" x="3" y="3" width="214" height="214">
<rect x="110" y="-14.905" width="176.642" height="176.642" rx="44.9391" transform="rotate(45 110 -14.905)" fill="#7EDBF9"/>
</mask>
<g mask="url(#mask0_100_15647)">
<path d="M167.282 215.981L56.8306 215.751C56.7293 215.751 56.632 215.704 56.5696 215.627C56.5073 215.549 56.48 215.443 56.5034 215.346C68.9489 158.556 84.9975 150.614 85.6753 150.302C85.7143 150.283 85.761 150.271 85.8038 150.271L143.084 148.674C143.115 148.67 143.166 148.678 143.201 148.694C143.45 148.779 149.352 150.984 155.047 166.927C160.979 183.533 166.744 208.436 167.617 215.607C167.628 215.704 167.597 215.798 167.535 215.868C167.469 215.938 167.375 215.981 167.282 215.981ZM57.2435 215.085L166.9 215.311C165.887 207.707 160.231 183.436 154.416 167.15C149.13 152.351 143.614 149.601 143.03 149.344L85.8973 150.937C84.8378 151.506 69.2177 160.742 57.2435 215.085Z" fill="#002636"/>
<path d="M167.281 215.646C166.37 208.116 160.433 183.011 154.731 167.036C149.024 151.062 143.091 149.009 143.091 149.009L85.8111 150.606C85.8111 150.606 69.3807 158.136 56.8301 215.416L167.281 215.646Z" fill="#DFDFDF"/>
<path d="M166.651 211.178C166.394 209.694 166.105 208.221 165.813 206.745C165.217 203.796 164.586 200.855 163.901 197.926C162.522 192.071 161.03 186.244 159.398 180.452C158.556 177.561 157.703 174.675 156.772 171.812C155.857 168.945 154.875 166.094 153.738 163.289C152.597 160.492 151.292 157.746 149.648 155.179C148.834 153.894 147.918 152.667 146.898 151.521C146.38 150.953 145.842 150.403 145.242 149.909C144.635 149.406 144.046 148.951 143.228 148.6C143.189 148.584 143.147 148.573 143.1 148.577H143.076C133.529 148.841 123.986 149.227 114.442 149.55C109.67 149.726 104.899 149.885 100.123 150.026C95.3512 150.17 90.5795 150.337 85.8039 150.435H85.7961C85.7766 150.435 85.7571 150.439 85.7377 150.45C85.0443 150.824 84.4366 151.272 83.8445 151.755L82.9759 152.495C82.6993 152.752 82.4344 153.025 82.1618 153.29C81.8969 153.559 81.6125 153.816 81.3632 154.096L80.6153 154.949L79.8674 155.802C79.6259 156.094 79.4039 156.398 79.1702 156.694C78.7144 157.298 78.2392 157.886 77.799 158.498L76.5331 160.375L75.8981 161.314C75.6956 161.634 75.5086 161.961 75.3138 162.284L74.1569 164.232C71.1653 169.479 68.7191 175.01 66.4988 180.615C65.9534 182.022 65.4704 183.451 64.9523 184.865L64.185 186.992L63.8032 188.055L63.4604 189.134L62.0971 193.447C61.6413 194.884 61.1778 196.317 60.7961 197.778L59.5924 202.137C59.2029 203.594 58.7705 205.039 58.4433 206.511L56.3476 215.311C56.3398 215.346 56.3359 215.385 56.3359 215.42C56.3359 215.685 56.5502 215.903 56.8151 215.907H56.8267C63.2384 215.79 70.7875 215.899 84.5457 215.985C93.7776 216.043 103.037 216.016 112.241 215.95L167.317 215.677C167.161 214.142 166.912 212.654 166.651 211.178ZM111.867 215.112C102.667 215.007 93.5127 215.011 84.3392 214.96C75.3723 214.914 66.417 214.917 57.4461 214.925L59.3509 206.737C59.6703 205.269 60.091 203.824 60.4727 202.371L61.6297 198.012C61.9919 196.551 62.4399 195.118 62.88 193.68L64.1889 189.368L64.5161 188.289L64.8861 187.226L65.6262 185.099C66.1248 183.681 66.5962 182.255 67.122 180.849C69.2644 175.24 71.738 169.864 74.6789 164.625L75.8124 162.681C76.0033 162.358 76.1864 162.031 76.385 161.712L78.3716 159.035C78.804 158.424 79.5286 157.625 79.9765 157.025C80.2063 156.729 80.4245 156.422 80.6621 156.133L81.3983 155.284L82.1345 154.435C82.3838 154.155 82.6565 153.901 82.9175 153.633C83.1823 153.372 83.4433 153.099 83.7121 152.842L84.5574 152.11C85.1261 151.634 85.9519 151.366 86.579 151.019L86.8634 150.894C91.6351 150.727 95.3785 150.509 100.15 150.384C104.922 150.259 109.698 150.15 114.473 150.061C123.989 149.854 133.533 149.609 143.045 149.344C143.598 149.593 144.179 150.127 144.701 150.575C145.258 151.038 145.772 151.568 146.263 152.113C147.233 153.216 148.117 154.412 148.908 155.666C150.513 158.163 151.825 160.858 152.963 163.616C154.1 166.378 155.093 169.206 156.024 172.061C156.971 174.909 157.84 177.784 158.693 180.658C160.395 186.416 161.973 192.216 163.429 198.043C164.142 200.961 164.871 203.874 165.525 206.807C166.179 209.721 166.799 212.717 167.258 215.611L111.867 215.112Z" fill="#002636"/>
<path d="M83.9385 152.721C83.9385 152.721 99.1262 160.706 120.247 160.453C120.247 160.453 132.069 161.225 144.732 150.606C144.732 150.606 143.934 149.784 143.03 149.344C142.119 148.904 88.718 150.271 87.0041 150.805C85.2901 151.342 83.9385 152.721 83.9385 152.721Z" fill="#BDC5C9"/>
<path d="M89.7725 151.716C89.7725 151.716 107.687 158.599 121.55 156.807C135.414 155.015 142.199 149.453 142.199 149.453L128.149 153.602L121.453 155.3L112.015 155.004L103.161 154.17L89.7725 151.716Z" fill="#A2A8AA"/>
<path d="M43.3644 86.7854C43.3644 86.7854 54.4701 57.7265 98.4402 53.7728C142.41 49.819 165.229 84.8105 164.621 110.519C164.014 136.228 156.71 146.882 126.132 154.334C126.132 154.334 122.556 154.941 119.818 155.058C117.079 155.171 70.5265 156.542 60.2546 129.158C60.2546 129.158 54.1701 111.587 62.2334 95.7641C62.2334 95.7641 67.6362 85.5701 63.9084 83.4393C58.6692 80.4478 37.5838 102.912 43.3644 86.7854Z" fill="#DFDFDF"/>
<path d="M43.3177 86.7661C44.2526 84.5419 45.4796 82.4618 46.8274 80.4674C48.1791 78.4769 49.6749 76.5838 51.2914 74.8036C54.5401 71.255 58.2134 68.0881 62.2178 65.4121C64.2044 64.0448 66.3078 62.8684 68.4308 61.7271C70.581 60.6403 72.7662 59.6158 75.0177 58.7472C79.5051 56.9865 84.1639 55.6504 88.8967 54.7234C93.6333 53.8157 98.4323 53.2353 103.266 53.0679C108.097 52.9042 112.95 53.2704 117.702 54.1858C122.451 55.1051 127.102 56.5736 131.476 58.6498C135.851 60.7104 139.96 63.3281 143.68 66.4092C151.097 72.6028 156.92 80.6349 160.601 89.5356C161.08 90.6419 161.462 91.7832 161.883 92.9129C162.237 94.0659 162.646 95.1994 162.931 96.3719C163.585 98.6896 164.041 101.062 164.388 103.446C164.719 105.834 164.832 108.249 164.808 110.66C164.754 113.063 164.637 115.471 164.427 117.87C163.998 122.657 163.149 127.468 161.314 131.963C160.395 134.203 159.222 136.349 157.762 138.289C156.309 140.237 154.591 141.978 152.706 143.505C148.919 146.555 144.541 148.76 140.05 150.505C135.555 152.277 124.788 155.989 116.682 155.199C113.495 155.187 110.313 155.027 107.138 154.759C100.793 154.205 94.4708 153.177 88.3279 151.401C82.2084 149.605 76.1941 147.455 70.9783 143.669C68.384 141.772 66.0235 139.532 64.0602 136.973C62.097 134.409 60.5428 131.55 59.5144 128.457C57.8239 122.268 57.2396 115.798 57.9173 109.425C58.0264 108.63 58.0654 107.832 58.2407 107.045L58.6886 104.684C59.1093 103.138 59.4677 101.576 60.0637 100.088C60.5467 98.561 61.2985 97.1354 61.9529 95.6785C62.6813 94.284 63.3279 92.8427 63.8772 91.3664C64.4108 89.8901 64.8705 88.367 64.9912 86.8206C65.0457 86.0532 64.9951 85.2625 64.6952 84.5847C64.3952 83.9108 63.7642 83.4044 63.0202 83.346C62.2723 83.2759 61.4971 83.4668 60.7609 83.7122C60.0208 83.9615 59.3002 84.2848 58.5951 84.6393C57.185 85.3482 55.8217 86.1584 54.4778 86.9998C51.7823 88.6631 49.184 90.5056 46.3327 91.9313C45.6121 92.2701 44.8758 92.5973 44.0695 92.7103C43.6761 92.7571 43.2281 92.7571 42.8776 92.4961C42.5192 92.2468 42.3868 91.8105 42.3439 91.4132C42.2621 90.603 42.4374 89.8122 42.6205 89.0409C42.7997 88.2736 43.049 87.5179 43.3177 86.7661ZM43.4112 86.8011C43.1502 87.549 42.9048 88.3008 42.7179 89.0682C42.5387 89.8317 42.3751 90.6224 42.4608 91.3976C42.5036 91.7754 42.6361 92.1689 42.9477 92.3831C43.2476 92.609 43.6644 92.6129 44.0423 92.5662C44.8135 92.4532 45.5458 92.126 46.2548 91.7871C49.075 90.3537 51.6654 88.4956 54.3532 86.8128C55.697 85.9675 57.0448 85.1262 58.4627 84.39C59.1716 84.0238 59.8962 83.6849 60.6518 83.4161C61.4075 83.1512 62.2061 82.9331 63.0475 82.9993C63.9044 83.0461 64.6913 83.6537 65.038 84.4211C65.3924 85.1924 65.4509 86.0416 65.408 86.8479C65.3067 88.4722 64.8588 90.0264 64.3407 91.5378C63.807 93.0453 63.176 94.5138 62.4593 95.9434C61.8399 97.3886 61.1232 98.7948 60.6752 100.306C60.1143 101.779 59.7871 103.321 59.4015 104.844L59.0002 107.166C58.9223 107.551 58.8756 107.941 58.8405 108.334L58.7159 109.507C58.1121 115.763 58.7548 122.147 60.4688 128.173C61.4543 131.087 62.9657 133.884 64.8627 136.349C66.7636 138.819 69.054 140.993 71.586 142.835C76.6693 146.516 82.5551 148.993 88.5928 150.754C94.6422 152.523 100.902 153.574 107.193 154.151C110.34 154.431 113.499 154.603 116.655 154.626C118.236 154.634 119.81 154.634 121.364 154.49C122.926 154.35 124.496 154.139 126.046 153.89L126.015 153.898C130.666 152.756 135.297 151.498 139.761 149.78C144.225 148.09 148.557 145.959 152.293 143.003C154.155 141.526 155.849 139.836 157.29 137.943C158.739 136.057 159.904 133.958 160.823 131.761C162.658 127.351 163.534 122.591 163.99 117.831C164.216 115.447 164.349 113.052 164.419 110.652C164.458 108.26 164.36 105.865 164.049 103.489C163.714 101.12 163.301 98.7519 162.627 96.4537C162.339 95.289 161.926 94.1633 161.571 93.0219C161.151 91.9001 160.761 90.7666 160.282 89.6681C156.605 80.818 150.703 72.9144 143.291 66.8806C135.862 60.8545 126.915 56.8034 117.539 55.0389C112.849 54.1468 108.062 53.8352 103.29 53.9404C98.518 54.0728 93.7463 54.6143 89.0447 55.4829C79.657 57.2202 70.4407 60.4378 62.4047 65.6964C58.377 68.2946 54.6687 71.3952 51.4278 74.9283C49.8073 76.6967 48.3037 78.5743 46.9443 80.5492C45.5887 82.5241 44.35 84.6003 43.4112 86.8011Z" fill="#002636"/>
<path d="M46.3315 81.9399C46.3315 81.9399 44.8863 86.4039 45.829 87.5335C46.7716 88.6631 61.2308 78.4185 68.145 81.6243C68.145 81.6243 68.4878 82.1268 68.5228 83.4473C68.554 84.6744 68.3047 86.8401 67.9892 88.7294C67.6737 90.6147 65.2235 96.8316 64.2497 100.672C61.2971 112.3 60.1635 136.817 80.3412 147.755L78.078 147.128L70.8483 143.228L64.2497 136.314L60.7283 130.53L59.5325 126.319L58.212 120.157L58.0873 114.688L58.4029 108.214L59.3455 103.309L60.7907 98.7831L62.489 95.0748L63.9965 92.1222L64.7834 89.4188L65.4066 86.8518L65.0327 84.7678L64.1212 83.4785L61.449 83.2253L59.8441 83.8836L55.3528 86.1195L50.5423 89.1695L48.5635 90.3654L45.5758 92.0326L43.597 92.3169L42.8413 91.5301C42.8413 91.5301 42.5258 89.7071 42.6232 89.6448C42.7205 89.5824 43.5347 86.5324 43.5347 86.5324C43.5347 86.5324 44.6993 84.4562 44.7617 84.3627C44.824 84.2692 46.3315 81.9399 46.3315 81.9399Z" fill="#BDC5C9"/>
<path d="M61.4502 83.2292L63.1174 82.5709L65.2092 82.2476L67.3594 82.2748C67.3594 82.2748 67.8969 82.341 67.8735 82.863C67.8502 83.3811 65.0689 89.1578 65.0689 89.1578L65.2559 87.1556L65.0456 84.9392L64.1263 83.4863L62.724 82.9176L61.4502 83.2292Z" fill="#A2A8AA"/>
<path d="M62.0307 82.6446C62.615 82.5005 63.2032 82.3875 63.7953 82.3096C64.3874 82.2278 64.9833 82.1811 65.5793 82.1733C66.1753 82.1538 66.7674 82.2044 67.3556 82.2707C66.7635 82.2629 66.1753 82.2707 65.5871 82.3408C65.0028 82.4031 64.4224 82.5005 63.8537 82.6368C63.285 82.7693 62.7202 82.929 62.1709 83.1237C61.6256 83.3146 60.196 83.8093 60.1142 83.6457C60.0324 83.4821 59.752 83.5288 62.0307 82.6446Z" fill="#002636"/>
<path d="M164.512 107.021C164.512 107.021 162.841 122.01 160.324 128.929C157.808 135.847 152.697 143.505 152.697 143.505L155.206 140.778L158.034 137.697L160.297 133.611L162.058 129.209L163.254 125.06L163.947 120.41L164.325 115.318L164.64 110.036L164.512 107.021Z" fill="#BDC5C9"/>
<path d="M60.0599 100.092C60.0599 100.092 57.9954 111.264 60.2585 122.673C62.5217 134.082 65.3497 138.137 65.3497 138.137L63.0398 134.885L60.7299 130.53L58.9848 125.17L58.2291 119.37L58.0889 112.911L58.4044 108.214L60.0599 100.092Z" fill="#A2A8AA"/>
<path d="M89.2971 214.851L89.2932 216.016L57.083 215.907L57.8153 213.449L82.383 213.414L89.2971 214.851Z" fill="#DFDFDF"/>
<path d="M63.7946 190.665C64.8541 188.702 60.5342 209.822 61.6639 215.919L57.083 215.911C57.083 215.907 62.7351 192.629 63.7946 190.665Z" fill="#BDC5C9"/>
<path d="M167.242 215.611L167.281 215.981L150.676 215.954L150.691 215.49L150.695 215.365L167.242 215.611Z" fill="#DFDFDF"/>
<path d="M143.812 166.339C143.812 166.339 146.535 169.822 148.985 178.496C151.436 187.171 153.761 208.354 154.139 214.956L154.151 215.969L150.657 215.95L150.368 214.547V211.341L150.181 203.956L149.679 196.886L148.83 189.06L147.416 181.141L146.064 174.698L144.868 169.732L143.812 166.339Z" fill="#BDC5C9"/>
<path d="M149.032 194.428C149.231 196.8 149.445 199.173 149.554 201.553C149.718 203.929 149.8 206.309 149.909 208.685C150.053 210.936 149.675 213.574 149.765 215.833L150.684 215.95C150.7 214.878 150.801 213.278 150.809 212.206C150.816 211.01 150.824 209.815 150.781 208.623L150.657 205.039C150.618 203.843 150.497 202.655 150.419 201.463C150.259 199.079 149.991 196.703 149.741 194.327C149.188 189.579 148.483 184.85 147.541 180.164C146.563 175.489 145.437 170.834 143.809 166.339C143.801 166.32 143.778 166.308 143.754 166.316C143.735 166.324 143.723 166.347 143.731 166.37C145.254 170.889 145.932 175.563 146.8 180.241C147.669 184.928 148.561 189.691 149.032 194.428Z" fill="#002636"/>
<path d="M90.3496 214.98V216.016L149.772 215.954L149.753 215.315L98.6154 214.033L90.3496 214.98Z" fill="#DFDFDF"/>
<path d="M96.3639 170.963C96.3639 170.963 97.7662 170.398 97.2637 173.666C96.7612 176.934 95.0239 205.838 95.5264 216.02H90.3495L89.9717 206.605L91.3545 188.753L92.3907 181.807L93.1697 177.589L94.4669 174.071L94.981 172.802L95.6082 171.508L96.3639 170.963Z" fill="#C2CACC"/>
<path d="M90.3374 215.416C90.3374 215.225 90.3335 215.034 90.3374 214.843C90.3686 209.861 90.4582 204.875 90.7386 199.893C91.0308 194.915 91.2138 189.937 91.8566 184.994C92.1721 182.52 92.5499 180.054 93.1498 177.635C93.4497 176.428 93.7847 175.224 94.2132 174.056C94.4236 173.471 94.669 172.899 94.9533 172.346C95.0975 172.073 95.2533 171.8 95.4363 171.555C95.6155 171.313 95.8298 171.056 96.0908 170.951L96.1063 170.943C96.1258 170.935 96.1375 170.912 96.1297 170.893C96.1219 170.873 96.0985 170.861 96.0791 170.869C95.748 170.99 95.5532 171.247 95.3545 171.493C95.1598 171.742 94.9962 172.011 94.8443 172.287C94.5443 172.84 94.2833 173.413 94.0613 173.997C93.6094 175.166 93.2433 176.366 92.9161 177.573C92.2617 179.988 91.8293 182.466 91.4592 184.935C90.7347 189.886 90.24 194.864 89.87 199.85C89.5038 204.836 89.2311 209.838 89.3051 214.847C89.309 215.034 89.3168 215.225 89.3207 215.416H90.3374Z" fill="#002636"/>
<path opacity="0.32" d="M164.169 102.117L161.883 92.9126L158.229 84.6741L152.947 76.4706L146.083 69.2487L140.501 64.1186L131.472 58.6496L123.245 55.9151L116.74 54.4076L112.307 53.8428L105.709 53.3715L99.3905 53.5584L88.8965 54.727L83.3613 56.6708C83.3613 56.6708 102.974 52.9001 118.438 57.2356C133.903 61.575 150.403 75.6565 155.639 96.2431C155.639 96.2431 158.724 108.015 159.016 116.059C159.308 124.102 155.981 139.711 147.482 146.531L150.972 144.553L155.214 140.782L158.326 137.198L160.59 132.956L162.381 127.581L163.418 124.468L164.426 117.874L164.458 108.155L164.169 102.117Z" fill="#BDC5C9"/>
<path d="M146.457 68.7385C137.708 60.5467 122.271 51.233 98.4471 53.3794C75.6635 55.4283 61.8507 64.329 54.2744 71.438C46.0552 79.1468 43.1883 86.4816 43.161 86.5556V86.5595C41.9729 89.8783 41.8366 91.7558 42.7403 92.4726C44.2166 93.6451 47.9834 91.2183 52.3423 88.4059C56.7557 85.5623 61.765 82.3409 63.8101 83.5134C67.2847 85.5 62.0923 95.4018 62.0377 95.5031C54.0173 111.24 59.9849 128.917 60.0472 129.1C69.1895 153.485 106.779 155.21 117.219 155.21C118.679 155.21 119.61 155.175 119.856 155.167C122.578 155.054 126.166 154.451 126.217 154.439C155.618 147.665 164.258 137.397 164.897 110.383C165.248 95.6706 158.181 79.7155 146.457 68.7385ZM164.398 110.371C164.067 124.363 161.765 132.649 156.452 138.971C150.909 145.565 141.549 150.185 126.119 153.944C126.084 153.952 122.528 154.552 119.836 154.665C117.842 154.751 70.8177 156.383 60.5224 128.933C60.4601 128.757 54.5626 111.283 62.4857 95.7368C62.7116 95.3122 67.9547 85.3013 64.0633 83.0771C63.6893 82.8629 63.253 82.7694 62.7583 82.7694C60.1719 82.7694 56.522 84.8222 52.5332 87.3931C48.6846 89.8705 44.7036 92.4336 43.5155 91.4871C43.0403 91.1092 42.7559 89.8744 44.0959 86.1388C44.2595 85.7181 55.2911 57.7694 98.4977 53.8818C122.146 51.755 137.443 60.9869 146.122 69.1086C157.737 79.9881 164.741 95.7992 164.398 110.371Z" fill="#002636"/>
<path d="M96.2939 99.5465C96.2939 99.5465 101.654 99.601 104.821 102.854C107.984 106.11 108.513 113.515 108.513 113.515L105.261 107.025L101.697 102.959L96.2939 99.5465Z" fill="#BDC5C9"/>
<path d="M135.835 113.106C135.835 113.106 135.636 106.488 138.02 102.713C140.404 98.9389 144.724 98.1598 144.724 98.1598L140.806 102.811L135.835 113.106Z" fill="#BDC5C9"/>
<path d="M135.504 129.248C135.504 129.248 136.353 132.267 140.688 131.698C140.688 131.698 137.389 134.246 135.878 133.49C134.37 132.738 135.504 129.248 135.504 129.248Z" fill="#CCD3D6"/>
<path d="M107.298 132.575C107.298 132.575 110.434 132.583 111.072 128.255C111.072 128.255 112.619 132.123 111.481 133.369C110.344 134.616 107.298 132.575 107.298 132.575Z" fill="#CCD3D6"/>
<path d="M135.835 113.106C136.548 110.251 137.584 107.664 139.01 105.09C139.746 103.816 140.556 102.577 141.464 101.412C142.383 100.259 143.567 99.0635 144.724 98.1598C143.789 99.2972 142.948 100.474 142.134 101.666C141.347 102.881 140.587 104.112 139.874 105.37C139.158 106.628 138.484 107.91 137.814 109.199L135.835 113.106Z" fill="#002636"/>
<path d="M108.513 113.519C107.754 112.124 106.924 110.784 106.075 109.468C105.21 108.159 104.307 106.881 103.325 105.67C102.339 104.462 101.264 103.333 100.119 102.277C98.9427 101.253 97.6807 100.341 96.2939 99.5504C97.7975 100.061 99.4219 100.68 100.7 101.658C101.962 102.651 103.099 103.796 104.123 105.027C106.11 107.532 107.532 110.492 108.513 113.519Z" fill="#002636"/>
<path d="M137.267 126.389C137.267 126.389 137.287 104.976 149.88 99.3983C162.474 93.8202 159.007 118.723 156.607 122.085C154.204 125.446 146.3 128.083 142.682 129.24C139.063 130.397 137.006 129.01 137.267 126.389Z" fill="#F4F4F4"/>
<path d="M140.337 129.902C139.394 129.902 138.483 129.797 137.899 129.326C137.123 128.699 136.897 127.593 137.014 126.373C137.018 125.742 137.306 104.688 149.779 99.1647C152.88 97.7896 155.279 98.1091 156.911 100.111C161.025 105.16 158.602 119.724 156.814 122.229C154.267 125.793 145.607 128.566 142.76 129.482C141.88 129.762 141.061 129.902 140.337 129.902ZM153.188 98.8414C152.237 98.8414 151.166 99.1024 149.986 99.6282C137.684 105.078 137.521 126.175 137.521 126.389V126.412C137.415 127.46 137.7 128.286 138.339 128.8C139.231 129.521 140.75 129.591 142.608 128.995C145.413 128.095 153.951 125.361 156.405 121.933C157.211 120.803 158.279 116.717 158.598 112.085C158.812 108.946 158.828 103.263 156.526 100.431C155.657 99.3711 154.543 98.8414 153.188 98.8414Z" fill="#002636"/>
<path d="M108.739 126.249C108.739 126.249 106.803 107.162 88.6509 98.7518C70.4988 90.3418 73.1281 117.589 79.0334 123C84.9387 128.411 96.2935 129.797 100.126 130.187C103.959 130.576 109.23 131.815 108.739 126.249Z" fill="#F4F4F4"/>
<path d="M104.505 130.83C103.458 130.83 102.34 130.697 101.28 130.569C100.879 130.522 100.482 130.475 100.1 130.436C87.7128 129.178 81.714 125.801 78.8626 123.187C75.0024 119.65 72.2718 106.402 76.4748 100.096C78.1615 97.5638 81.6634 95.2344 88.7606 98.5221C106.835 106.897 108.973 126.031 108.993 126.225V126.229C109.137 127.85 108.821 129.014 108.031 129.778C107.189 130.592 105.912 130.83 104.505 130.83ZM82.5242 97.4197C80.1091 97.4197 78.2043 98.4091 76.8916 100.376C72.9379 106.309 75.4737 119.401 79.2015 122.813C84.5342 127.702 94.6152 129.373 100.15 129.934C100.536 129.973 100.933 130.019 101.339 130.07C103.703 130.351 106.2 130.588 107.493 129.334C108.167 128.679 108.432 127.655 108.303 126.194C108.276 125.933 106.317 107.22 88.5425 98.9856C86.291 97.9378 84.2771 97.4197 82.5242 97.4197Z" fill="#002636"/>
<path d="M138.538 115.875C138.538 115.875 138.53 129.875 144.132 128.586C149.733 127.296 158.735 112.755 151.677 98.701C151.677 98.701 141.884 100.812 138.538 115.875Z" fill="#002636"/>
<path d="M143.423 128.866C142.761 128.866 142.153 128.648 141.608 128.212C138.375 125.637 138.344 116.273 138.344 115.876L138.348 115.833C141.682 100.82 151.537 98.5299 151.638 98.5104L151.786 98.4792L151.853 98.6156C156.714 108.299 153.582 117.122 152.008 120.464C149.956 124.831 146.808 128.169 144.175 128.777C143.918 128.835 143.669 128.866 143.423 128.866ZM138.733 115.899C138.737 116.402 138.835 125.505 141.85 127.908C142.508 128.434 143.24 128.594 144.085 128.399C146.606 127.819 149.648 124.562 151.654 120.301C153.197 117.025 156.254 108.408 151.572 98.9311C150.353 99.2739 141.795 102.156 138.733 115.899Z" fill="#002636"/>
<path d="M147.79 108.482C147.79 108.482 147.797 112.775 145.207 115.572C142.617 118.368 141.487 120.156 142.784 122.053C144.081 123.95 148.14 121.146 149.804 116.584C151.467 112.023 151.436 106.616 149.741 106.238C148.047 105.861 147.79 108.482 147.79 108.482Z" fill="#EFEFEF"/>
<path d="M145.07 111.495C145.559 110.335 145.408 109.164 144.731 108.879C144.056 108.594 143.111 109.303 142.623 110.463C142.134 111.622 142.286 112.794 142.961 113.078C143.637 113.364 144.582 112.654 145.07 111.495Z" fill="#EFEFEF"/>
<path d="M103.636 112.202C103.636 112.202 103.691 130.9 90.2717 128.422C76.8524 125.945 78.8117 97.9882 84.9624 97.4974C84.9663 97.4974 95.7796 100.61 103.636 112.202Z" fill="#002636"/>
<path d="M92.6165 128.843C91.8569 128.843 91.0619 128.765 90.24 128.613C82.5779 127.199 79.6179 117.512 80.0771 108.537C80.4082 102.125 82.4104 97.5014 84.9501 97.2988L84.9856 97.2949L85.0207 97.3066C85.1297 97.3378 95.9933 100.575 103.799 112.089L103.835 112.14V112.198C103.835 112.3 103.803 122.377 98.5292 126.778C96.8853 128.153 94.903 128.843 92.6165 128.843ZM84.9463 97.6961C82.6601 97.9221 80.7822 102.48 80.4667 108.56C80.0152 117.364 82.8821 126.86 90.3105 128.231C93.5046 128.82 96.1842 128.231 98.2799 126.482C103.204 122.369 103.433 113.09 103.441 112.261C95.931 101.221 85.6166 97.9026 84.9463 97.6961Z" fill="#002636"/>
<path d="M95.6466 111.31C95.6466 111.31 93.956 119.292 90.532 117.773C87.1081 116.253 85.5344 116.736 86.0485 119.194C86.5627 121.652 89.8776 124.804 93.0016 122.949C96.1218 121.095 98.4356 116.814 99.3471 111.275C99.3471 111.275 99.7639 108.327 97.9448 108.319C96.1296 108.311 95.6466 111.31 95.6466 111.31Z" fill="#EFEFEF"/>
<path d="M90.6606 110.735C91.8946 109.507 92.3079 107.922 91.5841 107.194C90.8604 106.467 89.2734 106.873 88.0398 108.1C86.8058 109.328 86.3925 110.913 87.1162 111.64C87.84 112.367 89.4269 111.962 90.6606 110.735Z" fill="#EFEFEF"/>
<path d="M108.739 126.249C108.459 124.032 107.808 121.882 107.025 119.806C106.207 117.738 105.245 115.735 104.131 113.831C102.016 109.959 99.1918 106.465 95.7834 103.668C94.0773 102.269 92.2348 101.042 90.2872 100.006C88.3356 98.9817 86.314 98.0546 84.1755 97.6923C83.112 97.5054 82.0253 97.4859 80.993 97.6962C79.9608 97.9066 78.9947 98.3779 78.2079 99.0752C77.421 99.7724 76.8056 100.664 76.3537 101.638C75.8941 102.612 75.5902 103.66 75.3799 104.731C74.9631 106.874 74.9436 109.098 75.1345 111.287C75.3448 113.476 75.7772 115.654 76.4822 117.73C76.8367 118.766 77.2613 119.779 77.795 120.725C78.0637 121.197 78.3559 121.648 78.6909 122.057C78.8545 122.264 79.0337 122.459 79.2206 122.638C79.4076 122.817 79.6335 122.988 79.84 123.164C81.515 124.554 83.4704 125.606 85.4999 126.451C89.5821 128.126 93.9682 129.034 98.3582 129.599L101.665 130.086C102.764 130.257 103.862 130.428 104.961 130.432C105.51 130.428 106.059 130.374 106.585 130.23C107.107 130.078 107.613 129.825 107.98 129.408C108.35 128.999 108.576 128.469 108.673 127.924C108.778 127.367 108.778 126.806 108.739 126.249ZM108.739 126.249C108.786 126.802 108.79 127.367 108.696 127.916C108.607 128.465 108.404 129.011 108.038 129.447C107.684 129.887 107.177 130.199 106.644 130.389C106.106 130.576 105.541 130.674 104.976 130.713C103.847 130.798 102.717 130.724 101.603 130.635L98.2648 130.366C93.8241 129.793 89.3874 128.878 85.2038 127.164C83.1237 126.299 81.1021 125.22 79.3414 123.756C79.1233 123.569 78.8973 123.401 78.6831 123.199C78.4688 122.992 78.2702 122.774 78.0871 122.544C77.721 122.089 77.4054 121.602 77.1172 121.103C76.5563 120.102 76.1122 119.05 75.746 117.975C75.0137 115.829 74.5735 113.601 74.3593 111.349C74.1606 109.102 73.9659 106.531 74.3983 104.287C74.6164 103.169 74.9397 102.059 75.4305 101.015C75.9174 99.9672 76.5874 98.9817 77.4755 98.1987C78.3598 97.4119 79.466 96.8743 80.6191 96.6406C81.7721 96.4069 82.9562 96.4342 84.0898 96.6328C86.3685 97.0223 88.6706 98.2688 90.6572 99.3128C92.6477 100.368 94.537 101.627 96.2821 103.06C99.7761 105.923 102.655 109.503 104.824 113.449C105.339 114.45 105.794 115.482 106.219 116.522C106.628 117.57 106.994 118.633 107.314 119.705C107.637 120.776 107.917 121.863 108.155 122.953C108.28 123.499 108.389 124.044 108.49 124.593C108.587 125.146 108.677 125.696 108.739 126.249Z" fill="#002636"/>
<path d="M137.269 126.389C137.296 124.624 137.401 122.86 137.53 121.091C137.666 119.323 137.888 117.558 138.246 115.809C139.088 112.354 140.292 108.946 142.192 105.892C143.139 104.369 144.276 102.947 145.62 101.736C146.96 100.52 148.514 99.5426 150.193 98.8492C151.039 98.5104 151.938 98.2649 152.881 98.2104C153.816 98.152 154.992 98.2299 155.83 98.7207C156.671 99.2076 157.31 99.9516 157.781 100.75C158.253 101.553 158.576 102.417 158.814 103.29C159.289 105.043 159.46 106.839 159.503 108.626C159.542 110.414 159.258 112.307 159.055 114.08C158.849 115.848 158.549 117.609 158.093 119.342C157.855 120.211 157.598 121.068 157.166 121.913C156.66 122.762 155.993 123.405 155.273 123.962C154.926 124.262 154.541 124.496 154.17 124.761C153.789 124.994 153.411 125.244 153.017 125.458C152.234 125.898 151.44 126.303 150.63 126.673C149.009 127.417 147.354 128.068 145.679 128.652C144.83 128.913 143.976 129.159 143.123 129.396C142.266 129.634 141.359 129.821 140.455 129.793C140.229 129.801 140.003 129.758 139.777 129.739C139.555 129.684 139.329 129.657 139.119 129.571C138.687 129.439 138.285 129.198 137.982 128.87C137.67 128.547 137.46 128.138 137.347 127.713C137.241 127.273 137.234 126.829 137.269 126.389ZM137.269 126.389C137.241 126.829 137.253 127.273 137.366 127.702C137.491 128.126 137.721 128.512 138.036 128.812C138.348 129.116 138.753 129.307 139.17 129.408C139.372 129.478 139.594 129.478 139.805 129.509C140.023 129.505 140.233 129.529 140.451 129.501C141.316 129.439 142.134 129.17 142.952 128.859C143.778 128.555 144.604 128.239 145.418 127.912C147.073 127.32 148.717 126.701 150.302 125.961C151.88 125.22 153.45 124.418 154.79 123.351C155.464 122.836 156.079 122.209 156.48 121.543C156.854 120.815 157.115 119.973 157.341 119.14C157.785 117.457 158.081 115.728 158.284 113.99C158.483 112.253 158.58 110.5 158.541 108.755C158.498 107.014 158.331 105.269 157.879 103.609C157.653 102.783 157.349 101.981 156.924 101.257C156.5 100.54 155.947 99.9049 155.249 99.5036C154.556 99.0985 153.742 98.9349 152.92 98.9856C152.094 99.0323 151.268 99.2505 150.478 99.5699C148.896 100.224 147.416 101.151 146.142 102.312C144.861 103.465 143.766 104.829 142.851 106.305C141.016 109.261 139.82 112.596 139.006 115.992C138.11 119.37 137.331 122.852 137.269 126.389Z" fill="#002636"/>
<path d="M121.454 77.1602C121.454 77.1602 110.706 77.1602 102.37 85.056C94.0345 92.9518 81.7526 114.01 72.9765 123.222C64.2043 132.435 67.2738 144.72 86.6841 150.641C86.6841 150.641 84.6663 150.446 83.5406 151.245C82.3525 152.086 81.7137 152.468 81.7137 152.468C81.7137 152.468 67.2738 147.459 56.7448 136.603C46.2159 125.746 48.1908 104.03 48.1908 100.411C48.1908 96.7926 42.9283 99.753 41.6117 94.4904C40.295 89.2279 47.2014 61.914 85.6986 50.0684C124.196 38.2228 149.531 65.5328 153.808 71.4536C158.085 77.3745 169.599 95.4721 166.639 119.49C163.679 143.509 147.42 150.322 147.42 150.322C147.42 150.322 146.434 149.663 145.597 149.364C144.759 149.064 143.754 149.029 143.754 149.029L146.898 147.128C146.898 147.128 149.558 145.725 152.09 143.836C159.257 138.5 162.292 129.887 162.767 128.337C163.242 126.782 164.341 121.134 161.708 114.555C159.074 107.976 144.705 91.4988 139.442 84.834C132.859 76.5019 121.454 77.1602 121.454 77.1602Z" fill="#FF6700"/>
<path d="M169.109 215.872C168.45 208.634 165.985 199.336 165.985 199.336C165.985 199.336 161.158 181.239 157.98 170.932C154.797 160.621 151.288 155.14 149.862 153.056C148.436 150.972 147.451 150.532 147.451 150.532C145.258 148.666 143.174 148.997 143.174 148.997L137.031 151.299C137.031 151.299 131.986 152.834 130.121 153.492C128.255 154.151 124.087 154.7 121.457 154.809C118.824 154.918 113.121 154.809 110.928 154.7C108.735 154.591 101.385 153.933 99.1919 153.492C96.9988 153.052 90.5287 151.517 90.5287 151.517L86.6918 150.641C86.6918 150.641 84.0586 150.092 81.8656 152.616C81.8656 152.616 78.9051 153.714 75.8318 158.65C72.7623 163.585 70.3472 168.52 68.4852 172.248C66.6233 175.976 63.8771 183.763 63.0006 185.847C62.1242 187.931 57.5979 201.638 54.1973 215.899L169.109 215.872Z" fill="#FF6700"/>
<path opacity="0.1" d="M66.8336 136.969C66.8336 136.969 63.433 131.449 66.0663 125.197C68.6995 118.945 79.0065 107.98 84.2729 100.189C89.5354 92.4025 101.521 71.586 118.929 70.468C134.285 69.4825 142.621 80.997 142.621 80.997C142.621 80.997 149.967 90.8677 151.615 93.1698C153.259 95.472 159.62 102.822 162.035 106.877C164.446 110.936 167.336 106.328 166.055 99.5659L166.931 106.258L167.114 111.704L166.896 117.921L166.238 123.004L165.385 124.901L165.579 122.311L165.505 119.424L164.921 116.464L163.714 112.88L161.337 108.272L158.521 103.847L156.328 101.323L153.769 98.2883L150.844 95.1058L147.7 90.7937L144.116 85.7103L140.424 81.2502L137.097 78.1807L132.964 75.3644L128.831 73.9738L124.589 73.0584L120.795 72.8442L118.31 73.2103L115.86 73.6856L111.326 75.0762L107.232 77.2342L103.465 80.1206L99.4061 84.4716L95.6394 88.7487L91.3273 93.832L85.3324 102.129L81.3475 107.466L77.1055 112.985L73.1947 117.812L70.5614 120.92L68.6956 123.444L67.453 125.31L66.3389 127.503L65.8637 128.874L65.6066 129.988L65.4781 131.102L65.443 131.87L65.5521 133.038L65.6066 133.439L65.817 134.363L65.9923 134.912L66.3311 135.843L66.8336 136.969Z" fill="#4C4C4C"/>
<path opacity="0.1" d="M48.2451 99.2543C48.2451 99.2543 47.8945 97.3417 47.9685 95.659C48.0426 93.9762 48.7359 90.7236 48.7359 90.7236C48.7359 90.7236 49.0631 88.9318 48.1127 87.6152C47.1622 86.2986 43.2396 86.3219 42.1178 90.1744C40.996 94.0268 42.1918 95.733 42.1918 95.733L43.2903 97.4859L45.8028 97.8676L48.2451 99.2543Z" fill="#4C4C4C"/>
<path opacity="0.1" d="M48.7398 90.7235C48.7398 90.7235 48.5567 89.738 47.7543 90.4664C46.9519 91.1988 45.3236 96.0523 45.8067 97.8675L47.392 98.3973L47.4816 97.1079L47.9685 93.6138L48.7398 90.7235Z" fill="#4C4C4C"/>
<path opacity="0.1" d="M82.5739 149.161L76.7622 146.146L71.4996 142.087C71.4996 142.087 67.8263 138.488 66.8369 136.968L66.4941 136.248L66.2059 135.527L66.015 134.994L65.4502 133.276C65.4502 133.276 65.6683 134.172 65.2671 134.335C64.9165 134.479 64.4686 134.386 64.0323 134.066C56.6429 131.445 48.8446 118.532 48.5603 110.644L48.3577 109.674L48.1123 111.209L48.5252 115.677L50.06 124.535L52.7476 131.227L55.7081 135.862L61.7419 141.238L70.3505 147.104L77.8918 150.914L81.6352 152.289L83.8711 151.42L86.0369 150.586L82.5739 149.161Z" fill="#4C4C4C"/>
<path opacity="0.1" d="M81.6269 152.289L83.372 151.007L86.6869 150.641L80.5245 147.981L74.1479 144.646C74.1479 144.646 68.5192 144.938 63.5449 142.453L68.2972 145.963L76.341 150.205L81.6269 152.289Z" fill="#4C4C4C"/>
<path opacity="0.1" d="M76.3389 150.205C76.3389 150.205 80.6899 150.096 82.5713 149.165L86.6848 150.645L83.3699 151.011L81.6248 152.293L76.3389 150.205Z" fill="#4C4C4C"/>
<path opacity="0.1" d="M157.536 141.76C157.536 141.76 155.215 143.217 152.262 144.077L148.102 146.364L144.098 148.721L147.416 150.326C147.416 150.326 149.582 149.27 149.8 149.161C150.019 149.052 153.914 146.037 153.914 146.037L157.536 141.76Z" fill="#4C4C4C"/>
<path opacity="0.1" d="M87.6025 151.023C87.6025 151.023 99.4053 154.591 102.479 155.577C105.548 156.562 119.369 158.646 129.239 155.795C139.11 152.943 143.784 149.325 143.784 149.325L141.689 149.434L133.629 152.503L125.843 154.478L122.442 154.805L114.764 154.914L107.196 154.474L98.2562 153.267L87.6025 151.023Z" fill="#4C4C4C"/>
<path opacity="0.1" d="M96.4924 170.951C96.4924 170.951 93.7072 172.466 93.9254 190.455C94.1435 208.443 94.9109 215.899 94.9109 215.899H90.7273L90.3066 206.796L91.1831 194.074L91.8414 185.956L92.7568 180.471L93.5242 177.219L94.5954 174.06L94.7668 173.51L95.3355 172.35L95.3511 172.174L95.8652 171.399L96.2236 171.029L96.4924 170.951Z" fill="#4C4C4C"/>
<path opacity="0.1" d="M144.128 166.366C144.128 166.366 147.996 172.65 150.119 179.085C152.238 185.52 156.188 199.995 156.406 215.79L151.077 215.88L150.777 211.766L150.267 198.534L148.876 187.202L147.486 178.792L145.437 170.383L144.128 166.366Z" fill="#4C4C4C"/>
<path d="M149.422 194.428C149.621 196.8 149.835 199.173 149.944 201.553C150.108 203.929 150.189 206.309 150.299 208.685C150.443 210.936 150.08 213.62 150.17 215.88H151.074C151.089 214.808 151.191 213.278 151.198 212.206C151.206 211.01 151.214 209.815 151.171 208.623L151.046 205.039C151.007 203.843 150.887 202.655 150.809 201.463C150.649 199.079 150.38 196.703 150.131 194.327C149.578 189.579 148.873 184.85 147.93 180.164C146.952 175.489 145.827 170.834 144.199 166.339C144.191 166.32 144.167 166.308 144.144 166.316C144.124 166.324 144.113 166.347 144.121 166.37C145.644 170.889 146.321 175.563 147.19 180.241C148.059 184.928 148.951 189.691 149.422 194.428Z" fill="#002636"/>
<path d="M90.727 215.899C90.727 215.708 90.7232 215.038 90.727 214.847C90.7582 209.865 90.8478 204.879 91.1283 199.897C91.4204 194.919 91.6035 189.941 92.2462 184.998C92.5617 182.524 92.9396 180.058 93.5395 177.639C93.8394 176.432 94.1744 175.228 94.6029 174.06C94.8132 173.475 95.0586 172.903 95.343 172.35C95.4871 172.077 95.6429 171.804 95.826 171.559C96.0052 171.317 96.2194 171.06 96.4804 170.955L96.496 170.947C96.5155 170.94 96.5271 170.916 96.5194 170.897C96.5116 170.877 96.4882 170.865 96.4687 170.873C96.1376 170.994 95.9429 171.251 95.7442 171.497C95.5494 171.746 95.3858 172.015 95.2339 172.291C94.934 172.844 94.673 173.417 94.451 174.001C93.9991 175.17 93.6329 176.37 93.3057 177.577C92.6513 179.992 92.2189 182.47 91.8489 184.939C91.1244 189.89 90.6297 194.868 90.2596 199.854C89.8935 204.84 89.6208 209.842 89.6948 214.851C89.6987 215.038 89.7065 215.712 89.7104 215.899H90.727Z" fill="#002636"/>
<path d="M168.407 215.887C167.761 208.763 165.626 199.531 165.603 199.437C165.556 199.258 160.745 181.235 157.602 171.049C156.067 166.078 153.422 158.958 149.535 153.278C148.21 151.342 147.291 150.894 147.279 150.89L147.19 150.832C145.3 149.227 143.54 149.348 143.259 149.379L137.159 151.666C137.085 151.689 132.076 153.216 130.241 153.862C128.375 154.521 124.196 155.086 121.465 155.199C118.777 155.312 113.004 155.195 110.901 155.089C108.809 154.984 101.381 154.33 99.1099 153.874C96.9363 153.438 90.4974 151.911 90.4312 151.895L86.5709 151.241C86.4813 151.225 84.1559 150.559 82.1498 152.869L82.0836 152.943L81.9901 152.978C81.9628 152.99 79.1037 154.112 76.1549 158.852C73.323 163.402 71.0676 167.928 69.2524 171.563L68.824 172.42C67.5424 174.987 65.848 179.462 64.6131 182.731C64.06 184.195 63.6237 185.348 63.3511 185.995C62.5798 187.826 58.4313 201.362 54.9645 215.895H53.7959C57.103 202.032 61.6644 188.001 62.6343 185.691C62.8992 185.056 63.3589 183.848 63.8847 182.454C65.1273 179.17 66.8257 174.671 68.1267 172.069L68.5552 171.212C70.3782 167.562 72.6414 163.02 75.4927 158.439C78.3285 153.882 81.0708 152.526 81.6239 152.289C83.9299 149.706 86.645 150.236 86.7618 150.259L90.6065 151.14C90.6727 151.155 97.0999 152.678 99.2618 153.111C101.502 153.559 108.868 154.205 110.94 154.31C113.032 154.416 118.769 154.532 121.434 154.419C124.11 154.307 128.184 153.761 129.984 153.126C131.834 152.472 136.859 150.941 136.91 150.925L143.103 148.612C143.197 148.596 145.367 148.281 147.657 150.205C147.902 150.337 148.88 150.941 150.173 152.834C154.115 158.595 156.791 165.794 158.338 170.815C161.485 181.013 166.3 199.056 166.351 199.235C166.378 199.332 168.762 208.681 169.416 215.868L168.407 215.887Z" fill="#002636"/>
<path d="M166.378 99.4178L166.277 98.8179L166.14 98.2258L165.872 97.0417L165.603 95.8575C165.517 95.4602 165.424 95.0668 165.307 94.6811L164.645 92.344L164.477 91.7597L164.282 91.1831L163.893 90.034C163.406 88.4876 162.775 86.9957 162.191 85.4843L161.209 83.2601C160.893 82.5122 160.508 81.7994 160.161 81.0671C158.72 78.1651 157.096 75.3565 155.284 72.6688C155.066 72.3299 154.821 72.0027 154.591 71.6677C154.361 71.3366 154.123 71.0055 153.874 70.6744C153.376 70.02 152.857 69.3967 152.324 68.7813C151.256 67.5543 150.131 66.3818 148.966 65.256C144.303 60.7453 139.021 56.8773 133.295 53.8155C127.569 50.7538 121.372 48.5608 114.972 47.3883C111.766 46.8274 108.517 46.5352 105.265 46.4768L102.826 46.4846L100.392 46.617C99.5775 46.6443 98.7712 46.7417 97.961 46.8352L96.7496 46.9676C96.3445 47.0066 95.9393 47.0572 95.542 47.1312L93.1347 47.5285C92.7335 47.587 92.3362 47.6727 91.9389 47.7661L90.7469 48.0271C89.1498 48.3465 87.5995 48.8296 86.0336 49.2619C82.9368 50.2202 79.8712 51.2758 76.8913 52.5574C75.3838 53.1572 73.9309 53.8779 72.4585 54.5557C71.0172 55.3036 69.5604 56.0203 68.1659 56.8461C65.3535 58.4587 62.619 60.2272 60.0597 62.2333C54.9374 66.2182 50.3681 70.9821 46.8779 76.4862C45.1367 79.2363 43.6487 82.1538 42.5502 85.2311C42.0087 86.7698 41.553 88.3474 41.2569 89.9639C41.0972 90.7702 41.0115 91.5961 40.957 92.4296C40.9531 92.8503 40.9336 93.2671 40.9765 93.7034C40.9843 93.8125 40.9882 93.9176 41.0038 94.0267L41.0622 94.3578C41.0933 94.5837 41.1596 94.7902 41.218 94.9966C41.4673 95.8186 41.9036 96.6483 42.5775 97.2754C43.2552 97.9064 44.1161 98.2531 44.9224 98.4674C45.7249 98.6894 46.539 98.8063 47.0882 99.1296C47.3453 99.2971 47.5206 99.4879 47.6063 99.7801C47.6998 100.068 47.6998 100.403 47.692 100.812C47.579 104.014 47.5011 107.263 47.6491 110.492C47.7894 113.725 48.1205 116.954 48.7203 120.145C49.3358 123.327 50.2122 126.478 51.5524 129.458C52.8885 132.419 54.692 135.243 57.0759 137.483C59.3703 139.777 61.8789 141.845 64.5199 143.711C67.1609 145.585 69.9226 147.272 72.7779 148.791C73.4907 149.169 74.2153 149.531 74.9359 149.897C75.6643 150.244 76.3888 150.606 77.1289 150.933C78.6014 151.603 80.0855 152.23 81.6202 152.787L81.7721 152.842L81.8968 152.76L83.042 151.989L83.6146 151.603C83.7159 151.533 83.8016 151.482 83.8795 151.432C83.9613 151.377 84.0587 151.338 84.1444 151.292C84.5222 151.132 84.9429 151.038 85.3714 150.988C85.7999 150.941 86.2517 150.929 86.6685 150.96L87.619 151.031L89.5511 151.214L89.3874 151.163L89.477 151.171L86.7932 150.353C84.6586 149.702 82.559 148.931 80.5373 147.988C80.3387 147.895 80.1361 147.797 79.9375 147.704C73.966 144.763 70.1564 140.883 68.9878 136.439C67.8503 132.099 69.3461 127.483 73.1986 123.436C77.3899 119.035 82.446 111.848 87.3346 104.895C92.6946 97.2754 98.2337 89.3991 102.581 85.2818C110.73 77.5613 121.356 77.4639 121.465 77.4639H121.481C121.594 77.46 132.38 76.8368 138.792 84.9585C139.964 86.4426 142.001 88.4642 143.859 90.7235C150.423 98.6933 159.413 109.604 161.443 114.68C163.772 120.507 163.199 125.96 162.494 128.266C162.374 128.664 159.444 138.016 151.923 143.618C149.437 145.468 146.796 146.87 146.754 146.894L143.205 149.04L142.792 149.289H142.796L142.769 149.305L143.754 149.336C143.754 149.336 143.77 149.336 143.793 149.336C143.926 149.344 144.066 149.356 144.202 149.371C144.214 149.371 144.225 149.375 144.237 149.375C144.389 149.394 144.541 149.414 144.689 149.441C145.001 149.5 145.301 149.574 145.585 149.683C146.158 149.909 146.73 150.24 147.26 150.583L147.4 150.676L147.54 150.61C147.599 150.583 147.653 150.551 147.716 150.524C147.868 150.454 148.113 150.337 148.436 150.166C149.597 149.558 150.68 148.849 151.728 148.082C153.037 147.116 154.271 146.056 155.421 144.907C157.73 142.621 159.698 140.003 161.33 137.198C162.156 135.8 162.857 134.335 163.515 132.851C163.823 132.099 164.146 131.355 164.407 130.588C164.699 129.828 164.941 129.057 165.182 128.282C165.435 127.511 165.618 126.72 165.84 125.941C166.02 125.15 166.218 124.363 166.374 123.569C166.682 121.979 166.958 120.378 167.106 118.766C167.831 112.327 167.558 105.787 166.378 99.4178ZM166.351 119.459C166.144 121.122 165.868 122.692 165.544 124.196C165.564 124.005 165.587 123.814 165.599 123.623C165.661 122.755 165.685 121.882 165.661 121.009C165.63 120.141 165.595 119.264 165.424 118.403L165.19 117.114C165.089 116.69 164.972 116.269 164.863 115.844C164.804 115.634 164.758 115.42 164.691 115.213L164.481 114.594C164.337 114.181 164.216 113.76 164.049 113.359C163.421 111.727 162.646 110.157 161.809 108.626C160.936 107.115 159.99 105.646 158.973 104.225C157.949 102.811 156.87 101.439 155.74 100.111C154.618 98.779 153.422 97.4974 152.238 96.2354C151.085 94.9655 150.072 93.5554 149.063 92.1492L146.056 87.8877C145.036 86.4737 143.98 85.0831 142.878 83.7275C141.779 82.372 140.599 81.071 139.36 79.8322C138.129 78.5896 136.785 77.4366 135.309 76.455C133.841 75.4656 132.22 74.7216 130.561 74.1295C128.897 73.5413 127.18 73.1245 125.438 72.8597C123.697 72.6026 121.944 72.4662 120.168 72.5247C119.701 72.5402 119.272 72.6104 118.832 72.6688C118.396 72.7311 117.963 72.809 117.531 72.8869C116.666 73.0466 115.813 73.2492 114.96 73.4751C111.579 74.4022 108.268 75.8006 105.467 77.9898C102.709 80.1945 100.337 82.7654 98.0194 85.3675C93.423 90.6028 89.1459 96.1263 85.1766 101.829C81.0944 107.45 76.8991 112.997 72.4896 118.361C71.3873 119.705 70.2732 121.041 69.2293 122.439C68.1892 123.837 67.2115 125.298 66.4831 126.891C66.2961 127.285 66.1598 127.705 65.9962 128.111C65.8599 128.527 65.7547 128.952 65.6339 129.373C65.5677 129.805 65.4781 130.234 65.4353 130.67L65.408 131.324C65.4002 131.542 65.3768 131.76 65.408 131.979C65.4859 133.732 66.0429 135.422 66.8376 136.965C66.078 135.403 65.5599 133.708 65.5249 131.975C65.5015 131.76 65.5287 131.542 65.5365 131.328L65.5755 130.681C65.6261 130.253 65.7235 129.832 65.7936 129.408C65.9183 128.995 66.0312 128.578 66.1715 128.169C66.339 127.772 66.4792 127.363 66.674 126.977C67.418 125.415 68.4074 123.985 69.4669 122.614C70.5264 121.243 71.6638 119.93 72.7857 118.602C77.2653 113.273 81.5189 107.765 85.6635 102.176C89.7108 96.5236 93.9488 91.0234 98.557 85.831C100.867 83.2562 103.247 80.7009 105.931 78.5702C108.63 76.4706 111.859 75.115 115.17 74.223C116 74.0049 116.838 73.8023 117.683 73.6426C118.104 73.5608 118.528 73.4868 118.953 73.4245C119.373 73.3661 119.806 73.292 120.207 73.2843C121.909 73.2219 123.639 73.3505 125.333 73.5959C127.032 73.8491 128.707 74.2464 130.323 74.8151C131.936 75.3799 133.506 76.0967 134.923 77.0471C136.341 77.9859 137.658 79.1038 138.877 80.3231C140.1 81.5384 141.265 82.8122 142.36 84.1521C144.557 86.8243 146.539 89.6757 148.58 92.4959C149.609 93.9021 150.645 95.3122 151.841 96.6054C153.044 97.8675 154.236 99.1179 155.366 100.431C156.5 101.739 157.586 103.091 158.615 104.482C159.639 105.88 160.586 107.329 161.474 108.813C162.331 110.317 163.125 111.855 163.772 113.46C163.943 113.858 164.068 114.271 164.22 114.676L164.438 115.287C164.508 115.494 164.559 115.704 164.617 115.911C164.73 116.327 164.855 116.74 164.964 117.161L165.217 118.435C165.4 119.28 165.451 120.149 165.498 121.009C165.537 121.874 165.525 122.743 165.482 123.608C165.463 124.036 165.431 124.465 165.389 124.889C161.178 143.053 148.892 149.309 147.447 149.987C147.139 149.792 146.38 149.328 145.698 149.083C145.347 148.958 144.977 148.876 144.654 148.822L147.038 147.381C147.065 147.365 149.745 145.943 152.265 144.066C159.811 138.445 162.736 129.427 163.044 128.414C163.246 127.76 165.416 121.687 162.471 114.325C160.407 109.168 150.89 98.3232 144.299 90.3262C142.441 88.0708 140.837 86.1232 139.668 84.6429C133.143 76.381 121.859 76.4355 121.489 76.4511C121.126 76.455 110.391 77.0393 102.168 84.8299C97.7779 88.9862 92.2193 96.8898 86.8477 104.532C81.9708 111.466 76.9264 118.637 72.7662 123.008C68.7657 127.207 66.7947 132.049 67.9867 136.591C69.5214 142.426 75.8162 147.279 85.013 150.399C84.4482 150.485 83.8444 150.66 83.3731 150.995C82.4967 151.619 81.9124 151.989 81.6787 152.137C80.2179 151.603 66.783 146.528 56.9513 136.388C47.544 126.689 48.214 108.089 48.436 101.977C48.4594 101.295 48.4788 100.762 48.4788 100.399C48.4788 99.9242 48.3931 99.5464 48.2451 99.2425H48.2529C48.1906 98.5531 48.1594 97.8324 48.1516 97.1235C48.1438 96.4106 48.1594 95.6939 48.1984 94.9811C48.2373 94.2682 48.2958 93.5515 48.3892 92.8386C48.471 92.1258 48.5996 91.4169 48.7359 90.7118C48.5256 91.4013 48.323 92.0947 48.1672 92.7997C48.0036 93.5047 47.8634 94.2176 47.7543 94.9304C47.6374 95.6472 47.5479 96.3678 47.4816 97.0923C47.4427 97.5208 47.4115 97.9493 47.392 98.3817C46.9246 98.1246 46.3637 97.9882 45.8067 97.8519C44.2836 97.4857 42.5619 97.0689 41.8958 94.4046C41.3426 92.1881 42.3515 84.2028 48.9657 74.9047C54.4622 67.1764 65.3106 56.6396 85.7882 50.337C92.1999 48.366 98.5219 47.3805 104.731 47.3805C114.271 47.3805 123.545 49.706 132.454 54.3492C146.165 61.4932 153.278 71.2081 153.574 71.6171C158.369 78.2663 169.214 96.2237 166.351 119.459Z" fill="#002636"/>
<path d="M136.906 120.807C136.906 120.807 139.539 126.436 143.415 128.851C147.291 131.262 141.954 130.312 141.954 130.312L137.202 125.049L135.741 122.782L136.906 120.807Z" fill="#E8782D"/>
<path d="M94.1318 132.945C94.1318 132.945 83.3847 131.554 77.46 125.267L78.7026 129.509L88.063 133.459L92.0128 134.335L94.1318 132.945Z" fill="#E8782D"/>
<path d="M168.197 104.969C167.71 100.477 166.724 95.8421 163.133 95.511C150.271 94.3385 139.247 97.3184 136.396 98.4597C130.432 100.84 130.841 107.446 130.845 107.516C130.845 107.516 130.977 109.834 128.8 110.134C127.748 110.29 126.143 110.395 123.67 110.395C115.131 110.395 114.508 109.234 114.005 107.984C113.359 102.569 110.118 99.0674 104.368 97.5833C96.7726 95.6201 82.0094 95.4292 76.8248 95.9823C72.3802 96.4575 69.19 98.4792 67.9357 101.572L67.663 102.367C67.6435 102.46 67.4215 103.259 65.8127 103.161C64.1962 103.06 61.7032 102.515 60.3632 102.219C59.9075 102.117 59.5647 102.043 59.4011 102.016C58.9999 101.95 58.5558 102.086 58.1429 102.406C57.5041 102.896 57.0678 103.711 56.9782 104.583C56.8536 105.378 57.1691 106.683 58.0767 106.994C58.3571 107.092 60.8579 107.945 63.6664 108.642L63.904 108.716C64.0209 108.728 66.8177 109.098 67.5033 113.433C67.5812 113.94 67.6669 114.333 67.7604 114.633C67.8812 115.241 68.0214 115.852 68.1733 116.452C70.0469 123.814 77.1403 132.509 88.7638 135.325C90.9024 135.843 92.9513 136.104 94.86 136.104C98.7903 136.104 102.234 134.998 105.089 132.82C109.152 129.72 111.777 125.018 113.113 118.447C113.125 118.419 113.141 118.384 113.156 118.349C114.804 114.516 119.794 113.714 123.685 113.714C130.475 113.714 131.265 115.307 132.181 117.149C132.228 117.247 132.274 117.34 132.325 117.438C133.829 124.461 136.302 128.734 140.334 131.297C142.558 132.711 145.074 133.397 148.023 133.397C150.119 133.397 152.475 133.085 154.988 132.31C159.931 130.787 162.868 127.149 165.431 121.126C167.655 115.903 168.715 109.717 168.197 104.969ZM110.507 109.799C110.5 110.029 110.496 110.243 110.492 110.442V110.59C110.492 110.73 110.379 124.535 102.514 130.538C98.8215 133.354 94.9067 133.993 89.4222 132.66C80.5993 130.522 75.0251 125.135 72.8477 116.643C71.3402 110.769 72.4893 106.024 72.7347 105.132L72.7698 104.942C72.7853 104.774 73.2138 100.828 77.5298 100.365C77.7713 100.337 78.0284 100.31 78.305 100.275C79.6216 100.119 81.2615 99.9283 83.6143 99.9283C89.9285 99.9283 98.4787 100.392 103.527 101.697C110.694 103.555 110.581 107.314 110.507 109.799ZM162.284 119.872C160.395 125.244 159.335 128.138 155.003 129.84C150.391 131.648 145.105 130.623 141.717 128.469C137.311 125.672 135.507 120.573 134.565 108.249C134.565 108.249 133.879 103.827 137.626 102.332C138.857 101.841 145.499 99.3907 155.529 99.3907C157.177 99.3907 158.466 99.4374 159.919 99.5465L160.11 99.566C160.231 99.5777 163.09 99.8893 163.811 103.274C163.861 103.516 163.912 103.722 163.947 103.866C164.033 104.318 164.103 104.797 164.157 105.3C164.629 109.663 163.912 115.248 162.284 119.872Z" fill="#3066F4"/>
<path d="M132.481 107.855C132.481 107.855 132.013 102.99 137.159 100.949C139.948 99.8425 148.973 97.0456 161.598 98.2142C170.144 99.005 167.028 128.037 154.906 131.468C140.91 135.426 134.043 127.795 132.481 107.855Z" fill="#FF8431"/>
<path d="M71.8866 103.983C71.8866 103.983 72.3696 98.7674 77.7295 98.1792C82.3493 97.6728 96.7074 97.7819 104.12 99.7451C112.986 102.094 112.779 108.513 112.779 110.703C112.779 112.857 111.747 139.466 89.6881 133.989C67.6251 128.508 71.8866 103.983 71.8866 103.983Z" fill="#FF8431"/>
<path d="M101.591 101.65C101.591 101.65 108.61 102.234 108.462 110.422C108.318 118.552 108.244 122.05 106.709 124.753C105.174 127.46 111.095 119.783 111.095 119.783L111.828 108.669L110.001 102.16L102.615 100.478L101.591 101.65Z" fill="#E8782D"/>
<path d="M158.182 99.7803C158.182 99.7803 161.691 100.326 162.019 105.9C162.346 111.474 160.375 128.091 154.014 129.731L155.88 130.604L160.488 126.12L165.201 114.427L165.092 104.26L163.775 98.9039L158.84 97.8093L158.182 99.7803Z" fill="#E8782D"/>
<path d="M79.8748 102.308C79.8748 102.308 76.147 102.09 75.3797 104.501C74.6123 106.913 74.7214 111.739 75.5978 114.703C76.4742 117.664 78.6673 117.114 79.4347 113.168C80.202 109.219 82.9989 104.669 82.6717 103.461C82.3406 102.254 79.8748 102.308 79.8748 102.308Z" fill="#F9A870"/>
<path d="M141.896 103.15C141.896 103.15 138.449 103.399 137.989 105.444C137.53 107.489 138.118 111.392 139.224 113.694C140.33 115.996 142.29 115.299 142.594 112.008C142.897 108.716 145.005 104.704 144.58 103.761C144.156 102.822 141.896 103.15 141.896 103.15Z" fill="#F9A870"/>
<path d="M101.883 122.564C101.883 122.564 100.348 125.563 98.155 127.098C95.9619 128.633 97.8628 129.147 99.9078 128.048C101.957 126.95 103.636 124.099 104.15 123.004C104.66 121.905 103.492 120.079 101.883 122.564Z" fill="#F79552"/>
<path d="M156.682 121.387C156.682 121.387 155.794 123.966 154.212 125.45C152.631 126.934 154.212 127.125 155.727 126.011C157.243 124.897 158.264 122.416 158.548 121.477C158.836 120.538 157.687 119.206 156.682 121.387Z" fill="#F79552"/>
<path d="M168.586 104.926C168.08 100.279 167.044 95.4759 163.172 95.1253C150.236 93.945 139.126 96.9522 136.255 98.0974C130.035 100.583 130.455 107.473 130.459 107.536C130.463 107.618 130.537 109.499 128.745 109.744C127.616 109.912 125.909 109.998 123.674 109.998C115.373 109.998 114.796 108.88 114.387 107.879C113.705 102.316 110.367 98.7246 104.466 97.1976C96.8311 95.2227 81.9939 95.0279 76.7859 95.585C72.24 96.0719 68.8823 98.1948 67.5696 101.436L67.2969 102.23L67.2852 102.273C67.2813 102.297 67.1294 102.838 65.8401 102.764C64.2508 102.667 61.7812 102.121 60.4529 101.829C59.9698 101.724 59.6426 101.65 59.4712 101.623C58.9649 101.537 58.4117 101.704 57.9131 102.086C57.1925 102.639 56.6978 103.555 56.6004 104.513C56.4524 105.456 56.8419 106.967 57.956 107.353C58.2325 107.45 60.7528 108.307 63.5574 109.004L63.795 109.078L63.8651 109.094C63.9703 109.106 66.4867 109.437 67.1216 113.488C67.2034 114.002 67.2891 114.403 67.3826 114.723C67.5034 115.326 67.6436 115.938 67.7955 116.542C69.6964 124.017 76.891 132.84 88.6704 135.695C90.8362 136.221 92.9202 136.486 94.8561 136.486C98.8761 136.486 102.397 135.352 105.323 133.12C109.456 129.965 112.128 125.201 113.487 118.556L113.515 118.493C115.077 114.855 119.911 114.092 123.685 114.092C130.233 114.092 130.938 115.513 131.842 117.332L131.955 117.554C133.486 124.659 136.006 128.995 140.123 131.613C142.414 133.066 144.996 133.774 148.023 133.774C150.341 133.774 152.725 133.404 155.105 132.672C159.873 131.204 162.969 127.9 165.793 121.271C168.037 115.996 169.108 109.737 168.586 104.926ZM155.525 99.7802C157.177 99.7802 158.439 99.8269 159.876 99.936L160.067 99.9555C160.176 99.9672 162.759 100.248 163.425 103.356C163.48 103.605 163.526 103.82 163.561 103.94C163.643 104.381 163.713 104.852 163.764 105.343C164.231 109.655 163.522 115.174 161.914 119.747C160.079 124.956 159.07 127.826 154.855 129.482C150.232 131.297 145.028 130.117 141.919 128.146C137.634 125.427 135.878 120.398 134.943 108.198C134.935 108.155 134.343 104.069 137.763 102.702C138.986 102.207 145.565 99.7802 155.525 99.7802ZM110.118 109.791C110.11 110.021 110.106 110.239 110.102 110.442V110.59C110.102 110.726 109.974 124.356 102.281 130.23C98.6891 132.968 94.8717 133.584 89.5157 132.286C80.8447 130.183 75.3641 124.889 73.2255 116.549C71.7453 110.769 72.8711 106.114 73.1204 105.206L73.1593 104.98C73.1749 104.825 73.5683 101.182 77.5727 100.754C77.7986 100.731 78.0323 100.703 78.2816 100.672L78.3518 100.664C79.6606 100.513 81.2888 100.322 83.6143 100.322C89.9052 100.322 98.4164 100.785 103.43 102.078C110.293 103.855 110.192 107.283 110.118 109.791L110.507 109.799L110.118 109.791Z" fill="#002636"/>
</g>
</g>
<defs>
<clipPath id="clip0_100_15647">
<rect width="220" height="220" fill="white"/>
</clipPath>
</defs>
</svg>
