<svg width="56" height="56" viewBox="0 0 56 56" fill="none" xmlns="http://www.w3.org/2000/svg">
<path d="M43.369 13.7451C40.6036 12.4602 37.6029 11.5257 34.4846 11C34.1315 11.7009 33.6608 12.577 33.3666 13.3363C30.0717 12.869 26.7768 12.869 23.5408 13.3363C23.2466 12.577 22.7759 11.7009 22.364 11C19.2457 11.5257 16.3038 12.4602 13.4796 13.7451C7.94886 22.1558 6.41909 30.3912 7.18398 38.4513C10.8907 41.1965 14.4798 42.8903 18.0689 44C18.9515 42.8319 19.7164 41.5469 20.4224 40.2035C19.128 39.7363 17.8924 39.1522 16.7745 38.4513C17.0687 38.2177 17.3629 37.9841 17.657 37.7504C24.7175 41.0212 32.3664 41.0212 39.3681 37.7504C39.6623 37.9841 39.9564 38.2177 40.2506 38.4513C39.0739 39.1522 37.8383 39.7363 36.6027 40.2035C37.2499 41.5469 38.0736 42.8319 38.9562 44C42.4864 42.8903 46.1344 41.2549 49.8411 38.4513C50.6649 29.1062 48.2525 20.9876 43.369 13.7451ZM21.3638 33.4867C19.2457 33.4867 17.4805 31.5009 17.4805 29.1062C17.4805 26.7115 19.1868 24.7257 21.3638 24.7257C23.5408 24.7257 25.2471 26.7115 25.2471 29.1062C25.1882 31.5009 23.4819 33.4867 21.3638 33.4867ZM35.6025 33.4867C33.4843 33.4867 31.7192 31.5009 31.7192 29.1062C31.7192 26.7115 33.4255 24.7257 35.6025 24.7257C37.7794 24.7257 39.4857 26.7115 39.4857 29.1062C39.4857 31.5009 37.7794 33.4867 35.6025 33.4867Z" fill="white"/>
</svg>
