<svg width="480" height="480" viewBox="0 0 480 480" fill="none" xmlns="http://www.w3.org/2000/svg">
<path opacity="0.3" fill-rule="evenodd" clip-rule="evenodd" d="M357.022 272.125C352.125 241.679 343.803 224.238 335.812 212.398C335.98 214.638 336.055 216.852 336.036 219.03C344.396 234.516 352.626 257.917 354.478 291.507C357.733 350.563 345.032 390.772 340.25 403.677C340.462 404.982 340.63 406.137 340.749 407.123L338.915 407.119C338.794 407.417 338.697 407.651 338.627 407.819C338.594 407.9 338.566 407.966 338.546 408.017L326.222 407.968L326.249 407.905L326.25 407.903C326.274 407.846 326.312 407.756 326.364 407.632C326.391 407.568 326.421 407.496 326.455 407.415C326.494 407.32 326.538 407.213 326.587 407.093L152.272 406.731C152.525 407.357 152.693 407.751 152.757 407.903C152.772 407.936 152.781 407.958 152.785 407.968L140.461 408.017C140.44 407.966 140.413 407.9 140.38 407.819C138.842 404.11 124.246 368.91 124.005 311.931C122.164 310.896 120.441 309.752 118.83 308.509C117.79 361.843 131.138 407.663 131.297 408.19L119.299 408.162C118.597 405.762 104.301 355.498 108.116 296.551C106.878 294.573 105.77 292.504 104.782 290.364C99.155 347.813 108.813 407.628 108.908 408.169H97.062V408.162C96.5971 405.534 84.3781 326.58 97.8786 260.933C96.6473 242.975 99.6793 225.69 102.521 217.406C106.76 205.034 114.325 190.065 119.645 180.159C119.86 179.473 120.095 178.752 120.379 177.963C120.379 177.963 125.429 164.773 140.496 150.815L139.782 150.669C160.661 126.646 204.919 98.6249 243.539 97.4542C268.754 96.6922 318.436 141.927 321.948 155.969C322.363 157.631 322.835 159.447 323.344 161.357C333.623 167.696 361.991 189.726 377.747 246.833C396.465 314.672 382.437 405.343 381.938 408.162V408.169H370.093C370.21 407.497 385.104 315.24 367.052 249.784C357.859 216.437 346.173 199.818 336.114 188.984C333.625 186.301 331.323 184.112 329.253 182.331C329.602 183.526 329.938 184.672 330.256 185.753C342.026 197.666 360.349 223.063 367.967 270.358C379.155 339.839 360.506 405.412 359.703 408.162L347.705 408.197L347.71 408.179C348.12 406.76 367.753 338.775 357.022 272.125ZM195.866 291.459C195.866 291.459 169.304 303.631 147.486 393.053C142.656 377.432 136.142 350.445 135.249 316.4C138.336 317.199 141.659 317.757 145.234 318.045C145.234 318.045 162.206 319.798 169.223 304.004C176.247 288.203 160.218 275.706 158.105 274.161C155.701 272.409 144.514 268.897 146.987 281.186C149.224 292.325 144.063 292.304 144.063 292.304C144.063 292.304 137.814 293.72 136.059 285.39C136.915 275.021 138.337 266.199 140.12 258.603C142.327 253.793 144.257 253.684 144.257 253.684L149.072 252.514L150.416 253.317C158.035 273.63 176.88 285.046 196.613 291.438L195.866 291.459ZM296.973 288.64C319.992 278.585 330.183 264.808 334.057 242.654C338.516 254.376 342.189 270.004 343.409 292.117C345.419 328.547 340.38 359.096 335.248 379.663C330.878 361.088 324.577 337.899 318.43 320.678C308.281 292.269 297.731 288.619 297.731 288.619L296.973 288.64Z" fill="url(#paint0_linear_254_3978)"/>
<path opacity="0.3" d="M364.052 290.745C364.052 290.745 361.323 259.15 350.011 229.501C345.583 217.9 339.752 209.016 334.294 202.5L336 213L339.876 219.36L346.312 232.231L351.971 247.831L355.677 264.602L358.407 280.403L359.771 297.375L360.159 315.905L358.988 346.918L355.871 369.737L351.188 393.338L347.074 408.162H351.535C358.711 383.002 359.175 372.078 362.494 346.724C365.805 321.364 364.052 290.745 364.052 290.745Z" fill="#214354"/>
<path d="M360.581 408.155C362.909 399.593 379.236 335.932 368.658 270.241C360.746 221.107 341.275 195.47 329.5 184.023V185.946C341.169 197.64 359.64 222.926 367.294 270.462C378.003 336.978 361.018 401.401 359.147 408.155H360.581Z" fill="#002636"/>
<path d="M348.528 408.12C350.814 399.836 367.82 334.733 357.72 272C352.433 239.166 344.266 223.844 335.973 212L335.662 214C343.579 225.56 351.278 240.746 356.349 272.229C366.608 335.932 348.777 402.094 347.08 408.155H351.541L348.528 408.12Z" fill="#002636"/>
<path opacity="0.3" d="M348.451 311.368C348.451 311.368 349.033 279.662 340.88 248.995C339.352 243.25 337.44 238.091 335.34 233.5L333.787 243L336.911 251.322L340.908 267.428L342.84 284.497L343.907 300.492L343.491 317.512L342.619 336.77L338.331 365.539L332.061 389.071L326.215 407.961L329.789 408.155C329.789 408.155 336.46 392.846 342.404 367.977C348.347 343.108 348.451 311.368 348.451 311.368Z" fill="#214354"/>
<path d="M339.227 408.165C342.52 399.672 358.815 357.656 355.164 291.466C353.256 256.898 344.602 233.057 335.97 217.5V220.359C344.096 235.759 351.98 258.771 353.786 291.542C357.492 358.812 340.326 401.581 337.763 408.107L339.19 408.259L339.227 408.165Z" fill="#002636"/>
<path d="M326.915 408.102C330.137 399.868 347.58 355.301 344.095 292.082C342.762 267.911 338.944 252.807 334.261 241.5L333.777 244C338.045 254.966 341.468 269.545 342.716 292.158C346.263 356.589 327.76 402.225 325.439 408.072L326.88 408.19L326.915 408.102Z" fill="#002636"/>
<path opacity="0.3" d="M376.085 267.518C376.085 267.518 369.919 236.415 355.434 208.179C346.417 190.601 334.62 180.251 327 174.941L329 184.703H331.452L337.25 191.824L344.233 199.195L352.04 211.29L359.369 226.183L364.883 242.448L369.324 257.855L372.538 274.57L374.949 292.948L375.551 324.28L375.163 347.493L373.411 370.9L369.074 408.107L374.512 408.155C378.897 382.365 380.123 348.899 380.65 323.331C381.176 297.762 376.085 267.518 376.085 267.518Z" fill="#214354"/>
<path d="M382.776 408.134C384.162 399.371 396.104 310.786 378.412 246.646C362.239 188.024 332.749 166.164 323 160.343L323.871 162.5C334.71 169.445 361.808 191.664 377.075 247.013C394.989 311.956 382.43 401.214 381.315 408.134H382.776Z" fill="#002636"/>
<path d="M367.73 249.583C358.496 216.111 348.23 201.959 338.296 190.903C334.84 187.056 331.59 184.016 328.768 181.66V183.471C331.329 185.672 334.214 188.428 337.264 191.824C347.094 202.769 357.228 216.734 366.393 249.951C383.552 312.157 369.469 401.844 368.444 408.051L369.857 408.1C371.221 399.621 384.626 310.841 367.73 249.583Z" fill="#002636"/>
<path d="M334.736 375.611C335.955 380.82 335.168 381 335.168 381L333.898 375.819C331.307 365.456 328.502 355.141 325.475 344.902C323.957 339.79 322.413 334.678 320.729 329.614C319.074 324.536 317.307 319.507 315.285 314.596C313.262 309.691 310.927 304.898 308.073 300.457H310C312.923 305.022 314.633 309.04 316.663 314.014C318.686 319.001 320.432 324.072 322.059 329.171C323.715 334.262 325.232 339.395 326.728 344.535C329.631 354.836 332.284 365.199 334.736 375.611Z" fill="#002636"/>
<path d="M195.838 291.154H195.852L197.736 291.971L197.23 292.193C196.115 292.809 194.647 293.287 193.635 294.133L192.132 295.435C191.654 295.892 191.19 296.377 190.719 296.841C190.255 297.319 189.77 297.769 189.326 298.268L188.017 299.778L186.708 301.288C186.285 301.801 185.897 302.348 185.489 302.875C184.692 303.942 183.404 305.362 182.635 306.449L179.102 311.208C178.749 311.776 178.423 312.358 178.084 312.933L176.068 316.39C170.838 325.707 166.439 335.267 162.629 345.242C161.694 347.743 160.855 350.278 159.969 352.799L158.653 356.582L157.994 358.473L157.413 360.392L155.085 368.06C154.302 370.616 153.506 373.166 152.861 375.763L150.804 383.515C150.125 386.099 149.377 388.669 148.809 391.28L144.32 407.587H144.299C143.828 407.58 143.447 407.192 143.447 406.721C143.447 406.659 143.454 406.59 143.468 406.527L147.195 390.879C147.777 388.26 148.546 385.69 149.238 383.099L151.379 375.348C152.058 372.75 152.882 370.201 153.693 367.645L156.117 359.976L156.727 358.057L157.406 356.166L158.77 352.384C159.692 349.869 160.551 347.327 161.52 344.826C165.469 334.858 169.819 325.021 175.139 315.69L177.197 312.227C177.543 311.652 177.876 311.07 178.236 310.502L179.365 308.832L181.616 305.493C182.399 304.406 183.244 303.36 184.055 302.286C184.47 301.759 184.865 301.219 185.295 300.7L186.625 299.183L187.955 297.665C188.398 297.167 188.904 296.71 189.375 296.232C189.86 295.76 190.331 295.276 190.823 294.818L192.367 293.502C193.42 292.643 194.501 291.847 195.734 291.182C195.769 291.161 195.803 291.154 195.838 291.154Z" fill="#002636"/>
<path opacity="0.2" d="M284.237 254.862C284.237 254.862 285.747 260.231 293.457 259.219C293.457 259.219 287.59 263.75 284.902 262.406C282.221 261.069 284.237 254.862 284.237 254.862Z" fill="#EFEFEF"/>
<path opacity="0.2" d="M234.076 260.778C234.076 260.778 239.653 260.792 240.789 253.096C240.789 253.096 243.539 259.974 241.516 262.191C239.493 264.408 234.076 260.778 234.076 260.778Z" fill="#EFEFEF"/>
<path d="M330.899 187.252C330.85 187.107 326.486 172.068 324.567 164.004C322.669 156.038 321.152 150.732 314.086 142.454C311.094 138.948 300.266 127.477 286.287 116.636C269.288 103.453 254.907 96.7684 243.539 96.7684C228.479 96.7684 209.131 102.227 190.456 111.745C167.215 123.584 145.872 141.013 129.239 162.335L129.226 162.321C126.108 166.387 123.905 169.969 122.437 172.643C117.193 181.475 107.592 198.952 101.87 217.212C95.5107 237.509 93.5849 276.35 109.227 299.155C117.456 311.153 129.558 317.748 145.179 318.752C145.214 318.752 145.768 318.801 146.703 318.801C151.455 318.801 166.203 317.727 170.207 304.281C174.731 289.069 164.859 277.819 158.5 273.6C155.521 271.626 151.012 270.684 148.165 272.707C146.606 273.815 145.02 276.219 146.329 281.373C147.652 286.568 146.911 289.09 146.066 290.295C145.207 291.514 144.071 291.625 143.967 291.639C143.939 291.646 141.341 292.041 139.263 289.512C135.578 285.03 136.451 275.228 138.965 264.623H138.958C139.339 262.863 140.759 256.601 144.853 254.301C146.377 253.442 148.082 253.303 149.917 253.892C150.527 255.298 155.688 264.623 155.688 264.623C156.311 265.648 156.907 266.5 157.413 267.033C157.461 267.096 163.696 274.757 169.854 279.128C179.199 285.764 189.479 289.692 200.361 292.886C211.286 296.045 222.529 297.873 233.813 298.857C234.284 298.899 234.755 298.926 235.226 298.961C236.03 299.023 236.806 299.086 237.575 299.141C237.796 299.155 238.018 299.176 238.24 299.19C243.449 299.543 247.841 299.647 251.02 299.661C265.408 300.97 284.389 294.43 292.341 291.292C298.528 288.889 304.582 285.986 310.131 282.287C310.844 281.816 311.544 281.338 312.223 280.846C312.285 280.798 312.347 280.749 312.41 280.708C313.192 280.14 313.955 279.558 314.696 278.962C314.744 278.92 314.8 278.886 314.855 278.844C318.208 276.129 321.263 273.032 323.847 269.569C326.444 266.119 328.529 262.302 330.164 258.319C332.416 252.805 333.829 247.027 334.743 241.174C335.782 234.822 336.35 227.777 336.537 219.942C336.766 209.149 334.778 198.003 330.899 187.252ZM335.353 220.039C335.173 227.68 334.563 234.191 333.669 240.107C333.635 240.349 333.593 240.585 333.559 240.827C333.538 240.973 333.51 241.118 333.489 241.257C332.547 246.965 331.12 252.576 328.904 257.903C328.121 259.773 327.594 261.644 326.604 263.41C326.514 263.57 326.43 263.722 326.34 263.881C326.278 263.985 326.216 264.096 326.153 264.2C324.775 266.528 323.223 268.703 321.498 270.76C319.046 273.676 316.178 276.371 312.832 278.879C312.798 278.907 312.756 278.934 312.721 278.962C308.967 281.761 304.61 284.331 299.574 286.707C299.283 286.838 298.999 286.977 298.708 287.108C298.292 287.302 297.876 287.489 297.447 287.683C295.59 288.501 293.713 289.263 291.815 289.983C283.876 293.038 275.64 295.276 267.369 297.305L267.424 297.291C264.667 297.735 261.875 298.109 259.098 298.358C256.334 298.615 253.535 298.615 250.723 298.601C245.112 298.559 239.494 298.254 233.896 297.756C222.709 296.73 211.577 294.86 200.819 291.715C190.081 288.584 179.614 284.178 170.574 277.632C166.072 274.355 161.998 270.49 158.618 266.098C158.272 265.648 157.939 265.191 157.613 264.733C155.563 261.685 152.314 255.901 151.15 253.241L151.164 253.234L147.742 245.58L146.031 241.756L145.172 239.844C144.888 239.213 144.597 238.548 144.23 237.925C143.856 237.301 143.42 236.713 142.865 236.214C142.318 235.715 141.618 235.341 140.863 235.237C140.101 235.14 139.326 235.348 138.709 235.743C138.086 236.131 137.573 236.657 137.143 237.232C136.291 238.382 135.751 239.705 135.342 241.049C134.954 242.4 134.712 243.785 134.573 245.171C134.767 243.785 135.065 242.421 135.509 241.098C135.959 239.788 136.555 238.507 137.414 237.44C137.843 236.914 138.349 236.442 138.924 236.117C139.499 235.784 140.157 235.653 140.787 235.75C142.069 235.978 143.004 237.101 143.627 238.264C143.946 238.86 144.188 239.49 144.452 240.142L145.228 242.088L146.779 245.981L149.294 252.292C147.465 251.932 145.747 252.181 144.161 253.075C139.402 255.756 137.691 263.223 137.344 264.678L137.296 264.92C134.047 280.112 135.516 287.122 138.183 290.371C140.766 293.509 144.043 293.003 144.119 292.99C144.188 292.983 145.906 292.844 147.16 291.112C148.67 289.02 148.844 285.619 147.673 281.005C146.786 277.528 147.236 275.041 148.968 273.815C151.282 272.173 155.217 273.06 157.738 274.736C163.786 278.74 172.867 289.367 168.572 303.803C164.111 318.801 145.491 317.367 145.29 317.353C130.098 316.369 118.35 309.982 110.37 298.351C94.9911 275.935 96.91 237.641 103.186 217.607C111.249 191.873 127.14 166.934 127.307 166.692C128.083 165.535 128.935 164.323 129.898 163.041C146.433 141.789 167.942 124.754 191.079 112.964C209.568 103.543 228.687 98.14 243.532 98.14C268.941 98.14 305.573 133.857 313.227 142.828C320.085 150.863 321.367 156.544 323.216 164.316C325.149 172.449 329.686 187.432 329.735 187.578C329.922 188.097 330.116 188.61 330.31 189.122C330.317 189.136 331.189 191.817 331.605 193.154C331.785 193.764 331.958 194.373 332.125 194.983C332.145 195.066 332.173 195.156 332.194 195.239C332.222 195.343 332.249 195.447 332.284 195.551C334.466 203.704 335.547 211.996 335.353 220.039Z" fill="#002636"/>
<path d="M138.292 290.517C137.641 289.761 137.191 289.027 136.741 288.237C136.29 287.462 135.916 286.658 135.556 285.848C134.856 284.22 134.323 282.536 133.887 280.832C133.443 279.135 133.166 277.403 132.938 275.671C132.827 274.806 132.771 273.933 132.681 273.067L132.563 270.455L132.854 273.046C133 273.905 133.111 274.764 133.277 275.616C133.623 277.313 134.004 279.003 134.552 280.638C135.085 282.273 135.715 283.88 136.491 285.397C136.886 286.152 137.302 286.901 137.773 287.6C138.23 288.293 138.756 289.006 139.276 289.54L138.292 290.517Z" fill="#002636"/>
<path opacity="0.3" d="M219.154 104.478C219.154 104.478 194.777 111.891 176.053 124.955C157.328 138.02 128.85 173.522 123.974 192.635L131.58 183.276L139.969 173.328L151.475 163.575L159.171 158.629L161.623 154.41L170.788 141.373C170.788 141.373 184.539 121.353 205.216 110.623L219.154 104.478Z" fill="#214354"/>
<path opacity="0.8" d="M172.14 138.263C172.14 138.263 155.376 153.433 146.211 167.475L157.329 160.063L163.571 151.092L172.14 138.263Z" fill="#77BDD8"/>
<path d="M206.318 109.709C203.644 111.045 201.039 112.514 198.511 114.107C195.962 115.701 193.592 117.529 191.237 119.358C186.534 123.037 182.093 127.061 177.958 131.398C175.907 133.58 173.94 135.852 172.139 138.263C171.245 139.461 170.386 140.736 169.583 141.962C168.765 143.195 167.92 144.421 167.089 145.64C165.412 148.085 163.674 150.496 161.942 152.921C161.658 153.322 161.374 153.717 161.09 154.119L162.101 154.95C162.406 154.528 162.704 154.105 163.009 153.683C164.754 151.272 166.514 148.868 168.218 146.416C169.077 145.19 169.894 143.95 170.719 142.696C171.536 141.428 172.333 140.23 173.206 139.038C174.951 136.669 176.87 134.418 178.879 132.25C182.904 127.92 187.344 123.972 191.909 120.183C194.209 118.312 196.523 116.449 198.989 114.835C201.455 113.2 204.011 111.69 206.63 110.304C211.839 107.471 217.353 105.192 223.054 103.488C217.27 104.901 211.666 107.062 206.318 109.709Z" fill="#002636"/>
<path opacity="0.3" d="M149.286 252.299L145.573 243.058C145.573 243.058 142.941 249.784 141.576 255.201C141.576 255.195 145.054 251.689 149.286 252.299Z" fill="#214354"/>
<path d="M144.881 291.348C145.158 291.362 145.622 291.272 145.989 291.126C146.384 290.988 146.751 290.766 147.105 290.517C147.804 290.004 148.4 289.304 148.871 288.515C149.134 288.141 149.307 287.704 149.522 287.288C149.695 286.859 149.875 286.423 150.028 285.979C150.159 285.529 150.305 285.079 150.423 284.621L150.727 283.229L150.596 284.649C150.54 285.12 150.443 285.591 150.367 286.069C150.263 286.54 150.139 287.004 150.014 287.476C149.841 287.926 149.716 288.404 149.487 288.84C149.093 289.741 148.532 290.6 147.783 291.313C147.402 291.66 146.98 291.985 146.502 292.228C146.01 292.477 145.553 292.671 144.881 292.733V291.348Z" fill="#002636"/>
<path opacity="0.3" d="M150.63 283.95C150.63 283.95 151.052 281.871 150.366 278.325C149.681 274.785 149.618 273.51 150.041 273.254C150.041 273.254 148.351 273.808 147.769 275.235C147.187 276.662 147.021 277.611 147.443 279.918C147.866 282.225 149.133 286.644 147.831 289.831C147.838 289.831 149.528 288.563 150.63 283.95Z" fill="#214354"/>
<path opacity="0.3" d="M137.725 289.865L138.507 303.713C138.507 303.713 139.062 320.131 156.74 315.836C156.74 315.836 150.645 319.059 142 317.5L135.5 316.875L136 286.5L137.725 289.865Z" fill="#214354"/>
<path opacity="0.3" d="M161.18 187.564C161.18 187.564 140.302 199.853 128.989 229.501C117.677 259.15 114.941 290.745 114.941 290.745C114.941 290.745 113.188 321.364 116.5 346.724C119.818 372.078 120.282 383.002 127.459 408.162H131.92L127.805 393.338L123.122 369.737L120.005 346.918L118.834 315.905L119.222 297.375L120.587 280.403L123.316 264.602L127.022 247.831L132.696 232.231L139.131 219.36L145.262 211.269L150.249 203.559L159.026 195.364L163.12 193.092L161.18 187.564Z" fill="#214354"/>
<path d="M160.523 175.407L158.964 176.349C157.454 177.242 121.799 199.139 110.349 270.241C99.7708 335.932 116.098 399.593 118.426 408.155H119.86C117.989 401.401 101.004 336.978 111.713 270.462C122.402 204.078 155.992 180.45 160.883 177.27L162.151 192.24C160.093 193.66 152.044 199.43 144.133 210.451C135.467 222.526 126.808 237.717 121.287 272C111.187 334.733 128.193 399.836 130.479 408.12L127.466 408.155H131.927C130.23 402.094 112.399 335.932 122.658 272.229C128.138 238.209 136.686 223.218 145.262 211.269C154.413 198.516 162.455 193.501 162.532 193.452L163.121 193.092L160.523 175.407Z" fill="#002636"/>
<path opacity="0.3" d="M165.399 204.355C165.399 204.355 146.273 218.328 138.12 248.995C129.966 279.662 130.548 311.368 130.548 311.368C130.548 311.368 130.652 343.108 136.596 367.977C142.539 392.846 149.21 408.155 149.21 408.155L152.785 407.961L146.938 389.071L140.946 366.675L136.658 336.25L135.508 317.512L135.092 300.492L136.159 284.497L138.092 267.428L142.089 251.322L147.146 237.849L152.404 229.162L156.56 220.974L164.436 211.913L166.258 209.218L165.399 204.355Z" fill="#214354"/>
<path d="M163.833 191.907L162.386 193.009C160.972 194.062 127.805 219.554 123.835 291.466C120.171 357.905 136.602 399.988 139.81 408.259L141.237 408.107C138.674 401.581 121.508 358.812 125.214 291.542C128.913 224.403 157.467 199.68 162.005 196.001L164.734 210.043C162.836 211.671 157.911 216.686 151.191 228.476C143.834 241.389 136.81 257.404 134.898 292.075C131.4 355.522 148.981 400.182 152.113 408.183L153.553 408.065C151.233 402.218 132.73 356.582 136.277 292.151C138.175 257.751 145.109 241.943 152.39 229.162C160.162 215.522 165.669 211.934 165.745 211.878L166.293 211.463L163.833 191.907Z" fill="#002636"/>
<path opacity="0.3" d="M159.704 170.357C159.704 170.357 138.05 179.944 123.565 208.179C109.08 236.415 102.915 267.518 102.915 267.518C102.915 267.518 97.8232 297.763 98.3497 323.331C98.8762 348.899 100.102 382.365 104.487 408.155L109.925 408.107L105.589 370.9L103.836 347.493L103.448 324.28L104.051 292.948L106.462 274.57L109.676 257.855L114.116 242.448L119.63 226.183L126.959 211.29L134.766 199.195L141.749 191.824L147.547 184.703L157.169 177.519L161.492 175.704L159.704 170.357Z" fill="#214354"/>
<path d="M159.283 178.011C159.283 178.011 160.842 170.599 163.571 172.352C166.301 174.104 166.494 190.099 165.913 193.223C165.331 196.348 161.271 194.893 161.271 194.893C161.271 194.893 161.625 189.711 161.431 185.423C161.23 181.128 160.842 177.228 159.283 178.011Z" fill="#002636" stroke="#002636" stroke-width="0.692725" stroke-miterlimit="10" stroke-linejoin="round"/>
<path d="M159.538 197.705C159.538 197.705 161.097 190.293 163.826 192.046C166.555 193.798 166.749 209.793 166.167 212.918C165.586 216.042 161.526 214.587 161.526 214.587C161.526 214.587 161.88 209.405 161.686 205.118C161.492 200.83 161.097 196.93 159.538 197.705Z" fill="#002636" stroke="#002636" stroke-width="0.692725" stroke-miterlimit="10" stroke-linejoin="round"/>
<path opacity="0.15" d="M162.144 195.239C162.261 194.969 162.414 194.713 162.615 194.484C162.816 194.269 163.093 194.027 163.481 194.062C163.862 194.117 164.118 194.415 164.284 194.671C164.457 194.941 164.575 195.232 164.672 195.516C165.06 196.666 165.219 197.83 165.365 199.001C165.614 201.342 165.676 203.69 165.462 206.032C165.129 203.704 164.942 201.384 164.679 199.077C164.547 197.927 164.423 196.77 164.159 195.669C164.097 195.392 164.007 195.135 163.896 194.893C163.785 194.65 163.626 194.45 163.432 194.387C163.231 194.318 162.961 194.436 162.746 194.609C162.518 194.789 162.324 195.004 162.144 195.239Z" fill="white"/>
<path d="M160.82 157.86L159.172 158.629C157.571 159.356 119.742 177.221 100.588 246.646C82.8957 310.786 94.8383 399.371 96.2237 408.134H97.6854C96.5701 401.214 84.011 311.956 101.925 247.013C119.804 182.195 153.907 162.813 159.123 160.187L159.629 175.081C157.426 176.265 149.771 180.81 140.704 190.903C130.77 201.959 120.504 216.111 111.27 249.583C94.3742 310.848 107.778 399.628 109.143 408.114L110.556 408.065C109.531 401.858 95.4479 312.164 112.607 249.964C121.771 216.748 131.906 202.783 141.736 191.838C152.224 180.159 160.765 176.058 160.855 176.016L161.478 175.725L160.82 157.86Z" fill="#002636"/>
<path d="M157.329 160.063C157.329 160.063 158.888 152.651 161.617 154.403C164.346 156.156 164.54 172.151 163.958 175.275C163.377 178.399 159.317 176.944 159.317 176.944C159.317 176.944 159.671 171.763 159.477 167.475C159.283 163.187 158.888 159.287 157.329 160.063Z" fill="#002636" stroke="#002636" stroke-width="0.692725" stroke-miterlimit="10" stroke-linejoin="round"/>
<path opacity="0.15" d="M161.492 175.081C161.61 174.811 161.762 174.554 161.963 174.326C162.164 174.111 162.441 173.869 162.829 173.903C163.21 173.959 163.466 174.257 163.633 174.513C163.806 174.783 163.924 175.074 164.021 175.358C164.409 176.508 164.568 177.672 164.713 178.842C164.963 181.184 165.025 183.532 164.81 185.874C164.478 183.546 164.291 181.225 164.028 178.919C163.896 177.769 163.771 176.612 163.508 175.51C163.446 175.233 163.356 174.977 163.245 174.735C163.134 174.492 162.975 174.291 162.781 174.229C162.58 174.16 162.31 174.277 162.095 174.451C161.873 174.638 161.672 174.852 161.492 175.081Z" fill="white"/>
<path opacity="0.3" d="M328.515 165.916C328.515 165.916 332.415 178.011 333.717 185.811L329.429 182.299L324.358 162.792C324.351 162.792 327.732 165.397 328.515 165.916Z" fill="#214354"/>
<path opacity="0.3" d="M335.013 192.184C335.013 192.184 339.433 202.194 339.564 217.282L336.315 212.599C336.315 212.599 336.031 201.176 330.905 187.252L335.013 192.184Z" fill="#214354"/>
<path opacity="0.3" d="M339.044 226.64C339.044 226.64 339.432 237.045 336.703 247.706L334.493 242.504C334.493 242.504 336.315 231.448 336.447 221.306L339.044 226.64Z" fill="#214354"/>
<path opacity="0.3" d="M166.397 213.409C166.397 213.409 166.106 216.236 163.764 219.36C161.423 222.484 151.932 240.426 149.979 250.436L146.017 241.763C146.017 241.763 155.729 220.725 162.199 215.107C162.206 215.1 165.551 216.076 166.397 213.409Z" fill="#214354"/>
<path opacity="0.3" d="M175.076 214.677C175.076 214.677 171.959 191.27 173.123 184.641C174.286 178.011 234.609 189.587 236.632 249.528L175.076 214.677Z" fill="url(#paint1_linear_254_3978)"/>
<path opacity="0.3" d="M175.783 222.249C175.783 222.249 172.666 198.841 173.83 192.212C175 185.583 235.316 197.158 237.339 257.1L175.783 222.249Z" fill="url(#paint2_linear_254_3978)"/>
<path opacity="0.3" d="M326.777 216.319C326.777 216.319 328.772 194.221 328.024 187.966C327.275 181.703 288.774 192.635 287.485 249.223L326.777 216.319Z" fill="url(#paint3_linear_254_3978)"/>
<path opacity="0.3" d="M326.326 223.468C326.326 223.468 328.321 201.37 327.573 195.115C326.824 188.852 289.057 197.539 287.769 254.128L326.326 223.468Z" fill="url(#paint4_linear_254_3978)"/>
<path d="M236.638 249.528C236.638 249.528 233.195 215.585 200.914 200.629C168.633 185.673 173.309 234.129 183.811 243.751C194.313 253.373 214.506 255.839 221.322 256.531C228.138 257.224 237.511 259.427 236.638 249.528Z" fill="#F4F4F4"/>
<path d="M229.109 257.674C227.245 257.674 225.257 257.439 223.373 257.21C222.66 257.127 221.953 257.044 221.274 256.975C199.245 254.737 188.577 248.731 183.507 244.083C176.642 237.793 171.786 214.234 179.26 203.019C182.26 198.516 188.487 194.373 201.109 200.22C233.251 215.113 237.054 249.14 237.089 249.486V249.493C237.345 252.375 236.784 254.446 235.378 255.804C233.882 257.252 231.61 257.674 229.109 257.674ZM190.018 198.259C185.723 198.259 182.336 200.019 180.002 203.517C172.97 214.067 177.48 237.35 184.109 243.418C193.593 252.112 211.52 255.084 221.364 256.081C222.05 256.151 222.756 256.234 223.477 256.324C227.682 256.822 232.122 257.245 234.422 255.014C235.62 253.851 236.091 252.029 235.863 249.431C235.814 248.967 232.33 215.688 200.721 201.044C196.717 199.181 193.136 198.259 190.018 198.259Z" fill="#002636"/>
<path d="M227.565 224.548C227.565 224.548 227.662 257.799 203.798 253.393C179.933 248.988 183.418 199.271 194.356 198.398C194.363 198.398 213.593 203.933 227.565 224.548Z" fill="#002636"/>
<path d="M207.967 254.142C206.617 254.142 205.203 254.003 203.742 253.733C190.116 251.218 184.851 233.99 185.669 218.03C186.257 206.628 189.818 198.405 194.335 198.045L194.397 198.038L194.459 198.059C194.653 198.114 213.973 203.871 227.856 224.348L227.918 224.438V224.542C227.918 224.722 227.862 242.642 218.483 250.47C215.56 252.916 212.034 254.142 207.967 254.142ZM194.328 198.751C190.261 199.153 186.922 207.258 186.361 218.071C185.558 233.727 190.656 250.616 203.867 253.054C209.547 254.1 214.313 253.054 218.04 249.944C226.796 242.629 227.204 226.128 227.218 224.652C213.863 205.021 195.519 199.118 194.328 198.751Z" fill="#002636"/>
<path d="M213.356 222.962C213.356 222.962 210.349 237.156 204.26 234.454C198.171 231.753 195.372 232.612 196.287 236.983C197.201 241.354 203.096 246.958 208.652 243.661C214.201 240.363 218.316 232.75 219.936 222.9C219.936 222.9 220.678 217.656 217.443 217.642C214.215 217.628 213.356 222.962 213.356 222.962Z" fill="#EFEFEF"/>
<path d="M204.489 221.936C206.683 219.753 207.419 216.934 206.132 215.641C204.844 214.347 202.022 215.068 199.828 217.251C197.634 219.434 196.899 222.252 198.186 223.546C199.473 224.839 202.295 224.119 204.489 221.936Z" fill="#EFEFEF"/>
<path d="M236.639 249.528C236.14 245.586 234.983 241.763 233.591 238.07C232.136 234.392 230.425 230.831 228.444 227.444C224.682 220.558 219.66 214.345 213.599 209.371C210.565 206.884 207.288 204.702 203.824 202.859C200.354 201.037 196.759 199.389 192.955 198.744C191.064 198.412 189.132 198.377 187.296 198.751C185.46 199.125 183.742 199.964 182.343 201.204C180.944 202.444 179.849 204.03 179.046 205.762C178.228 207.494 177.688 209.357 177.314 211.262C176.573 215.072 176.538 219.027 176.877 222.921C177.251 226.814 178.02 230.686 179.274 234.378C179.905 236.221 180.66 238.022 181.609 239.705C182.087 240.543 182.606 241.347 183.202 242.074C183.493 242.441 183.812 242.788 184.144 243.107C184.477 243.425 184.878 243.73 185.245 244.042C188.224 246.515 191.702 248.385 195.311 249.888C202.571 252.867 210.371 254.481 218.178 255.485L224.059 256.351C226.012 256.656 227.966 256.961 229.919 256.968C230.896 256.961 231.873 256.864 232.808 256.608C233.736 256.338 234.637 255.887 235.288 255.146C235.946 254.419 236.348 253.477 236.521 252.507C236.708 251.516 236.708 250.519 236.639 249.528ZM236.639 249.528C236.722 250.512 236.729 251.516 236.563 252.493C236.403 253.47 236.043 254.439 235.392 255.215C234.761 255.998 233.861 256.552 232.912 256.892C231.956 257.224 230.951 257.397 229.947 257.467C227.938 257.619 225.929 257.487 223.948 257.328L218.011 256.85C210.114 255.832 202.224 254.204 194.784 251.156C191.085 249.618 187.49 247.699 184.359 245.095C183.971 244.762 183.569 244.464 183.188 244.104C182.807 243.737 182.454 243.349 182.128 242.94C181.477 242.13 180.916 241.264 180.403 240.377C179.406 238.597 178.616 236.727 177.965 234.815C176.663 230.998 175.88 227.035 175.499 223.031C175.146 219.034 174.799 214.462 175.568 210.472C175.956 208.484 176.531 206.51 177.404 204.653C178.27 202.79 179.461 201.037 181.041 199.645C182.613 198.246 184.58 197.29 186.631 196.874C188.681 196.458 190.787 196.507 192.803 196.86C196.856 197.553 200.95 199.77 204.482 201.626C208.022 203.503 211.382 205.741 214.485 208.29C220.699 213.382 225.818 219.748 229.677 226.765C230.591 228.545 231.402 230.381 232.157 232.231C232.884 234.094 233.535 235.985 234.103 237.89C234.678 239.795 235.177 241.728 235.6 243.668C235.821 244.637 236.015 245.607 236.195 246.584C236.369 247.568 236.528 248.544 236.639 249.528Z" fill="#002636"/>
<path d="M287.374 249.777C287.374 249.777 287.409 211.698 309.805 201.779C332.201 191.859 326.035 236.145 321.768 242.123C317.494 248.101 303.439 252.791 297.003 254.848C290.568 256.906 286.91 254.439 287.374 249.777Z" fill="#F4F4F4"/>
<path d="M292.833 256.026C291.157 256.026 289.536 255.839 288.497 255.001C287.118 253.885 286.717 251.918 286.924 249.75C286.931 248.628 287.444 211.186 309.625 201.363C315.139 198.918 319.406 199.486 322.309 203.046C329.624 212.024 325.315 237.925 322.136 242.379C317.605 248.718 302.206 253.65 297.142 255.278C295.577 255.776 294.122 256.026 292.833 256.026ZM315.686 200.788C313.996 200.788 312.091 201.252 309.992 202.187C288.116 211.878 287.825 249.396 287.825 249.777V249.819C287.638 251.682 288.144 253.151 289.28 254.065C290.866 255.347 293.568 255.472 296.872 254.412C301.86 252.812 317.044 247.949 321.408 241.853C322.842 239.844 324.74 232.577 325.308 224.341C325.689 218.757 325.717 208.65 321.623 203.614C320.078 201.73 318.097 200.788 315.686 200.788Z" fill="#002636"/>
<path d="M289.632 231.081C289.632 231.081 289.618 255.977 299.579 253.684C309.541 251.392 325.55 225.532 312.997 200.539C312.997 200.539 295.582 204.293 289.632 231.081Z" fill="#002636"/>
<path d="M298.319 254.183C297.142 254.183 296.061 253.795 295.091 253.019C289.342 248.44 289.286 231.787 289.286 231.081L289.293 231.005C295.223 204.307 312.749 200.234 312.929 200.199L313.192 200.144L313.31 200.386C321.955 217.607 316.386 233.298 313.587 239.241C309.936 247.007 304.339 252.943 299.656 254.024C299.199 254.128 298.756 254.183 298.319 254.183ZM289.979 231.122C289.986 232.016 290.159 248.205 295.521 252.479C296.691 253.414 297.994 253.698 299.497 253.352C303.979 252.32 309.389 246.529 312.957 238.95C315.7 233.124 321.138 217.801 312.811 200.947C310.643 201.557 295.424 206.683 289.979 231.122Z" fill="#002636"/>
<path d="M306.085 217.933C306.085 217.933 306.098 225.567 301.492 230.54C296.885 235.514 294.876 238.694 297.183 242.067C299.49 245.441 306.708 240.453 309.666 232.342C312.624 224.23 312.569 214.615 309.555 213.943C306.542 213.271 306.085 217.933 306.085 217.933Z" fill="#EFEFEF"/>
<path d="M301.253 223.286C302.122 221.224 301.852 219.141 300.65 218.635C299.448 218.128 297.768 219.389 296.899 221.451C296.03 223.514 296.3 225.596 297.502 226.103C298.704 226.61 300.383 225.349 301.253 223.286Z" fill="#EFEFEF"/>
<path d="M287.374 249.777C287.423 246.639 287.61 243.501 287.838 240.356C288.081 237.211 288.476 234.073 289.113 230.963C290.609 224.819 292.75 218.757 296.13 213.326C297.814 210.618 299.836 208.089 302.226 205.935C304.609 203.774 307.373 202.035 310.359 200.802C311.862 200.199 313.462 199.763 315.139 199.666C316.801 199.562 318.893 199.7 320.383 200.573C321.879 201.439 323.015 202.762 323.853 204.182C324.691 205.609 325.266 207.147 325.689 208.699C326.534 211.816 326.839 215.01 326.915 218.189C326.984 221.369 326.478 224.735 326.118 227.887C325.751 231.032 325.218 234.163 324.407 237.246C323.985 238.791 323.527 240.315 322.759 241.818C321.858 243.328 320.673 244.471 319.392 245.462C318.775 245.995 318.09 246.411 317.432 246.882C316.753 247.297 316.081 247.741 315.381 248.122C313.989 248.905 312.576 249.625 311.135 250.283C308.253 251.606 305.309 252.763 302.33 253.802C300.82 254.266 299.303 254.703 297.786 255.125C296.262 255.548 294.648 255.88 293.041 255.832C292.639 255.846 292.237 255.77 291.835 255.735C291.44 255.638 291.039 255.589 290.665 255.437C289.896 255.201 289.182 254.772 288.642 254.19C288.088 253.615 287.714 252.888 287.513 252.133C287.326 251.35 287.312 250.56 287.374 249.777ZM287.374 249.777C287.326 250.56 287.346 251.35 287.547 252.112C287.769 252.867 288.178 253.553 288.739 254.086C289.293 254.627 290.013 254.966 290.755 255.146C291.115 255.271 291.51 255.271 291.884 255.326C292.272 255.319 292.646 255.361 293.034 255.312C294.572 255.201 296.026 254.723 297.481 254.169C298.95 253.629 300.418 253.068 301.866 252.486C304.81 251.433 307.733 250.332 310.553 249.015C313.358 247.699 316.15 246.272 318.533 244.374C319.731 243.46 320.826 242.344 321.539 241.16C322.204 239.865 322.669 238.368 323.07 236.886C323.86 233.893 324.386 230.818 324.747 227.728C325.1 224.638 325.273 221.521 325.204 218.418C325.128 215.321 324.83 212.218 324.026 209.267C323.624 207.798 323.084 206.371 322.329 205.083C321.574 203.808 320.59 202.679 319.35 201.966C318.117 201.245 316.67 200.954 315.208 201.044C313.739 201.127 312.271 201.515 310.864 202.083C308.052 203.247 305.42 204.896 303.154 206.96C300.875 209.011 298.929 211.435 297.301 214.061C294.038 219.318 291.912 225.248 290.464 231.289C288.87 237.295 287.485 243.487 287.374 249.777Z" fill="#002636"/>
<path opacity="0.2" d="M217.79 181.128C217.79 181.128 202.578 175.275 202.578 164.745C202.578 154.216 216.038 131.391 219.55 130.809C223.062 130.227 229.497 133.732 230.079 137.244C230.668 140.756 226.567 184.052 217.79 181.128Z" fill="#EFEFEF"/>
<path opacity="0.2" d="M280.01 137.05C280.01 137.05 289.369 167.087 291.71 174.499C294.051 181.911 305.751 177.616 309.652 169.04C313.552 160.458 292.098 137.05 288.586 134.321C285.081 131.585 279.622 133.15 280.01 137.05Z" fill="#EFEFEF"/>
<path opacity="0.2" d="M159.477 282.938C159.477 282.938 163.377 296.204 153.235 301.275C153.235 301.275 150.312 302.93 151.483 306.442C152.653 309.954 156.941 309.857 159.283 308.396C161.59 306.955 166.889 299.91 165.427 288.986C163.959 278.068 156.941 277.867 159.477 282.938Z" fill="#EFEFEF"/>
<path opacity="0.2" d="M176.248 244.582C176.248 244.582 180.931 252.902 189.513 255.243C198.096 257.584 209.021 262.004 209.796 264.345C210.572 266.687 195.235 265.385 179.628 260.182C164.028 254.987 167.665 229.758 176.248 244.582Z" fill="#EFEFEF"/>
<path opacity="0.2" d="M305.759 258.624C305.759 258.624 318.505 252.119 321.359 249.784C324.22 247.443 327.338 244.062 328.903 245.621C330.469 247.18 326.306 252.645 322.662 255.763C319.018 258.887 291.711 266.95 305.759 258.624Z" fill="#EFEFEF"/>
<path opacity="0.3" d="M214.63 327.661C214.63 327.661 217.124 326.656 216.231 332.468C215.337 338.28 211.278 377.392 212.171 395.5L203.263 397.5V391.045L205.722 359.297L207.565 346.946L208.95 339.444L211.257 333.188L212.171 330.93L213.286 328.63L214.63 327.661Z" fill="#214354"/>
<path d="M206.617 352.612C205.474 361.403 204.064 388.723 203.545 397.576L202 397.5C202.658 388.633 204.621 361.313 205.91 352.509C206.568 348.117 207.337 343.711 208.501 339.416C209.083 337.269 209.734 335.135 210.537 333.057C210.932 332.018 211.396 330.999 211.93 330.016C212.2 329.524 212.491 329.046 212.837 328.603C213.19 328.166 213.537 327.709 214.126 327.494C214.16 327.48 214.202 327.501 214.216 327.536C214.23 327.57 214.209 327.612 214.174 327.626L214.146 327.64C213.682 327.827 213.301 328.284 212.983 328.713C212.657 329.15 212.38 329.635 212.124 330.12C211.618 331.103 211.182 332.122 210.807 333.161C210.046 335.239 209.45 337.379 208.916 339.527C207.85 343.829 207.178 348.214 206.617 352.612Z" fill="#002636"/>
<path opacity="0.3" d="M299.012 319.438C299.012 319.438 303.854 325.631 308.211 341.058C312.568 356.485 316.704 394.155 317.376 405.897L317.397 407.698L311.183 407.663L310.67 405.169V399.468L310.338 386.334L309.444 373.761L307.934 359.844L305.419 345.761L303.016 334.304L300.889 325.471L299.012 319.438Z" fill="#214354"/>
<path d="M308.295 369.39C308.648 373.609 309.029 377.828 309.223 382.06C309.514 386.286 309.659 390.518 309.853 394.744C310.11 398.748 309.438 403.438 309.597 407.455L311.232 407.663C311.259 405.758 311.44 402.911 311.453 401.006C311.467 398.88 311.481 396.753 311.405 394.633L311.183 388.26C311.114 386.133 310.899 384.021 310.761 381.901C310.477 377.661 309.999 373.436 309.555 369.21C308.572 360.766 307.318 352.356 305.641 344.023C303.903 335.71 301.901 327.432 299.005 319.438C298.991 319.403 298.95 319.382 298.908 319.396C298.874 319.41 298.853 319.452 298.867 319.493C301.575 327.529 302.781 335.842 304.325 344.161C305.87 352.495 307.456 360.967 308.295 369.39Z" fill="#002636"/>
<path opacity="0.3" d="M149.723 387.484C149.723 387.484 155.673 403.867 160.356 408.058L152.784 407.961L147.873 392.652L149.723 387.484Z" fill="#214354"/>
<path d="M146.211 167.475C146.211 167.475 156.352 147.774 165.718 134.314C175.084 120.854 197.902 96.2835 212.525 86.336C227.149 76.3884 240.92 61.4187 263.434 82.242C286.841 103.89 304.977 128.467 307.907 135.492C307.907 135.492 308.489 137.57 304.852 133.538C301.208 129.507 295.749 124.955 295.749 124.955L282.879 114.682C282.879 114.682 249.981 92.9653 223.069 103.502C196.156 114.038 184.796 122.6 160.827 155.567L157.343 160.063L146.211 167.475Z" fill="#002636" stroke="#002636" stroke-width="0.692725" stroke-miterlimit="10"/>
<path opacity="0.15" d="M159.476 156.751C159.593 156.481 159.746 156.225 159.947 155.996C160.148 155.782 160.425 155.539 160.813 155.574C161.194 155.629 161.45 155.927 161.616 156.183C161.789 156.454 161.907 156.745 162.004 157.029C162.392 158.178 162.551 159.342 162.697 160.513C162.946 162.854 163.008 165.203 162.794 167.544C162.461 165.217 162.274 162.896 162.011 160.589C161.879 159.439 161.755 158.282 161.491 157.181C161.429 156.904 161.339 156.648 161.228 156.405C161.117 156.163 160.958 155.962 160.764 155.899C160.563 155.83 160.293 155.948 160.078 156.121C159.857 156.301 159.656 156.516 159.476 156.751Z" fill="white"/>
<path opacity="0.15" d="M206.09 95.4384C206.09 95.4384 232.808 76.3884 243.733 78.148C254.657 79.9006 268.31 90.2429 268.31 90.2429C268.31 90.2429 249.974 73.9916 241.98 74.5735C233.979 75.1554 220.131 85.1029 206.09 95.4384Z" fill="white"/>
<path opacity="0.3" d="M184.961 303.748C184.961 303.748 196.938 298.829 211.859 309.359C226.781 319.888 241.092 326.912 256.609 326.912C272.127 326.912 287.637 309.941 292.41 304.676C297.182 299.411 304.546 296.488 309.146 301.794C309.146 301.794 309.783 302.12 310.51 299.841C311.238 297.569 304.276 291.085 300.431 290.24L297.979 291.085C297.979 291.085 278.292 300.838 249.121 301.358C223.934 301.808 194.86 293.287 194.86 293.287C194.86 293.287 190.253 294.34 186.409 298.24C182.557 302.141 182.633 302.833 184.961 303.748Z" fill="#214354"/>
<path opacity="0.3" d="M185.489 302.875C185.489 302.875 197.895 296.398 212.526 306.934C227.156 317.471 241.198 324.488 256.41 324.488C271.622 324.488 286.834 307.516 291.517 302.251C296.2 296.987 303.564 295.151 308.073 300.457C308.073 300.457 309.791 302.12 310.505 299.848C311.218 297.575 303.155 288.667 299.386 287.822L296.983 288.667C296.983 288.667 277.676 298.421 249.067 298.94C224.364 299.39 195.852 290.87 195.852 290.87C195.852 290.87 191.335 291.923 187.56 295.823C183.785 299.723 180.944 303.692 185.489 302.875Z" fill="url(#paint5_linear_254_3978)"/>
<path d="M254.268 322.472C242.838 322.472 228.471 316.321 211.534 304.177C204.662 299.252 196.426 297.672 187.704 299.612C184.663 300.291 183.984 301.475 183.977 301.489L182.73 300.887C182.814 300.707 183.721 298.594 187.455 297.769C196.564 295.747 205.133 297.894 212.338 303.055C229.372 315.268 244.445 321.1 255.577 320.685C270.305 320.117 283.252 305.466 283.383 305.313C283.771 304.856 293.296 293.551 300.778 293.378C309.25 293.177 311.023 296.938 311.189 299.806L309.804 299.889C309.561 295.795 304.671 295.04 300.598 295.144C293.733 295.303 284.526 306.103 284.436 306.214C283.882 306.858 270.797 321.862 255.46 322.451C255.072 322.465 254.67 322.472 254.268 322.472Z" fill="#002636"/>
<path opacity="0.05" d="M233.398 311.222C233.398 311.222 245.687 318.246 254.657 317.658C263.628 317.076 272.017 310.245 272.017 310.245C272.017 310.245 274.94 308.493 273.188 306.151C271.823 304.33 261.875 310.245 254.851 310.439C247.827 310.633 237.152 307.835 235.545 306.927C232.421 305.175 226.567 306.539 233.398 311.222Z" fill="#EFEFEF"/>
<path opacity="0.2" d="M202.91 293.433C202.91 293.433 234.769 305.673 259.423 302.487C284.077 299.3 296.144 289.408 296.144 289.408L271.157 296.786L258.557 298.933L242.465 299.28L226.719 297.797L202.91 293.433Z" fill="#214354"/>
<path d="M255.045 325.755C241.398 325.755 229.11 319.729 212.124 307.495C204.76 302.196 198.006 301.385 193.635 301.642C188.89 301.919 185.842 303.477 185.807 303.491L185.613 303.561C185.025 303.664 183.251 303.983 182.635 302.833C182.17 301.96 182.247 300.312 187.061 295.338C190.927 291.334 195.499 290.239 195.692 290.191L195.873 290.149L196.046 290.205C196.33 290.288 224.752 298.698 249.046 298.247C277.171 297.735 296.47 288.147 296.664 288.05L296.747 288.016L299.338 287.101L299.532 287.143C302.774 287.87 308.406 293.668 310.366 297.07C311.121 298.379 311.378 299.349 311.156 300.048C310.865 300.963 310.387 301.517 309.715 301.683C308.655 301.953 307.685 301.053 307.581 300.949C305.926 299.002 303.813 297.991 301.437 297.963C301.409 297.963 301.375 297.963 301.34 297.963C298.146 297.963 294.669 299.73 292.03 302.709C278.785 317.616 267.334 325.658 255.045 325.755ZM195.062 300.215C199.641 300.215 206.049 301.413 212.934 306.373C229.671 318.42 242.008 323.809 255.343 323.809C265.318 323.809 278.03 316.397 291.004 301.794C293.907 298.524 297.772 296.585 301.354 296.585C301.388 296.585 301.423 296.585 301.465 296.585C304.242 296.613 306.702 297.79 308.579 299.979C308.794 300.173 309.182 300.402 309.389 300.346C309.549 300.305 309.715 300.042 309.847 299.64C309.902 299.467 309.819 298.885 309.175 297.762C307.27 294.458 302.095 289.318 299.421 288.542L297.253 289.304C296.214 289.817 276.873 299.127 249.081 299.633C225.59 300.055 198.373 292.325 195.845 291.583C195.014 291.819 191.238 293.01 188.059 296.301C183.459 301.06 183.854 302.175 183.861 302.182C183.861 302.182 184.11 302.411 185.274 302.21C185.863 301.919 188.897 300.54 193.483 300.263C193.975 300.229 194.508 300.215 195.062 300.215Z" fill="#002636"/>
<path opacity="0.2" d="M292.881 339.769C292.881 339.769 294.391 374.177 292.098 392.167C289.805 410.157 279.684 392.354 277.856 369.702C276.027 347.05 269.861 344.501 270.526 339.271C271.192 334.04 282.31 330.154 287.096 329.586C291.89 329.025 291.371 333.085 292.881 339.769Z" fill="#EFEFEF"/>
<path d="M251.553 287.94C251.553 287.94 259.976 282.675 263.301 285.328C263.301 285.328 266.606 282.412 273.935 286.831C273.935 286.831 272.154 287.531 270.256 288.84C268.441 290.094 264.514 291.078 260.337 290.731C255.661 290.35 254.684 288.362 251.553 287.94Z" fill="#002636" stroke="#002636" stroke-width="0.692725" stroke-miterlimit="10"/>
<path opacity="0.25" d="M259.408 289.817C260.227 289.817 260.891 289.482 260.891 289.069C260.891 288.656 260.227 288.321 259.408 288.321C258.589 288.321 257.926 288.656 257.926 289.069C257.926 289.482 258.589 289.817 259.408 289.817Z" fill="white"/>
<mask id="path-75-outside-1_254_3978" maskUnits="userSpaceOnUse" x="5.83369" y="327.707" width="461.448" height="122.698" fill="black">
<rect fill="white" x="5.83369" y="327.707" width="461.448" height="122.698"/>
<path fill-rule="evenodd" clip-rule="evenodd" d="M20.3788 447.708C60.0976 412.01 128.16 363.381 177.461 358.372C202.287 355.85 236.122 364.202 271.096 372.834C305.573 381.345 341.158 390.128 370.308 389.036C495.686 384.339 491.933 399.798 372.633 411.919C343.822 414.846 310.491 408.529 279.58 402.671C235.793 394.373 196.862 386.995 182.515 408.116C170.093 426.402 139.059 425.867 112.74 425.414C103.318 425.252 94.4998 425.1 87.3565 425.825C72.2971 427.355 58.636 433.4 46.4986 438.771C36.7971 443.064 28.0691 446.926 20.3788 447.708ZM150.672 405.32C160.441 404.328 172.782 387.172 172.056 380.029C171.331 372.887 158.278 375.398 148.044 379.454C137.81 383.509 124.703 396.721 125.429 403.864C125.986 409.35 134.814 407.854 143.306 406.415C145.871 405.98 148.405 405.551 150.672 405.32Z"/>
</mask>
<path fill-rule="evenodd" clip-rule="evenodd" d="M20.3788 447.708C60.0976 412.01 128.16 363.381 177.461 358.372C202.287 355.85 236.122 364.202 271.096 372.834C305.573 381.345 341.158 390.128 370.308 389.036C495.686 384.339 491.933 399.798 372.633 411.919C343.822 414.846 310.491 408.529 279.58 402.671C235.793 394.373 196.862 386.995 182.515 408.116C170.093 426.402 139.059 425.867 112.74 425.414C103.318 425.252 94.4998 425.1 87.3565 425.825C72.2971 427.355 58.636 433.4 46.4986 438.771C36.7971 443.064 28.0691 446.926 20.3788 447.708ZM150.672 405.32C160.441 404.328 172.782 387.172 172.056 380.029C171.331 372.887 158.278 375.398 148.044 379.454C137.81 383.509 124.703 396.721 125.429 403.864C125.986 409.35 134.814 407.854 143.306 406.415C145.871 405.98 148.405 405.551 150.672 405.32Z" fill="#D6DAE5" fill-opacity="0.8"/>
<path d="M20.3788 447.708L19.0419 446.22L14.4837 450.317L20.581 449.697L20.3788 447.708ZM271.096 372.834L270.616 374.776L271.096 372.834ZM370.308 389.036L370.234 387.038L370.308 389.036ZM279.58 402.671L279.952 400.706L279.58 402.671ZM182.515 408.116L180.86 406.992L182.515 408.116ZM112.74 425.414L112.705 427.414L112.74 425.414ZM46.4986 438.771L45.6893 436.942L46.4986 438.771ZM148.044 379.454L148.781 381.313L148.781 381.313L148.044 379.454ZM143.306 406.415L142.972 404.443L143.306 406.415ZM177.259 356.382C152.148 358.934 122.492 372.54 94.2816 389.826C66.0178 407.146 38.9756 428.304 19.0419 446.22L21.7157 449.195C41.5008 431.413 68.3493 410.408 96.3715 393.237C124.447 376.033 153.473 362.82 177.663 360.362L177.259 356.382ZM271.575 370.893C254.103 366.58 236.835 362.317 220.825 359.451C204.83 356.589 189.948 355.093 177.259 356.382L177.663 360.362C189.799 359.129 204.249 360.548 220.121 363.389C235.978 366.227 253.114 370.456 270.616 374.776L271.575 370.893ZM370.234 387.038C341.424 388.117 306.144 379.426 271.575 370.893L270.616 374.776C305.003 383.264 340.891 392.14 370.383 391.035L370.234 387.038ZM372.835 413.908C402.69 410.875 425.367 407.628 440.629 404.529C448.247 402.982 454.09 401.458 458.074 399.99C460.054 399.261 461.677 398.509 462.848 397.718C463.884 397.017 465.162 395.889 465.223 394.245C465.29 392.445 463.903 391.336 462.836 390.735C461.653 390.069 460.019 389.529 458.053 389.069C454.084 388.141 448.209 387.421 440.468 386.93C424.955 385.945 401.605 385.862 370.234 387.038L370.383 391.035C401.7 389.862 424.897 389.95 440.215 390.922C447.89 391.409 453.501 392.113 457.142 392.964C458.981 393.394 460.182 393.831 460.873 394.22C461.68 394.675 461.204 394.698 461.226 394.096C461.243 393.651 461.521 393.786 460.607 394.404C459.828 394.931 458.552 395.551 456.691 396.237C452.993 397.599 447.383 399.076 439.833 400.609C424.756 403.671 402.226 406.902 372.431 409.929L372.835 413.908ZM279.207 404.636C310.04 410.479 343.678 416.871 372.835 413.908L372.431 409.929C343.966 412.821 310.942 406.579 279.952 400.706L279.207 404.636ZM184.169 409.24C190.741 399.565 203.122 396.122 219.979 396.361C236.767 396.6 257.256 400.476 279.207 404.636L279.952 400.706C258.117 396.568 237.247 392.606 220.036 392.362C202.894 392.118 188.635 395.547 180.86 406.992L184.169 409.24ZM112.705 427.414C125.822 427.64 140.352 427.896 153.167 425.765C165.957 423.638 177.496 419.063 184.169 409.24L180.86 406.992C175.111 415.455 164.923 419.755 152.511 421.819C140.123 423.879 125.977 423.642 112.774 423.414L112.705 427.414ZM87.5587 427.815C94.5584 427.104 103.244 427.251 112.705 427.414L112.774 423.414C103.392 423.253 94.4411 423.095 87.1544 423.836L87.5587 427.815ZM47.3079 440.6C59.4859 435.211 72.8644 429.308 87.5587 427.815L87.1544 423.836C71.7298 425.403 57.786 431.589 45.6893 436.942L47.3079 440.6ZM20.581 449.697C28.6574 448.877 37.7104 444.847 47.3079 440.6L45.6893 436.942C35.8838 441.281 27.4809 444.976 20.1766 445.718L20.581 449.697ZM170.067 380.232C170.193 381.477 169.741 383.489 168.578 386.02C167.447 388.482 165.757 391.191 163.734 393.737C161.71 396.284 159.397 398.612 157.049 400.345C154.674 402.098 152.412 403.133 150.47 403.331L150.874 407.31C153.816 407.011 156.76 405.53 159.424 403.564C162.115 401.578 164.673 398.984 166.865 396.226C169.058 393.466 170.928 390.485 172.212 387.69C173.465 384.964 174.283 382.153 174.046 379.827L170.067 380.232ZM148.781 381.313C153.806 379.321 159.397 377.765 163.72 377.539C165.901 377.425 167.532 377.665 168.579 378.162C169.489 378.594 169.962 379.201 170.067 380.232L174.046 379.827C173.788 377.287 172.358 375.529 170.296 374.549C168.372 373.636 165.964 373.417 163.512 373.545C158.568 373.803 152.516 375.53 147.307 377.594L148.781 381.313ZM127.419 403.662C127.299 402.482 127.752 400.755 128.964 398.581C130.147 396.461 131.923 394.147 134.077 391.878C138.406 387.319 144.008 383.204 148.781 381.313L147.307 377.594C141.845 379.758 135.777 384.278 131.176 389.124C128.865 391.559 126.861 394.14 125.471 396.633C124.11 399.072 123.196 401.676 123.439 404.067L127.419 403.662ZM142.972 404.443C138.651 405.175 134.555 405.86 131.471 405.738C129.929 405.677 128.895 405.418 128.275 405.054C127.778 404.763 127.493 404.389 127.419 403.662L123.439 404.067C123.644 406.082 124.671 407.579 126.252 408.505C127.709 409.359 129.518 409.664 131.313 409.735C134.906 409.877 139.469 409.094 143.64 408.387L142.972 404.443ZM150.47 403.331C148.124 403.569 145.52 404.011 142.972 404.443L143.64 408.387C146.222 407.949 148.687 407.532 150.874 407.31L150.47 403.331Z" fill="#A0A2AC" fill-opacity="0.6" mask="url(#path-75-outside-1_254_3978)"/>
<path fill-rule="evenodd" clip-rule="evenodd" d="M26.2429 442.524C24.2273 444.277 22.2709 446.007 20.3788 447.708C28.0692 446.926 36.7971 443.064 46.4986 438.771C58.636 433.4 72.2971 427.355 87.3565 425.825C94.4998 425.1 103.318 425.252 112.74 425.414C139.059 425.867 170.093 426.402 182.515 408.116C196.862 386.995 235.793 394.373 279.58 402.671C310.491 408.529 343.822 414.846 372.633 411.919C441.282 404.944 471.67 396.864 461.212 392.155C454.177 396.758 424.143 402.665 372.229 407.939C343.418 410.866 310.087 404.55 279.176 398.692C235.389 390.394 196.458 383.016 182.11 404.137C169.689 422.423 138.655 421.888 112.336 421.434C102.913 421.272 94.0955 421.12 86.9522 421.846C71.8928 423.376 58.2317 429.421 46.0943 434.792C38.939 437.958 32.3133 440.89 26.2429 442.524ZM125.596 401.615C127.233 394.231 138.808 383.113 148.044 379.454C157.31 375.781 168.888 373.375 171.533 378.255C171.675 377.449 171.719 376.707 171.652 376.05C170.926 368.907 157.874 371.419 147.639 375.474C137.405 379.529 124.299 392.742 125.025 399.885C125.094 400.564 125.29 401.137 125.596 401.615Z" fill="#9A9DA7" fill-opacity="0.6"/>
<path fill-rule="evenodd" clip-rule="evenodd" d="M26.754 442.08C68.4236 408.244 133.839 368.835 178.067 364.341C201.668 361.944 233.469 370.23 266.624 378.869C302.729 388.276 340.44 398.102 370.915 395.006C418.565 390.164 447.859 389.877 461.044 392.082C453.068 388.658 423.162 387.056 370.308 389.036C341.157 390.128 305.573 381.345 271.095 372.834C236.122 364.202 202.287 355.85 177.461 358.372C130.707 363.122 67.0788 407.103 26.754 442.08ZM171.646 383.51C169.408 391.621 159.085 404.466 150.672 405.32C148.405 405.551 145.871 405.98 143.306 406.415L143.306 406.415C136.425 407.581 129.322 408.785 126.58 406.28C126.127 407.566 125.927 408.767 126.035 409.834C126.593 415.319 135.421 413.823 143.912 412.384L143.912 412.384C146.478 411.949 149.012 411.52 151.278 411.29C161.047 410.297 173.389 393.142 172.663 385.999C172.56 384.981 172.206 384.159 171.646 383.51Z" fill="#FDFDFF" fill-opacity="0.6"/>
<defs>
<linearGradient id="paint0_linear_254_3978" x1="232.318" y1="111.086" x2="237.035" y2="408.46" gradientUnits="userSpaceOnUse">
<stop stop-color="#DFDFDF"/>
<stop offset="1" stop-color="#DFDFDF" stop-opacity="0"/>
</linearGradient>
<linearGradient id="paint1_linear_254_3978" x1="203.199" y1="185.901" x2="204.203" y2="249.585" gradientUnits="userSpaceOnUse">
<stop stop-color="#DFDFDF"/>
<stop offset="1" stop-color="#DFDFDF" stop-opacity="0"/>
</linearGradient>
<linearGradient id="paint2_linear_254_3978" x1="203.906" y1="193.473" x2="204.91" y2="257.156" gradientUnits="userSpaceOnUse">
<stop stop-color="#DFDFDF"/>
<stop offset="1" stop-color="#DFDFDF" stop-opacity="0"/>
</linearGradient>
<linearGradient id="paint3_linear_254_3978" x1="306.85" y1="189.155" x2="308.251" y2="249.259" gradientUnits="userSpaceOnUse">
<stop stop-color="#DFDFDF"/>
<stop offset="1" stop-color="#DFDFDF" stop-opacity="0"/>
</linearGradient>
<linearGradient id="paint4_linear_254_3978" x1="306.784" y1="196.044" x2="308.118" y2="254.163" gradientUnits="userSpaceOnUse">
<stop stop-color="#DFDFDF"/>
<stop offset="1" stop-color="#DFDFDF" stop-opacity="0"/>
</linearGradient>
<linearGradient id="paint5_linear_254_3978" x1="243.758" y1="289.431" x2="243.91" y2="324.527" gradientUnits="userSpaceOnUse">
<stop stop-color="#DFDFDF"/>
<stop offset="1" stop-color="#DFDFDF" stop-opacity="0"/>
</linearGradient>
</defs>
</svg>
