<svg width="481" height="515" viewBox="0 0 481 515" fill="none" xmlns="http://www.w3.org/2000/svg">
<g clip-path="url(#clip0_277_255031)">
<path opacity="0.3" fill-rule="evenodd" clip-rule="evenodd" d="M219.439 95.5232C135.435 103.077 114.218 158.593 114.218 158.593C107.784 176.543 118.772 169.467 131.046 161.563C139.838 155.901 149.289 149.815 153.467 152.2C160.588 156.271 150.267 175.746 150.267 175.746C134.862 205.975 146.486 239.545 146.486 239.545C154.671 261.367 174.916 273.631 196.115 280.498L195.312 280.52C195.312 280.52 163.922 294.905 139.944 404.338L350.958 404.777C349.217 390.392 337.875 342.429 326.98 311.91C316.078 281.391 304.744 277.469 304.744 277.469L303.931 277.492C336.126 263.428 344.962 242.589 345.876 203.936C347.037 154.82 303.442 87.9698 219.439 95.5232Z" fill="url(#paint0_linear_277_255031)"/>
<path opacity="0.3" d="M191.732 284.561C191.732 284.561 220.748 299.817 261.097 299.333C261.097 299.333 283.683 300.807 307.877 280.52C307.877 280.52 306.351 278.95 304.625 278.109C277.716 292.317 221.374 290.081 197.589 280.9C194.314 281.927 191.732 284.561 191.732 284.561Z" fill="#214354"/>
<path opacity="0.5" d="M202.879 282.641C202.879 282.641 237.104 295.791 263.59 292.368C290.076 288.944 303.039 278.317 303.039 278.317L276.197 286.243L263.404 289.488L245.372 288.922L228.457 287.329L202.879 282.641Z" fill="#214354"/>
<path d="M114.128 158.556C115.914 154.306 118.258 150.332 120.833 146.522C123.415 142.719 126.273 139.103 129.362 135.702C135.568 128.922 142.586 122.872 150.236 117.759C154.031 115.147 158.05 112.9 162.106 110.719C166.214 108.643 170.388 106.686 174.69 105.026C183.263 101.663 192.163 99.1101 201.205 97.3389C210.254 95.605 219.423 94.4961 228.658 94.1761C237.886 93.8636 247.159 94.5631 256.238 96.3119C265.309 98.0682 274.195 100.874 282.552 104.84C290.909 108.777 298.76 113.778 305.867 119.664C320.037 131.497 331.162 146.842 338.195 163.847C339.11 165.96 339.839 168.141 340.643 170.299C341.32 172.502 342.102 174.667 342.645 176.907C343.895 181.335 344.766 185.867 345.428 190.422C346.061 194.983 346.277 199.597 346.232 204.204C346.128 208.796 345.905 213.395 345.503 217.979C344.684 227.125 343.062 236.315 339.557 244.903C337.8 249.182 335.56 253.283 332.77 256.989C329.994 260.71 326.712 264.036 323.11 266.954C315.877 272.781 307.512 276.993 298.932 280.327C290.344 283.713 269.774 290.805 254.288 289.294C248.2 289.272 242.12 288.967 236.055 288.453C223.933 287.396 211.854 285.432 200.119 282.038C188.427 278.608 176.937 274.5 166.973 267.266C162.016 263.642 157.507 259.363 153.756 254.474C150.005 249.577 147.036 244.115 145.071 238.206C141.841 226.381 140.725 214.02 142.02 201.845C142.228 200.327 142.303 198.801 142.638 197.298L143.494 192.788C144.297 189.834 144.982 186.85 146.121 184.007C147.043 181.09 148.48 178.366 149.73 175.583C151.121 172.918 152.357 170.165 153.406 167.344C154.426 164.524 155.304 161.614 155.535 158.66C155.639 157.194 155.542 155.683 154.969 154.388C154.396 153.101 153.19 152.133 151.769 152.022C150.34 151.888 148.859 152.252 147.453 152.721C146.039 153.197 144.662 153.815 143.315 154.492C140.621 155.847 138.016 157.395 135.449 159.002C130.299 162.18 125.335 165.7 119.888 168.423C118.511 169.071 117.105 169.696 115.564 169.912C114.813 170.001 113.957 170.001 113.287 169.503C112.602 169.026 112.349 168.193 112.268 167.434C112.111 165.886 112.446 164.375 112.796 162.902C113.138 161.436 113.614 159.992 114.128 158.556ZM114.307 158.623C113.808 160.051 113.339 161.488 112.982 162.954C112.64 164.412 112.327 165.923 112.491 167.404C112.573 168.126 112.826 168.877 113.421 169.287C113.994 169.718 114.79 169.726 115.512 169.637C116.986 169.421 118.385 168.796 119.739 168.148C125.127 165.41 130.076 161.86 135.211 158.645C137.778 157.03 140.353 155.423 143.062 154.016C144.416 153.317 145.801 152.669 147.244 152.156C148.688 151.65 150.214 151.233 151.821 151.359C153.458 151.449 154.961 152.61 155.624 154.076C156.301 155.549 156.413 157.171 156.331 158.712C156.137 161.815 155.281 164.784 154.292 167.672C153.272 170.552 152.067 173.357 150.697 176.089C149.514 178.85 148.145 181.536 147.289 184.423C146.217 187.236 145.592 190.183 144.855 193.093L144.089 197.529C143.94 198.265 143.851 199.01 143.784 199.761L143.546 202.001C142.392 213.953 143.62 226.15 146.895 237.662C148.777 243.229 151.665 248.572 155.289 253.283C158.921 258.001 163.296 262.154 168.134 265.674C177.845 272.706 189.09 277.439 200.625 280.803C212.182 284.181 224.141 286.191 236.16 287.292C242.173 287.828 248.208 288.155 254.236 288.2C257.257 288.215 260.264 288.215 263.233 287.94C266.217 287.672 269.216 287.27 272.178 286.794L272.119 286.808C281.004 284.628 289.852 282.224 298.381 278.942C306.909 275.713 315.185 271.642 322.321 265.994C325.878 263.173 329.116 259.943 331.869 256.327C334.638 252.725 336.863 248.714 338.619 244.516C342.124 236.092 343.798 226.998 344.669 217.904C345.101 213.35 345.354 208.773 345.488 204.189C345.562 199.62 345.376 195.043 344.781 190.503C344.141 185.979 343.352 181.454 342.065 177.063C341.514 174.838 340.725 172.688 340.048 170.507C339.244 168.364 338.5 166.198 337.585 164.1C330.559 147.192 319.285 132.092 305.123 120.565C290.932 109.052 273.838 101.313 255.925 97.9417C246.965 96.2375 237.819 95.6422 228.703 95.8431C219.587 96.0961 210.47 97.1306 201.488 98.7901C183.553 102.109 165.946 108.256 150.593 118.303C142.898 123.266 135.814 129.19 129.622 135.94C126.526 139.318 123.654 142.905 121.056 146.678C118.467 150.451 116.1 154.418 114.307 158.623Z" fill="#002636"/>
<path opacity="0.3" d="M119.888 149.335C119.888 149.335 117.127 157.864 118.928 160.022C120.729 162.18 148.353 142.608 161.562 148.732C161.562 148.732 162.217 149.692 162.284 152.215C162.344 154.559 161.868 158.697 161.265 162.306C160.662 165.908 155.981 177.785 154.121 185.123C148.48 207.337 146.314 254.176 184.863 275.073L180.539 273.875L166.727 266.425L154.121 253.216L147.393 242.165L145.108 234.12L142.586 222.347L142.348 211.899L142.95 199.531L144.751 190.161L147.512 181.514L150.757 174.429L153.637 168.788L155.14 163.624L156.331 158.719L155.616 154.738L153.875 152.275L148.77 151.791L145.704 153.049L137.123 157.32L127.933 163.147L124.153 165.432L118.445 168.617L114.664 169.16L113.22 167.657C113.22 167.657 112.618 164.174 112.804 164.055C112.99 163.936 114.545 158.109 114.545 158.109C114.545 158.109 116.77 154.143 116.889 153.964C117.008 153.785 119.888 149.335 119.888 149.335Z" fill="#214354"/>
<path opacity="0.5" d="M148.77 151.798L151.955 150.541L155.951 149.923L160.059 149.975C160.059 149.975 161.086 150.102 161.042 151.099C160.997 152.089 155.683 163.125 155.683 163.125L156.041 159.3L155.639 155.065L153.883 152.29L151.204 151.203L148.77 151.798Z" fill="#214354"/>
<path d="M149.879 150.682C150.995 150.407 152.119 150.191 153.25 150.042C154.381 149.886 155.52 149.797 156.659 149.782C157.797 149.745 158.928 149.841 160.052 149.968C158.921 149.953 157.797 149.968 156.673 150.102C155.557 150.221 154.448 150.407 153.362 150.667C152.275 150.92 151.196 151.225 150.147 151.598C149.105 151.962 146.374 152.907 146.218 152.595C146.061 152.282 145.526 152.371 149.879 150.682Z" fill="#002636"/>
<path opacity="0.5" d="M146.113 184.014C146.113 184.014 142.169 205.357 146.492 227.155C150.816 248.952 156.219 256.699 156.219 256.699L151.806 250.485L147.393 242.165L144.059 231.925L142.615 220.844L142.347 208.505L142.95 199.53L146.113 184.014Z" fill="#214354"/>
<path opacity="0.3" d="M345.012 187.884L340.643 170.299L333.663 154.559L323.572 138.887L310.459 125.09L299.795 115.289L282.545 104.84L266.827 99.6161L254.4 96.7361L245.931 95.6571L233.324 94.7566L221.254 95.1138L201.205 97.3464L190.63 101.06C190.63 101.06 228.1 93.8561 257.644 102.139C287.188 110.429 318.712 137.331 328.714 176.662C328.714 176.662 334.608 199.151 335.166 214.518C335.724 229.886 329.369 259.705 313.131 272.736L319.799 268.955L327.903 261.752L333.849 254.905L338.173 246.801L341.596 236.531L343.575 230.585L345.503 217.986L345.562 199.419L345.012 187.884Z" fill="#214354"/>
<path opacity="0.5" d="M153.25 357.052C155.274 353.301 147.021 393.651 149.179 405.298L140.428 405.283C140.428 405.275 151.226 360.803 153.25 357.052Z" fill="#214354"/>
<path opacity="0.5" d="M345.666 197.253C345.666 197.253 342.473 225.89 337.666 239.106C332.858 252.323 323.095 266.954 323.095 266.954L327.887 261.744L333.29 255.858L337.614 248.051L340.977 239.642L343.262 231.717L344.587 222.831L345.309 213.104L345.911 203.013L345.666 197.253Z" fill="#214354"/>
<path d="M348.152 387.772C348.71 390.593 349.261 393.406 349.752 396.241C350.251 399.061 350.727 401.904 351.025 404.836C350.147 399.307 348.852 393.458 347.602 387.891C346.351 382.287 344.96 376.721 343.598 371.147C340.815 360.014 337.801 348.933 334.549 337.934C332.919 332.442 331.259 326.95 329.451 321.51C327.672 316.055 325.775 310.652 323.602 305.376C321.429 300.107 318.921 294.957 315.855 290.187C314.344 287.791 312.655 285.506 310.802 283.4C309.864 282.358 308.882 281.346 307.817 280.461C306.82 279.605 305.155 278.484 304.098 278.008L304.759 276.643C304.848 276.635 304.93 276.658 305.004 276.688C306.567 277.357 307.691 278.228 308.852 279.188C309.998 280.133 311.025 281.182 312.015 282.269C313.964 284.457 315.713 286.801 317.269 289.257C320.409 294.161 322.902 299.408 325.083 304.751C327.256 310.109 329.131 315.556 330.88 321.034C332.658 326.503 334.288 332.018 335.896 337.54C339.014 348.606 341.864 359.739 344.498 370.924C345.808 376.52 347.014 382.139 348.152 387.772Z" fill="#002636"/>
<path d="M191.553 282.715C192.685 281.793 193.845 280.937 195.17 280.222L197.321 281.071L196.778 281.309C195.579 281.971 194.002 282.485 192.915 283.393L191.3 284.792C190.787 285.283 190.288 285.804 189.782 286.302C189.284 286.816 188.763 287.3 188.286 287.835L186.88 289.458L185.473 291.08C185.019 291.631 184.603 292.219 184.164 292.784C183.308 293.93 181.924 295.456 181.098 296.624L177.302 301.737C176.923 302.347 176.573 302.972 176.208 303.59L174.043 307.303C168.424 317.313 163.699 327.582 159.606 338.299C158.601 340.985 157.7 343.709 156.748 346.418L155.334 350.481L154.627 352.513L154.002 354.574L151.501 362.812C150.66 365.558 149.805 368.297 149.113 371.087L146.902 379.415C146.173 382.191 145.369 384.952 144.759 387.757L140.44 405C139.934 404.993 138.999 404.851 138.999 404.345C138.999 404.278 139.006 404.204 139.021 404.137L143.025 387.326C143.65 384.513 144.476 381.752 145.22 378.968L147.52 370.641C148.249 367.85 149.135 365.112 150.006 362.366L152.61 354.128L153.265 352.066L153.994 350.034L155.46 345.971C156.45 343.27 157.373 340.539 158.415 337.852C162.657 327.143 167.33 316.576 173.046 306.552L175.256 302.831C175.628 302.213 175.985 301.588 176.372 300.978L177.585 299.184L180.004 295.597C180.845 294.429 181.752 293.305 182.623 292.152C183.07 291.586 183.494 291.006 183.955 290.448L185.384 288.818L186.813 287.188C187.289 286.652 187.832 286.161 188.339 285.648C188.859 285.142 189.365 284.621 189.894 284.129L191.553 282.715Z" fill="#002636"/>
<path opacity="0.5" d="M306.12 310.578C306.12 310.578 311.322 317.231 316.003 333.804C320.684 350.377 325.127 390.846 325.848 403.459L325.871 405.394L319.195 405.357L318.645 402.678V396.553L318.288 382.444L317.328 368.937L315.705 353.986L313.004 338.857L310.422 326.548L308.137 317.06L306.12 310.578Z" fill="#214354"/>
<path d="M316.092 364.241C316.472 368.773 316.881 373.305 317.09 377.852C317.402 382.392 317.559 386.939 317.767 391.478C318.042 395.78 317.32 400.818 317.492 405.134L319.248 405.357C319.278 403.311 319.471 400.252 319.486 398.206C319.501 395.921 319.516 393.636 319.434 391.359L319.196 384.513C319.121 382.228 318.891 379.958 318.742 377.681C318.437 373.127 317.923 368.587 317.447 364.048C316.39 354.976 315.043 345.942 313.242 336.989C311.374 328.059 309.224 319.166 306.113 310.578C306.098 310.541 306.053 310.518 306.009 310.533C305.972 310.548 305.949 310.593 305.964 310.637C308.874 319.27 310.169 328.2 311.828 337.138C313.488 346.09 315.192 355.192 316.092 364.241Z" fill="#002636"/>
<path opacity="0.5" d="M215.471 319.411C215.471 319.411 218.15 318.332 217.19 324.576C216.23 330.82 212.911 386.038 213.871 405.491H203.981L203.259 387.504L205.901 353.398L207.881 340.129L209.369 332.07L211.847 325.35L212.829 322.924L214.028 320.453L215.471 319.411Z" fill="#214354"/>
<path d="M203.959 404.338C203.959 403.973 203.952 403.608 203.959 403.244C204.019 393.726 204.19 384.2 204.726 374.682C205.284 365.171 205.634 355.661 206.862 346.217C207.464 341.491 208.186 336.781 209.332 332.159C209.905 329.852 210.545 327.553 211.364 325.32C211.766 324.204 212.235 323.11 212.778 322.053C213.053 321.532 213.351 321.011 213.701 320.542C214.043 320.081 214.452 319.59 214.951 319.389L214.981 319.374C215.018 319.359 215.04 319.315 215.025 319.277C215.01 319.24 214.966 319.218 214.929 319.233C214.296 319.463 213.924 319.955 213.544 320.423C213.172 320.9 212.86 321.413 212.569 321.942C211.996 322.998 211.498 324.092 211.074 325.208C210.21 327.441 209.511 329.733 208.886 332.04C207.635 336.654 206.809 341.387 206.102 346.105C204.718 355.564 203.773 365.074 203.066 374.6C202.367 384.126 201.846 393.681 201.987 403.251C201.995 403.608 202.009 403.973 202.017 404.338H203.959Z" fill="#002636"/>
<path d="M311.174 124.115C294.459 108.464 264.967 90.671 219.453 94.7715C175.925 98.6859 149.537 115.691 135.062 129.272C119.36 143.999 113.882 158.012 113.83 158.154V158.161C111.561 164.502 111.3 168.089 113.027 169.458C115.847 171.698 123.043 167.062 131.371 161.689C139.803 156.256 149.373 150.102 153.28 152.342C159.918 156.137 149.998 175.054 149.894 175.248C134.571 205.313 145.972 239.084 146.091 239.434C163.557 286.02 235.371 289.316 255.315 289.316C258.106 289.316 259.884 289.249 260.353 289.235C265.555 289.019 272.409 287.865 272.506 287.843C328.677 274.902 345.183 255.285 346.403 203.676C347.073 175.568 333.573 145.086 311.174 124.115ZM345.451 203.653C344.818 230.384 340.42 246.213 330.269 258.291C319.68 270.89 301.797 279.716 272.32 286.898C272.253 286.913 265.458 288.059 260.316 288.274C256.506 288.438 166.668 291.556 146.999 239.114C146.88 238.779 135.613 205.395 150.75 175.694C151.181 174.883 161.198 155.757 153.763 151.508C153.049 151.099 152.216 150.92 151.27 150.92C146.329 150.92 139.356 154.842 131.736 159.754C124.383 164.487 116.777 169.383 114.508 167.575C113.6 166.853 113.056 164.494 115.616 157.357C115.929 156.554 137.004 103.158 219.549 95.7315C264.729 91.6682 293.953 109.305 310.533 124.822C332.725 145.607 346.106 175.813 345.451 203.653Z" fill="#002636"/>
</g>
<path d="M146.317 240.328C146.317 240.328 146.878 279.605 147.438 297.839C147.999 316.072 152.206 341.323 167.353 343.849C182.501 346.374 188.673 318.598 189.517 297.278V277.64L184.466 275.533L176.754 271.602L168.758 266.976L160.486 260.243L153.753 252.95L148.425 244.954L146.317 240.328Z" fill="#FF77BE"/>
<path d="M341.371 240.68C341.371 240.68 340.871 279.957 340.363 298.19C339.862 316.424 336.081 341.674 322.488 344.2C308.895 346.726 303.35 318.949 302.595 297.63V277.991L307.124 275.884L314.051 271.953L321.225 267.328L328.653 260.595L334.698 253.301L339.399 245.133L341.371 240.68Z" fill="#FF77BE"/>
<path opacity="0.23" d="M303.417 293.176C303.417 293.176 325.402 280.233 332.456 270.033C339.51 259.832 340.766 255.618 340.766 255.618L340.265 242.817L336.424 250.394L335.056 253.727L331.193 258.144L325.409 264.353L316.786 270.668L306.055 276.773L302.812 278.313L303.417 293.176Z" fill="#BA4286"/>
<path opacity="0.23" d="M336.245 325.757C336.245 325.757 325.163 344.551 315.486 341.607L318.43 344.133L323.482 344.275L327.584 342.773L331.052 338.663C331.052 338.663 333.293 335.016 333.577 334.597C333.861 334.179 335.543 329.688 335.543 329.688L336.245 325.757Z" fill="#BA4286"/>
<path opacity="0.23" d="M303.141 286.338C303.141 286.338 321.471 274.262 328.855 260.804L326.209 262.844L321.225 267.335L316.181 270.421L308.469 274.703L302.595 277.999L303.141 286.338Z" fill="#BA4286"/>
<path d="M302.191 301.448C302.669 309.265 303.641 317.074 305.531 324.674C306.503 328.455 307.691 332.206 309.417 335.703C310.284 337.444 311.278 339.133 312.511 340.635C313.744 342.122 315.231 343.43 316.965 344.23C318.691 345.037 320.634 345.268 322.465 344.932C324.288 344.618 326.044 343.879 327.583 342.773C330.692 340.553 332.889 337.183 334.526 333.678C336.147 330.129 337.283 326.37 338.15 322.551C339.017 318.733 339.615 314.854 340.055 310.961C340.466 307.068 340.72 303.152 340.825 299.236C340.9 295.313 340.922 291.36 340.967 287.422L341.131 263.89C341.161 258.913 341.206 253.959 341.266 249.012C341.475 243.474 341.356 241.135 341.356 241.135L341.43 239.701L340.048 242.503L336.207 250.08C336.207 250.08 336.229 250.252 336.364 250.252L334.563 253.189L328.473 260.385L321.022 267.006L314.08 271.415C312.899 272.11 311.696 272.753 310.501 273.433L306.936 275.421L302.408 277.483L302.101 277.625V277.999L302.034 289.716C302.056 293.617 301.914 297.517 302.191 301.448ZM303.162 289.693L303.095 278.357L307.302 276.362L307.325 276.355L307.34 276.347L310.912 274.285C312.1 273.59 313.295 272.925 314.476 272.215L322.584 266.416L328.846 260.811L328.854 260.796L334.167 254.28L334.839 253.413L334.847 253.406L337.141 249.468C337.29 249.243 337.462 248.967 337.664 248.601C338.987 246.217 340.026 243.743 340.212 244.864C340.399 245.985 340.182 262.694 340.182 262.694C340.182 262.694 340.197 262.642 340.22 262.537C340.205 262.896 340.19 263.247 340.182 263.606L340.138 287.579L339.839 299.176C339.689 303.062 339.39 306.933 338.934 310.789C338.486 314.638 337.881 318.464 337.007 322.207C336.14 325.951 335.011 329.62 333.435 333.028C331.85 336.398 329.743 339.552 326.903 341.554C324.101 343.527 320.469 344.312 317.465 342.855C315.956 342.152 314.626 340.987 313.497 339.612C312.361 338.229 311.405 336.645 310.568 334.978C308.901 331.638 307.721 327.984 306.757 324.277C304.874 316.827 303.872 309.093 303.372 301.351C303.08 297.503 303.207 293.594 303.162 289.693Z" fill="#002636"/>
<path d="M190.151 289.357L190.077 277.64V277.266L189.74 277.124L184.689 275.062L180.713 273.074C179.383 272.402 178.046 271.751 176.723 271.056L168.981 266.648L160.686 260.027L153.901 252.83L151.891 249.894C152.04 249.894 152.07 249.722 152.07 249.722L147.788 242.144L146.249 239.342L145.688 240.254C145.688 240.254 146.197 243.116 146.436 248.653C146.496 253.593 146.555 258.547 146.585 263.531L146.772 287.063C146.824 291.001 146.847 294.947 146.936 298.878C147.056 302.793 147.34 306.709 147.796 310.602C148.289 314.496 148.954 318.374 149.918 322.193C150.882 326.004 152.152 329.77 153.961 333.32C155.784 336.824 158.228 340.194 161.695 342.414C163.414 343.52 165.372 344.26 167.404 344.574C169.444 344.902 171.611 344.678 173.532 343.871C175.467 343.072 177.119 341.771 178.494 340.277C179.869 338.775 180.975 337.093 181.939 335.345C183.867 331.847 185.19 328.096 186.266 324.315C188.373 316.723 189.456 308.913 189.987 301.09C190.286 297.166 190.122 293.266 190.151 289.357ZM188.657 301.007C188.096 308.749 186.983 316.483 184.883 323.934C183.807 327.64 182.492 331.294 180.631 334.635C179.704 336.301 178.636 337.885 177.373 339.268C176.11 340.65 174.63 341.816 172.949 342.511C169.601 343.968 165.551 343.184 162.435 341.211C159.266 339.216 156.928 336.062 155.156 332.684C153.408 329.277 152.145 325.608 151.181 321.864C150.21 318.12 149.537 314.294 149.036 310.445C148.528 306.597 148.199 302.719 148.027 298.833L147.699 287.235L147.654 263.262C147.639 262.904 147.624 262.552 147.609 262.194C147.639 262.298 147.654 262.351 147.654 262.351C147.654 262.351 147.407 245.642 147.616 244.521C147.826 243.4 148.984 245.873 150.456 248.257C150.68 248.616 150.867 248.9 151.039 249.124L153.595 253.062L153.602 253.07L154.349 253.936L160.268 260.453L160.283 260.468L167.255 266.072L176.289 271.871C177.597 272.588 178.935 273.253 180.257 273.941L184.24 276.003L184.255 276.011L184.278 276.018L188.971 278.014L188.896 289.35C188.844 293.243 188.986 297.159 188.657 301.007Z" fill="#002636"/>
<path d="M168.444 329.471C174.312 329.471 179.07 325.892 179.07 321.475C179.07 317.059 174.312 313.479 168.444 313.479C162.575 313.479 157.817 317.059 157.817 321.475C157.817 325.892 162.575 329.471 168.444 329.471Z" fill="#BA4286" stroke="#912668" stroke-width="1.49455" stroke-miterlimit="10"/>
<path d="M157.765 311.716C159.478 311.716 160.866 310.297 160.866 308.547C160.866 306.797 159.478 305.379 157.765 305.379C156.052 305.379 154.664 306.797 154.664 308.547C154.664 310.297 156.052 311.716 157.765 311.716Z" fill="#BA4286" stroke="#912668" stroke-width="1.49455" stroke-miterlimit="10"/>
<path d="M168.601 309.302C170.313 309.302 171.702 307.884 171.702 306.134C171.702 304.383 170.313 302.965 168.601 302.965C166.888 302.965 165.5 304.383 165.5 306.134C165.5 307.884 166.888 309.302 168.601 309.302Z" fill="#BA4286" stroke="#912668" stroke-width="1.49455" stroke-miterlimit="10"/>
<path d="M179.331 311.925C181.044 311.925 182.432 310.507 182.432 308.757C182.432 307.006 181.044 305.588 179.331 305.588C177.618 305.588 176.23 307.006 176.23 308.757C176.23 310.507 177.618 311.925 179.331 311.925Z" fill="#BA4286" stroke="#912668" stroke-width="1.49455" stroke-miterlimit="10"/>
<path opacity="0.25" d="M159.431 318.598C159.431 318.598 157.959 326.661 168.832 327.364C177.658 327.932 177.598 324.345 177.598 324.345L176.619 326.377C176.619 326.377 174.026 329.045 173.256 328.97C172.486 328.903 165.26 329.038 165.26 329.038L160.493 327.005C160.493 327.005 158.602 324.061 158.385 323.777C158.176 323.493 157.616 320.974 157.825 320.691C158.027 320.421 159.431 318.598 159.431 318.598Z" fill="#91346E"/>
<path opacity="0.11" d="M170.828 320.332C172.28 320.332 173.458 319.6 173.458 318.695C173.458 317.792 172.28 317.059 170.828 317.059C169.375 317.059 168.197 317.792 168.197 318.695C168.197 319.6 169.375 320.332 170.828 320.332Z" fill="white"/>
<path d="M321.613 328.94C327.131 328.94 331.604 325.575 331.604 321.423C331.604 317.271 327.131 313.905 321.613 313.905C316.095 313.905 311.622 317.271 311.622 321.423C311.622 325.575 316.095 328.94 321.613 328.94Z" fill="#BA4286" stroke="#912668" stroke-width="1.49455" stroke-miterlimit="10"/>
<path d="M331.656 312.254C333.265 312.254 334.57 310.919 334.57 309.272C334.57 307.625 333.265 306.291 331.656 306.291C330.046 306.291 328.741 307.625 328.741 309.272C328.741 310.919 330.046 312.254 331.656 312.254Z" fill="#BA4286" stroke="#912668" stroke-width="1.49455" stroke-miterlimit="10"/>
<path d="M321.463 309.974C323.072 309.974 324.377 308.64 324.377 306.993C324.377 305.346 323.072 304.011 321.463 304.011C319.853 304.011 318.548 305.346 318.548 306.993C318.548 308.64 319.853 309.974 321.463 309.974Z" fill="#BA4286" stroke="#912668" stroke-width="1.49455" stroke-miterlimit="10"/>
<path d="M311.376 312.448C312.985 312.448 314.29 311.113 314.29 309.466C314.29 307.819 312.985 306.485 311.376 306.485C309.766 306.485 308.461 307.819 308.461 309.466C308.461 311.113 309.766 312.448 311.376 312.448Z" fill="#BA4286" stroke="#912668" stroke-width="1.49455" stroke-miterlimit="10"/>
<path opacity="0.25" d="M330.086 318.718C330.086 318.718 331.469 326.303 321.246 326.96C312.944 327.498 313.003 324.12 313.003 324.12L313.93 326.033C313.93 326.033 316.374 328.537 317.098 328.477C317.823 328.41 324.616 328.544 324.616 328.544L329.1 326.631C329.1 326.631 330.878 323.859 331.08 323.597C331.274 323.336 331.805 320.959 331.611 320.698C331.416 320.436 330.086 318.718 330.086 318.718Z" fill="#91346E"/>
<path opacity="0.11" d="M319.371 320.347C320.737 320.347 321.845 319.658 321.845 318.807C321.845 317.957 320.737 317.268 319.371 317.268C318.005 317.268 316.898 317.957 316.898 318.807C316.898 319.658 318.005 320.347 319.371 320.347Z" fill="white"/>
<path d="M340.87 187.025C340.87 187.025 329.227 154.205 250.188 155.251C170.222 156.312 145.3 219.532 142.147 220.055C138.993 220.578 138.044 214.376 138.044 214.376C129.906 171.452 143.096 152.516 143.096 152.516C138.044 161.775 91.4067 226.227 71.4917 203.787C51.5768 181.346 140.966 94.6319 151.727 87.9214C166.246 78.8718 185.182 94.0266 185.182 94.0266C199.492 82.526 218.428 75.9351 240.727 75.7183C240.727 75.7183 279.444 73.8277 303.185 92.3378C303.185 92.3378 316.367 84.4839 327.875 89.812C339.383 95.1401 428.017 183.244 408.102 205.685C388.187 228.125 341.894 152.942 336.849 143.683C336.849 143.683 348.313 171.878 345.607 214.413C345.6 214.413 345.391 195.97 340.87 187.025Z" fill="#FF77BE"/>
<path opacity="0.23" d="M179.623 111.849C179.623 111.849 182.014 114.016 178.016 116.751C174.018 119.486 169.602 122.012 165.395 125.592C161.188 129.171 151.645 140.462 153.894 160.661C156.136 180.86 163.676 189.94 163.676 189.94L159.08 195.021L153.468 202.598L149.261 208.913L145.898 214.106L143.657 217.611C143.657 217.611 142.267 221.019 140.712 219.36C139.151 217.701 138.627 216.229 138.157 212.702C138.157 212.702 136.856 205.341 136.505 200.85C136.154 196.359 135.736 190.119 135.945 186.614C136.154 183.109 136.714 177.849 137.626 174.688L139.166 167.185L140.78 160.781C140.78 160.781 141.183 159.286 141.475 158.464C141.766 157.642 145.48 151.545 145.48 151.545L151.511 141.935L158.453 129.873L160.859 125.749C160.859 125.749 166.867 115.287 173.466 112.694C173.458 112.686 177.516 110.803 179.623 111.849Z" fill="#BA4286"/>
<path opacity="0.4" d="M179.622 111.849C179.622 111.849 180.116 113.247 178.643 114.3C177.171 115.354 174.085 116.542 170.371 118.44C166.657 120.331 162.726 123.417 159.64 127.766C159.64 127.766 162.495 121.646 164.707 118.859C166.919 116.071 170.438 113.807 170.438 113.807L173.965 112.021L177.276 111.281C177.283 111.281 179.391 111.259 179.622 111.849Z" fill="#BA4286"/>
<path opacity="0.1" d="M148.558 146.911C148.558 146.911 141.825 187.586 154.589 200.917C154.589 200.917 147.437 211.506 145.891 214.099C144.351 216.692 141.504 215.429 140.458 208.278C139.404 201.126 135.728 186.383 142.879 155.565L144.284 152.172L146.81 147.756L148.558 146.911Z" fill="#BA4286"/>
<path opacity="0.23" d="M74.1821 180.083C74.1821 180.083 71.4097 206.103 90.4877 197.128C109.566 188.154 142.072 153.368 142.072 153.368L137.484 161.214L124.997 176.922L114.475 188.706L104.514 197.405L94.1344 204.84L87.7526 207.59L79.7568 208.592C79.7568 208.592 73.8159 206.066 73.7636 205.909C73.7113 205.752 70.2888 201.754 70.2888 201.754L68.6074 195.439L70.3635 187.025L72.1196 182.609L74.1821 180.083Z" fill="#BA4286"/>
<path opacity="0.23" d="M185.915 105.58C185.915 105.58 191.535 100.446 192.117 95.028C192.693 89.6102 191.273 89.7149 191.273 89.7149L185.646 93.9743C185.646 93.9743 186.7 95.3419 187.17 96.814C187.641 98.2861 187.91 100.177 187.327 101.813C186.752 103.442 185.915 105.58 185.915 105.58Z" fill="#BA4286"/>
<path opacity="0.23" d="M312.018 89.4309C312.018 89.4309 309.873 90.8059 310.71 92.7712C311.555 94.7366 330.872 115.182 337.186 143.541L333.151 131.906L327.681 121.242L321.792 111.984L314.297 103.173L309.709 96.7393L302.812 92.8161L307.198 90.6639L312.018 89.4309Z" fill="#BA4286"/>
<path opacity="0.23" d="M342.552 152.733C342.552 152.733 374.535 190.814 386.947 195.865C399.36 200.917 407.774 198.6 409.037 188.714L408.985 187.922L409.328 187.892L410.016 189.865L410.965 193.997L411.017 197.255L410.778 200.304L409.62 203.405L407.542 206.141L404.15 208.509L398.941 209.458L396.311 208.988L391.76 207.65L386.312 204.601L381.575 201.179L377.106 197.263L373.317 193.213L368.004 187.877L362.848 181.615L355.592 172.461L349.382 163.733L343.12 154.16L342.552 152.733Z" fill="#BA4286"/>
<path opacity="0.23" d="M343.747 173.985C343.747 173.985 344.375 181.137 342.835 182.4C341.296 183.662 334.563 177.206 332.037 175.248L336.596 180.442L341.438 187.459L343.612 193.982L345.503 204.153L345.787 195.664L345.578 188.086L344.733 178.76L343.747 173.985Z" fill="#BA4286"/>
<path opacity="0.06" d="M209.296 90.3799C209.296 90.3799 230.026 79.8584 249.612 80.7028C270.745 81.6145 278.958 85.7095 291.078 89.9615C291.078 89.9615 295.622 91.5307 295.495 94.064C295.301 97.9573 274.19 93.2196 249.612 93.115C242.7 93.0851 225.886 94.2957 213.137 95.0056C201.906 95.6408 209.296 90.3799 209.296 90.3799Z" fill="white"/>
<path opacity="0.06" d="M80.3914 190.395C80.3914 190.395 82.3567 201.336 100.874 185.628C100.874 185.628 103.751 182.825 102.384 181.346C100.702 179.53 97.2275 182.295 97.2275 182.295C97.2275 182.295 88.0734 190.186 85.1291 188.079C82.1848 185.972 79.0238 187.025 80.3914 190.395Z" fill="white"/>
<path d="M224.579 118.104C221.344 129.754 217.002 138.191 206.667 135.859C196.235 133.498 197.244 123.066 200.48 111.416C203.715 99.7657 211.734 91.8147 218.392 93.6604C225.043 95.5062 227.815 106.454 224.579 118.104Z" fill="#002636" stroke="#002636" stroke-width="0.747276" stroke-miterlimit="10"/>
<path d="M218.073 106.993C219.429 102.371 218.47 98.0216 215.933 97.2765C213.394 96.5315 210.237 99.6738 208.881 104.295C207.524 108.916 208.482 113.267 211.021 114.011C213.559 114.756 216.717 111.614 218.073 106.993Z" fill="#EFEFEF"/>
<path d="M208.214 125.061C209.588 125.061 210.702 123.947 210.702 122.573C210.702 121.198 209.588 120.084 208.214 120.084C206.84 120.084 205.726 121.198 205.726 122.573C205.726 123.947 206.84 125.061 208.214 125.061Z" fill="#EFEFEF"/>
<path d="M215.91 120.899C216.669 120.899 217.285 120.283 217.285 119.524C217.285 118.764 216.669 118.149 215.91 118.149C215.151 118.149 214.535 118.764 214.535 119.524C214.535 120.283 215.151 120.899 215.91 120.899Z" fill="#EFEFEF"/>
<path d="M282.463 116.998C285.258 127.071 289.016 134.357 297.939 132.34C306.951 130.299 306.084 121.28 303.289 111.214C300.495 101.141 293.56 94.2732 287.813 95.8724C282.059 97.4641 279.661 106.925 282.463 116.998Z" fill="#002636" stroke="#002636" stroke-width="0.747276" stroke-miterlimit="10"/>
<path d="M294.165 113.448C296.359 112.803 297.188 109.046 296.016 105.054C294.845 101.063 292.116 98.3489 289.922 98.9923C287.728 99.6365 286.9 103.395 288.071 107.386C289.243 111.378 291.972 114.092 294.165 113.448Z" fill="#EFEFEF"/>
<path d="M296.6 123.006C297.789 123.006 298.753 122.043 298.753 120.854C298.753 119.665 297.789 118.702 296.6 118.702C295.411 118.702 294.448 119.665 294.448 120.854C294.448 122.043 295.411 123.006 296.6 123.006Z" fill="#EFEFEF"/>
<path d="M289.958 119.404C290.614 119.404 291.146 118.872 291.146 118.216C291.146 117.56 290.614 117.028 289.958 117.028C289.302 117.028 288.77 117.56 288.77 118.216C288.77 118.872 289.302 119.404 289.958 119.404Z" fill="#EFEFEF"/>
<path d="M246.429 130.262C246.429 130.262 246.586 145.529 258.513 145.35C270.447 145.17 269.214 129.604 269.214 129.604C269.214 129.604 264.446 130.621 258.191 126.825C258.191 126.817 253.035 130.314 246.429 130.262Z" fill="#FF155F"/>
<path opacity="0.5" d="M247.939 137.817C247.939 137.817 252.116 134.88 257.773 134.634C263.43 134.387 268.444 136.696 268.444 136.696C268.444 136.696 269.535 133.191 269.222 129.604C269.222 129.604 263.781 130.441 258.199 126.825C258.199 126.825 252.707 130.337 246.437 130.27C246.43 130.262 246.676 135.852 247.939 137.817Z" fill="#930000"/>
<path d="M239.801 121.026C239.577 123.141 239.771 125.352 240.862 126.967C241.408 127.759 242.155 128.379 243.037 128.782C243.261 128.88 243.5 128.947 243.724 129.044L244.068 129.178L244.434 129.261C244.681 129.313 244.92 129.388 245.167 129.448C245.421 129.485 245.667 129.515 245.921 129.56C246.422 129.672 246.945 129.657 247.461 129.709C247.984 129.694 248.507 129.724 249.037 129.664C250.099 129.612 251.152 129.403 252.176 129.126C253.2 128.835 254.201 128.446 255.173 127.998C256.129 127.527 257.078 127.011 257.952 126.436C258.079 126.346 258.244 126.346 258.371 126.414L258.438 126.451C260.157 127.378 262.048 128.095 263.953 128.513C264.91 128.708 265.881 128.842 266.845 128.842C267.809 128.895 268.766 128.782 269.722 128.655C270.671 128.461 271.598 128.274 272.352 127.811C273.122 127.37 273.765 126.735 274.191 125.913C274.624 125.098 274.863 124.149 274.938 123.163C275.02 122.184 274.983 121.168 274.833 120.159V120.151C274.826 120.114 274.856 120.069 274.893 120.069C274.931 120.062 274.96 120.084 274.975 120.114C275.715 122.035 276.029 124.246 275.244 126.384C274.841 127.437 274.071 128.386 273.107 129.014C272.861 129.164 272.621 129.335 272.367 129.455L271.575 129.769C271.045 129.971 270.529 130.053 269.999 130.202C267.869 130.606 265.664 130.449 263.617 129.896C261.554 129.35 259.626 128.469 257.915 127.183L258.408 127.206C256.413 128.17 254.373 128.887 252.311 129.567C250.233 130.18 248.103 130.845 245.817 130.755C244.681 130.755 243.537 130.449 242.461 129.978C241.4 129.455 240.444 128.618 239.861 127.579C239.263 126.541 239.024 125.367 239.024 124.239C239.024 123.111 239.233 122.005 239.652 120.981C239.667 120.944 239.711 120.921 239.749 120.936C239.794 120.951 239.809 120.988 239.801 121.026Z" fill="#002636"/>
<path d="M246.429 130.262C246.429 130.262 246.586 145.529 258.513 145.35C270.447 145.17 269.214 129.604 269.214 129.604C269.214 129.604 264.446 130.621 258.191 126.825C258.191 126.817 253.035 130.314 246.429 130.262Z" stroke="#002636" stroke-width="1.49455" stroke-miterlimit="10"/>
<path d="M410.793 191.89C407.05 173.925 386.245 147.001 366.286 125.233C366.099 125.031 365.919 124.829 365.733 124.628C364.671 123.469 363.603 122.326 362.549 121.205C361.765 120.368 360.995 119.524 360.21 118.687C356.242 114.502 352.207 110.384 348.074 106.357C343.942 102.336 339.735 98.3832 335.333 94.6394C334.235 93.6978 333.107 92.7936 331.963 91.9044C330.805 91.0226 329.654 90.1483 328.302 89.4383C325.604 88.1605 322.667 87.5253 319.723 87.4356C316.779 87.346 313.842 87.7794 311.017 88.5416C308.327 89.3038 305.734 90.3052 303.245 91.6503C299.143 88.5267 294.659 85.9261 289.959 83.8562C288.763 83.2957 287.53 82.8324 286.32 82.3317C285.079 81.8834 283.861 81.3976 282.606 81.0016C280.117 80.1497 277.584 79.4398 275.036 78.7896C269.939 77.5118 264.753 76.5927 259.545 75.9724C254.329 75.3522 249.09 75.0159 243.829 75.001C242.522 74.9935 241.177 75.0308 239.891 75.0757C238.584 75.1205 237.276 75.1205 235.961 75.2027C234.653 75.2924 233.338 75.3522 232.03 75.4717C230.722 75.6137 229.414 75.7258 228.107 75.8827C222.891 76.5329 217.712 77.5791 212.668 79.0736C202.752 82.0029 193.321 86.7108 185.168 93.1299C182.919 91.456 180.572 90.0137 178.114 88.7284C175.483 87.3684 172.734 86.225 169.857 85.4329C166.987 84.6408 163.99 84.185 160.971 84.3494C159.462 84.4092 157.96 84.6483 156.503 85.0518C155.038 85.4329 153.626 86.0233 152.296 86.7481L151.309 87.3086C150.988 87.5178 150.666 87.7346 150.368 87.9587C149.755 88.3996 149.179 88.8555 148.604 89.3188C147.461 90.2454 146.34 91.2019 145.241 92.1659C143.037 94.0939 140.877 96.0742 138.747 98.0694C134.48 102.075 130.311 106.17 126.208 110.325C118.003 118.649 110.059 127.236 102.459 136.121C94.8745 145.013 87.5885 154.19 81.1246 163.964C77.9038 168.859 74.8998 173.91 72.3964 179.239C71.1559 181.906 70.05 184.649 69.2354 187.503C68.4433 190.351 67.853 193.317 68.0323 196.351C68.0846 197.861 68.4284 199.378 68.9739 200.812C69.497 202.262 70.4311 203.562 71.4698 204.661C73.5173 206.888 76.357 208.465 79.3834 208.92C80.8929 209.16 82.4174 209.16 83.9194 208.98C85.414 208.793 86.8711 208.427 88.291 207.964C91.1306 207.037 93.776 205.677 96.3018 204.16C101.338 201.081 105.889 197.33 110.194 193.362C114.49 189.379 118.526 185.127 122.404 180.748C126.275 176.362 129.974 171.826 133.516 167.178C135.287 164.853 137.021 162.5 138.703 160.108C139.031 159.63 139.368 159.152 139.696 158.674C139.405 159.458 139.128 160.243 138.859 161.035L138.157 163.322C137.925 164.084 137.761 164.861 137.559 165.631C137.141 167.17 136.864 168.732 136.558 170.294C136.513 170.54 136.476 170.787 136.431 171.026C136.431 171.048 136.423 171.063 136.423 171.086C136.05 173.26 135.758 175.442 135.549 177.632C135.497 178.2 135.444 178.783 135.4 179.373C135.392 179.515 135.377 179.657 135.362 179.799C134.69 188.692 135.004 200.222 137.694 214.435C137.716 214.6 138.344 218.545 140.287 219.958C140.75 220.294 141.258 220.466 141.789 220.466C141.931 220.466 142.08 220.451 142.222 220.428C142.857 220.324 143.575 219.225 145.757 215.765C155.001 201.111 183.136 156.521 250.204 155.625C272.667 155.326 303.843 157.754 324.909 171.011C337.486 178.925 340.505 187.063 340.534 187.145C340.542 187.16 340.542 187.175 340.549 187.19C344.981 195.948 345.242 214.226 345.242 214.413C345.242 214.615 345.407 214.779 345.608 214.779C345.818 214.779 345.982 214.63 345.99 214.428C348.097 181.219 341.498 156.491 338.547 147.367C347.791 162.94 377.51 207.822 397.649 210.116C401.878 210.602 405.495 209.182 408.387 205.924C411.249 202.696 412.064 197.973 410.793 191.89ZM325.365 170.436C304.142 157.037 272.764 154.369 250.181 154.369C180.117 154.369 154.881 199.654 145.577 214.398C144.158 216.647 142.932 218.583 142.551 218.717C142.05 218.799 141.602 218.687 141.176 218.381C139.48 217.155 138.889 213.389 138.882 213.337C137.597 206.574 136.864 200.424 136.513 194.879L136.476 194.311C136.371 192.503 136.311 190.776 136.281 189.103L136.274 188.281C136.214 181.981 137.305 176.115 138.463 169.927C138.777 168.388 139.054 166.834 139.472 165.317C139.674 164.555 139.838 163.785 140.078 163.038L140.78 160.788C141.288 159.301 140.84 159.907 141.475 158.472C141.901 157.493 142.372 156.506 142.887 155.572C143.141 155.146 143.403 154.728 143.65 154.294C143.65 154.294 145.406 151.515 147.7 147.973C148.993 146.142 150.681 143.302 151.832 141.374C154.463 136.958 156.585 132.915 159.058 128.842C159.671 127.818 160.269 126.787 160.867 125.749C161.45 124.725 162.055 123.738 162.713 122.774C164.013 120.839 165.515 119.03 167.144 117.364C168.788 115.713 170.589 114.188 172.614 113.022C172.621 113.022 172.621 113.015 172.629 113.015C175.095 111.737 177.397 111.326 179.145 112.051C179.332 112.133 179.556 112.043 179.631 111.849C179.713 111.662 179.623 111.438 179.429 111.363C177.636 110.616 175.155 110.967 172.45 112.298C172.39 112.32 172.33 112.35 172.27 112.372C172.113 112.447 171.964 112.537 171.814 112.619C171.71 112.679 171.598 112.731 171.493 112.791C169.617 113.8 167.899 115.077 166.337 116.52C164.543 118.149 162.974 120.002 161.554 121.96C160.844 122.939 160.202 123.977 159.596 125.016C158.999 126.04 158.393 127.056 157.781 128.065C155.344 132.13 152.834 136.166 150.375 140.238C149.202 142.159 148.036 144.094 146.885 146.037C144.554 149.631 142.252 153.061 142.08 153.368C140.802 155.483 139.368 157.545 137.94 159.585C136.259 161.962 134.518 164.301 132.747 166.61C129.197 171.228 125.49 175.726 121.62 180.076C117.741 184.417 113.713 188.632 109.431 192.562C105.15 196.486 100.629 200.177 95.6815 203.166C93.2006 204.638 90.615 205.946 87.8949 206.828C86.5349 207.261 85.1524 207.605 83.7475 207.777C82.3427 207.934 80.9303 207.934 79.5553 207.71C76.7979 207.276 74.8923 206.148 72.9867 204.085C71.0065 202.113 70.05 199.378 69.908 196.575C69.7436 193.766 70.304 190.911 71.0812 188.161C71.8808 185.404 72.9643 182.713 74.1899 180.09C76.6559 174.852 79.0173 169.561 82.2156 164.711C88.6497 155.019 95.9207 145.888 103.498 137.032C111.09 128.192 119.026 119.643 127.217 111.348C131.312 107.209 135.482 103.128 139.734 99.1529C141.864 97.1652 144.008 95.1998 146.198 93.2943C147.296 92.3378 148.402 91.4037 149.523 90.492C150.084 90.0436 150.651 89.5953 151.227 89.1768C151.511 88.9601 151.802 88.7733 152.086 88.5864L152.998 88.0634C154.223 87.3908 155.524 86.8453 156.884 86.4866C158.236 86.1055 159.634 85.8888 161.039 85.829C163.856 85.6721 166.71 86.098 169.46 86.8528C172.218 87.6075 174.886 88.7135 177.441 90.0287C179.99 91.3439 182.478 92.8758 184.727 94.5945L184.765 94.6244L184.75 94.6469C185.056 94.8411 185.422 95.1998 185.714 95.5436C186.005 95.9023 186.274 96.2983 186.476 96.7318C186.894 97.5837 187.104 98.5551 187.134 99.5415C187.141 99.6686 187.134 99.7956 187.134 99.9152C187.014 101.372 186.491 103.128 185.28 105.213C185.176 105.393 185.235 105.617 185.415 105.721C185.475 105.759 185.542 105.774 185.602 105.774C185.729 105.774 185.856 105.707 185.923 105.587C187.358 103.113 187.851 101.058 187.881 99.4294C187.956 98.3982 187.858 97.3221 187.507 96.3058C187.223 95.5137 186.842 94.7739 186.274 94.1088C194.21 87.884 203.379 83.2883 213.057 80.4112C218.026 78.9316 223.122 77.8854 228.271 77.2428C229.556 77.0859 230.849 76.9663 232.142 76.8318C233.435 76.7122 234.735 76.6524 236.028 76.5628C237.321 76.4806 238.628 76.4806 239.929 76.4283C241.251 76.3834 242.514 76.3461 243.822 76.3535C254.209 76.3984 264.634 77.5641 274.714 80.0525C277.233 80.6877 279.736 81.3827 282.187 82.2271C284.646 83.0491 287.074 83.9683 289.443 85.0219C294.196 87.0919 298.709 89.6999 302.812 92.8384L302.864 92.8833L303.088 93.0626C305.188 94.4077 306.907 96.0218 308.82 97.7331L310.247 99.0334L311.622 100.393C312.556 101.283 313.416 102.254 314.29 103.203C317.615 106.872 320.59 110.848 323.325 114.988C328.047 122.408 332.77 131.899 336.477 143.825H336.484C336.484 143.833 336.484 143.848 336.492 143.855C336.596 144.117 345.437 162.492 345.175 200.259C344.659 194.117 344.017 192.077 341.349 186.794C341.147 186.181 337.912 178.349 325.365 170.436ZM382.516 145.305C383.196 146.142 383.862 146.986 384.534 147.831C395.833 162.133 407.393 179.231 410.061 192.039C411.279 197.876 410.524 202.382 407.819 205.431C405.092 208.502 401.333 208.988 397.365 208.539C375.701 206.073 342.873 153.943 337.187 143.534C333.689 132.31 329.295 123.23 324.849 115.989C324.677 115.698 324.505 115.406 324.341 115.115C321.591 110.676 318.565 106.394 315.135 102.433C314.268 101.447 313.423 100.453 312.497 99.5191L311.137 98.0993L309.717 96.7392C308.05 95.1774 306.347 93.6978 304.463 92.3452C309.149 89.954 314.432 88.437 319.693 88.5566C322.503 88.6238 325.305 89.2291 327.823 90.4098C329.026 91.03 330.192 91.8969 331.321 92.7562C332.456 93.6231 333.57 94.5198 334.668 95.4464C339.062 99.1455 343.269 103.069 347.409 107.067C351.542 111.065 355.592 115.16 359.568 119.314C367.496 127.617 375.133 136.203 382.367 145.118C382.412 145.178 382.464 145.237 382.516 145.305Z" fill="#002636"/>
<path opacity="0.23" d="M147.512 251.201C147.512 251.201 161.396 279.815 188.963 285.494L189.524 277.64L179.181 272.977L167.255 266.072L158.347 257.411L149.828 246.262L147.616 242.899L146.772 244.685L147.512 251.201Z" fill="#BA4286"/>
<path d="M322.431 423.936C355.827 432.916 421.401 421.903 475.037 396.87C468.763 406.732 430.879 428.988 329.537 439.11C202.86 451.763 227.072 420.12 132.882 405.287C92.3821 398.909 41.5926 417.916 34.882 419.909C-7.11795 432.382 18.8 417.519 34.882 410.909C71.3823 395.909 79.8821 366.908 132.882 366.908C160.382 366.908 216.124 394.456 218.621 387.25C221.117 380.043 240.188 374.82 269.701 375.248C298.838 375.671 356.382 396.87 352.802 405.287C347.221 418.409 295.714 416.752 322.431 423.936Z" fill="#D6DAE5" fill-opacity="0.8"/>
<path d="M474.615 395.964L477.722 394.513L475.881 397.407C474.189 400.067 470.487 403.404 464.424 407.063C458.334 410.739 449.778 414.788 438.269 418.836C415.251 426.931 380.362 435.039 329.637 440.105C266.217 446.44 240.428 441.7 218.672 433.441C213.6 431.515 208.767 429.408 203.737 427.215C187.272 420.037 168.696 411.939 132.726 406.275C112.663 403.115 89.9874 406.24 71.4315 410.434C56.5438 413.799 44.4114 417.824 38.4239 419.81C36.9478 420.3 35.8451 420.666 35.1667 420.867C24.6751 423.983 18.3252 425.424 14.9813 425.691C14.1416 425.758 13.4346 425.756 12.8749 425.667C12.3704 425.587 11.7195 425.396 11.35 424.836C10.921 424.186 11.1401 423.499 11.3692 423.081C11.6061 422.65 11.9912 422.228 12.424 421.829C14.152 420.238 17.6976 418.097 21.7247 415.973C25.7874 413.831 30.4514 411.649 34.5019 409.984C47.499 404.643 56.8492 397.555 66.0688 390.566C69.7041 387.811 73.319 385.07 77.1293 382.459C90.5812 373.238 106.15 365.908 132.882 365.908C139.894 365.908 148.639 367.659 157.79 370.134C166.956 372.614 176.608 375.842 185.448 378.834C186.089 379.051 186.725 379.266 187.357 379.48C195.458 382.225 202.759 384.698 208.291 386.144C211.281 386.925 213.682 387.385 215.383 387.445C216.238 387.475 216.835 387.4 217.217 387.265C217.574 387.14 217.648 387.003 217.676 386.922C218.414 384.791 220.315 382.956 223.006 381.407C225.716 379.848 229.354 378.504 233.791 377.415C242.67 375.235 254.907 374.034 269.716 374.248C284.449 374.462 306.242 379.911 323.863 386.33C332.681 389.542 340.514 393.019 345.936 396.242C348.639 397.848 350.803 399.426 352.187 400.916C353.515 402.345 354.423 404.032 353.722 405.678C352.916 407.574 351.32 409.12 349.343 410.4C347.358 411.686 344.91 412.757 342.273 413.671C337.174 415.439 331.209 416.677 326.208 417.713L325.708 417.817C323.142 418.35 320.865 418.828 319.087 419.304C318.198 419.542 317.457 419.772 316.879 420C316.419 420.182 316.115 420.342 315.93 420.469C316.018 420.54 316.148 420.634 316.343 420.748C317.351 421.34 319.349 422.072 322.691 422.97C339.181 427.405 363.754 426.923 390.972 422.173C418.163 417.427 447.881 408.441 474.615 395.964Z" stroke="#A0A2AC" stroke-opacity="0.6" stroke-width="2"/>
<path fill-rule="evenodd" clip-rule="evenodd" d="M315.234 419.74C316.571 418.691 320.8 417.814 325.981 416.739C336.177 414.625 350.055 411.747 352.802 405.287C353.205 404.34 352.834 403.23 351.815 402.007C347.618 407.791 335.711 411.669 326.609 414.634C320.4 416.656 315.496 418.253 315.234 419.74ZM17.8242 419.291C8.98928 424.545 7.46809 428.05 34.8818 419.909C35.5394 419.713 36.6203 419.355 38.0733 418.873C51.4478 414.434 96.3507 399.534 132.882 405.287C168.989 410.973 187.697 419.13 204.175 426.314C230.683 437.871 251.421 446.913 329.537 439.11C430.878 428.988 468.763 406.732 475.037 396.87C470.171 399.141 465.206 401.297 460.176 403.333C440.565 413.914 400.694 427.003 329.537 434.11C251.421 441.913 230.683 432.871 204.175 421.314C187.697 414.13 168.989 405.973 132.882 400.287C96.3507 394.534 51.4478 409.434 38.0733 413.873C36.6203 414.355 35.5394 414.713 34.8818 414.909C26.946 417.265 21.435 418.646 17.8242 419.291Z" fill="#9A9DA7" fill-opacity="0.6"/>
<path fill-rule="evenodd" clip-rule="evenodd" d="M327.715 425.141C360.905 434.333 403.751 425.031 445.094 409.017C401.629 424.231 355.81 430.512 327.715 425.141ZM474.818 396.972C473.249 399.033 470.5 401.672 466.362 404.659C470.907 401.656 473.695 398.979 475.037 396.87C474.964 396.904 474.891 396.938 474.818 396.972ZM15.7029 424.614C4.31724 425.963 22.51 415.994 34.8818 410.909C48.0071 405.515 57.5117 398.311 66.7667 391.296C83.2492 378.802 98.9403 366.908 132.882 366.908C147.133 366.908 168.97 374.307 187.05 380.432C203.857 386.127 217.418 390.721 218.62 387.25C221.117 380.043 240.187 374.82 269.701 375.248C291.057 375.558 327.672 387.028 344.297 396.447C326.908 388.381 290.652 379.552 269.701 379.248C240.188 378.82 221.117 384.043 218.621 391.25C217.418 394.721 203.857 390.127 187.05 384.432C168.97 378.307 147.133 370.908 132.882 370.908C98.9405 370.908 83.2494 382.802 66.7669 395.296C57.5118 402.311 48.0073 409.515 34.882 414.909C28.3855 417.579 20.284 421.596 15.7029 424.614ZM338.437 413.829C334.297 415.015 329.871 415.932 325.981 416.739C320.636 417.848 316.303 418.746 315.115 419.841C314.488 418.265 319.519 417.399 326.18 416.252C329.984 415.597 334.32 414.851 338.437 413.829Z" fill="#FDFDFF" fill-opacity="0.6"/>
<path d="M245.5 435.731C245.5 443.739 234.5 453.178 221.5 456.217C212.358 458.354 186 455.186 186 447.178C186 439.169 201.5 431.624 215 429.177C228.5 426.731 245.5 427.723 245.5 435.731Z" fill="#D6DAE5" fill-opacity="0.8"/>
<path d="M221.728 457.191C228.38 455.635 234.525 452.444 239.025 448.597C243.487 444.782 246.5 440.168 246.5 435.731C246.5 433.304 245.185 431.46 243.18 430.148C241.207 428.856 238.502 428.028 235.469 427.546C229.39 426.58 221.646 426.957 214.822 428.193C207.977 429.434 200.615 431.966 194.94 435.225C192.103 436.853 189.645 438.687 187.885 440.666C186.129 442.642 185 444.842 185 447.178C185 449.781 187.125 451.734 189.792 453.152C192.529 454.608 196.218 455.711 200.128 456.483C207.925 458.022 216.96 458.305 221.728 457.191Z" stroke="#A0A2AC" stroke-opacity="0.6" stroke-width="2"/>
<path fill-rule="evenodd" clip-rule="evenodd" d="M245.149 433.851C241.83 440.394 232.791 446.811 222.5 449.217C214.262 451.143 190.828 453.894 186.272 448.561C189.087 455.545 212.903 458.227 221.5 456.217C234.5 453.178 245.5 443.739 245.5 435.731C245.5 435.055 245.379 434.429 245.149 433.851Z" fill="#9A9DA7" fill-opacity="0.6"/>
<defs>
<linearGradient id="paint0_linear_277_255031" x1="225.846" y1="108.537" x2="231.659" y2="405" gradientUnits="userSpaceOnUse">
<stop stop-color="#DFDFDF"/>
<stop offset="1" stop-color="#DFDFDF" stop-opacity="0"/>
</linearGradient>
<clipPath id="clip0_277_255031">
<rect width="246.325" height="310.325" fill="white" transform="translate(111.821 94.6748)"/>
</clipPath>
</defs>
</svg>
