<svg width="666" height="276" viewBox="0 0 666 276" fill="none" xmlns="http://www.w3.org/2000/svg">
<circle cx="332.5" cy="133.5" r="130.5" fill="#FFDAA4" stroke="#CEB075" stroke-width="4"/>
<ellipse cx="410.079" cy="87.9674" rx="26.7799" ry="52.0119" transform="rotate(-26.1855 410.079 87.9674)" fill="#DDC391"/>
<path fill-rule="evenodd" clip-rule="evenodd" d="M429.971 134.642C443.243 128.115 443.727 101.928 431.051 76.1504C420.749 55.2018 404.927 40.9709 392.237 39.8774C405.349 38.6784 422.962 53.4811 434.109 76.1504C446.785 101.928 446.302 128.115 433.03 134.642C430.543 135.864 427.785 136.31 424.86 136.058C426.658 135.894 428.371 135.429 429.971 134.642Z" fill="#CEB075"/>
<ellipse cx="241.118" cy="164.511" rx="14.3095" ry="37.8069" transform="rotate(-20.2888 241.118 164.511)" fill="#DDC391"/>
<path fill-rule="evenodd" clip-rule="evenodd" d="M252.492 198.235C259.905 195.495 260.044 177.397 252.804 157.812C248.943 147.37 243.764 138.613 238.646 133.128C244.309 138.386 250.242 147.922 254.54 159.549C261.78 179.133 261.64 197.231 254.228 199.972C250.768 201.251 246.334 198.958 241.854 194.156C245.73 197.755 249.48 199.349 252.492 198.235Z" fill="#CEB075"/>
<ellipse cx="281.405" cy="87.5541" rx="19.1508" ry="24.355" transform="rotate(28.5067 281.405 87.5541)" fill="#DDC391"/>
<path fill-rule="evenodd" clip-rule="evenodd" d="M281.031 110.443C287.646 109.07 294.193 104.137 298.235 96.6945C304.654 84.8744 302.324 71.2001 293.029 66.1523C288.221 63.5409 282.491 63.7497 277.191 66.1961C281.083 65.3883 284.998 65.8123 288.44 67.6819C297.735 72.7298 300.065 86.404 293.646 98.2242C290.547 103.93 285.976 108.16 281.031 110.443Z" fill="#CEB075"/>
<path fill-rule="evenodd" clip-rule="evenodd" d="M446.815 192.248C423.243 220.225 387.947 238 348.5 238C277.531 238 220 180.469 220 109.5C220 88.332 225.118 68.3594 234.185 50.7524C215.35 73.1084 204 101.979 204 133.5C204 204.469 261.531 262 332.5 262C382.301 262 425.484 233.67 446.815 192.248Z" fill="#CEB085" fill-opacity="0.3"/>
<path fill-rule="evenodd" clip-rule="evenodd" d="M453.508 176.84C432.072 217.94 389.063 246 339.5 246C268.531 246 211 188.468 211 117.5C211 102.291 213.642 87.7 218.492 74.1597C209.234 91.9106 204 112.094 204 133.5C204 204.469 261.531 262 332.5 262C388.26 262 435.725 226.484 453.508 176.84Z" fill="#A08866" fill-opacity="0.1"/>
<ellipse cx="300.027" cy="126.826" rx="12.1214" ry="15.4153" transform="rotate(28.5067 300.027 126.826)" fill="#DDC391"/>
<path fill-rule="evenodd" clip-rule="evenodd" d="M295.927 141.451C300.38 140.836 304.897 137.622 307.618 132.611C311.682 125.129 310.207 116.474 304.324 113.279C303.293 112.719 302.196 112.364 301.065 112.2C303.26 111.896 305.44 112.224 307.382 113.279C313.265 116.474 314.74 125.129 310.677 132.611C307.326 138.782 301.253 142.227 295.927 141.451Z" fill="#CEB075"/>
<ellipse cx="411.237" cy="173.081" rx="12.1485" ry="25.2484" transform="rotate(9.07392 411.237 173.081)" fill="#DDC391"/>
<mask id="path-13-outside-1_272_7839" maskUnits="userSpaceOnUse" x="6" y="199" width="486" height="77" fill="black">
<rect fill="white" x="6" y="199" width="486" height="77"/>
<path fill-rule="evenodd" clip-rule="evenodd" d="M10.8992 220.406C44.2551 202.089 190.764 187.925 260.9 220.406C311.439 243.811 441.83 246.41 461.709 243.811C487.653 240.419 506.521 247.881 468.448 253.309C437.989 257.65 309.979 268.912 249.781 274C218.394 274 205.361 263.995 191.137 253.075C176.197 241.605 159.943 229.126 119.727 226.172C83.2478 223.493 53.8982 225.281 34.4503 226.466C12.046 227.831 2.78282 228.396 10.8992 220.406ZM228.12 236C234.981 236 242.446 236.184 252.206 239.384C257.775 241.21 261.844 243.676 265.427 245.848C269.691 248.433 273.265 250.599 277.855 250.766C286.3 251.074 268.158 256.081 252.206 253.005C236.253 249.928 226.813 236 228.12 236Z"/>
</mask>
<path fill-rule="evenodd" clip-rule="evenodd" d="M10.8992 220.406C44.2551 202.089 190.764 187.925 260.9 220.406C311.439 243.811 441.83 246.41 461.709 243.811C487.653 240.419 506.521 247.881 468.448 253.309C437.989 257.65 309.979 268.912 249.781 274C218.394 274 205.361 263.995 191.137 253.075C176.197 241.605 159.943 229.126 119.727 226.172C83.2478 223.493 53.8982 225.281 34.4503 226.466C12.046 227.831 2.78282 228.396 10.8992 220.406ZM228.12 236C234.981 236 242.446 236.184 252.206 239.384C257.775 241.21 261.844 243.676 265.427 245.848C269.691 248.433 273.265 250.599 277.855 250.766C286.3 251.074 268.158 256.081 252.206 253.005C236.253 249.928 226.813 236 228.12 236Z" fill="#D6DAE5" fill-opacity="0.8"/>
<path d="M260.9 220.406L261.74 218.591V218.591L260.9 220.406ZM10.8992 220.406L9.93656 218.653L9.69368 218.786L9.4962 218.981L10.8992 220.406ZM461.709 243.811L461.45 241.828L461.709 243.811ZM468.448 253.309L468.73 255.289L468.448 253.309ZM249.781 274V276H249.866L249.95 275.993L249.781 274ZM191.137 253.075L192.355 251.488L191.137 253.075ZM119.727 226.172L119.874 224.178L119.727 226.172ZM34.4503 226.466L34.3287 224.47L34.4503 226.466ZM252.206 239.384L251.583 241.284L252.206 239.384ZM228.12 236L228.12 234L228.12 236ZM265.427 245.848L266.463 244.138L265.427 245.848ZM277.855 250.766L277.927 248.767L277.855 250.766ZM252.206 253.005L251.827 254.968L252.206 253.005ZM261.74 218.591C226.226 202.144 171.668 197.585 122.036 199.358C97.1725 200.246 73.4487 202.727 53.8282 206.141C34.2825 209.541 18.5872 213.903 9.93656 218.653L11.8619 222.159C19.8892 217.751 35.016 213.473 54.5138 210.081C73.9367 206.702 97.4778 204.238 122.178 203.356C171.673 201.588 225.438 206.187 260.06 222.221L261.74 218.591ZM461.45 241.828C451.736 243.098 414.352 243.116 372.959 239.866C331.532 236.614 286.642 230.123 261.74 218.591L260.06 222.221C285.697 234.094 331.273 240.606 372.646 243.854C414.052 247.105 451.803 247.123 461.968 245.794L461.45 241.828ZM468.73 255.289C478.271 253.929 484.466 252.416 487.916 250.886C488.792 250.498 489.554 250.081 490.17 249.626C490.768 249.183 491.357 248.61 491.702 247.864C492.088 247.032 492.108 246.105 491.711 245.252C491.357 244.491 490.75 243.957 490.189 243.585C489.073 242.846 487.478 242.322 485.702 241.939C483.877 241.546 481.668 241.263 479.188 241.105C474.225 240.788 468.052 240.965 461.45 241.828L461.968 245.794C468.338 244.961 474.252 244.798 478.934 245.097C481.276 245.246 483.279 245.509 484.86 245.85C486.49 246.201 487.496 246.599 487.98 246.92C488.219 247.079 488.163 247.108 488.084 246.94C487.963 246.68 487.985 246.374 488.072 246.184C488.12 246.081 488.113 246.172 487.791 246.41C487.488 246.634 487.008 246.913 486.294 247.23C483.385 248.52 477.661 249.975 468.165 251.329L468.73 255.289ZM249.95 275.993C310.109 270.908 438.199 259.641 468.73 255.289L468.165 251.329C437.78 255.66 309.849 266.916 249.613 272.007L249.95 275.993ZM189.919 254.661C197.014 260.108 204.012 265.49 213.231 269.469C222.481 273.46 233.863 276 249.781 276V272C234.313 272 223.485 269.537 214.816 265.796C206.116 262.042 199.484 256.961 192.355 251.488L189.919 254.661ZM119.581 228.167C139.495 229.63 153.379 233.442 164.091 238.255C174.813 243.071 182.448 248.925 189.919 254.661L192.355 251.488C184.886 245.754 176.924 239.634 165.73 234.606C154.526 229.573 140.174 225.669 119.874 224.178L119.581 228.167ZM34.572 228.462C54.0074 227.278 83.2437 225.498 119.581 228.167L119.874 224.178C83.2518 221.488 53.789 223.284 34.3287 224.47L34.572 228.462ZM9.4962 218.981C8.43305 220.027 7.5733 221.011 6.97941 221.935C6.4091 222.823 5.9243 223.899 6.00975 225.062C6.10682 226.383 6.88882 227.319 7.82726 227.897C8.69256 228.43 9.7781 228.729 10.8991 228.917C13.1643 229.296 16.3454 229.338 20.2389 229.218C24.1678 229.097 28.9815 228.803 34.572 228.462L34.3287 224.47C28.7169 224.812 23.9711 225.101 20.1156 225.22C16.2246 225.34 13.3965 225.279 11.5598 224.972C10.63 224.816 10.1415 224.625 9.92627 224.492C9.78415 224.404 9.97903 224.497 9.99899 224.769C10.0073 224.882 9.95541 224.703 10.3445 224.098C10.7101 223.529 11.3363 222.782 12.3023 221.831L9.4962 218.981ZM252.829 237.483C242.768 234.185 235.051 234 228.12 234L228.12 238C234.91 238 242.125 238.184 251.583 241.284L252.829 237.483ZM266.463 244.138C262.877 241.964 258.636 239.387 252.829 237.483L251.583 241.284C256.913 243.032 260.811 245.389 264.39 247.558L266.463 244.138ZM277.927 248.767C273.94 248.622 270.805 246.769 266.463 244.138L264.39 247.558C268.578 250.097 272.589 252.576 277.782 252.765L277.927 248.767ZM251.827 254.968C260.096 256.563 268.867 256.06 274.506 255.127C275.924 254.893 277.171 254.627 278.184 254.35C279.141 254.088 280.057 253.774 280.694 253.386C280.866 253.281 281.075 253.137 281.273 252.946C281.457 252.768 281.743 252.441 281.897 251.954C282.077 251.388 282.025 250.758 281.711 250.211C281.441 249.739 281.061 249.475 280.823 249.34C280.361 249.076 279.839 248.964 279.452 248.901C279.015 248.831 278.502 248.788 277.927 248.767L277.782 252.765C278.262 252.782 278.598 252.815 278.815 252.85C279.082 252.893 279.021 252.917 278.84 252.814C278.743 252.758 278.459 252.581 278.241 252.201C277.98 251.745 277.937 251.212 278.084 250.747C278.206 250.361 278.419 250.141 278.49 250.072C278.575 249.99 278.631 249.959 278.612 249.97C278.487 250.047 278.035 250.244 277.13 250.491C276.28 250.723 275.172 250.963 273.853 251.181C268.544 252.059 260.268 252.522 252.584 251.041L251.827 254.968ZM228.12 234C227.597 234 226.911 234.203 226.434 234.834C226.032 235.365 225.997 235.922 226 236.181C226.006 236.694 226.183 237.147 226.284 237.386C226.528 237.961 226.943 238.649 227.452 239.373C228.492 240.855 230.145 242.799 232.334 244.819C236.706 248.852 243.379 253.339 251.827 254.968L252.584 251.041C245.08 249.593 239.056 245.578 235.047 241.879C233.045 240.032 231.586 238.301 230.726 237.075C230.283 236.445 230.051 236.022 229.967 235.823C229.904 235.675 229.996 235.826 230 236.134C230.002 236.29 229.986 236.768 229.624 237.247C229.187 237.824 228.562 238 228.12 238L228.12 234Z" fill="#A0A2AC" fill-opacity="0.6" mask="url(#path-13-outside-1_272_7839)"/>
<path fill-rule="evenodd" clip-rule="evenodd" d="M14.835 227.25C19.3209 227.388 25.9368 226.985 34.4504 226.466C53.8982 225.281 83.2478 223.493 119.727 226.172C159.943 229.126 176.197 241.605 191.137 253.075C205.361 263.995 218.394 274 249.781 274C309.979 268.912 437.989 257.65 468.448 253.309C495.9 249.395 493.748 244.424 480.686 243.226C478.794 245.001 475.111 246.644 470.448 247.309C439.99 251.65 311.979 262.912 251.781 268C220.394 268 207.361 257.995 193.137 247.075C178.197 235.605 161.943 223.126 121.727 220.172C86.2039 217.563 54.8335 221.989 33.7161 224.969L33.7161 224.969C25.9244 226.068 19.5285 226.971 14.835 227.25ZM228.5 235C230.877 235 233.522 234.422 236.37 233.799C241.739 232.625 247.829 231.293 254.206 233.384C260.316 235.387 264.407 239.475 268.03 243.096C271.464 246.528 274.477 249.539 278.392 249.957C276.807 249.856 274.639 249.697 272.1 249.462C269.896 248.557 267.765 247.265 265.427 245.848C261.844 243.676 257.775 241.21 252.206 239.384C242.826 236.309 235.565 236.019 228.924 236.001C228.258 235.376 228.089 235 228.5 235ZM278.392 249.957C278.706 249.977 278.998 249.994 279.265 250.01L279 250C278.795 249.993 278.592 249.978 278.392 249.957Z" fill="#9A9DA7" fill-opacity="0.6"/>
<path fill-rule="evenodd" clip-rule="evenodd" d="M260.9 220.406C190.764 187.925 44.2551 202.089 10.8992 220.406C6.78414 224.457 7.1366 226.309 11.4042 226.972C11.872 226.47 12.3703 225.949 12.8996 225.406C39.4751 198.169 192.764 192.925 262.9 225.406C313.439 248.811 456.621 248.099 476.5 245.5C485.937 244.266 489.567 245.36 489.69 247.347C492.263 243.956 478.461 241.621 461.709 243.811C441.83 246.41 311.439 243.811 260.9 220.406ZM230.134 239.597C232.904 244.682 242.044 255.659 254.206 258.004C269.237 260.903 285.01 252.837 279.715 251.639C277.616 253.029 264.283 255.334 252.206 253.005C241.466 250.933 233.678 243.944 230.134 239.597Z" fill="#FDFDFF" fill-opacity="0.6"/>
<path d="M194.5 249.731C194.5 257.739 183.5 267.178 170.5 270.217C161.358 272.354 135 269.186 135 261.178C135 253.169 150.5 245.624 164 243.177C177.5 240.731 194.5 241.723 194.5 249.731Z" fill="#D6DAE5" fill-opacity="0.8"/>
<path d="M170.728 271.191C177.38 269.635 183.525 266.444 188.025 262.597C192.487 258.782 195.5 254.168 195.5 249.731C195.5 247.304 194.185 245.46 192.18 244.148C190.207 242.856 187.502 242.028 184.469 241.546C178.39 240.58 170.646 240.957 163.822 242.193C156.977 243.434 149.615 245.966 143.94 249.225C141.103 250.853 138.645 252.687 136.885 254.666C135.129 256.642 134 258.842 134 261.178C134 263.781 136.125 265.734 138.792 267.152C141.529 268.608 145.218 269.711 149.128 270.483C156.925 272.022 165.96 272.305 170.728 271.191Z" stroke="#A0A2AC" stroke-opacity="0.6" stroke-width="2"/>
<path fill-rule="evenodd" clip-rule="evenodd" d="M194.149 247.851C190.83 254.394 181.791 260.811 171.5 263.217C163.262 265.143 139.828 267.894 135.272 262.561C138.087 269.545 161.903 272.227 170.5 270.217C183.5 267.178 194.5 257.739 194.5 249.731C194.5 249.055 194.379 248.429 194.149 247.851Z" fill="#9A9DA7" fill-opacity="0.6"/>
</svg>
